<svg width="785" height="210" viewBox="0 0 785 210" fill="none" xmlns="http://www.w3.org/2000/svg">
<circle cx="617.5" cy="59.5" r="34.5" stroke="black" stroke-width="2" stroke-dasharray="7 7"/>
<circle cx="749.5" cy="174.5" r="34.5" stroke="black" stroke-width="2" stroke-dasharray="7 7"/>
<path d="M308 172L302.614 161.786L296.461 171.557L308 172ZM268 108C268 134.356 278.633 153.43 299.814 168.026L300.949 166.379C280.288 152.141 270 133.672 270 108H268Z" fill="black"/>
<path d="M185 26V66" stroke="#020202" stroke-dasharray="2 2"/>
<path d="M26 26H166" stroke="black" stroke-dasharray="2 2"/>
<path d="M26 168L26 26" stroke="black" stroke-dasharray="2 2"/>
<path d="M168 168V25" stroke="black" stroke-dasharray="2 2"/>
<path d="M4.93 107.433H12.61L12.7 105.858H13V110.433H12.7L12.61 108.783H5.47L5.62 110.358H5.305L4.93 107.433ZM15.37 99.3446V100.665H12.49V105.315H11.71L5.02 100.56V99.3446H11.32V97.4396L12.49 97.5296V99.3446H15.37ZM11.32 104.64V100.665H5.755L11.32 104.64ZM7.09 92.4168C6.55 92.4168 6.135 92.5168 5.845 92.7168C5.695 92.8368 5.575 92.9968 5.485 93.1968C5.405 93.4168 5.365 93.6818 5.365 93.9918C5.365 94.8918 5.655 95.6618 6.235 96.3018L5.995 96.4668C5.315 95.6568 4.975 94.7168 4.975 93.6468C4.975 92.8968 5.14 92.2718 5.47 91.7718C5.79 91.2618 6.305 91.0068 7.015 91.0068C7.475 91.0068 7.96 91.1868 8.47 91.5468C8.98 91.8968 9.45 92.3468 9.88 92.8968C10.31 93.4368 10.69 93.9768 11.02 94.5168C11.35 95.0568 11.62 95.5668 11.83 96.0468V90.4968H13L13 96.7968H12.22C11.96 96.4968 11.595 96.0368 11.125 95.4168C9.615 93.4168 8.27 92.4168 7.09 92.4168ZM5.905 88.6137L5.845 89.9037H5.575L5.23 87.2637H6.28C5.94 87.0137 5.67 86.6787 5.47 86.2587C5.26 85.8387 5.155 85.4137 5.155 84.9837C5.155 84.4537 5.27 83.9937 5.5 83.6037C5.73 83.2137 6.045 82.9187 6.445 82.7187C6.835 82.5087 7.25 82.3587 7.69 82.2687C8.12 82.1687 8.58 82.1187 9.07 82.1187C10.27 82.1187 11.25 82.4237 12.01 83.0337C12.77 83.6337 13.15 84.5037 13.15 85.6437C13.15 86.1637 13.04 86.6937 12.82 87.2337H16.39L16.51 85.5837H16.75V89.6637H16.51L16.405 88.6137H5.905ZM12.865 85.8087C12.865 85.1687 12.72 84.6937 12.43 84.3837C12.13 84.0737 11.665 83.8537 11.035 83.7237C10.595 83.6237 9.985 83.5737 9.205 83.5737C7.855 83.5737 6.915 83.7137 6.385 83.9937C5.855 84.2637 5.59 84.7587 5.59 85.4787C5.59 86.0987 5.915 86.6837 6.565 87.2337H12.49C12.64 86.9537 12.735 86.7037 12.775 86.4837C12.835 86.2637 12.865 86.0387 12.865 85.8087ZM5.65 79.2863L8.215 77.6513L6.085 76.2113L5.575 77.4263H5.335L5.335 74.6213H5.575L6.085 75.8063L8.47 77.4863L12.685 74.7563L12.76 74.0513H13V77.4113H12.76L12.685 76.3913L9.67 78.3263L12.265 80.1113L12.76 78.7763H13V81.6863H12.76L12.265 80.5163L9.43 78.4913L5.65 80.9063L5.575 81.6263H5.335V78.4913H5.575L5.65 79.2863Z" fill="black"/>
<path d="M79.4899 4.93V12.61L81.0649 12.7V13H76.4899V12.7L78.1399 12.61V5.47L76.5649 5.62V5.305L79.4899 4.93ZM87.5788 15.37H86.2588V12.49H81.6088V11.71L86.3638 5.02H87.5788V11.32H89.4838L89.3938 12.49H87.5788V15.37ZM82.2838 11.32H86.2588V5.755L82.2838 11.32ZM97.2965 12.025C96.5465 12.775 95.5615 13.15 94.3415 13.15C93.1215 13.15 92.1415 12.79 91.4015 12.07C90.6615 11.35 90.2915 10.395 90.2915 9.205C90.2915 7.985 90.6715 6.975 91.4315 6.175C92.2015 5.375 93.1865 4.975 94.3865 4.975C95.5965 4.975 96.5715 5.35 97.3115 6.1C98.0615 6.85 98.4365 7.82 98.4365 9.01C98.4365 10.26 98.0565 11.265 97.2965 12.025ZM94.3715 12.82C94.8815 12.82 95.3165 12.715 95.6765 12.505C96.0365 12.285 96.3065 11.99 96.4865 11.62C96.6665 11.24 96.7965 10.85 96.8765 10.45C96.9565 10.04 96.9965 9.59 96.9965 9.1C96.9965 7.87 96.8115 6.945 96.4415 6.325C96.2215 6.005 95.9515 5.755 95.6315 5.575C95.2715 5.405 94.8515 5.32 94.3715 5.32C92.6015 5.32 91.7165 6.565 91.7165 9.055C91.7165 9.535 91.7565 9.985 91.8365 10.405C91.9165 10.815 92.0515 11.21 92.2415 11.59C92.4315 11.97 92.7065 12.27 93.0665 12.49C93.4365 12.71 93.8715 12.82 94.3715 12.82ZM100.463 5.905L99.1729 5.845V5.575L101.813 5.23V6.28C102.063 5.94 102.398 5.67 102.818 5.47C103.238 5.26 103.663 5.155 104.093 5.155C104.623 5.155 105.083 5.27 105.473 5.5C105.863 5.73 106.158 6.045 106.358 6.445C106.568 6.835 106.718 7.25 106.808 7.69C106.908 8.12 106.958 8.58 106.958 9.07C106.958 10.27 106.653 11.25 106.043 12.01C105.443 12.77 104.573 13.15 103.433 13.15C102.913 13.15 102.383 13.04 101.843 12.82V16.39L103.493 16.51V16.75H99.4129V16.51L100.463 16.405V5.905ZM103.268 12.865C103.908 12.865 104.383 12.72 104.693 12.43C105.003 12.13 105.223 11.665 105.353 11.035C105.453 10.595 105.503 9.985 105.503 9.205C105.503 7.855 105.363 6.915 105.083 6.385C104.813 5.855 104.318 5.59 103.598 5.59C102.978 5.59 102.393 5.915 101.843 6.565V12.49C102.123 12.64 102.373 12.735 102.593 12.775C102.813 12.835 103.038 12.865 103.268 12.865ZM109.79 5.65L111.425 8.215L112.865 6.085L111.65 5.575V5.335H114.455V5.575L113.27 6.085L111.59 8.47L114.32 12.685L115.025 12.76V13H111.665V12.76L112.685 12.685L110.75 9.67L108.965 12.265L110.3 12.76V13H107.39V12.76L108.56 12.265L110.585 9.43L108.17 5.65L107.45 5.575V5.335H110.585V5.575L109.79 5.65Z" fill="black"/>
<path d="M197.347 51.37H196.027V48.49H191.377V47.71L196.132 41.02H197.347V47.32H199.252L199.162 48.49H197.347V51.37ZM192.052 47.32H196.027V41.755L192.052 47.32ZM207.065 48.025C206.315 48.775 205.33 49.15 204.11 49.15C202.89 49.15 201.91 48.79 201.17 48.07C200.43 47.35 200.06 46.395 200.06 45.205C200.06 43.985 200.44 42.975 201.2 42.175C201.97 41.375 202.955 40.975 204.155 40.975C205.365 40.975 206.34 41.35 207.08 42.1C207.83 42.85 208.205 43.82 208.205 45.01C208.205 46.26 207.825 47.265 207.065 48.025ZM204.14 48.82C204.65 48.82 205.085 48.715 205.445 48.505C205.805 48.285 206.075 47.99 206.255 47.62C206.435 47.24 206.565 46.85 206.645 46.45C206.725 46.04 206.765 45.59 206.765 45.1C206.765 43.87 206.58 42.945 206.21 42.325C205.99 42.005 205.72 41.755 205.4 41.575C205.04 41.405 204.62 41.32 204.14 41.32C202.37 41.32 201.485 42.565 201.485 45.055C201.485 45.535 201.525 45.985 201.605 46.405C201.685 46.815 201.82 47.21 202.01 47.59C202.2 47.97 202.475 48.27 202.835 48.49C203.205 48.71 203.64 48.82 204.14 48.82ZM210.231 41.905L208.941 41.845V41.575L211.581 41.23V42.28C211.831 41.94 212.166 41.67 212.586 41.47C213.006 41.26 213.431 41.155 213.861 41.155C214.391 41.155 214.851 41.27 215.241 41.5C215.631 41.73 215.926 42.045 216.126 42.445C216.336 42.835 216.486 43.25 216.576 43.69C216.676 44.12 216.726 44.58 216.726 45.07C216.726 46.27 216.421 47.25 215.811 48.01C215.211 48.77 214.341 49.15 213.201 49.15C212.681 49.15 212.151 49.04 211.611 48.82V52.39L213.261 52.51V52.75H209.181V52.51L210.231 52.405V41.905ZM213.036 48.865C213.676 48.865 214.151 48.72 214.461 48.43C214.771 48.13 214.991 47.665 215.121 47.035C215.221 46.595 215.271 45.985 215.271 45.205C215.271 43.855 215.131 42.915 214.851 42.385C214.581 41.855 214.086 41.59 213.366 41.59C212.746 41.59 212.161 41.915 211.611 42.565V48.49C211.891 48.64 212.141 48.735 212.361 48.775C212.581 48.835 212.806 48.865 213.036 48.865ZM219.558 41.65L221.193 44.215L222.633 42.085L221.418 41.575V41.335H224.223V41.575L223.038 42.085L221.358 44.47L224.088 48.685L224.793 48.76V49H221.433V48.76L222.453 48.685L220.518 45.67L218.733 48.265L220.068 48.76V49H217.158V48.76L218.328 48.265L220.353 45.43L217.938 41.65L217.218 41.575V41.335H220.353V41.575L219.558 41.65Z" fill="black"/>
</svg>
