<svg width="801" height="122" viewBox="0 0 801 122" fill="none" xmlns="http://www.w3.org/2000/svg">
<g clip-path="url(#clip0_140:3094)">
<path d="M400.792 111.587C414.781 96.0579 428.722 65.6354 400.792 27.959C387.093 41.5397 367.915 77.2788 400.792 111.587Z" stroke="black" stroke-width="3"/>
<path d="M435.167 78.4603L435.334 77.5218L435.167 78.4603ZM433.48 96.3504L432.554 96.1128L432.077 97.9587L433.003 98.1963L433.48 96.3504ZM400.548 114.194C405.512 114.194 409.302 111.649 412.376 108.063C415.432 104.5 417.868 99.8058 420.132 95.3121C422.424 90.7619 424.527 86.4443 426.945 83.4C429.346 80.3792 431.866 78.8441 435 79.3988L435.334 77.5218C431.189 76.7885 428.036 78.9572 425.447 82.2162C422.876 85.4524 420.674 89.9905 418.423 94.4569C416.145 98.9804 413.804 103.465 410.923 106.825C408.061 110.162 404.757 112.287 400.548 112.287V114.194ZM435 79.3988C441.473 80.5438 444.487 85.7714 444.195 90.1958C444.049 92.4038 443.087 94.3571 441.381 95.5498C439.681 96.7374 437.092 97.2775 433.48 96.3504L433.003 98.1963C437.005 99.2238 440.208 98.6983 442.478 97.1104C444.741 95.5288 445.926 92.9967 446.103 90.3216C446.456 84.9796 442.819 78.8453 435.334 77.5218L435 79.3988Z" fill="black"/>
<path d="M434.801 61.2216L434.968 62.1601L434.801 61.2216ZM433.113 43.3316L432.188 43.5693L431.711 41.7232L432.637 41.4856L433.113 43.3316ZM400.182 25.4883C405.146 25.4883 408.935 28.0327 412.01 31.6186C415.065 35.1823 417.502 39.876 419.766 44.3694C422.058 48.92 424.16 53.2378 426.579 56.2817C428.979 59.3027 431.5 60.8375 434.634 60.2832L434.968 62.1601C430.822 62.8932 427.67 60.7245 425.08 57.4655C422.51 54.2296 420.307 49.6914 418.057 45.225C415.779 40.7016 413.437 36.2172 410.556 32.8573C407.695 29.5196 404.391 27.3945 400.182 27.3945V25.4883ZM434.634 60.2832C441.107 59.1382 444.121 53.9107 443.829 49.4858C443.683 47.2781 442.721 45.325 441.014 44.132C439.315 42.9442 436.726 42.4043 433.113 43.3316L432.637 41.4856C436.639 40.4581 439.841 40.9837 442.112 42.5711C444.375 44.1533 445.56 46.6849 445.737 49.3605C446.09 54.7024 442.452 60.8363 434.968 62.1601L434.634 60.2832Z" fill="black"/>
<path d="M365.963 61.2216L365.796 62.1601L365.963 61.2216ZM367.65 43.3316L368.576 43.5693L369.053 41.7232L368.127 41.4856L367.65 43.3316ZM400.582 25.4883C395.618 25.4883 391.829 28.0327 388.754 31.6186C385.699 35.1823 383.262 39.876 380.998 44.3694C378.706 48.92 376.604 53.2378 374.185 56.2817C371.785 59.3027 369.264 60.8375 366.13 60.2832L365.796 62.1601C369.942 62.8932 373.094 60.7245 375.684 57.4655C378.254 54.2296 380.457 49.6914 382.707 45.225C384.985 40.7016 387.327 36.2172 390.208 32.8573C393.069 29.5196 396.373 27.3945 400.582 27.3945V25.4883ZM366.13 60.2832C359.657 59.1382 356.643 53.9107 356.935 49.4858C357.081 47.2781 358.043 45.325 359.749 44.132C361.449 42.9442 364.038 42.4043 367.65 43.3316L368.127 41.4856C364.125 40.4581 360.923 40.9837 358.652 42.5711C356.389 44.1533 355.204 46.6849 355.027 49.3605C354.674 54.7024 358.312 60.8363 365.796 62.1601L366.13 60.2832Z" fill="black"/>
<path d="M365.325 78.4465L365.158 77.508L365.325 78.4465ZM367.013 96.3366L367.938 96.099L368.414 97.9449L367.489 98.1825L367.013 96.3366ZM400.547 114.194C395.565 114.194 391.728 111.653 388.594 108.069C385.478 104.506 382.967 99.8124 380.634 95.3161C378.272 90.7647 376.103 86.4432 373.635 83.3957C371.183 80.3692 368.629 78.8303 365.492 79.385L365.158 77.508C369.301 76.7753 372.484 78.9421 375.122 82.198C377.742 85.4335 380.013 89.9717 382.332 94.4405C384.68 98.9647 387.093 103.453 390.034 106.816C392.957 110.159 396.312 112.288 400.547 112.288V114.194ZM365.492 79.385C359.018 80.53 356.004 85.7576 356.297 90.1826C356.443 92.3901 357.405 94.3433 359.112 95.536C360.81 96.7242 363.4 97.2637 367.013 96.3366L367.489 98.1825C363.487 99.21 360.285 98.6845 358.014 97.0972C355.751 95.515 354.566 92.9835 354.39 90.3078C354.037 84.9658 357.674 78.8315 365.158 77.508L365.492 79.385Z" fill="black"/>
<path d="M453.072 69.6207C448.693 66.4716 437.848 62.062 429.494 69.6207C433.323 72.705 443.399 77.0227 453.072 69.6207Z" stroke="black" stroke-width="3"/>
<path d="M346.017 69.6207C350.395 66.4716 361.24 62.062 369.594 69.6207C365.765 72.705 355.689 77.0227 346.017 69.6207Z" stroke="black" stroke-width="3"/>
<path d="M383.613 6.93803C383.613 16.4245 390.603 23.7813 400.311 23.7813C408.465 23.7813 415.649 18.2005 415.649 4.22763C415.649 -3.12919 402.575 4.80844 400.311 11.5844C398.498 5.45377 383.613 -5.46111 383.613 6.93803Z" stroke="black" stroke-width="3"/>
<path d="M431.087 118.505C450.416 98.0658 513.736 57.1875 612.379 57.1875C711.023 57.1875 777.741 98.0658 798.769 118.505" stroke="black" stroke-width="3"/>
<path d="M369.275 118.505C349.946 98.0658 286.626 57.1875 187.983 57.1875C89.3396 57.1875 22.6214 98.0658 1.59277 118.505" stroke="black" stroke-width="3"/>
<path d="M431.405 22.2402C450.734 42.6795 514.054 83.5579 612.698 83.5579C711.341 83.5579 778.059 42.6795 799.088 22.2402" stroke="black" stroke-width="3"/>
<path d="M368.957 22.2402C349.628 42.6795 286.308 83.5579 187.665 83.5579C89.0212 83.5579 22.3031 42.6795 1.27441 22.2402" stroke="black" stroke-width="3"/>
<path d="M757.171 71.2181C764.238 65.1689 782.494 56.7493 798.992 71.4628C791.862 78.1639 773.51 87.4969 757.171 71.2181Z" stroke="black" stroke-width="3"/>
<path d="M52.0502 70.2181C44.9852 64.1689 26.7311 55.7493 10.2334 70.4628C17.3655 77.1639 35.7137 86.4969 52.0502 70.2181Z" stroke="black" stroke-width="3"/>
<path d="M406.992 85.1H400.592V76.75H385.742V73.25L401.292 50.9H406.992V71.55H412.892L412.442 76.75H406.992V85.1ZM388.542 71.55H400.742V54.05L388.542 71.55Z" fill="black"/>
</g>
<defs>
<clipPath id="clip0_140:3094">
<rect width="801" height="122" fill="white"/>
</clipPath>
</defs>
</svg>
