<svg width="456" height="193" viewBox="0 0 456 193" fill="none" xmlns="http://www.w3.org/2000/svg">
<path d="M136.156 23.3862C153.835 23.3862 168.012 28.676 178.686 39.2555C189.471 49.835 194.864 63.7557 194.864 81.0169C194.864 99.9486 189.583 115.15 179.019 126.62C168.457 137.979 154.002 143.659 135.655 143.659C117.532 143.659 103.244 138.314 92.792 127.623C82.3402 116.82 77.1143 102.51 77.1143 84.6919C77.1143 66.8736 82.5625 52.2295 93.4591 40.759C104.467 29.1772 118.699 23.3862 136.156 23.3862ZM136.823 139.984C162.841 139.984 175.85 120.495 175.85 81.518C175.85 45.3247 162.341 27.2283 135.322 27.2283C129.095 27.2283 123.591 28.3419 118.81 30.5692C114.029 32.7964 110.193 35.6919 107.302 39.2555C104.523 42.819 102.188 47.1067 100.297 52.118C98.5183 57.1294 97.2952 62.1408 96.628 67.1521C96.0721 72.052 95.7941 77.3419 95.7941 83.0215C95.7941 90.483 96.4612 97.4429 97.7955 103.902C99.1298 110.25 101.242 116.264 104.133 121.943C107.135 127.511 111.416 131.91 116.976 135.14C122.535 138.369 129.151 139.984 136.823 139.984Z" fill="black"/>
<path d="M120.554 50.5522C123.427 50.5522 125.731 51.4117 127.465 53.131C129.218 54.8503 130.094 57.1121 130.094 59.9172C130.094 62.9938 129.236 65.464 127.519 67.3278C125.803 69.1736 123.454 70.0966 120.473 70.0966C117.528 70.0966 115.206 69.2279 113.508 67.4907C111.809 65.7354 110.96 63.4097 110.96 60.5144C110.96 57.6191 111.845 55.2391 113.616 53.3753C115.405 51.4931 117.717 50.5522 120.554 50.5522ZM120.662 69.4994C124.89 69.4994 127.004 66.3326 127.004 59.9987C127.004 54.1174 124.809 51.1766 120.419 51.1766C119.407 51.1766 118.513 51.3574 117.736 51.7195C116.959 52.0815 116.335 52.5518 115.866 53.131C115.414 53.7102 115.034 54.4068 114.727 55.2212C114.438 56.0355 114.239 56.8499 114.131 57.6642C114.041 58.4606 113.995 59.32 113.995 60.243C113.995 61.4553 114.104 62.5866 114.321 63.6361C114.537 64.6676 114.881 65.6448 115.351 66.5677C115.838 67.4727 116.534 68.1872 117.437 68.7122C118.341 69.2371 119.416 69.4994 120.662 69.4994Z" fill="black"/>
<path d="M134.871 70.8232C137.076 70.8232 139.199 71.1398 141.24 71.7733C143.3 72.4248 145.152 73.4379 146.796 74.8135V77.0666C145.098 75.7995 143.228 74.8407 141.186 74.1892C139.144 73.5557 137.049 73.2391 134.898 73.2391C132.802 73.2391 130.743 73.5557 128.719 74.1892C126.714 74.8407 124.861 75.7907 123.163 77.0394V74.8135C124.753 73.4379 126.551 72.4248 128.556 71.7733C130.58 71.1398 132.685 70.8232 134.871 70.8232Z" fill="black"/>
<path d="M152.588 50.5522C155.461 50.5522 157.765 51.4117 159.5 53.131C161.252 54.8503 162.128 57.1121 162.128 59.9172C162.128 62.9938 161.27 65.464 159.554 67.3278C157.837 69.1736 155.488 70.0966 152.507 70.0966C149.562 70.0966 147.24 69.2279 145.542 67.4907C143.843 65.7354 142.994 63.4097 142.994 60.5144C142.994 57.6191 143.879 55.2391 145.65 53.3753C147.439 51.4931 149.752 50.5522 152.588 50.5522ZM152.697 69.4994C156.925 69.4994 159.039 66.3326 159.039 59.9987C159.039 54.1174 156.844 51.1766 152.453 51.1766C151.441 51.1766 150.547 51.3574 149.77 51.7195C148.993 52.0815 148.37 52.5518 147.9 53.131C147.448 53.7102 147.069 54.4068 146.761 55.2212C146.472 56.0355 146.274 56.8499 146.165 57.6642C146.075 58.4606 146.03 59.32 146.03 60.243C146.03 61.4553 146.138 62.5866 146.355 63.6361C146.572 64.6676 146.915 65.6448 147.385 66.5677C147.873 67.4727 148.568 68.1872 149.472 68.7122C150.375 69.2371 151.45 69.4994 152.697 69.4994Z" fill="black"/>
<path d="M27.5292 102.393V126.254H34.3772C35.3045 126.04 36.3032 125.576 37.3732 124.863C38.1579 124.292 38.9069 123.508 39.6202 122.509C40.9755 120.226 42.1525 116.553 43.1512 111.488C43.2939 110.917 43.4722 110.061 43.6862 108.92C43.9715 107.707 44.1855 106.851 44.3282 106.352C44.8275 103.855 45.7192 102.072 47.0032 101.002C48.3585 99.8607 50.2845 99.29 52.7812 99.29C55.5632 99.29 58.0955 99.5397 60.3782 100.039C60.5922 100.396 60.7705 101.073 60.9132 102.072C60.9845 102.785 61.0202 103.962 61.0202 105.603C61.0202 110.168 60.7349 112.95 60.1642 113.949C57.0255 113.664 54.7072 113.521 53.2092 113.521C51.3545 113.521 50.1062 113.557 49.4642 113.628C48.6795 113.699 47.7879 113.949 46.7892 114.377C45.3625 115.162 44.2569 116.838 43.4722 119.406C42.6162 122.331 41.0469 124.613 38.7642 126.254L38.8712 126.789C40.1552 126.932 41.7245 127.217 43.5792 127.645C48.7865 129.143 52.4245 132.139 54.4932 136.633L59.2012 146.263C59.4865 146.834 59.7362 147.369 59.9502 147.868C60.2355 148.367 60.5209 148.902 60.8062 149.473C61.0915 149.972 61.2699 150.329 61.3412 150.543C61.8405 151.613 62.3399 152.433 62.8392 153.004C63.2672 153.646 63.6595 154.038 64.0162 154.181C64.3729 154.395 64.6582 154.502 64.8722 154.502H65.4072L65.6212 156.214C64.6939 156.499 63.8379 156.678 63.0532 156.749C61.0559 157.106 58.7375 157.284 56.0982 157.284C53.8155 157.284 51.8182 157.07 50.1062 156.642C46.3969 155.501 43.6862 153.575 41.9742 150.864C39.5489 147.725 37.0165 142.09 34.3772 133.958C33.8779 132.745 33.2715 130.926 32.5582 128.501C32.2729 128.572 31.8805 128.608 31.3812 128.608H27.5292V153.753L32.8792 154.181V156H2.27721V154.181L9.66021 153.753V102.393L2.27721 101.965V100.146H33.9492V101.965L27.5292 102.393Z" fill="black"/>
<path d="M251.42 159H234.639L238.519 134.362H219.119L215.239 159H206.218L213.59 112.052L206.509 111.664L206.703 110.015L223.193 108.657L219.41 132.325H238.907L242.593 109.336H251.517L244.048 156.672L251.614 157.254L251.42 159Z" fill="black"/>
<path d="M296.548 99.408V137.168H323.452C323.452 136.067 323.491 135.123 323.57 134.336C323.57 132.763 323.609 131.543 323.688 130.678V127.138V124.07V119.232C323.688 118.76 323.648 118.131 323.57 117.344C323.57 116.479 323.53 115.849 323.452 115.456C325.576 115.063 328.132 114.866 331.122 114.866C333.482 114.866 335.448 115.063 337.022 115.456C337.1 116.007 337.14 116.911 337.14 118.17V121.474V126.548C337.061 127.728 337.022 129.498 337.022 131.858C336.943 133.038 336.904 134.651 336.904 136.696C336.904 137.168 336.864 137.837 336.786 138.702C336.786 139.567 336.746 140.197 336.668 140.59C335.33 140.197 333.246 140 330.414 140H269.998V137.758L279.91 137.168V60.232L269.998 59.642V57.4H328.88C330.61 57.4 332.341 57.2033 334.072 56.81C334.308 60.114 334.426 65.0307 334.426 71.56V76.162C334.426 78.05 334.386 79.348 334.308 80.056C332.734 80.4493 330.768 80.646 328.408 80.646C325.261 80.646 322.704 80.4493 320.738 80.056C320.816 79.584 320.856 78.7973 320.856 77.696C320.934 76.5947 320.974 75.7687 320.974 75.218V69.318V64.716V62.002C320.895 61.4513 320.856 60.8613 320.856 60.232H296.548V96.34H309.646L315.428 84.658H317.67V112.152H315.428L309.528 99.408H296.548Z" fill="black"/>
<path d="M443.666 153.7C443.732 152.7 443.766 151.133 443.766 149V144.2V140.1C443.766 139.633 443.732 138.933 443.666 138C443.666 137.133 443.632 136.467 443.566 136H379.966V134.2L388.666 133.6V68.4L379.966 67.8V66H406.766V67.8L398.166 68.4V133.9H432.766V68.4L424.066 67.8V66H450.866V67.8L442.266 68.4V133.9H449.966C451.432 133.9 452.799 133.767 454.066 133.5V137.7C453.999 139.033 453.899 140.867 453.766 143.2C453.766 143.867 453.732 144.833 453.666 146.1C453.666 147.433 453.632 148.433 453.566 149.1C453.432 151.167 453.332 152.7 453.266 153.7C452.332 154.1 450.832 154.3 448.766 154.3C446.632 154.3 444.932 154.1 443.666 153.7Z" fill="black"/>
</svg>
