<svg width="120" height="95" viewBox="0 0 120 95" fill="none" xmlns="http://www.w3.org/2000/svg">
<path d="M23.8032 36.8125C18.2622 36.8125 13.7704 41.3316 13.7704 46.9063C13.7704 52.4809 18.2622 57 23.8032 57C29.3441 57 33.8359 52.4809 33.8359 46.9063C33.8359 41.3316 29.3441 36.8125 23.8032 36.8125Z" fill="black"/>
<path d="M84.7866 38C79.2456 38 74.7538 42.5191 74.7538 48.0937C74.7538 53.6684 79.2456 58.1875 84.7866 58.1875C90.3275 58.1875 94.8193 53.6684 94.8193 48.0937C94.8193 42.5191 90.3275 38 84.7866 38Z" fill="black"/>
<path d="M89.0757 83.9166C80.8921 83.9166 74.2559 81.3833 69.1675 76.3166C64.0264 71.25 61.4561 64.6791 61.4561 56.6041C61.4561 47.6848 63.9477 40.5068 68.9315 35.0708C73.9152 29.6348 80.7084 26.9166 89.3118 26.9166C97.7578 26.9166 104.446 29.4765 109.377 34.5958C114.308 39.7682 116.774 46.5235 116.774 54.8625C116.774 63.2541 114.204 70.1944 109.063 75.6833C103.869 81.1722 97.207 83.9166 89.0757 83.9166ZM88.761 28.6583C76.1185 28.6583 69.797 37.8943 69.797 56.3666C69.797 73.5722 76.3545 82.175 89.4692 82.175C92.407 82.175 95.0297 81.6472 97.338 80.5916C99.5936 79.5361 101.43 78.1639 102.846 76.475C104.21 74.7861 105.338 72.7541 106.23 70.3791C107.122 68.0041 107.751 65.6291 108.118 63.2541C108.433 60.8791 108.59 58.3458 108.59 55.6541C108.59 52.8041 108.407 50.1125 108.04 47.5791C107.62 45.0985 106.938 42.6708 105.994 40.2958C105.05 37.9735 103.843 35.9682 102.374 34.2791C100.905 32.5901 99.0169 31.2182 96.7085 30.1625C94.3479 29.1598 91.6988 28.6583 88.761 28.6583Z" fill="black"/>
<path d="M28.4849 83.9166C20.3013 83.9166 13.6652 81.3833 8.57671 76.3166C3.43572 71.25 0.865234 64.6791 0.865234 56.6041C0.865234 47.6848 3.35704 40.5068 8.34064 35.0708C13.3243 29.6348 20.1177 26.9166 28.721 26.9166C37.1669 26.9166 43.8555 29.4765 48.7865 34.5958C53.7176 39.7682 56.1833 46.5235 56.1833 54.8625C56.1833 63.2541 53.6129 70.1944 48.4718 75.6833C43.2783 81.1722 36.6161 83.9166 28.4849 83.9166ZM28.1702 28.6583C15.5275 28.6583 9.20622 37.8943 9.20622 56.3666C9.20622 73.5722 15.7636 82.175 28.8783 82.175C31.8161 82.175 34.439 81.6472 36.7472 80.5916C39.0029 79.5361 40.839 78.1639 42.2554 76.475C43.6195 74.7861 44.7471 72.7541 45.639 70.3791C46.5309 68.0041 47.1604 65.6291 47.5275 63.2541C47.8423 60.8791 47.9997 58.3458 47.9997 55.6541C47.9997 52.8041 47.8159 50.1125 47.4488 47.5791C47.029 45.0985 46.3472 42.6708 45.4029 40.2958C44.4587 37.9735 43.252 35.9682 41.7833 34.2791C40.3145 32.5901 38.4259 31.2182 36.1177 30.1625C33.757 29.1598 31.1079 28.6583 28.1702 28.6583Z" fill="black"/>
</svg>
