<svg width="120" height="95" viewBox="0 0 120 95" fill="none" xmlns="http://www.w3.org/2000/svg">
<path d="M96.1968 58.1875C101.738 58.1875 106.23 53.6684 106.23 48.0937C106.23 42.5191 101.738 38 96.1968 38C90.6559 38 86.1641 42.5191 86.1641 48.0937C86.1641 53.6684 90.6559 58.1875 96.1968 58.1875Z" fill="black"/>
<path d="M35.2134 57C40.7544 57 45.2462 52.4809 45.2462 46.9063C45.2462 41.3316 40.7544 36.8125 35.2134 36.8125C29.6725 36.8125 25.1807 41.3316 25.1807 46.9063C25.1807 52.4809 29.6725 57 35.2134 57Z" fill="black"/>
<path d="M30.9243 11.0834C39.1079 11.0834 45.7441 13.6167 50.8325 18.6834C55.9736 23.75 58.5439 30.3209 58.5439 38.3959C58.5439 47.3152 56.0523 54.4932 51.0685 59.9292C46.0848 65.3652 39.2916 68.0834 30.6882 68.0834C22.2422 68.0834 15.5536 65.5235 10.6226 60.4042C5.69161 55.2318 3.22591 48.4765 3.22591 40.1375C3.22591 31.7459 5.79626 24.8056 10.9374 19.3167C16.1308 13.8278 22.793 11.0834 30.9243 11.0834ZM31.239 66.3417C43.8815 66.3417 50.203 57.1057 50.203 38.6334C50.203 21.4278 43.6455 12.825 30.5308 12.825C27.593 12.825 24.9703 13.3528 22.662 14.4084C20.4064 15.4639 18.5702 16.8361 17.1538 18.525C15.7897 20.2139 14.6621 22.2459 13.7702 24.6209C12.8782 26.9959 12.2487 29.3709 11.8816 31.7459C11.5669 34.1209 11.4095 36.6542 11.4095 39.3459C11.4095 42.1959 11.5932 44.8875 11.9603 47.4209C12.3801 49.9015 13.062 52.3292 14.0062 54.7042C14.9505 57.0265 16.1572 59.0318 17.6259 60.7209C19.0946 62.4099 20.9831 63.7818 23.2915 64.8375C25.6521 65.8402 28.3012 66.3417 31.239 66.3417Z" fill="black"/>
<path d="M91.5151 11.0834C99.6987 11.0834 106.335 13.6167 111.423 18.6834C116.564 23.75 119.135 30.3209 119.135 38.3959C119.135 47.3152 116.643 54.4932 111.659 59.9292C106.676 65.3652 99.8823 68.0834 91.279 68.0834C82.8331 68.0834 76.1445 65.5235 71.2135 60.4042C66.2824 55.2318 63.8167 48.4765 63.8167 40.1375C63.8167 31.7459 66.3871 24.8056 71.5282 19.3167C76.7217 13.8278 83.3839 11.0834 91.5151 11.0834ZM91.8298 66.3417C104.472 66.3417 110.794 57.1057 110.794 38.6334C110.794 21.4278 104.236 12.825 91.1217 12.825C88.1839 12.825 85.561 13.3528 83.2528 14.4084C80.9971 15.4639 79.161 16.8361 77.7446 18.525C76.3805 20.2139 75.2529 22.2459 74.361 24.6209C73.4691 26.9959 72.8396 29.3709 72.4725 31.7459C72.1577 34.1209 72.0003 36.6542 72.0003 39.3459C72.0003 42.1959 72.1841 44.8875 72.5512 47.4209C72.971 49.9015 73.6528 52.3292 74.5971 54.7042C75.5413 57.0265 76.748 59.0318 78.2167 60.7209C79.6855 62.4099 81.5741 63.7818 83.8823 64.8375C86.243 65.8402 88.8921 66.3417 91.8298 66.3417Z" fill="black"/>
</svg>
