<svg width="120" height="95" viewBox="0 0 120 95" fill="none" xmlns="http://www.w3.org/2000/svg">
<path d="M96.1968 36.8125C101.738 36.8125 106.23 41.3316 106.23 46.9062C106.23 52.4809 101.738 57 96.1968 57C90.6559 57 86.1641 52.4809 86.1641 46.9062C86.1641 41.3316 90.6559 36.8125 96.1968 36.8125Z" fill="black"/>
<path d="M35.2134 38C40.7544 38 45.2462 42.5191 45.2462 48.0937C45.2462 53.6684 40.7544 58.1875 35.2134 58.1875C29.6725 58.1875 25.1807 53.6684 25.1807 48.0937C25.1807 42.5191 29.6725 38 35.2134 38Z" fill="black"/>
<path d="M30.9243 83.9167C39.1079 83.9167 45.7441 81.3834 50.8325 76.3167C55.9736 71.2501 58.5439 64.6792 58.5439 56.6042C58.5439 47.6849 56.0523 40.5069 51.0685 35.0709C46.0848 29.6349 39.2916 26.9168 30.6882 26.9168C22.2422 26.9168 15.5536 29.4766 10.6226 34.5959C5.69161 39.7683 3.22591 46.5236 3.22591 54.8626C3.22591 63.2542 5.79626 70.1945 10.9374 75.6834C16.1308 81.1723 22.793 83.9167 30.9243 83.9167ZM31.239 28.6584C43.8815 28.6584 50.203 37.8944 50.203 56.3668C50.203 73.5723 43.6455 82.1751 30.5308 82.1751C27.593 82.1751 24.9703 81.6473 22.662 80.5917C20.4064 79.5362 18.5702 78.164 17.1538 76.4751C15.7897 74.7862 14.6621 72.7542 13.7702 70.3792C12.8782 68.0042 12.2487 65.6293 11.8816 63.2543C11.5669 60.8793 11.4095 58.3459 11.4095 55.6542C11.4095 52.8042 11.5932 50.1126 11.9603 47.5792C12.3801 45.0986 13.062 42.6709 14.0062 40.2959C14.9505 37.9736 16.1572 35.9683 17.6259 34.2793C19.0946 32.5902 20.9831 31.2183 23.2915 30.1626C25.6521 29.1599 28.3012 28.6584 31.239 28.6584Z" fill="black"/>
<path d="M91.5151 83.9167C99.6987 83.9167 106.335 81.3834 111.423 76.3167C116.564 71.2501 119.135 64.6792 119.135 56.6042C119.135 47.6849 116.643 40.5069 111.659 35.0709C106.676 29.6349 99.8823 26.9168 91.279 26.9168C82.8331 26.9168 76.1445 29.4766 71.2135 34.5959C66.2824 39.7683 63.8167 46.5236 63.8167 54.8626C63.8167 63.2542 66.3871 70.1945 71.5282 75.6834C76.7217 81.1723 83.3839 83.9167 91.5151 83.9167ZM91.8298 28.6584C104.472 28.6584 110.794 37.8944 110.794 56.3668C110.794 73.5723 104.236 82.1751 91.1217 82.1751C88.1839 82.1751 85.561 81.6473 83.2528 80.5917C80.9971 79.5362 79.161 78.164 77.7446 76.4751C76.3805 74.7862 75.2529 72.7542 74.361 70.3792C73.4691 68.0042 72.8396 65.6293 72.4725 63.2543C72.1577 60.8793 72.0003 58.3459 72.0003 55.6542C72.0003 52.8042 72.1841 50.1126 72.5512 47.5792C72.971 45.0986 73.6528 42.6709 74.5971 40.2959C75.5413 37.9736 76.748 35.9683 78.2167 34.2793C79.6855 32.5902 81.5741 31.2183 83.8823 30.1626C86.243 29.1599 88.8921 28.6584 91.8298 28.6584Z" fill="black"/>
</svg>
