<svg width="120" height="95" viewBox="0 0 120 95" fill="none" xmlns="http://www.w3.org/2000/svg">
<path d="M23.8032 36.8125C18.2622 36.8125 13.7704 41.3316 13.7704 46.9062C13.7704 52.4809 18.2622 57 23.8032 57C29.3441 57 33.8359 52.4809 33.8359 46.9062C33.8359 41.3316 29.3441 36.8125 23.8032 36.8125Z" fill="black"/>
<path d="M84.7866 38C79.2456 38 74.7538 42.5191 74.7538 48.0937C74.7538 53.6684 79.2456 58.1875 84.7866 58.1875C90.3275 58.1875 94.8193 53.6684 94.8193 48.0937C94.8193 42.5191 90.3275 38 84.7866 38Z" fill="black"/>
<path d="M89.0757 83.9165C80.8921 83.9165 74.2559 81.3832 69.1675 76.3165C64.0264 71.2498 61.4561 64.679 61.4561 56.604C61.4561 47.6847 63.9477 40.5067 68.9315 35.0707C73.9152 29.6347 80.7084 26.9165 89.3118 26.9165C97.7578 26.9165 104.446 29.4764 109.377 34.5957C114.308 39.768 116.774 46.5233 116.774 54.8623C116.774 63.254 114.204 70.1943 109.063 75.6832C103.869 81.1721 97.207 83.9165 89.0757 83.9165ZM88.761 28.6582C76.1185 28.6582 69.797 37.8942 69.797 56.3665C69.797 73.5721 76.3545 82.1748 89.4692 82.1748C92.407 82.1748 95.0297 81.6471 97.338 80.5915C99.5936 79.5359 101.43 78.1637 102.846 76.4748C104.21 74.7859 105.338 72.754 106.23 70.379C107.122 68.004 107.751 65.629 108.118 63.254C108.433 60.879 108.59 58.3457 108.59 55.654C108.59 52.804 108.407 50.1123 108.04 47.579C107.62 45.0983 106.938 42.6707 105.994 40.2957C105.05 37.9733 103.843 35.968 102.374 34.279C100.905 32.59 99.0169 31.218 96.7085 30.1623C94.3479 29.1597 91.6988 28.6582 88.761 28.6582Z" fill="black"/>
<path d="M28.4849 83.9165C20.3013 83.9165 13.6652 81.3832 8.57671 76.3165C3.43572 71.2498 0.865234 64.679 0.865234 56.604C0.865234 47.6847 3.35704 40.5067 8.34064 35.0707C13.3243 29.6347 20.1177 26.9165 28.721 26.9165C37.1669 26.9165 43.8555 29.4764 48.7865 34.5957C53.7176 39.768 56.1833 46.5233 56.1833 54.8623C56.1833 63.254 53.6129 70.1943 48.4718 75.6832C43.2783 81.1721 36.6161 83.9165 28.4849 83.9165ZM28.1702 28.6582C15.5275 28.6582 9.20622 37.8942 9.20622 56.3665C9.20622 73.5721 15.7636 82.1748 28.8783 82.1748C31.8161 82.1748 34.439 81.6471 36.7472 80.5915C39.0029 79.5359 40.839 78.1637 42.2554 76.4748C43.6195 74.7859 44.7471 72.754 45.639 70.379C46.5309 68.004 47.1604 65.629 47.5275 63.254C47.8423 60.879 47.9997 58.3457 47.9997 55.654C47.9997 52.804 47.8159 50.1123 47.4488 47.579C47.029 45.0983 46.3472 42.6707 45.4029 40.2957C44.4587 37.9733 43.252 35.968 41.7833 34.279C40.3145 32.59 38.4259 31.218 36.1177 30.1623C33.757 29.1597 31.1079 28.6582 28.1702 28.6582Z" fill="black"/>
</svg>
