<svg width="88" height="68" viewBox="0 0 88 68" fill="none" xmlns="http://www.w3.org/2000/svg">
<path d="M68.7856 36.04C72.867 36.04 76.1757 32.7418 76.1757 28.6733C76.1757 24.6048 72.867 21.3066 68.7856 21.3066C64.7041 21.3066 61.3954 24.6048 61.3954 28.6733C61.3954 32.7418 64.7041 36.04 68.7856 36.04Z" fill="black"/>
<path d="M22.2842 36.04C26.3657 36.04 29.6744 32.7418 29.6744 28.6733C29.6744 24.6048 26.3657 21.3066 22.2842 21.3066C18.2027 21.3066 14.894 24.6048 14.894 28.6733C14.894 32.7418 18.2027 36.04 22.2842 36.04Z" fill="black"/>
<path d="M22.3411 7.93335C28.2533 7.93335 33.0475 9.74668 36.7236 13.3734C40.4377 17 42.2946 21.7034 42.2946 27.4834C42.2946 33.8678 40.4945 39.0056 36.8941 42.8967C33.2937 46.7878 28.386 48.7334 22.1706 48.7334C16.0689 48.7334 11.2369 46.9011 7.67448 43.2367C4.11204 39.5344 2.33081 34.6989 2.33081 28.73C2.33081 22.7234 4.18783 17.7556 7.90187 13.8267C11.6538 9.89779 16.4669 7.93335 22.3411 7.93335ZM22.5685 47.4867C31.702 47.4867 36.2688 40.8756 36.2688 27.6534C36.2688 15.3378 31.5315 9.18002 22.0569 9.18002C19.9346 9.18002 18.0397 9.55779 16.3722 10.3134C14.7426 11.0689 13.4161 12.0511 12.3928 13.26C11.4074 14.4689 10.5927 15.9234 9.94838 17.6234C9.30411 19.3234 8.84932 21.0234 8.58404 22.7234C8.35665 24.4234 8.24295 26.2367 8.24295 28.1634C8.24295 30.2034 8.3756 32.13 8.64089 33.9434C8.94408 35.7189 9.43675 37.4567 10.1189 39.1567C10.8011 40.819 11.6728 42.2544 12.7339 43.4634C13.795 44.6723 15.1594 45.6544 16.8269 46.41C18.5324 47.1278 20.4462 47.4867 22.5685 47.4867Z" fill="black"/>
<path d="M68.0465 7.93335C73.9586 7.93335 78.7528 9.74668 82.4289 13.3734C86.143 17 88 21.7034 88 27.4834C88 33.8678 86.1998 39.0056 82.5995 42.8967C78.9991 46.7878 74.0913 48.7334 67.8759 48.7334C61.7743 48.7334 56.9422 46.9011 53.3798 43.2367C49.8174 39.5344 48.0361 34.6989 48.0361 28.73C48.0361 22.7234 49.8931 17.7556 53.6072 13.8267C57.3591 9.89779 62.1722 7.93335 68.0465 7.93335ZM68.2739 47.4867C77.4073 47.4867 81.9741 40.8756 81.9741 27.6534C81.9741 15.3378 77.2368 9.18002 67.7622 9.18002C65.6399 9.18002 63.745 9.55779 62.0775 10.3134C60.4479 11.0689 59.1214 12.0511 58.0982 13.26C57.1128 14.4689 56.298 15.9234 55.6537 17.6234C55.0094 19.3234 54.5546 21.0234 54.2894 22.7234C54.062 24.4234 53.9483 26.2367 53.9483 28.1634C53.9483 30.2034 54.081 32.13 54.3462 33.9434C54.6494 35.7189 55.1421 37.4567 55.8242 39.1567C56.5064 40.819 57.3781 42.2544 58.4392 43.4634C59.5004 44.6723 60.8647 45.6544 62.5323 46.41C64.2377 47.1278 66.1515 47.4867 68.2739 47.4867Z" fill="black"/>
</svg>
