<svg width="423" height="328" viewBox="0 0 423 328" fill="none" xmlns="http://www.w3.org/2000/svg">
<path d="M330.639 173.84C350.258 173.84 366.163 157.931 366.163 138.307C366.163 118.682 350.258 102.773 330.639 102.773C311.021 102.773 295.116 118.682 295.116 138.307C295.116 157.931 311.021 173.84 330.639 173.84Z" fill="black"/>
<path d="M107.116 173.84C126.735 173.84 142.639 157.931 142.639 138.307C142.639 118.682 126.735 102.773 107.116 102.773C87.4971 102.773 71.5928 118.682 71.5928 138.307C71.5928 157.931 87.4971 173.84 107.116 173.84Z" fill="black"/>
<path d="M107.389 38.2666C135.808 38.2666 158.853 47.0133 176.523 64.5066C194.376 81.9999 203.302 104.687 203.302 132.567C203.302 163.362 194.649 188.145 177.343 206.913C160.036 225.682 136.446 235.067 106.569 235.067C77.2398 235.067 54.0132 226.229 36.8892 208.553C19.7652 190.695 11.2031 167.371 11.2031 138.58C11.2031 109.607 20.1295 85.6446 37.9822 66.6933C56.0171 47.7421 79.1526 38.2666 107.389 38.2666ZM108.482 229.053C152.385 229.053 174.337 197.165 174.337 133.387C174.337 73.982 151.565 44.2799 106.023 44.2799C95.8212 44.2799 86.713 46.1021 78.6973 49.7466C70.8642 53.3911 64.488 58.1286 59.5694 63.9599C54.8328 69.7912 50.9163 76.8066 47.8194 85.0066C44.7225 93.2066 42.5364 101.407 41.2613 109.607C40.1682 117.807 39.6217 126.553 39.6217 135.847C39.6217 145.687 40.2593 154.98 41.5345 163.727C42.9919 172.291 45.3601 180.673 48.6392 188.873C51.9182 196.891 56.1083 203.815 61.2089 209.647C66.3095 215.478 72.8677 220.215 80.8834 223.86C89.081 227.322 98.2805 229.053 108.482 229.053Z" fill="black"/>
<path d="M327.087 38.2666C355.506 38.2666 378.551 47.0133 396.221 64.5066C414.074 81.9999 423 104.687 423 132.567C423 163.362 414.347 188.145 397.041 206.913C379.735 225.682 356.144 235.067 326.268 235.067C296.938 235.067 273.711 226.229 256.587 208.553C239.464 190.695 230.901 167.371 230.901 138.58C230.901 109.607 239.828 85.6446 257.68 66.6933C275.715 47.7421 298.851 38.2666 327.087 38.2666ZM328.18 229.053C372.083 229.053 394.035 197.165 394.035 133.387C394.035 73.982 371.264 44.2799 325.721 44.2799C315.519 44.2799 306.411 46.1021 298.396 49.7466C290.562 53.3911 284.186 58.1286 279.268 63.9599C274.531 69.7912 270.615 76.8066 267.518 85.0066C264.421 93.2066 262.235 101.407 260.96 109.607C259.866 117.807 259.32 126.553 259.32 135.847C259.32 145.687 259.958 154.98 261.233 163.727C262.69 172.291 265.058 180.673 268.337 188.873C271.616 196.891 275.807 203.815 280.907 209.647C286.008 215.478 292.566 220.215 300.582 223.86C308.779 227.322 317.979 229.053 328.18 229.053Z" fill="black"/>
</svg>
