<svg width="873" height="623" viewBox="0 0 873 623" fill="none" xmlns="http://www.w3.org/2000/svg">
<path d="M773.803 58.1875C768.262 58.1875 763.771 53.6684 763.771 48.0938C763.771 42.5191 768.262 38 773.803 38C779.344 38 783.836 42.5191 783.836 48.0938C783.836 53.6684 779.344 58.1875 773.803 58.1875Z" fill="black"/>
<path d="M834.787 57C829.246 57 824.754 52.4809 824.754 46.9063C824.754 41.3316 829.246 36.8125 834.787 36.8125C840.328 36.8125 844.82 41.3316 844.82 46.9063C844.82 52.4809 840.328 57 834.787 57Z" fill="black"/>
<path d="M839.075 11.0833C830.892 11.0833 824.256 13.6166 819.167 18.6833C814.026 23.7499 811.456 30.3208 811.456 38.3958C811.456 47.3151 813.947 54.4931 818.931 59.9291C823.915 65.3651 830.708 68.0832 839.312 68.0832C847.758 68.0832 854.446 65.5234 859.377 60.4041C864.308 55.2317 866.774 48.4764 866.774 40.1374C866.774 31.7458 864.203 24.8055 859.062 19.3166C853.869 13.8277 847.207 11.0833 839.075 11.0833ZM838.761 66.3416C826.118 66.3416 819.797 57.1056 819.797 38.6332C819.797 21.4277 826.354 12.8249 839.469 12.8249C842.407 12.8249 845.029 13.3527 847.338 14.4083C849.593 15.4638 851.43 16.836 852.846 18.5249C854.21 20.2138 855.338 22.2458 856.23 24.6208C857.122 26.9958 857.751 29.3707 858.118 31.7457C858.433 34.1207 858.59 36.6541 858.59 39.3458C858.59 42.1958 858.407 44.8874 858.039 47.4208C857.62 49.9014 856.938 52.3291 855.994 54.7041C855.049 57.0264 853.843 59.0317 852.374 60.7207C850.905 62.4098 849.017 63.7817 846.708 64.8374C844.348 65.8401 841.699 66.3416 838.761 66.3416Z" fill="black"/>
<path d="M778.485 11.0833C770.302 11.0833 763.665 13.6166 758.577 18.6833C753.436 23.7499 750.865 30.3208 750.865 38.3958C750.865 47.3151 753.357 54.4931 758.341 59.9291C763.325 65.3651 770.118 68.0832 778.721 68.0832C787.167 68.0832 793.856 65.5234 798.787 60.4041C803.718 55.2317 806.184 48.4764 806.184 40.1374C806.184 31.7458 803.613 24.8055 798.472 19.3166C793.279 13.8277 786.616 11.0833 778.485 11.0833ZM778.17 66.3416C765.528 66.3416 759.206 57.1056 759.206 38.6332C759.206 21.4277 765.764 12.8249 778.879 12.8249C781.816 12.8249 784.439 13.3527 786.747 14.4083C789.003 15.4638 790.839 16.836 792.256 18.5249C793.62 20.2138 794.747 22.2458 795.639 24.6208C796.531 26.9958 797.161 29.3707 797.528 31.7457C797.843 34.1207 798 36.6541 798 39.3458C798 42.1958 797.816 44.8874 797.449 47.4208C797.029 49.9014 796.347 52.3291 795.403 54.7041C794.459 57.0264 793.252 59.0317 791.784 60.7207C790.315 62.4098 788.426 63.7817 786.118 64.8374C783.757 65.8401 781.108 66.3416 778.17 66.3416Z" fill="black"/>
<path d="M776.803 231.188C771.262 231.188 766.771 226.668 766.771 221.094C766.771 215.519 771.262 211 776.803 211C782.344 211 786.836 215.519 786.836 221.094C786.836 226.668 782.344 231.188 776.803 231.188Z" fill="black"/>
<path d="M837.787 230C832.246 230 827.754 225.481 827.754 219.906C827.754 214.332 832.246 209.812 837.787 209.812C843.328 209.812 847.82 214.332 847.82 219.906C847.82 225.481 843.328 230 837.787 230Z" fill="black"/>
<path d="M842.075 184.083C833.892 184.083 827.256 186.617 822.167 191.683C817.026 196.75 814.456 203.321 814.456 211.396C814.456 220.315 816.947 227.493 821.931 232.929C826.915 238.365 833.708 241.083 842.312 241.083C850.758 241.083 857.446 238.523 862.377 233.404C867.308 228.232 869.774 221.476 869.774 213.137C869.774 204.746 867.203 197.805 862.062 192.317C856.869 186.828 850.207 184.083 842.075 184.083ZM841.761 239.342C829.118 239.342 822.797 230.106 822.797 211.633C822.797 194.428 829.354 185.825 842.469 185.825C845.407 185.825 848.029 186.353 850.338 187.408C852.593 188.464 854.43 189.836 855.846 191.525C857.21 193.214 858.338 195.246 859.23 197.621C860.122 199.996 860.751 202.371 861.118 204.746C861.433 207.121 861.59 209.654 861.59 212.346C861.59 215.196 861.407 217.887 861.039 220.421C860.62 222.901 859.938 225.329 858.994 227.704C858.049 230.026 856.843 232.032 855.374 233.721C853.905 235.41 852.017 236.782 849.708 237.837C847.348 238.84 844.699 239.342 841.761 239.342Z" fill="black"/>
<path d="M781.485 184.083C773.302 184.083 766.665 186.617 761.577 191.683C756.436 196.75 753.865 203.321 753.865 211.396C753.865 220.315 756.357 227.493 761.341 232.929C766.325 238.365 773.118 241.083 781.721 241.083C790.167 241.083 796.856 238.523 801.787 233.404C806.718 228.232 809.184 221.476 809.184 213.137C809.184 204.746 806.613 197.805 801.472 192.317C796.279 186.828 789.616 184.083 781.485 184.083ZM781.17 239.342C768.528 239.342 762.206 230.106 762.206 211.633C762.206 194.428 768.764 185.825 781.879 185.825C784.816 185.825 787.439 186.353 789.747 187.408C792.003 188.464 793.839 189.836 795.256 191.525C796.62 193.214 797.747 195.246 798.639 197.621C799.531 199.996 800.161 202.371 800.528 204.746C800.843 207.121 801 209.654 801 212.346C801 215.196 800.816 217.887 800.449 220.421C800.029 222.901 799.347 225.329 798.403 227.704C797.459 230.026 796.252 232.032 794.784 233.721C793.315 235.41 791.426 236.782 789.118 237.837C786.757 238.84 784.108 239.342 781.17 239.342Z" fill="black"/>
<path d="M96.1967 241.188C101.738 241.188 106.23 236.668 106.23 231.094C106.23 225.519 101.738 221 96.1967 221C90.6558 221 86.1639 225.519 86.1639 231.094C86.1639 236.668 90.6558 241.188 96.1967 241.188Z" fill="black"/>
<path d="M35.2132 240C40.7542 240 45.246 235.481 45.246 229.906C45.246 224.332 40.7542 219.812 35.2132 219.812C29.6722 219.812 25.1804 224.332 25.1804 229.906C25.1804 235.481 29.6722 240 35.2132 240Z" fill="black"/>
<path d="M30.9246 194.083C39.1082 194.083 45.7444 196.617 50.8328 201.683C55.9739 206.75 58.5443 213.321 58.5443 221.396C58.5443 230.315 56.0526 237.493 51.0689 242.929C46.0852 248.365 39.292 251.083 30.6886 251.083C22.2425 251.083 15.554 248.523 10.623 243.404C5.69197 238.232 3.22627 231.476 3.22627 223.137C3.22627 214.746 5.79662 207.805 10.9377 202.317C16.1312 196.828 22.7934 194.083 30.9246 194.083ZM31.2394 249.342C43.8819 249.342 50.2033 240.106 50.2033 221.633C50.2033 204.428 43.6458 195.825 30.5312 195.825C27.5934 195.825 24.9707 196.353 22.6623 197.408C20.4067 198.464 18.5705 199.836 17.1541 201.525C15.7901 203.214 14.6625 205.246 13.7705 207.621C12.8786 209.996 12.2491 212.371 11.882 214.746C11.5673 217.121 11.4099 219.654 11.4099 222.346C11.4099 225.196 11.5936 227.887 11.9607 230.421C12.3805 232.901 13.0623 235.329 14.0066 237.704C14.9509 240.026 16.1575 242.032 17.6263 243.721C19.095 245.41 20.9835 246.782 23.2918 247.837C25.6525 248.84 28.3015 249.342 31.2394 249.342Z" fill="black"/>
<path d="M91.5147 194.083C99.6983 194.083 106.334 196.617 111.423 201.683C116.564 206.75 119.134 213.321 119.134 221.396C119.134 230.315 116.643 237.493 111.659 242.929C106.675 248.365 99.882 251.083 91.2787 251.083C82.8327 251.083 76.1441 248.523 71.2131 243.404C66.2821 238.232 63.8164 231.476 63.8164 223.137C63.8164 214.746 66.3867 207.805 71.5278 202.317C76.7213 196.828 83.3836 194.083 91.5147 194.083ZM91.8295 249.342C104.472 249.342 110.793 240.106 110.793 221.633C110.793 204.428 104.236 195.825 91.1213 195.825C88.1836 195.825 85.5606 196.353 83.2524 197.408C80.9967 198.464 79.1606 199.836 77.7442 201.525C76.3802 203.214 75.2526 205.246 74.3606 207.621C73.4687 209.996 72.8392 212.371 72.4721 214.746C72.1574 217.121 72 219.654 72 222.346C72 225.196 72.1837 227.887 72.5508 230.421C72.9706 232.901 73.6524 235.329 74.5967 237.704C75.541 240.026 76.7476 242.032 78.2164 243.721C79.6851 245.41 81.5737 246.782 83.8819 247.837C86.2426 248.84 88.8918 249.342 91.8295 249.342Z" fill="black"/>
<path d="M773.803 564.812C768.262 564.812 763.771 569.332 763.771 574.906C763.771 580.481 768.262 585 773.803 585C779.344 585 783.836 580.481 783.836 574.906C783.836 569.332 779.344 564.812 773.803 564.812Z" fill="black"/>
<path d="M834.787 566C829.246 566 824.754 570.519 824.754 576.094C824.754 581.668 829.246 586.188 834.787 586.188C840.328 586.188 844.82 581.668 844.82 576.094C844.82 570.519 840.328 566 834.787 566Z" fill="black"/>
<path d="M839.075 611.917C830.892 611.917 824.256 609.383 819.167 604.317C814.026 599.25 811.456 592.679 811.456 584.604C811.456 575.685 813.947 568.507 818.931 563.071C823.915 557.635 830.708 554.917 839.312 554.917C847.758 554.917 854.446 557.476 859.377 562.596C864.308 567.768 866.774 574.523 866.774 582.862C866.774 591.254 864.203 598.194 859.062 603.683C853.869 609.172 847.207 611.917 839.075 611.917ZM838.761 556.658C826.118 556.658 819.797 565.894 819.797 584.367C819.797 601.572 826.354 610.175 839.469 610.175C842.407 610.175 845.029 609.647 847.338 608.592C849.593 607.536 851.43 606.164 852.846 604.475C854.21 602.786 855.338 600.754 856.23 598.379C857.122 596.004 857.751 593.629 858.118 591.254C858.433 588.879 858.59 586.346 858.59 583.654C858.59 580.804 858.407 578.112 858.039 575.579C857.62 573.098 856.938 570.671 855.994 568.296C855.049 565.973 853.843 563.968 852.374 562.279C850.905 560.59 849.017 559.218 846.708 558.162C844.348 557.16 841.699 556.658 838.761 556.658Z" fill="black"/>
<path d="M778.485 611.917C770.302 611.917 763.665 609.383 758.577 604.317C753.436 599.25 750.865 592.679 750.865 584.604C750.865 575.685 753.357 568.507 758.341 563.071C763.325 557.635 770.118 554.917 778.721 554.917C787.167 554.917 793.856 557.476 798.787 562.596C803.718 567.768 806.184 574.523 806.184 582.862C806.184 591.254 803.613 598.194 798.472 603.683C793.279 609.172 786.616 611.917 778.485 611.917ZM778.17 556.658C765.528 556.658 759.206 565.894 759.206 584.367C759.206 601.572 765.764 610.175 778.879 610.175C781.816 610.175 784.439 609.647 786.747 608.592C789.003 607.536 790.839 606.164 792.256 604.475C793.62 602.786 794.747 600.754 795.639 598.379C796.531 596.004 797.161 593.629 797.528 591.254C797.843 588.879 798 586.346 798 583.654C798 580.804 797.816 578.112 797.449 575.579C797.029 573.098 796.347 570.671 795.403 568.296C794.459 565.973 793.252 563.968 791.784 562.279C790.315 560.59 788.426 559.218 786.118 558.162C783.757 557.16 781.108 556.658 778.17 556.658Z" fill="black"/>
<path d="M773.803 146.188C768.262 146.188 763.771 141.668 763.771 136.094C763.771 130.519 768.262 126 773.803 126C779.344 126 783.836 130.519 783.836 136.094C783.836 141.668 779.344 146.188 773.803 146.188Z" fill="black"/>
<path d="M834.787 145C829.246 145 824.754 140.481 824.754 134.906C824.754 129.332 829.246 124.812 834.787 124.812C840.328 124.812 844.82 129.332 844.82 134.906C844.82 140.481 840.328 145 834.787 145Z" fill="black"/>
<path d="M839.075 99.0833C830.892 99.0833 824.256 101.617 819.167 106.683C814.026 111.75 811.456 118.321 811.456 126.396C811.456 135.315 813.947 142.493 818.931 147.929C823.915 153.365 830.708 156.083 839.312 156.083C847.758 156.083 854.446 153.523 859.377 148.404C864.308 143.232 866.774 136.476 866.774 128.137C866.774 119.746 864.203 112.805 859.062 107.317C853.869 101.828 847.207 99.0833 839.075 99.0833ZM838.761 154.342C826.118 154.342 819.797 145.106 819.797 126.633C819.797 109.428 826.354 100.825 839.469 100.825C842.407 100.825 845.029 101.353 847.338 102.408C849.593 103.464 851.43 104.836 852.846 106.525C854.21 108.214 855.338 110.246 856.23 112.621C857.122 114.996 857.751 117.371 858.118 119.746C858.433 122.121 858.59 124.654 858.59 127.346C858.59 130.196 858.407 132.887 858.039 135.421C857.62 137.901 856.938 140.329 855.994 142.704C855.049 145.026 853.843 147.032 852.374 148.721C850.905 150.41 849.017 151.782 846.708 152.837C844.348 153.84 841.699 154.342 838.761 154.342Z" fill="black"/>
<path d="M778.485 99.0833C770.302 99.0833 763.665 101.617 758.577 106.683C753.436 111.75 750.865 118.321 750.865 126.396C750.865 135.315 753.357 142.493 758.341 147.929C763.325 153.365 770.118 156.083 778.721 156.083C787.167 156.083 793.856 153.523 798.787 148.404C803.718 143.232 806.184 136.476 806.184 128.137C806.184 119.746 803.613 112.805 798.472 107.317C793.279 101.828 786.616 99.0833 778.485 99.0833ZM778.17 154.342C765.528 154.342 759.206 145.106 759.206 126.633C759.206 109.428 765.764 100.825 778.879 100.825C781.816 100.825 784.439 101.353 786.747 102.408C789.003 103.464 790.839 104.836 792.256 106.525C793.62 108.214 794.747 110.246 795.639 112.621C796.531 114.996 797.161 117.371 797.528 119.746C797.843 122.121 798 124.654 798 127.346C798 130.196 797.816 132.887 797.449 135.421C797.029 137.901 796.347 140.329 795.403 142.704C794.459 145.026 793.252 147.032 791.784 148.721C790.315 150.41 788.426 151.782 786.118 152.837C783.757 153.84 781.108 154.342 778.17 154.342Z" fill="black"/>
<path d="M776.803 319.188C771.262 319.188 766.771 314.668 766.771 309.094C766.771 303.519 771.262 299 776.803 299C782.344 299 786.836 303.519 786.836 309.094C786.836 314.668 782.344 319.188 776.803 319.188Z" fill="black"/>
<path d="M837.787 318C832.246 318 827.754 313.481 827.754 307.906C827.754 302.332 832.246 297.812 837.787 297.812C843.328 297.812 847.82 302.332 847.82 307.906C847.82 313.481 843.328 318 837.787 318Z" fill="black"/>
<path d="M842.075 272.083C833.892 272.083 827.256 274.617 822.167 279.683C817.026 284.75 814.456 291.321 814.456 299.396C814.456 308.315 816.947 315.493 821.931 320.929C826.915 326.365 833.708 329.083 842.312 329.083C850.758 329.083 857.446 326.523 862.377 321.404C867.308 316.232 869.774 309.476 869.774 301.137C869.774 292.746 867.203 285.805 862.062 280.317C856.869 274.828 850.207 272.083 842.075 272.083ZM841.761 327.342C829.118 327.342 822.797 318.106 822.797 299.633C822.797 282.428 829.354 273.825 842.469 273.825C845.407 273.825 848.029 274.353 850.338 275.408C852.593 276.464 854.43 277.836 855.846 279.525C857.21 281.214 858.338 283.246 859.23 285.621C860.122 287.996 860.751 290.371 861.118 292.746C861.433 295.121 861.59 297.654 861.59 300.346C861.59 303.196 861.407 305.887 861.039 308.421C860.62 310.901 859.938 313.329 858.994 315.704C858.049 318.026 856.843 320.032 855.374 321.721C853.905 323.41 852.017 324.782 849.708 325.837C847.348 326.84 844.699 327.342 841.761 327.342Z" fill="black"/>
<path d="M781.485 272.083C773.302 272.083 766.665 274.617 761.577 279.683C756.436 284.75 753.865 291.321 753.865 299.396C753.865 308.315 756.357 315.493 761.341 320.929C766.325 326.365 773.118 329.083 781.721 329.083C790.167 329.083 796.856 326.523 801.787 321.404C806.718 316.232 809.184 309.476 809.184 301.137C809.184 292.746 806.613 285.805 801.472 280.317C796.279 274.828 789.616 272.083 781.485 272.083ZM781.17 327.342C768.528 327.342 762.206 318.106 762.206 299.633C762.206 282.428 768.764 273.825 781.879 273.825C784.816 273.825 787.439 274.353 789.747 275.408C792.003 276.464 793.839 277.836 795.256 279.525C796.62 281.214 797.747 283.246 798.639 285.621C799.531 287.996 800.161 290.371 800.528 292.746C800.843 295.121 801 297.654 801 300.346C801 303.196 800.816 305.887 800.449 308.421C800.029 310.901 799.347 313.329 798.403 315.704C797.459 318.026 796.252 320.032 794.784 321.721C793.315 323.41 791.426 324.782 789.118 325.837C786.757 326.84 784.108 327.342 781.17 327.342Z" fill="black"/>
<path d="M96.1967 329.188C101.738 329.188 106.23 324.668 106.23 319.094C106.23 313.519 101.738 309 96.1967 309C90.6558 309 86.1639 313.519 86.1639 319.094C86.1639 324.668 90.6558 329.188 96.1967 329.188Z" fill="black"/>
<path d="M35.2132 328C40.7542 328 45.246 323.481 45.246 317.906C45.246 312.332 40.7542 307.812 35.2132 307.812C29.6722 307.812 25.1804 312.332 25.1804 317.906C25.1804 323.481 29.6722 328 35.2132 328Z" fill="black"/>
<path d="M30.9246 282.083C39.1082 282.083 45.7444 284.617 50.8328 289.683C55.9739 294.75 58.5443 301.321 58.5443 309.396C58.5443 318.315 56.0526 325.493 51.0689 330.929C46.0852 336.365 39.292 339.083 30.6886 339.083C22.2425 339.083 15.554 336.523 10.623 331.404C5.69197 326.232 3.22627 319.476 3.22627 311.137C3.22627 302.746 5.79662 295.805 10.9377 290.317C16.1312 284.828 22.7934 282.083 30.9246 282.083ZM31.2394 337.342C43.8819 337.342 50.2033 328.106 50.2033 309.633C50.2033 292.428 43.6458 283.825 30.5312 283.825C27.5934 283.825 24.9707 284.353 22.6623 285.408C20.4067 286.464 18.5705 287.836 17.1541 289.525C15.7901 291.214 14.6625 293.246 13.7705 295.621C12.8786 297.996 12.2491 300.371 11.882 302.746C11.5673 305.121 11.4099 307.654 11.4099 310.346C11.4099 313.196 11.5936 315.887 11.9607 318.421C12.3805 320.901 13.0623 323.329 14.0066 325.704C14.9509 328.026 16.1575 330.032 17.6263 331.721C19.095 333.41 20.9835 334.782 23.2918 335.837C25.6525 336.84 28.3015 337.342 31.2394 337.342Z" fill="black"/>
<path d="M91.5147 282.083C99.6983 282.083 106.334 284.617 111.423 289.683C116.564 294.75 119.134 301.321 119.134 309.396C119.134 318.315 116.643 325.493 111.659 330.929C106.675 336.365 99.882 339.083 91.2787 339.083C82.8327 339.083 76.1441 336.523 71.2131 331.404C66.2821 326.232 63.8164 319.476 63.8164 311.137C63.8164 302.746 66.3867 295.805 71.5278 290.317C76.7213 284.828 83.3836 282.083 91.5147 282.083ZM91.8295 337.342C104.472 337.342 110.793 328.106 110.793 309.633C110.793 292.428 104.236 283.825 91.1213 283.825C88.1836 283.825 85.5606 284.353 83.2524 285.408C80.9967 286.464 79.1606 287.836 77.7442 289.525C76.3802 291.214 75.2526 293.246 74.3606 295.621C73.4687 297.996 72.8392 300.371 72.4721 302.746C72.1574 305.121 72 307.654 72 310.346C72 313.196 72.1837 315.887 72.5508 318.421C72.9706 320.901 73.6524 323.329 74.5967 325.704C75.541 328.026 76.7476 330.032 78.2164 331.721C79.6851 333.41 81.5737 334.782 83.8819 335.837C86.2426 336.84 88.8918 337.342 91.8295 337.342Z" fill="black"/>
<path d="M776.803 411.188C771.262 411.188 766.771 406.668 766.771 401.094C766.771 395.519 771.262 391 776.803 391C782.344 391 786.836 395.519 786.836 401.094C786.836 406.668 782.344 411.188 776.803 411.188Z" fill="black"/>
<path d="M837.787 410C832.246 410 827.754 405.481 827.754 399.906C827.754 394.332 832.246 389.812 837.787 389.812C843.328 389.812 847.82 394.332 847.82 399.906C847.82 405.481 843.328 410 837.787 410Z" fill="black"/>
<path d="M842.075 364.083C833.892 364.083 827.256 366.617 822.167 371.683C817.026 376.75 814.456 383.321 814.456 391.396C814.456 400.315 816.947 407.493 821.931 412.929C826.915 418.365 833.708 421.083 842.312 421.083C850.758 421.083 857.446 418.523 862.377 413.404C867.308 408.232 869.774 401.476 869.774 393.137C869.774 384.746 867.203 377.805 862.062 372.317C856.869 366.828 850.207 364.083 842.075 364.083ZM841.761 419.342C829.118 419.342 822.797 410.106 822.797 391.633C822.797 374.428 829.354 365.825 842.469 365.825C845.407 365.825 848.029 366.353 850.338 367.408C852.593 368.464 854.43 369.836 855.846 371.525C857.21 373.214 858.338 375.246 859.23 377.621C860.122 379.996 860.751 382.371 861.118 384.746C861.433 387.121 861.59 389.654 861.59 392.346C861.59 395.196 861.407 397.887 861.039 400.421C860.62 402.901 859.938 405.329 858.994 407.704C858.049 410.026 856.843 412.032 855.374 413.721C853.905 415.41 852.017 416.782 849.708 417.837C847.348 418.84 844.699 419.342 841.761 419.342Z" fill="black"/>
<path d="M781.485 364.083C773.302 364.083 766.665 366.617 761.577 371.683C756.436 376.75 753.865 383.321 753.865 391.396C753.865 400.315 756.357 407.493 761.341 412.929C766.325 418.365 773.118 421.083 781.721 421.083C790.167 421.083 796.856 418.523 801.787 413.404C806.718 408.232 809.184 401.476 809.184 393.137C809.184 384.746 806.613 377.805 801.472 372.317C796.279 366.828 789.616 364.083 781.485 364.083ZM781.17 419.342C768.528 419.342 762.206 410.106 762.206 391.633C762.206 374.428 768.764 365.825 781.879 365.825C784.816 365.825 787.439 366.353 789.747 367.408C792.003 368.464 793.839 369.836 795.256 371.525C796.62 373.214 797.747 375.246 798.639 377.621C799.531 379.996 800.161 382.371 800.528 384.746C800.843 387.121 801 389.654 801 392.346C801 395.196 800.816 397.887 800.449 400.421C800.029 402.901 799.347 405.329 798.403 407.704C797.459 410.026 796.252 412.032 794.784 413.721C793.315 415.41 791.426 416.782 789.118 417.837C786.757 418.84 784.108 419.342 781.17 419.342Z" fill="black"/>
<path d="M96.1967 421.188C101.738 421.188 106.23 416.668 106.23 411.094C106.23 405.519 101.738 401 96.1967 401C90.6558 401 86.1639 405.519 86.1639 411.094C86.1639 416.668 90.6558 421.188 96.1967 421.188Z" fill="black"/>
<path d="M35.2132 420C40.7542 420 45.246 415.481 45.246 409.906C45.246 404.332 40.7542 399.812 35.2132 399.812C29.6722 399.812 25.1804 404.332 25.1804 409.906C25.1804 415.481 29.6722 420 35.2132 420Z" fill="black"/>
<path d="M30.9246 374.083C39.1082 374.083 45.7444 376.617 50.8328 381.683C55.9739 386.75 58.5443 393.321 58.5443 401.396C58.5443 410.315 56.0526 417.493 51.0689 422.929C46.0852 428.365 39.292 431.083 30.6886 431.083C22.2425 431.083 15.554 428.523 10.623 423.404C5.69197 418.232 3.22627 411.476 3.22627 403.137C3.22627 394.746 5.79662 387.805 10.9377 382.317C16.1312 376.828 22.7934 374.083 30.9246 374.083ZM31.2394 429.342C43.8819 429.342 50.2033 420.106 50.2033 401.633C50.2033 384.428 43.6458 375.825 30.5312 375.825C27.5934 375.825 24.9707 376.353 22.6623 377.408C20.4067 378.464 18.5705 379.836 17.1541 381.525C15.7901 383.214 14.6625 385.246 13.7705 387.621C12.8786 389.996 12.2491 392.371 11.882 394.746C11.5673 397.121 11.4099 399.654 11.4099 402.346C11.4099 405.196 11.5936 407.887 11.9607 410.421C12.3805 412.901 13.0623 415.329 14.0066 417.704C14.9509 420.026 16.1575 422.032 17.6263 423.721C19.095 425.41 20.9835 426.782 23.2918 427.837C25.6525 428.84 28.3015 429.342 31.2394 429.342Z" fill="black"/>
<path d="M91.5147 374.083C99.6983 374.083 106.334 376.617 111.423 381.683C116.564 386.75 119.134 393.321 119.134 401.396C119.134 410.315 116.643 417.493 111.659 422.929C106.675 428.365 99.882 431.083 91.2787 431.083C82.8327 431.083 76.1441 428.523 71.2131 423.404C66.2821 418.232 63.8164 411.476 63.8164 403.137C63.8164 394.746 66.3867 387.805 71.5278 382.317C76.7213 376.828 83.3836 374.083 91.5147 374.083ZM91.8295 429.342C104.472 429.342 110.793 420.106 110.793 401.633C110.793 384.428 104.236 375.825 91.1213 375.825C88.1836 375.825 85.5606 376.353 83.2524 377.408C80.9967 378.464 79.1606 379.836 77.7442 381.525C76.3802 383.214 75.2526 385.246 74.3606 387.621C73.4687 389.996 72.8392 392.371 72.4721 394.746C72.1574 397.121 72 399.654 72 402.346C72 405.196 72.1837 407.887 72.5508 410.421C72.9706 412.901 73.6524 415.329 74.5967 417.704C75.541 420.026 76.7476 422.032 78.2164 423.721C79.6851 425.41 81.5737 426.782 83.8819 427.837C86.2426 428.84 88.8918 429.342 91.8295 429.342Z" fill="black"/>
<path d="M773.803 476.812C768.262 476.812 763.771 481.332 763.771 486.906C763.771 492.481 768.262 497 773.803 497C779.344 497 783.836 492.481 783.836 486.906C783.836 481.332 779.344 476.812 773.803 476.812Z" fill="black"/>
<path d="M834.787 478C829.246 478 824.754 482.519 824.754 488.094C824.754 493.668 829.246 498.188 834.787 498.188C840.328 498.188 844.82 493.668 844.82 488.094C844.82 482.519 840.328 478 834.787 478Z" fill="black"/>
<path d="M839.075 523.917C830.892 523.917 824.256 521.383 819.167 516.317C814.026 511.25 811.456 504.679 811.456 496.604C811.456 487.685 813.947 480.507 818.931 475.071C823.915 469.635 830.708 466.917 839.312 466.917C847.758 466.917 854.446 469.476 859.377 474.596C864.308 479.768 866.774 486.523 866.774 494.862C866.774 503.254 864.203 510.194 859.062 515.683C853.869 521.172 847.207 523.917 839.075 523.917ZM838.761 468.658C826.118 468.658 819.797 477.894 819.797 496.367C819.797 513.572 826.354 522.175 839.469 522.175C842.407 522.175 845.029 521.647 847.338 520.592C849.593 519.536 851.43 518.164 852.846 516.475C854.21 514.786 855.338 512.754 856.23 510.379C857.122 508.004 857.751 505.629 858.118 503.254C858.433 500.879 858.59 498.346 858.59 495.654C858.59 492.804 858.407 490.112 858.039 487.579C857.62 485.098 856.938 482.671 855.994 480.296C855.049 477.973 853.843 475.968 852.374 474.279C850.905 472.59 849.017 471.218 846.708 470.162C844.348 469.16 841.699 468.658 838.761 468.658Z" fill="black"/>
<path d="M778.485 523.917C770.302 523.917 763.665 521.383 758.577 516.317C753.436 511.25 750.865 504.679 750.865 496.604C750.865 487.685 753.357 480.507 758.341 475.071C763.325 469.635 770.118 466.917 778.721 466.917C787.167 466.917 793.856 469.476 798.787 474.596C803.718 479.768 806.184 486.523 806.184 494.862C806.184 503.254 803.613 510.194 798.472 515.683C793.279 521.172 786.616 523.917 778.485 523.917ZM778.17 468.658C765.528 468.658 759.206 477.894 759.206 496.367C759.206 513.572 765.764 522.175 778.879 522.175C781.816 522.175 784.439 521.647 786.747 520.592C789.003 519.536 790.839 518.164 792.256 516.475C793.62 514.786 794.747 512.754 795.639 510.379C796.531 508.004 797.161 505.629 797.528 503.254C797.843 500.879 798 498.346 798 495.654C798 492.804 797.816 490.112 797.449 487.579C797.029 485.098 796.347 482.671 795.403 480.296C794.459 477.973 793.252 475.968 791.784 474.279C790.315 472.59 788.426 471.218 786.118 470.162C783.757 469.16 781.108 468.658 778.17 468.658Z" fill="black"/>
<path d="M623.803 58.1875C618.262 58.1875 613.771 53.6684 613.771 48.0938C613.771 42.5191 618.262 38 623.803 38C629.344 38 633.836 42.5191 633.836 48.0938C633.836 53.6684 629.344 58.1875 623.803 58.1875Z" fill="black"/>
<path d="M684.787 57C679.246 57 674.754 52.4809 674.754 46.9063C674.754 41.3316 679.246 36.8125 684.787 36.8125C690.328 36.8125 694.82 41.3316 694.82 46.9063C694.82 52.4809 690.328 57 684.787 57Z" fill="black"/>
<path d="M689.075 11.0833C680.892 11.0833 674.256 13.6166 669.167 18.6833C664.026 23.7499 661.456 30.3208 661.456 38.3958C661.456 47.3151 663.947 54.4931 668.931 59.9291C673.915 65.3651 680.708 68.0832 689.312 68.0832C697.758 68.0832 704.446 65.5234 709.377 60.4041C714.308 55.2317 716.774 48.4764 716.774 40.1374C716.774 31.7458 714.203 24.8055 709.062 19.3166C703.869 13.8277 697.207 11.0833 689.075 11.0833ZM688.761 66.3416C676.118 66.3416 669.797 57.1056 669.797 38.6332C669.797 21.4277 676.354 12.8249 689.469 12.8249C692.407 12.8249 695.029 13.3527 697.338 14.4083C699.593 15.4638 701.43 16.836 702.846 18.5249C704.21 20.2138 705.338 22.2458 706.23 24.6208C707.122 26.9958 707.751 29.3707 708.118 31.7457C708.433 34.1207 708.59 36.6541 708.59 39.3458C708.59 42.1958 708.407 44.8874 708.039 47.4208C707.62 49.9014 706.938 52.3291 705.994 54.7041C705.049 57.0264 703.843 59.0317 702.374 60.7207C700.905 62.4098 699.017 63.7817 696.708 64.8374C694.348 65.8401 691.699 66.3416 688.761 66.3416Z" fill="black"/>
<path d="M628.485 11.0833C620.302 11.0833 613.665 13.6166 608.577 18.6833C603.436 23.7499 600.865 30.3208 600.865 38.3958C600.865 47.3151 603.357 54.4931 608.341 59.9291C613.325 65.3651 620.118 68.0832 628.721 68.0832C637.167 68.0832 643.856 65.5234 648.787 60.4041C653.718 55.2317 656.184 48.4764 656.184 40.1374C656.184 31.7458 653.613 24.8055 648.472 19.3166C643.279 13.8277 636.616 11.0833 628.485 11.0833ZM628.17 66.3416C615.528 66.3416 609.206 57.1056 609.206 38.6332C609.206 21.4277 615.764 12.8249 628.879 12.8249C631.816 12.8249 634.439 13.3527 636.747 14.4083C639.003 15.4638 640.839 16.836 642.256 18.5249C643.62 20.2138 644.747 22.2458 645.639 24.6208C646.531 26.9958 647.161 29.3707 647.528 31.7457C647.843 34.1207 648 36.6541 648 39.3458C648 42.1958 647.816 44.8874 647.449 47.4208C647.029 49.9014 646.347 52.3291 645.403 54.7041C644.459 57.0264 643.252 59.0317 641.784 60.7207C640.315 62.4098 638.426 63.7817 636.118 64.8374C633.757 65.8401 631.108 66.3416 628.17 66.3416Z" fill="black"/>
<path d="M623.803 564.812C618.262 564.812 613.771 569.332 613.771 574.906C613.771 580.481 618.262 585 623.803 585C629.344 585 633.836 580.481 633.836 574.906C633.836 569.332 629.344 564.812 623.803 564.812Z" fill="black"/>
<path d="M684.787 566C679.246 566 674.754 570.519 674.754 576.094C674.754 581.668 679.246 586.188 684.787 586.188C690.328 586.188 694.82 581.668 694.82 576.094C694.82 570.519 690.328 566 684.787 566Z" fill="black"/>
<path d="M689.075 611.917C680.892 611.917 674.256 609.383 669.167 604.317C664.026 599.25 661.456 592.679 661.456 584.604C661.456 575.685 663.947 568.507 668.931 563.071C673.915 557.635 680.708 554.917 689.312 554.917C697.758 554.917 704.446 557.476 709.377 562.596C714.308 567.768 716.774 574.523 716.774 582.862C716.774 591.254 714.203 598.194 709.062 603.683C703.869 609.172 697.207 611.917 689.075 611.917ZM688.761 556.658C676.118 556.658 669.797 565.894 669.797 584.367C669.797 601.572 676.354 610.175 689.469 610.175C692.407 610.175 695.029 609.647 697.338 608.592C699.593 607.536 701.43 606.164 702.846 604.475C704.21 602.786 705.338 600.754 706.23 598.379C707.122 596.004 707.751 593.629 708.118 591.254C708.433 588.879 708.59 586.346 708.59 583.654C708.59 580.804 708.407 578.112 708.039 575.579C707.62 573.098 706.938 570.671 705.994 568.296C705.049 565.973 703.843 563.968 702.374 562.279C700.905 560.59 699.017 559.218 696.708 558.162C694.348 557.16 691.699 556.658 688.761 556.658Z" fill="black"/>
<path d="M628.485 611.917C620.302 611.917 613.665 609.383 608.577 604.317C603.436 599.25 600.865 592.679 600.865 584.604C600.865 575.685 603.357 568.507 608.341 563.071C613.325 557.635 620.118 554.917 628.721 554.917C637.167 554.917 643.856 557.476 648.787 562.596C653.718 567.768 656.184 574.523 656.184 582.862C656.184 591.254 653.613 598.194 648.472 603.683C643.279 609.172 636.616 611.917 628.485 611.917ZM628.17 556.658C615.528 556.658 609.206 565.894 609.206 584.367C609.206 601.572 615.764 610.175 628.879 610.175C631.816 610.175 634.439 609.647 636.747 608.592C639.003 607.536 640.839 606.164 642.256 604.475C643.62 602.786 644.747 600.754 645.639 598.379C646.531 596.004 647.161 593.629 647.528 591.254C647.843 588.879 648 586.346 648 583.654C648 580.804 647.816 578.112 647.449 575.579C647.029 573.098 646.347 570.671 645.403 568.296C644.459 565.973 643.252 563.968 641.784 562.279C640.315 560.59 638.426 559.218 636.118 558.162C633.757 557.16 631.108 556.658 628.17 556.658Z" fill="black"/>
<path d="M623.803 146.188C618.262 146.188 613.771 141.668 613.771 136.094C613.771 130.519 618.262 126 623.803 126C629.344 126 633.836 130.519 633.836 136.094C633.836 141.668 629.344 146.188 623.803 146.188Z" fill="black"/>
<path d="M684.787 145C679.246 145 674.754 140.481 674.754 134.906C674.754 129.332 679.246 124.812 684.787 124.812C690.328 124.812 694.82 129.332 694.82 134.906C694.82 140.481 690.328 145 684.787 145Z" fill="black"/>
<path d="M689.075 99.0833C680.892 99.0833 674.256 101.617 669.167 106.683C664.026 111.75 661.456 118.321 661.456 126.396C661.456 135.315 663.947 142.493 668.931 147.929C673.915 153.365 680.708 156.083 689.312 156.083C697.758 156.083 704.446 153.523 709.377 148.404C714.308 143.232 716.774 136.476 716.774 128.137C716.774 119.746 714.203 112.805 709.062 107.317C703.869 101.828 697.207 99.0833 689.075 99.0833ZM688.761 154.342C676.118 154.342 669.797 145.106 669.797 126.633C669.797 109.428 676.354 100.825 689.469 100.825C692.407 100.825 695.029 101.353 697.338 102.408C699.593 103.464 701.43 104.836 702.846 106.525C704.21 108.214 705.338 110.246 706.23 112.621C707.122 114.996 707.751 117.371 708.118 119.746C708.433 122.121 708.59 124.654 708.59 127.346C708.59 130.196 708.407 132.887 708.039 135.421C707.62 137.901 706.938 140.329 705.994 142.704C705.049 145.026 703.843 147.032 702.374 148.721C700.905 150.41 699.017 151.782 696.708 152.837C694.348 153.84 691.699 154.342 688.761 154.342Z" fill="black"/>
<path d="M628.485 99.0833C620.302 99.0833 613.665 101.617 608.577 106.683C603.436 111.75 600.865 118.321 600.865 126.396C600.865 135.315 603.357 142.493 608.341 147.929C613.325 153.365 620.118 156.083 628.721 156.083C637.167 156.083 643.856 153.523 648.787 148.404C653.718 143.232 656.184 136.476 656.184 128.137C656.184 119.746 653.613 112.805 648.472 107.317C643.279 101.828 636.616 99.0833 628.485 99.0833ZM628.17 154.342C615.528 154.342 609.206 145.106 609.206 126.633C609.206 109.428 615.764 100.825 628.879 100.825C631.816 100.825 634.439 101.353 636.747 102.408C639.003 103.464 640.839 104.836 642.256 106.525C643.62 108.214 644.747 110.246 645.639 112.621C646.531 114.996 647.161 117.371 647.528 119.746C647.843 122.121 648 124.654 648 127.346C648 130.196 647.816 132.887 647.449 135.421C647.029 137.901 646.347 140.329 645.403 142.704C644.459 145.026 643.252 147.032 641.784 148.721C640.315 150.41 638.426 151.782 636.118 152.837C633.757 153.84 631.108 154.342 628.17 154.342Z" fill="black"/>
<path d="M623.803 476.812C618.262 476.812 613.771 481.332 613.771 486.906C613.771 492.481 618.262 497 623.803 497C629.344 497 633.836 492.481 633.836 486.906C633.836 481.332 629.344 476.812 623.803 476.812Z" fill="black"/>
<path d="M684.787 478C679.246 478 674.754 482.519 674.754 488.094C674.754 493.668 679.246 498.188 684.787 498.188C690.328 498.188 694.82 493.668 694.82 488.094C694.82 482.519 690.328 478 684.787 478Z" fill="black"/>
<path d="M689.075 523.917C680.892 523.917 674.256 521.383 669.167 516.317C664.026 511.25 661.456 504.679 661.456 496.604C661.456 487.685 663.947 480.507 668.931 475.071C673.915 469.635 680.708 466.917 689.312 466.917C697.758 466.917 704.446 469.476 709.377 474.596C714.308 479.768 716.774 486.523 716.774 494.862C716.774 503.254 714.203 510.194 709.062 515.683C703.869 521.172 697.207 523.917 689.075 523.917ZM688.761 468.658C676.118 468.658 669.797 477.894 669.797 496.367C669.797 513.572 676.354 522.175 689.469 522.175C692.407 522.175 695.029 521.647 697.338 520.592C699.593 519.536 701.43 518.164 702.846 516.475C704.21 514.786 705.338 512.754 706.23 510.379C707.122 508.004 707.751 505.629 708.118 503.254C708.433 500.879 708.59 498.346 708.59 495.654C708.59 492.804 708.407 490.112 708.039 487.579C707.62 485.098 706.938 482.671 705.994 480.296C705.049 477.973 703.843 475.968 702.374 474.279C700.905 472.59 699.017 471.218 696.708 470.162C694.348 469.16 691.699 468.658 688.761 468.658Z" fill="black"/>
<path d="M628.485 523.917C620.302 523.917 613.665 521.383 608.577 516.317C603.436 511.25 600.865 504.679 600.865 496.604C600.865 487.685 603.357 480.507 608.341 475.071C613.325 469.635 620.118 466.917 628.721 466.917C637.167 466.917 643.856 469.476 648.787 474.596C653.718 479.768 656.184 486.523 656.184 494.862C656.184 503.254 653.613 510.194 648.472 515.683C643.279 521.172 636.616 523.917 628.485 523.917ZM628.17 468.658C615.528 468.658 609.206 477.894 609.206 496.367C609.206 513.572 615.764 522.175 628.879 522.175C631.816 522.175 634.439 521.647 636.747 520.592C639.003 519.536 640.839 518.164 642.256 516.475C643.62 514.786 644.747 512.754 645.639 510.379C646.531 508.004 647.161 505.629 647.528 503.254C647.843 500.879 648 498.346 648 495.654C648 492.804 647.816 490.112 647.449 487.579C647.029 485.098 646.347 482.671 645.403 480.296C644.459 477.973 643.252 475.968 641.784 474.279C640.315 472.59 638.426 471.218 636.118 470.162C633.757 469.16 631.108 468.658 628.17 468.658Z" fill="black"/>
<path d="M473.803 58.1875C468.262 58.1875 463.77 53.6684 463.77 48.0938C463.77 42.5191 468.262 38 473.803 38C479.344 38 483.836 42.5191 483.836 48.0938C483.836 53.6684 479.344 58.1875 473.803 58.1875Z" fill="black"/>
<path d="M534.787 57C529.246 57 524.754 52.4809 524.754 46.9063C524.754 41.3316 529.246 36.8125 534.787 36.8125C540.328 36.8125 544.82 41.3316 544.82 46.9063C544.82 52.4809 540.328 57 534.787 57Z" fill="black"/>
<path d="M539.075 11.0833C530.892 11.0833 524.256 13.6166 519.167 18.6833C514.026 23.7499 511.456 30.3208 511.456 38.3958C511.456 47.3151 513.947 54.4931 518.931 59.9291C523.915 65.3651 530.708 68.0832 539.311 68.0832C547.757 68.0832 554.446 65.5234 559.377 60.4041C564.308 55.2317 566.774 48.4764 566.774 40.1374C566.774 31.7458 564.203 24.8055 559.062 19.3166C553.869 13.8277 547.207 11.0833 539.075 11.0833ZM538.761 66.3416C526.118 66.3416 519.797 57.1056 519.797 38.6332C519.797 21.4277 526.354 12.8249 539.469 12.8249C542.407 12.8249 545.029 13.3527 547.338 14.4083C549.593 15.4638 551.429 16.836 552.846 18.5249C554.21 20.2138 555.338 22.2458 556.229 24.6208C557.121 26.9958 557.751 29.3707 558.118 31.7457C558.433 34.1207 558.59 36.6541 558.59 39.3458C558.59 42.1958 558.406 44.8874 558.039 47.4208C557.62 49.9014 556.938 52.3291 555.993 54.7041C555.049 57.0264 553.842 59.0317 552.374 60.7207C550.905 62.4098 549.016 63.7817 546.708 64.8374C544.347 65.8401 541.698 66.3416 538.761 66.3416Z" fill="black"/>
<path d="M478.485 11.0833C470.302 11.0833 463.666 13.6166 458.577 18.6833C453.436 23.7499 450.866 30.3208 450.866 38.3958C450.866 47.3151 453.357 54.4931 458.341 59.9291C463.325 65.3651 470.118 68.0832 478.721 68.0832C487.167 68.0832 493.856 65.5234 498.787 60.4041C503.718 55.2317 506.184 48.4764 506.184 40.1374C506.184 31.7458 503.613 24.8055 498.472 19.3166C493.279 13.8277 486.616 11.0833 478.485 11.0833ZM478.171 66.3416C465.528 66.3416 459.207 57.1056 459.207 38.6332C459.207 21.4277 465.764 12.8249 478.879 12.8249C481.816 12.8249 484.439 13.3527 486.748 14.4083C489.003 15.4638 490.839 16.836 492.256 18.5249C493.62 20.2138 494.747 22.2458 495.639 24.6208C496.531 26.9958 497.161 29.3707 497.528 31.7457C497.843 34.1207 498 36.6541 498 39.3458C498 42.1958 497.816 44.8874 497.449 47.4208C497.029 49.9014 496.348 52.3291 495.403 54.7041C494.459 57.0264 493.252 59.0317 491.784 60.7207C490.315 62.4098 488.426 63.7817 486.118 64.8374C483.757 65.8401 481.108 66.3416 478.171 66.3416Z" fill="black"/>
<path d="M473.803 564.812C468.262 564.812 463.77 569.332 463.77 574.906C463.77 580.481 468.262 585 473.803 585C479.344 585 483.836 580.481 483.836 574.906C483.836 569.332 479.344 564.812 473.803 564.812Z" fill="black"/>
<path d="M534.787 566C529.246 566 524.754 570.519 524.754 576.094C524.754 581.668 529.246 586.188 534.787 586.188C540.328 586.188 544.82 581.668 544.82 576.094C544.82 570.519 540.328 566 534.787 566Z" fill="black"/>
<path d="M539.075 611.917C530.892 611.917 524.256 609.383 519.167 604.317C514.026 599.25 511.456 592.679 511.456 584.604C511.456 575.685 513.947 568.507 518.931 563.071C523.915 557.635 530.708 554.917 539.311 554.917C547.757 554.917 554.446 557.476 559.377 562.596C564.308 567.768 566.774 574.523 566.774 582.862C566.774 591.254 564.203 598.194 559.062 603.683C553.869 609.172 547.207 611.917 539.075 611.917ZM538.761 556.658C526.118 556.658 519.797 565.894 519.797 584.367C519.797 601.572 526.354 610.175 539.469 610.175C542.407 610.175 545.029 609.647 547.338 608.592C549.593 607.536 551.429 606.164 552.846 604.475C554.21 602.786 555.338 600.754 556.229 598.379C557.121 596.004 557.751 593.629 558.118 591.254C558.433 588.879 558.59 586.346 558.59 583.654C558.59 580.804 558.406 578.112 558.039 575.579C557.62 573.098 556.938 570.671 555.993 568.296C555.049 565.973 553.842 563.968 552.374 562.279C550.905 560.59 549.016 559.218 546.708 558.162C544.347 557.16 541.698 556.658 538.761 556.658Z" fill="black"/>
<path d="M478.485 611.917C470.302 611.917 463.666 609.383 458.577 604.317C453.436 599.25 450.866 592.679 450.866 584.604C450.866 575.685 453.357 568.507 458.341 563.071C463.325 557.635 470.118 554.917 478.721 554.917C487.167 554.917 493.856 557.476 498.787 562.596C503.718 567.768 506.184 574.523 506.184 582.862C506.184 591.254 503.613 598.194 498.472 603.683C493.279 609.172 486.616 611.917 478.485 611.917ZM478.171 556.658C465.528 556.658 459.207 565.894 459.207 584.367C459.207 601.572 465.764 610.175 478.879 610.175C481.816 610.175 484.439 609.647 486.748 608.592C489.003 607.536 490.839 606.164 492.256 604.475C493.62 602.786 494.747 600.754 495.639 598.379C496.531 596.004 497.161 593.629 497.528 591.254C497.843 588.879 498 586.346 498 583.654C498 580.804 497.816 578.112 497.449 575.579C497.029 573.098 496.348 570.671 495.403 568.296C494.459 565.973 493.252 563.968 491.784 562.279C490.315 560.59 488.426 559.218 486.118 558.162C483.757 557.16 481.108 556.658 478.171 556.658Z" fill="black"/>
<path d="M473.803 146.188C468.262 146.188 463.77 141.668 463.77 136.094C463.77 130.519 468.262 126 473.803 126C479.344 126 483.836 130.519 483.836 136.094C483.836 141.668 479.344 146.188 473.803 146.188Z" fill="black"/>
<path d="M534.787 145C529.246 145 524.754 140.481 524.754 134.906C524.754 129.332 529.246 124.812 534.787 124.812C540.328 124.812 544.82 129.332 544.82 134.906C544.82 140.481 540.328 145 534.787 145Z" fill="black"/>
<path d="M539.075 99.0833C530.892 99.0833 524.256 101.617 519.167 106.683C514.026 111.75 511.456 118.321 511.456 126.396C511.456 135.315 513.947 142.493 518.931 147.929C523.915 153.365 530.708 156.083 539.311 156.083C547.757 156.083 554.446 153.523 559.377 148.404C564.308 143.232 566.774 136.476 566.774 128.137C566.774 119.746 564.203 112.805 559.062 107.317C553.869 101.828 547.207 99.0833 539.075 99.0833ZM538.761 154.342C526.118 154.342 519.797 145.106 519.797 126.633C519.797 109.428 526.354 100.825 539.469 100.825C542.407 100.825 545.029 101.353 547.338 102.408C549.593 103.464 551.429 104.836 552.846 106.525C554.21 108.214 555.338 110.246 556.229 112.621C557.121 114.996 557.751 117.371 558.118 119.746C558.433 122.121 558.59 124.654 558.59 127.346C558.59 130.196 558.406 132.887 558.039 135.421C557.62 137.901 556.938 140.329 555.993 142.704C555.049 145.026 553.842 147.032 552.374 148.721C550.905 150.41 549.016 151.782 546.708 152.837C544.347 153.84 541.698 154.342 538.761 154.342Z" fill="black"/>
<path d="M478.485 99.0833C470.302 99.0833 463.666 101.617 458.577 106.683C453.436 111.75 450.866 118.321 450.866 126.396C450.866 135.315 453.357 142.493 458.341 147.929C463.325 153.365 470.118 156.083 478.721 156.083C487.167 156.083 493.856 153.523 498.787 148.404C503.718 143.232 506.184 136.476 506.184 128.137C506.184 119.746 503.613 112.805 498.472 107.317C493.279 101.828 486.616 99.0833 478.485 99.0833ZM478.171 154.342C465.528 154.342 459.207 145.106 459.207 126.633C459.207 109.428 465.764 100.825 478.879 100.825C481.816 100.825 484.439 101.353 486.748 102.408C489.003 103.464 490.839 104.836 492.256 106.525C493.62 108.214 494.747 110.246 495.639 112.621C496.531 114.996 497.161 117.371 497.528 119.746C497.843 122.121 498 124.654 498 127.346C498 130.196 497.816 132.887 497.449 135.421C497.029 137.901 496.348 140.329 495.403 142.704C494.459 145.026 493.252 147.032 491.784 148.721C490.315 150.41 488.426 151.782 486.118 152.837C483.757 153.84 481.108 154.342 478.171 154.342Z" fill="black"/>
<path d="M473.803 476.812C468.262 476.812 463.77 481.332 463.77 486.906C463.77 492.481 468.262 497 473.803 497C479.344 497 483.836 492.481 483.836 486.906C483.836 481.332 479.344 476.812 473.803 476.812Z" fill="black"/>
<path d="M534.787 478C529.246 478 524.754 482.519 524.754 488.094C524.754 493.668 529.246 498.188 534.787 498.188C540.328 498.188 544.82 493.668 544.82 488.094C544.82 482.519 540.328 478 534.787 478Z" fill="black"/>
<path d="M539.075 523.917C530.892 523.917 524.256 521.383 519.167 516.317C514.026 511.25 511.456 504.679 511.456 496.604C511.456 487.685 513.947 480.507 518.931 475.071C523.915 469.635 530.708 466.917 539.311 466.917C547.757 466.917 554.446 469.476 559.377 474.596C564.308 479.768 566.774 486.523 566.774 494.862C566.774 503.254 564.203 510.194 559.062 515.683C553.869 521.172 547.207 523.917 539.075 523.917ZM538.761 468.658C526.118 468.658 519.797 477.894 519.797 496.367C519.797 513.572 526.354 522.175 539.469 522.175C542.407 522.175 545.029 521.647 547.338 520.592C549.593 519.536 551.429 518.164 552.846 516.475C554.21 514.786 555.338 512.754 556.229 510.379C557.121 508.004 557.751 505.629 558.118 503.254C558.433 500.879 558.59 498.346 558.59 495.654C558.59 492.804 558.406 490.112 558.039 487.579C557.62 485.098 556.938 482.671 555.993 480.296C555.049 477.973 553.842 475.968 552.374 474.279C550.905 472.59 549.016 471.218 546.708 470.162C544.347 469.16 541.698 468.658 538.761 468.658Z" fill="black"/>
<path d="M478.485 523.917C470.302 523.917 463.666 521.383 458.577 516.317C453.436 511.25 450.866 504.679 450.866 496.604C450.866 487.685 453.357 480.507 458.341 475.071C463.325 469.635 470.118 466.917 478.721 466.917C487.167 466.917 493.856 469.476 498.787 474.596C503.718 479.768 506.184 486.523 506.184 494.862C506.184 503.254 503.613 510.194 498.472 515.683C493.279 521.172 486.616 523.917 478.485 523.917ZM478.171 468.658C465.528 468.658 459.207 477.894 459.207 496.367C459.207 513.572 465.764 522.175 478.879 522.175C481.816 522.175 484.439 521.647 486.748 520.592C489.003 519.536 490.839 518.164 492.256 516.475C493.62 514.786 494.747 512.754 495.639 510.379C496.531 508.004 497.161 505.629 497.528 503.254C497.843 500.879 498 498.346 498 495.654C498 492.804 497.816 490.112 497.449 487.579C497.029 485.098 496.348 482.671 495.403 480.296C494.459 477.973 493.252 475.968 491.784 474.279C490.315 472.59 488.426 471.218 486.118 470.162C483.757 469.16 481.108 468.658 478.171 468.658Z" fill="black"/>
<path d="M396.197 58.1875C401.738 58.1875 406.23 53.6684 406.23 48.0938C406.23 42.5191 401.738 38 396.197 38C390.656 38 386.164 42.5191 386.164 48.0938C386.164 53.6684 390.656 58.1875 396.197 58.1875Z" fill="black"/>
<path d="M335.213 57C340.754 57 345.246 52.4809 345.246 46.9063C345.246 41.3316 340.754 36.8125 335.213 36.8125C329.672 36.8125 325.18 41.3316 325.18 46.9063C325.18 52.4809 329.672 57 335.213 57Z" fill="black"/>
<path d="M330.925 11.0833C339.108 11.0833 345.744 13.6166 350.833 18.6833C355.974 23.7499 358.544 30.3208 358.544 38.3958C358.544 47.3151 356.053 54.4931 351.069 59.9291C346.085 65.3651 339.292 68.0832 330.689 68.0832C322.243 68.0832 315.554 65.5234 310.623 60.4041C305.692 55.2317 303.226 48.4764 303.226 40.1374C303.226 31.7458 305.797 24.8055 310.938 19.3166C316.131 13.8277 322.793 11.0833 330.925 11.0833ZM331.239 66.3416C343.882 66.3416 350.203 57.1056 350.203 38.6332C350.203 21.4277 343.646 12.8249 330.531 12.8249C327.593 12.8249 324.971 13.3527 322.662 14.4083C320.407 15.4638 318.571 16.836 317.154 18.5249C315.79 20.2138 314.662 22.2458 313.771 24.6208C312.879 26.9958 312.249 29.3707 311.882 31.7457C311.567 34.1207 311.41 36.6541 311.41 39.3458C311.41 42.1958 311.594 44.8874 311.961 47.4208C312.38 49.9014 313.062 52.3291 314.007 54.7041C314.951 57.0264 316.158 59.0317 317.626 60.7207C319.095 62.4098 320.984 63.7817 323.292 64.8374C325.653 65.8401 328.302 66.3416 331.239 66.3416Z" fill="black"/>
<path d="M391.515 11.0833C399.698 11.0833 406.334 13.6166 411.423 18.6833C416.564 23.7499 419.134 30.3208 419.134 38.3958C419.134 47.3151 416.643 54.4931 411.659 59.9291C406.675 65.3651 399.882 68.0832 391.279 68.0832C382.833 68.0832 376.144 65.5234 371.213 60.4041C366.282 55.2317 363.816 48.4764 363.816 40.1374C363.816 31.7458 366.387 24.8055 371.528 19.3166C376.721 13.8277 383.384 11.0833 391.515 11.0833ZM391.829 66.3416C404.472 66.3416 410.793 57.1056 410.793 38.6332C410.793 21.4277 404.236 12.8249 391.121 12.8249C388.184 12.8249 385.561 13.3527 383.252 14.4083C380.997 15.4638 379.161 16.836 377.744 18.5249C376.38 20.2138 375.253 22.2458 374.361 24.6208C373.469 26.9958 372.839 29.3707 372.472 31.7457C372.157 34.1207 372 36.6541 372 39.3458C372 42.1958 372.184 44.8874 372.551 47.4208C372.971 49.9014 373.652 52.3291 374.597 54.7041C375.541 57.0264 376.748 59.0317 378.216 60.7207C379.685 62.4098 381.574 63.7817 383.882 64.8374C386.243 65.8401 388.892 66.3416 391.829 66.3416Z" fill="black"/>
<path d="M396.197 564.812C401.738 564.812 406.23 569.332 406.23 574.906C406.23 580.481 401.738 585 396.197 585C390.656 585 386.164 580.481 386.164 574.906C386.164 569.332 390.656 564.812 396.197 564.812Z" fill="black"/>
<path d="M335.213 566C340.754 566 345.246 570.519 345.246 576.094C345.246 581.668 340.754 586.188 335.213 586.188C329.672 586.188 325.18 581.668 325.18 576.094C325.18 570.519 329.672 566 335.213 566Z" fill="black"/>
<path d="M330.925 611.917C339.108 611.917 345.744 609.383 350.833 604.317C355.974 599.25 358.544 592.679 358.544 584.604C358.544 575.685 356.053 568.507 351.069 563.071C346.085 557.635 339.292 554.917 330.689 554.917C322.243 554.917 315.554 557.476 310.623 562.596C305.692 567.768 303.226 574.523 303.226 582.862C303.226 591.254 305.797 598.194 310.938 603.683C316.131 609.172 322.793 611.917 330.925 611.917ZM331.239 556.658C343.882 556.658 350.203 565.894 350.203 584.367C350.203 601.572 343.646 610.175 330.531 610.175C327.593 610.175 324.971 609.647 322.662 608.592C320.407 607.536 318.571 606.164 317.154 604.475C315.79 602.786 314.662 600.754 313.771 598.379C312.879 596.004 312.249 593.629 311.882 591.254C311.567 588.879 311.41 586.346 311.41 583.654C311.41 580.804 311.594 578.112 311.961 575.579C312.38 573.098 313.062 570.671 314.007 568.296C314.951 565.973 316.158 563.968 317.626 562.279C319.095 560.59 320.984 559.218 323.292 558.162C325.653 557.16 328.302 556.658 331.239 556.658Z" fill="black"/>
<path d="M391.515 611.917C399.698 611.917 406.334 609.383 411.423 604.317C416.564 599.25 419.134 592.679 419.134 584.604C419.134 575.685 416.643 568.507 411.659 563.071C406.675 557.635 399.882 554.917 391.279 554.917C382.833 554.917 376.144 557.476 371.213 562.596C366.282 567.768 363.816 574.523 363.816 582.862C363.816 591.254 366.387 598.194 371.528 603.683C376.721 609.172 383.384 611.917 391.515 611.917ZM391.829 556.658C404.472 556.658 410.793 565.894 410.793 584.367C410.793 601.572 404.236 610.175 391.121 610.175C388.184 610.175 385.561 609.647 383.252 608.592C380.997 607.536 379.161 606.164 377.744 604.475C376.38 602.786 375.253 600.754 374.361 598.379C373.469 596.004 372.839 593.629 372.472 591.254C372.157 588.879 372 586.346 372 583.654C372 580.804 372.184 578.112 372.551 575.579C372.971 573.098 373.652 570.671 374.597 568.296C375.541 565.973 376.748 563.968 378.216 562.279C379.685 560.59 381.574 559.218 383.882 558.162C386.243 557.16 388.892 556.658 391.829 556.658Z" fill="black"/>
<path d="M396.197 146.188C401.738 146.188 406.23 141.668 406.23 136.094C406.23 130.519 401.738 126 396.197 126C390.656 126 386.164 130.519 386.164 136.094C386.164 141.668 390.656 146.188 396.197 146.188Z" fill="black"/>
<path d="M335.213 145C340.754 145 345.246 140.481 345.246 134.906C345.246 129.332 340.754 124.812 335.213 124.812C329.672 124.812 325.18 129.332 325.18 134.906C325.18 140.481 329.672 145 335.213 145Z" fill="black"/>
<path d="M330.925 99.0833C339.108 99.0833 345.744 101.617 350.833 106.683C355.974 111.75 358.544 118.321 358.544 126.396C358.544 135.315 356.053 142.493 351.069 147.929C346.085 153.365 339.292 156.083 330.689 156.083C322.243 156.083 315.554 153.523 310.623 148.404C305.692 143.232 303.226 136.476 303.226 128.137C303.226 119.746 305.797 112.805 310.938 107.317C316.131 101.828 322.793 99.0833 330.925 99.0833ZM331.239 154.342C343.882 154.342 350.203 145.106 350.203 126.633C350.203 109.428 343.646 100.825 330.531 100.825C327.593 100.825 324.971 101.353 322.662 102.408C320.407 103.464 318.571 104.836 317.154 106.525C315.79 108.214 314.662 110.246 313.771 112.621C312.879 114.996 312.249 117.371 311.882 119.746C311.567 122.121 311.41 124.654 311.41 127.346C311.41 130.196 311.594 132.887 311.961 135.421C312.38 137.901 313.062 140.329 314.007 142.704C314.951 145.026 316.158 147.032 317.626 148.721C319.095 150.41 320.984 151.782 323.292 152.837C325.653 153.84 328.302 154.342 331.239 154.342Z" fill="black"/>
<path d="M391.515 99.0833C399.698 99.0833 406.334 101.617 411.423 106.683C416.564 111.75 419.134 118.321 419.134 126.396C419.134 135.315 416.643 142.493 411.659 147.929C406.675 153.365 399.882 156.083 391.279 156.083C382.833 156.083 376.144 153.523 371.213 148.404C366.282 143.232 363.816 136.476 363.816 128.137C363.816 119.746 366.387 112.805 371.528 107.317C376.721 101.828 383.384 99.0833 391.515 99.0833ZM391.829 154.342C404.472 154.342 410.793 145.106 410.793 126.633C410.793 109.428 404.236 100.825 391.121 100.825C388.184 100.825 385.561 101.353 383.252 102.408C380.997 103.464 379.161 104.836 377.744 106.525C376.38 108.214 375.253 110.246 374.361 112.621C373.469 114.996 372.839 117.371 372.472 119.746C372.157 122.121 372 124.654 372 127.346C372 130.196 372.184 132.887 372.551 135.421C372.971 137.901 373.652 140.329 374.597 142.704C375.541 145.026 376.748 147.032 378.216 148.721C379.685 150.41 381.574 151.782 383.882 152.837C386.243 153.84 388.892 154.342 391.829 154.342Z" fill="black"/>
<path d="M396.197 476.812C401.738 476.812 406.23 481.332 406.23 486.906C406.23 492.481 401.738 497 396.197 497C390.656 497 386.164 492.481 386.164 486.906C386.164 481.332 390.656 476.812 396.197 476.812Z" fill="black"/>
<path d="M335.213 478C340.754 478 345.246 482.519 345.246 488.094C345.246 493.668 340.754 498.188 335.213 498.188C329.672 498.188 325.18 493.668 325.18 488.094C325.18 482.519 329.672 478 335.213 478Z" fill="black"/>
<path d="M330.925 523.917C339.108 523.917 345.744 521.383 350.833 516.317C355.974 511.25 358.544 504.679 358.544 496.604C358.544 487.685 356.053 480.507 351.069 475.071C346.085 469.635 339.292 466.917 330.689 466.917C322.243 466.917 315.554 469.476 310.623 474.596C305.692 479.768 303.226 486.523 303.226 494.862C303.226 503.254 305.797 510.194 310.938 515.683C316.131 521.172 322.793 523.917 330.925 523.917ZM331.239 468.658C343.882 468.658 350.203 477.894 350.203 496.367C350.203 513.572 343.646 522.175 330.531 522.175C327.593 522.175 324.971 521.647 322.662 520.592C320.407 519.536 318.571 518.164 317.154 516.475C315.79 514.786 314.662 512.754 313.771 510.379C312.879 508.004 312.249 505.629 311.882 503.254C311.567 500.879 311.41 498.346 311.41 495.654C311.41 492.804 311.594 490.112 311.961 487.579C312.38 485.098 313.062 482.671 314.007 480.296C314.951 477.973 316.158 475.968 317.626 474.279C319.095 472.59 320.984 471.218 323.292 470.162C325.653 469.16 328.302 468.658 331.239 468.658Z" fill="black"/>
<path d="M391.515 523.917C399.698 523.917 406.334 521.383 411.423 516.317C416.564 511.25 419.134 504.679 419.134 496.604C419.134 487.685 416.643 480.507 411.659 475.071C406.675 469.635 399.882 466.917 391.279 466.917C382.833 466.917 376.144 469.476 371.213 474.596C366.282 479.768 363.816 486.523 363.816 494.862C363.816 503.254 366.387 510.194 371.528 515.683C376.721 521.172 383.384 523.917 391.515 523.917ZM391.829 468.658C404.472 468.658 410.793 477.894 410.793 496.367C410.793 513.572 404.236 522.175 391.121 522.175C388.184 522.175 385.561 521.647 383.252 520.592C380.997 519.536 379.161 518.164 377.744 516.475C376.38 514.786 375.253 512.754 374.361 510.379C373.469 508.004 372.839 505.629 372.472 503.254C372.157 500.879 372 498.346 372 495.654C372 492.804 372.184 490.112 372.551 487.579C372.971 485.098 373.652 482.671 374.597 480.296C375.541 477.973 376.748 475.968 378.216 474.279C379.685 472.59 381.574 471.218 383.882 470.162C386.243 469.16 388.892 468.658 391.829 468.658Z" fill="black"/>
<path d="M246.197 58.1875C251.738 58.1875 256.23 53.6684 256.23 48.0938C256.23 42.5191 251.738 38 246.197 38C240.656 38 236.164 42.5191 236.164 48.0938C236.164 53.6684 240.656 58.1875 246.197 58.1875Z" fill="black"/>
<path d="M185.213 57C190.754 57 195.246 52.4809 195.246 46.9063C195.246 41.3316 190.754 36.8125 185.213 36.8125C179.672 36.8125 175.18 41.3316 175.18 46.9063C175.18 52.4809 179.672 57 185.213 57Z" fill="black"/>
<path d="M180.925 11.0833C189.108 11.0833 195.744 13.6166 200.833 18.6833C205.974 23.7499 208.544 30.3208 208.544 38.3958C208.544 47.3151 206.053 54.4931 201.069 59.9291C196.085 65.3651 189.292 68.0832 180.689 68.0832C172.243 68.0832 165.554 65.5234 160.623 60.4041C155.692 55.2317 153.226 48.4764 153.226 40.1374C153.226 31.7458 155.797 24.8055 160.938 19.3166C166.131 13.8277 172.793 11.0833 180.925 11.0833ZM181.239 66.3416C193.882 66.3416 200.203 57.1056 200.203 38.6332C200.203 21.4277 193.646 12.8249 180.531 12.8249C177.593 12.8249 174.971 13.3527 172.662 14.4083C170.407 15.4638 168.571 16.836 167.154 18.5249C165.79 20.2138 164.662 22.2458 163.771 24.6208C162.879 26.9958 162.249 29.3707 161.882 31.7457C161.567 34.1207 161.41 36.6541 161.41 39.3458C161.41 42.1958 161.594 44.8874 161.961 47.4208C162.38 49.9014 163.062 52.3291 164.007 54.7041C164.951 57.0264 166.158 59.0317 167.626 60.7207C169.095 62.4098 170.984 63.7817 173.292 64.8374C175.653 65.8401 178.302 66.3416 181.239 66.3416Z" fill="black"/>
<path d="M241.515 11.0833C249.698 11.0833 256.334 13.6166 261.423 18.6833C266.564 23.7499 269.134 30.3208 269.134 38.3958C269.134 47.3151 266.643 54.4931 261.659 59.9291C256.675 65.3651 249.882 68.0832 241.279 68.0832C232.833 68.0832 226.144 65.5234 221.213 60.4041C216.282 55.2317 213.816 48.4764 213.816 40.1374C213.816 31.7458 216.387 24.8055 221.528 19.3166C226.721 13.8277 233.384 11.0833 241.515 11.0833ZM241.829 66.3416C254.472 66.3416 260.793 57.1056 260.793 38.6332C260.793 21.4277 254.236 12.8249 241.121 12.8249C238.184 12.8249 235.561 13.3527 233.252 14.4083C230.997 15.4638 229.161 16.836 227.744 18.5249C226.38 20.2138 225.253 22.2458 224.361 24.6208C223.469 26.9958 222.839 29.3707 222.472 31.7457C222.157 34.1207 222 36.6541 222 39.3458C222 42.1958 222.184 44.8874 222.551 47.4208C222.971 49.9014 223.652 52.3291 224.597 54.7041C225.541 57.0264 226.748 59.0317 228.216 60.7207C229.685 62.4098 231.574 63.7817 233.882 64.8374C236.243 65.8401 238.892 66.3416 241.829 66.3416Z" fill="black"/>
<path d="M246.197 564.812C251.738 564.812 256.23 569.332 256.23 574.906C256.23 580.481 251.738 585 246.197 585C240.656 585 236.164 580.481 236.164 574.906C236.164 569.332 240.656 564.812 246.197 564.812Z" fill="black"/>
<path d="M185.213 566C190.754 566 195.246 570.519 195.246 576.094C195.246 581.668 190.754 586.188 185.213 586.188C179.672 586.188 175.18 581.668 175.18 576.094C175.18 570.519 179.672 566 185.213 566Z" fill="black"/>
<path d="M180.925 611.917C189.108 611.917 195.744 609.383 200.833 604.317C205.974 599.25 208.544 592.679 208.544 584.604C208.544 575.685 206.053 568.507 201.069 563.071C196.085 557.635 189.292 554.917 180.689 554.917C172.243 554.917 165.554 557.476 160.623 562.596C155.692 567.768 153.226 574.523 153.226 582.862C153.226 591.254 155.797 598.194 160.938 603.683C166.131 609.172 172.793 611.917 180.925 611.917ZM181.239 556.658C193.882 556.658 200.203 565.894 200.203 584.367C200.203 601.572 193.646 610.175 180.531 610.175C177.593 610.175 174.971 609.647 172.662 608.592C170.407 607.536 168.571 606.164 167.154 604.475C165.79 602.786 164.662 600.754 163.771 598.379C162.879 596.004 162.249 593.629 161.882 591.254C161.567 588.879 161.41 586.346 161.41 583.654C161.41 580.804 161.594 578.112 161.961 575.579C162.38 573.098 163.062 570.671 164.007 568.296C164.951 565.973 166.158 563.968 167.626 562.279C169.095 560.59 170.984 559.218 173.292 558.162C175.653 557.16 178.302 556.658 181.239 556.658Z" fill="black"/>
<path d="M241.515 611.917C249.698 611.917 256.334 609.383 261.423 604.317C266.564 599.25 269.134 592.679 269.134 584.604C269.134 575.685 266.643 568.507 261.659 563.071C256.675 557.635 249.882 554.917 241.279 554.917C232.833 554.917 226.144 557.476 221.213 562.596C216.282 567.768 213.816 574.523 213.816 582.862C213.816 591.254 216.387 598.194 221.528 603.683C226.721 609.172 233.384 611.917 241.515 611.917ZM241.829 556.658C254.472 556.658 260.793 565.894 260.793 584.367C260.793 601.572 254.236 610.175 241.121 610.175C238.184 610.175 235.561 609.647 233.252 608.592C230.997 607.536 229.161 606.164 227.744 604.475C226.38 602.786 225.253 600.754 224.361 598.379C223.469 596.004 222.839 593.629 222.472 591.254C222.157 588.879 222 586.346 222 583.654C222 580.804 222.184 578.112 222.551 575.579C222.971 573.098 223.652 570.671 224.597 568.296C225.541 565.973 226.748 563.968 228.216 562.279C229.685 560.59 231.574 559.218 233.882 558.162C236.243 557.16 238.892 556.658 241.829 556.658Z" fill="black"/>
<path d="M246.197 146.188C251.738 146.188 256.23 141.668 256.23 136.094C256.23 130.519 251.738 126 246.197 126C240.656 126 236.164 130.519 236.164 136.094C236.164 141.668 240.656 146.188 246.197 146.188Z" fill="black"/>
<path d="M185.213 145C190.754 145 195.246 140.481 195.246 134.906C195.246 129.332 190.754 124.812 185.213 124.812C179.672 124.812 175.18 129.332 175.18 134.906C175.18 140.481 179.672 145 185.213 145Z" fill="black"/>
<path d="M180.925 99.0833C189.108 99.0833 195.744 101.617 200.833 106.683C205.974 111.75 208.544 118.321 208.544 126.396C208.544 135.315 206.053 142.493 201.069 147.929C196.085 153.365 189.292 156.083 180.689 156.083C172.243 156.083 165.554 153.523 160.623 148.404C155.692 143.232 153.226 136.476 153.226 128.137C153.226 119.746 155.797 112.805 160.938 107.317C166.131 101.828 172.793 99.0833 180.925 99.0833ZM181.239 154.342C193.882 154.342 200.203 145.106 200.203 126.633C200.203 109.428 193.646 100.825 180.531 100.825C177.593 100.825 174.971 101.353 172.662 102.408C170.407 103.464 168.571 104.836 167.154 106.525C165.79 108.214 164.662 110.246 163.771 112.621C162.879 114.996 162.249 117.371 161.882 119.746C161.567 122.121 161.41 124.654 161.41 127.346C161.41 130.196 161.594 132.887 161.961 135.421C162.38 137.901 163.062 140.329 164.007 142.704C164.951 145.026 166.158 147.032 167.626 148.721C169.095 150.41 170.984 151.782 173.292 152.837C175.653 153.84 178.302 154.342 181.239 154.342Z" fill="black"/>
<path d="M241.515 99.0833C249.698 99.0833 256.334 101.617 261.423 106.683C266.564 111.75 269.134 118.321 269.134 126.396C269.134 135.315 266.643 142.493 261.659 147.929C256.675 153.365 249.882 156.083 241.279 156.083C232.833 156.083 226.144 153.523 221.213 148.404C216.282 143.232 213.816 136.476 213.816 128.137C213.816 119.746 216.387 112.805 221.528 107.317C226.721 101.828 233.384 99.0833 241.515 99.0833ZM241.829 154.342C254.472 154.342 260.793 145.106 260.793 126.633C260.793 109.428 254.236 100.825 241.121 100.825C238.184 100.825 235.561 101.353 233.252 102.408C230.997 103.464 229.161 104.836 227.744 106.525C226.38 108.214 225.253 110.246 224.361 112.621C223.469 114.996 222.839 117.371 222.472 119.746C222.157 122.121 222 124.654 222 127.346C222 130.196 222.184 132.887 222.551 135.421C222.971 137.901 223.652 140.329 224.597 142.704C225.541 145.026 226.748 147.032 228.216 148.721C229.685 150.41 231.574 151.782 233.882 152.837C236.243 153.84 238.892 154.342 241.829 154.342Z" fill="black"/>
<path d="M246.197 476.812C251.738 476.812 256.23 481.332 256.23 486.906C256.23 492.481 251.738 497 246.197 497C240.656 497 236.164 492.481 236.164 486.906C236.164 481.332 240.656 476.812 246.197 476.812Z" fill="black"/>
<path d="M185.213 478C190.754 478 195.246 482.519 195.246 488.094C195.246 493.668 190.754 498.188 185.213 498.188C179.672 498.188 175.18 493.668 175.18 488.094C175.18 482.519 179.672 478 185.213 478Z" fill="black"/>
<path d="M180.925 523.917C189.108 523.917 195.744 521.383 200.833 516.317C205.974 511.25 208.544 504.679 208.544 496.604C208.544 487.685 206.053 480.507 201.069 475.071C196.085 469.635 189.292 466.917 180.689 466.917C172.243 466.917 165.554 469.476 160.623 474.596C155.692 479.768 153.226 486.523 153.226 494.862C153.226 503.254 155.797 510.194 160.938 515.683C166.131 521.172 172.793 523.917 180.925 523.917ZM181.239 468.658C193.882 468.658 200.203 477.894 200.203 496.367C200.203 513.572 193.646 522.175 180.531 522.175C177.593 522.175 174.971 521.647 172.662 520.592C170.407 519.536 168.571 518.164 167.154 516.475C165.79 514.786 164.662 512.754 163.771 510.379C162.879 508.004 162.249 505.629 161.882 503.254C161.567 500.879 161.41 498.346 161.41 495.654C161.41 492.804 161.594 490.112 161.961 487.579C162.38 485.098 163.062 482.671 164.007 480.296C164.951 477.973 166.158 475.968 167.626 474.279C169.095 472.59 170.984 471.218 173.292 470.162C175.653 469.16 178.302 468.658 181.239 468.658Z" fill="black"/>
<path d="M241.515 523.917C249.698 523.917 256.334 521.383 261.423 516.317C266.564 511.25 269.134 504.679 269.134 496.604C269.134 487.685 266.643 480.507 261.659 475.071C256.675 469.635 249.882 466.917 241.279 466.917C232.833 466.917 226.144 469.476 221.213 474.596C216.282 479.768 213.816 486.523 213.816 494.862C213.816 503.254 216.387 510.194 221.528 515.683C226.721 521.172 233.384 523.917 241.515 523.917ZM241.829 468.658C254.472 468.658 260.793 477.894 260.793 496.367C260.793 513.572 254.236 522.175 241.121 522.175C238.184 522.175 235.561 521.647 233.252 520.592C230.997 519.536 229.161 518.164 227.744 516.475C226.38 514.786 225.253 512.754 224.361 510.379C223.469 508.004 222.839 505.629 222.472 503.254C222.157 500.879 222 498.346 222 495.654C222 492.804 222.184 490.112 222.551 487.579C222.971 485.098 223.652 482.671 224.597 480.296C225.541 477.973 226.748 475.968 228.216 474.279C229.685 472.59 231.574 471.218 233.882 470.162C236.243 469.16 238.892 468.658 241.829 468.658Z" fill="black"/>
<path d="M96.1967 58.1875C101.738 58.1875 106.23 53.6684 106.23 48.0938C106.23 42.5191 101.738 38 96.1967 38C90.6558 38 86.1639 42.5191 86.1639 48.0938C86.1639 53.6684 90.6558 58.1875 96.1967 58.1875Z" fill="black"/>
<path d="M35.2132 57C40.7542 57 45.246 52.4809 45.246 46.9063C45.246 41.3316 40.7542 36.8125 35.2132 36.8125C29.6722 36.8125 25.1804 41.3316 25.1804 46.9063C25.1804 52.4809 29.6722 57 35.2132 57Z" fill="black"/>
<path d="M30.9246 11.0833C39.1082 11.0833 45.7444 13.6166 50.8328 18.6833C55.9739 23.7499 58.5443 30.3208 58.5443 38.3958C58.5443 47.3151 56.0526 54.4931 51.0689 59.9291C46.0852 65.3651 39.292 68.0832 30.6886 68.0832C22.2425 68.0832 15.554 65.5234 10.623 60.4041C5.69197 55.2317 3.22627 48.4764 3.22627 40.1374C3.22627 31.7458 5.79662 24.8055 10.9377 19.3166C16.1312 13.8277 22.7934 11.0833 30.9246 11.0833ZM31.2394 66.3416C43.8819 66.3416 50.2033 57.1056 50.2033 38.6332C50.2033 21.4277 43.6458 12.8249 30.5312 12.8249C27.5934 12.8249 24.9707 13.3527 22.6623 14.4083C20.4067 15.4638 18.5705 16.836 17.1541 18.5249C15.7901 20.2138 14.6625 22.2458 13.7705 24.6208C12.8786 26.9958 12.2491 29.3707 11.882 31.7457C11.5673 34.1207 11.4099 36.6541 11.4099 39.3458C11.4099 42.1958 11.5936 44.8874 11.9607 47.4208C12.3805 49.9014 13.0623 52.3291 14.0066 54.7041C14.9509 57.0264 16.1575 59.0317 17.6263 60.7207C19.095 62.4098 20.9835 63.7817 23.2918 64.8374C25.6525 65.8401 28.3015 66.3416 31.2394 66.3416Z" fill="black"/>
<path d="M91.5147 11.0833C99.6983 11.0833 106.334 13.6166 111.423 18.6833C116.564 23.7499 119.134 30.3208 119.134 38.3958C119.134 47.3151 116.643 54.4931 111.659 59.9291C106.675 65.3651 99.882 68.0832 91.2787 68.0832C82.8327 68.0832 76.1441 65.5234 71.2131 60.4041C66.2821 55.2317 63.8164 48.4764 63.8164 40.1374C63.8164 31.7458 66.3867 24.8055 71.5278 19.3166C76.7213 13.8277 83.3836 11.0833 91.5147 11.0833ZM91.8295 66.3416C104.472 66.3416 110.793 57.1056 110.793 38.6332C110.793 21.4277 104.236 12.8249 91.1213 12.8249C88.1836 12.8249 85.5606 13.3527 83.2524 14.4083C80.9967 15.4638 79.1606 16.836 77.7442 18.5249C76.3802 20.2138 75.2526 22.2458 74.3606 24.6208C73.4687 26.9958 72.8392 29.3707 72.4721 31.7457C72.1574 34.1207 72 36.6541 72 39.3458C72 42.1958 72.1837 44.8874 72.5508 47.4208C72.9706 49.9014 73.6524 52.3291 74.5967 54.7041C75.541 57.0264 76.7476 59.0317 78.2164 60.7207C79.6851 62.4098 81.5737 63.7817 83.8819 64.8374C86.2426 65.8401 88.8918 66.3416 91.8295 66.3416Z" fill="black"/>
<path d="M96.1967 564.812C101.738 564.812 106.23 569.332 106.23 574.906C106.23 580.481 101.738 585 96.1967 585C90.6558 585 86.1639 580.481 86.1639 574.906C86.1639 569.332 90.6558 564.812 96.1967 564.812Z" fill="black"/>
<path d="M35.2132 566C40.7542 566 45.246 570.519 45.246 576.094C45.246 581.668 40.7542 586.188 35.2132 586.188C29.6722 586.188 25.1804 581.668 25.1804 576.094C25.1804 570.519 29.6722 566 35.2132 566Z" fill="black"/>
<path d="M30.9246 611.917C39.1082 611.917 45.7444 609.383 50.8328 604.317C55.9739 599.25 58.5443 592.679 58.5443 584.604C58.5443 575.685 56.0526 568.507 51.0689 563.071C46.0852 557.635 39.292 554.917 30.6886 554.917C22.2425 554.917 15.554 557.476 10.623 562.596C5.69197 567.768 3.22627 574.523 3.22627 582.862C3.22627 591.254 5.79662 598.194 10.9377 603.683C16.1312 609.172 22.7934 611.917 30.9246 611.917ZM31.2394 556.658C43.8819 556.658 50.2033 565.894 50.2033 584.367C50.2033 601.572 43.6458 610.175 30.5312 610.175C27.5934 610.175 24.9707 609.647 22.6623 608.592C20.4067 607.536 18.5705 606.164 17.1541 604.475C15.7901 602.786 14.6625 600.754 13.7705 598.379C12.8786 596.004 12.2491 593.629 11.882 591.254C11.5673 588.879 11.4099 586.346 11.4099 583.654C11.4099 580.804 11.5936 578.112 11.9607 575.579C12.3805 573.098 13.0623 570.671 14.0066 568.296C14.9509 565.973 16.1575 563.968 17.6263 562.279C19.095 560.59 20.9835 559.218 23.2918 558.162C25.6525 557.16 28.3015 556.658 31.2394 556.658Z" fill="black"/>
<path d="M91.5147 611.917C99.6983 611.917 106.334 609.383 111.423 604.317C116.564 599.25 119.134 592.679 119.134 584.604C119.134 575.685 116.643 568.507 111.659 563.071C106.675 557.635 99.882 554.917 91.2787 554.917C82.8327 554.917 76.1441 557.476 71.2131 562.596C66.2821 567.768 63.8164 574.523 63.8164 582.862C63.8164 591.254 66.3867 598.194 71.5278 603.683C76.7213 609.172 83.3836 611.917 91.5147 611.917ZM91.8295 556.658C104.472 556.658 110.793 565.894 110.793 584.367C110.793 601.572 104.236 610.175 91.1213 610.175C88.1836 610.175 85.5606 609.647 83.2524 608.592C80.9967 607.536 79.1606 606.164 77.7442 604.475C76.3802 602.786 75.2526 600.754 74.3606 598.379C73.4687 596.004 72.8392 593.629 72.4721 591.254C72.1574 588.879 72 586.346 72 583.654C72 580.804 72.1837 578.112 72.5508 575.579C72.9706 573.098 73.6524 570.671 74.5967 568.296C75.541 565.973 76.7476 563.968 78.2164 562.279C79.6851 560.59 81.5737 559.218 83.8819 558.162C86.2426 557.16 88.8918 556.658 91.8295 556.658Z" fill="black"/>
<path d="M96.1967 146.188C101.738 146.188 106.23 141.668 106.23 136.094C106.23 130.519 101.738 126 96.1967 126C90.6558 126 86.1639 130.519 86.1639 136.094C86.1639 141.668 90.6558 146.188 96.1967 146.188Z" fill="black"/>
<path d="M35.2132 145C40.7542 145 45.246 140.481 45.246 134.906C45.246 129.332 40.7542 124.812 35.2132 124.812C29.6722 124.812 25.1804 129.332 25.1804 134.906C25.1804 140.481 29.6722 145 35.2132 145Z" fill="black"/>
<path d="M30.9246 99.0833C39.1082 99.0833 45.7444 101.617 50.8328 106.683C55.9739 111.75 58.5443 118.321 58.5443 126.396C58.5443 135.315 56.0526 142.493 51.0689 147.929C46.0852 153.365 39.292 156.083 30.6886 156.083C22.2425 156.083 15.554 153.523 10.623 148.404C5.69197 143.232 3.22627 136.476 3.22627 128.137C3.22627 119.746 5.79662 112.805 10.9377 107.317C16.1312 101.828 22.7934 99.0833 30.9246 99.0833ZM31.2394 154.342C43.8819 154.342 50.2033 145.106 50.2033 126.633C50.2033 109.428 43.6458 100.825 30.5312 100.825C27.5934 100.825 24.9707 101.353 22.6623 102.408C20.4067 103.464 18.5705 104.836 17.1541 106.525C15.7901 108.214 14.6625 110.246 13.7705 112.621C12.8786 114.996 12.2491 117.371 11.882 119.746C11.5673 122.121 11.4099 124.654 11.4099 127.346C11.4099 130.196 11.5936 132.887 11.9607 135.421C12.3805 137.901 13.0623 140.329 14.0066 142.704C14.9509 145.026 16.1575 147.032 17.6263 148.721C19.095 150.41 20.9835 151.782 23.2918 152.837C25.6525 153.84 28.3015 154.342 31.2394 154.342Z" fill="black"/>
<path d="M91.5147 99.0833C99.6983 99.0833 106.334 101.617 111.423 106.683C116.564 111.75 119.134 118.321 119.134 126.396C119.134 135.315 116.643 142.493 111.659 147.929C106.675 153.365 99.882 156.083 91.2787 156.083C82.8327 156.083 76.1441 153.523 71.2131 148.404C66.2821 143.232 63.8164 136.476 63.8164 128.137C63.8164 119.746 66.3867 112.805 71.5278 107.317C76.7213 101.828 83.3836 99.0833 91.5147 99.0833ZM91.8295 154.342C104.472 154.342 110.793 145.106 110.793 126.633C110.793 109.428 104.236 100.825 91.1213 100.825C88.1836 100.825 85.5606 101.353 83.2524 102.408C80.9967 103.464 79.1606 104.836 77.7442 106.525C76.3802 108.214 75.2526 110.246 74.3606 112.621C73.4687 114.996 72.8392 117.371 72.4721 119.746C72.1574 122.121 72 124.654 72 127.346C72 130.196 72.1837 132.887 72.5508 135.421C72.9706 137.901 73.6524 140.329 74.5967 142.704C75.541 145.026 76.7476 147.032 78.2164 148.721C79.6851 150.41 81.5737 151.782 83.8819 152.837C86.2426 153.84 88.8918 154.342 91.8295 154.342Z" fill="black"/>
<path d="M96.1967 476.812C101.738 476.812 106.23 481.332 106.23 486.906C106.23 492.481 101.738 497 96.1967 497C90.6558 497 86.1639 492.481 86.1639 486.906C86.1639 481.332 90.6558 476.812 96.1967 476.812Z" fill="black"/>
<path d="M35.2132 478C40.7542 478 45.246 482.519 45.246 488.094C45.246 493.668 40.7542 498.188 35.2132 498.188C29.6722 498.188 25.1804 493.668 25.1804 488.094C25.1804 482.519 29.6722 478 35.2132 478Z" fill="black"/>
<path d="M30.9246 523.917C39.1082 523.917 45.7444 521.383 50.8328 516.317C55.9739 511.25 58.5443 504.679 58.5443 496.604C58.5443 487.685 56.0526 480.507 51.0689 475.071C46.0852 469.635 39.292 466.917 30.6886 466.917C22.2425 466.917 15.554 469.476 10.623 474.596C5.69197 479.768 3.22627 486.523 3.22627 494.862C3.22627 503.254 5.79662 510.194 10.9377 515.683C16.1312 521.172 22.7934 523.917 30.9246 523.917ZM31.2394 468.658C43.8819 468.658 50.2033 477.894 50.2033 496.367C50.2033 513.572 43.6458 522.175 30.5312 522.175C27.5934 522.175 24.9707 521.647 22.6623 520.592C20.4067 519.536 18.5705 518.164 17.1541 516.475C15.7901 514.786 14.6625 512.754 13.7705 510.379C12.8786 508.004 12.2491 505.629 11.882 503.254C11.5673 500.879 11.4099 498.346 11.4099 495.654C11.4099 492.804 11.5936 490.112 11.9607 487.579C12.3805 485.098 13.0623 482.671 14.0066 480.296C14.9509 477.973 16.1575 475.968 17.6263 474.279C19.095 472.59 20.9835 471.218 23.2918 470.162C25.6525 469.16 28.3015 468.658 31.2394 468.658Z" fill="black"/>
<path d="M91.5147 523.917C99.6983 523.917 106.334 521.383 111.423 516.317C116.564 511.25 119.134 504.679 119.134 496.604C119.134 487.685 116.643 480.507 111.659 475.071C106.675 469.635 99.882 466.917 91.2787 466.917C82.8327 466.917 76.1441 469.476 71.2131 474.596C66.2821 479.768 63.8164 486.523 63.8164 494.862C63.8164 503.254 66.3867 510.194 71.5278 515.683C76.7213 521.172 83.3836 523.917 91.5147 523.917ZM91.8295 468.658C104.472 468.658 110.793 477.894 110.793 496.367C110.793 513.572 104.236 522.175 91.1213 522.175C88.1836 522.175 85.5606 521.647 83.2524 520.592C80.9967 519.536 79.1606 518.164 77.7442 516.475C76.3802 514.786 75.2526 512.754 74.3606 510.379C73.4687 508.004 72.8392 505.629 72.4721 503.254C72.1574 500.879 72 498.346 72 495.654C72 492.804 72.1837 490.112 72.5508 487.579C72.9706 485.098 73.6524 482.671 74.5967 480.296C75.541 477.973 76.7476 475.968 78.2164 474.279C79.6851 472.59 81.5737 471.218 83.8819 470.162C86.2426 469.16 88.8918 468.658 91.8295 468.658Z" fill="black"/>
</svg>
