<svg width="676" height="215" viewBox="0 0 676 215" fill="none" xmlns="http://www.w3.org/2000/svg">
<path d="M23.7842 40.8034L4.1582 40.2632" stroke="black" stroke-width="2"/>
<path d="M13.7373 51.873L14.2048 29.1938" stroke="black" stroke-width="4"/>
<path d="M6.55371 43.1655L6.67059 37.4957" stroke="black" stroke-width="3"/>
<path d="M21.2725 43.5708L21.3893 37.901" stroke="black" stroke-width="3"/>
<path d="M16.6006 32.0962L11.6945 31.9611" stroke="black" stroke-width="3"/>
<path d="M16.249 49.106L11.3429 48.9709" stroke="black" stroke-width="3"/>
<path d="M12.4601 41.0591L13.4947 39.8657L4.88314 28.9371L4.84538 30.7689L6.80743 33.5722L4.75727 35.0431L4.71951 36.8749L7.53927 34.8142L12.4601 41.0591Z" fill="black"/>
<path d="M12.4845 39.9253L13.4687 41.1743L4.41667 51.6166L4.45443 49.7848L6.52976 47.0927L4.54253 45.5106L4.58029 43.6788L7.31195 45.8923L12.4845 39.9253Z" fill="black"/>
<path d="M15.0369 40.5628L13.9475 41.6965L23.0602 52.1297L23.0962 50.3851L21.0193 47.7096L23.1801 46.3145L23.216 44.5699L20.2442 46.5246L15.0369 40.5628Z" fill="black"/>
<path d="M15.0369 40.5628L13.9967 39.3122L23.5394 28.8834L23.5016 30.7152L21.3141 33.4042L23.4135 34.9894L23.3758 36.8212L20.4899 34.6034L15.0369 40.5628Z" fill="black"/>
<path d="M24.3057 108.858L4.67969 108.318" stroke="black" stroke-width="2"/>
<path d="M14.2588 119.928L14.7263 97.2485" stroke="black" stroke-width="4"/>
<path d="M7.0752 111.22L7.19207 105.55" stroke="black" stroke-width="3"/>
<path d="M21.7939 111.625L21.9108 105.956" stroke="black" stroke-width="3"/>
<path d="M17.1221 100.151L12.216 100.016" stroke="black" stroke-width="3"/>
<path d="M16.7705 117.16L11.8644 117.025" stroke="black" stroke-width="3"/>
<path d="M12.9826 109.114L14.0171 107.92L5.4056 96.9918L5.36784 98.8236L7.32989 101.627L5.27973 103.098L5.24197 104.93L8.06173 102.869L12.9826 109.114Z" fill="black"/>
<path d="M13.006 107.98L13.9902 109.229L4.93815 119.671L4.97591 117.839L7.05125 115.147L5.06402 113.565L5.10178 111.734L7.83343 113.947L13.006 107.98Z" fill="black"/>
<path d="M15.5584 108.617L14.469 109.751L23.5817 120.184L23.6176 118.44L21.5407 115.764L23.7015 114.369L23.7375 112.625L20.7656 114.579L15.5584 108.617Z" fill="black"/>
<path d="M15.5584 108.617L14.5182 107.367L24.0609 96.9381L24.0231 98.7699L21.8356 101.459L23.935 103.044L23.8972 104.876L21.0114 102.658L15.5584 108.617Z" fill="black"/>
<path d="M24.8253 176.913L5.19922 176.373" stroke="black" stroke-width="2"/>
<path d="M14.7783 187.982L15.2458 165.303" stroke="black" stroke-width="4"/>
<path d="M7.59473 179.275L7.7116 173.606" stroke="black" stroke-width="3"/>
<path d="M22.3135 179.68L22.4304 174.01" stroke="black" stroke-width="3"/>
<path d="M17.6416 168.206L12.7355 168.071" stroke="black" stroke-width="3"/>
<path d="M17.29 185.215L12.384 185.08" stroke="black" stroke-width="3"/>
<path d="M13.5021 177.168L14.5366 175.975L5.92513 165.047L5.88737 166.878L7.84942 169.682L5.79926 171.152L5.7615 172.984L8.58126 170.924L13.5021 177.168Z" fill="black"/>
<path d="M13.5256 176.035L14.5097 177.284L5.45768 187.726L5.49544 185.894L7.57078 183.202L5.58355 181.62L5.62131 179.788L8.35296 182.002L13.5256 176.035Z" fill="black"/>
<path d="M16.0779 176.672L14.9885 177.806L24.1012 188.239L24.1372 186.494L22.0603 183.819L24.2211 182.424L24.257 180.679L21.2852 182.634L16.0779 176.672Z" fill="black"/>
<path d="M16.0779 176.672L15.0377 175.422L24.5804 164.993L24.5426 166.825L22.3552 169.514L24.4545 171.099L24.4168 172.931L21.5309 170.713L16.0779 176.672Z" fill="black"/>
<path d="M23.9591 63.4885L4.33301 62.9482" stroke="black" stroke-width="2"/>
<path d="M13.9121 74.5581L14.3796 51.8789" stroke="black" stroke-width="4"/>
<path d="M6.72852 65.8506L6.84539 60.1808" stroke="black" stroke-width="3"/>
<path d="M21.4473 66.2559L21.5641 60.586" stroke="black" stroke-width="3"/>
<path d="M16.7754 54.7812L11.8693 54.6462" stroke="black" stroke-width="3"/>
<path d="M16.4238 71.7905L11.5177 71.6555" stroke="black" stroke-width="3"/>
<path d="M12.6349 63.7441L13.6695 62.5507L5.05794 51.6222L5.02018 53.454L6.98224 56.2572L4.93207 57.7282L4.89431 59.5599L7.71407 57.4993L12.6349 63.7441Z" fill="black"/>
<path d="M12.6594 62.6103L13.6435 63.8593L4.59147 74.3016L4.62923 72.4698L6.70457 69.7777L4.71734 68.1957L4.7551 66.3639L7.48675 68.5774L12.6594 62.6103Z" fill="black"/>
<path d="M15.2117 63.2478L14.1223 64.3815L23.235 74.8147L23.271 73.0702L21.1941 70.3947L23.3549 68.9995L23.3908 67.255L20.419 69.2096L15.2117 63.2478Z" fill="black"/>
<path d="M15.2117 63.2478L14.1715 61.9973L23.7142 51.5685L23.6764 53.4003L21.4889 56.0893L23.5883 57.6744L23.5506 59.5062L20.6647 57.2885L15.2117 63.2478Z" fill="black"/>
<path d="M24.4796 131.543L4.85352 131.002" stroke="black" stroke-width="2"/>
<path d="M14.4326 142.612L14.9001 119.933" stroke="black" stroke-width="4"/>
<path d="M7.24902 133.905L7.3659 128.235" stroke="black" stroke-width="3"/>
<path d="M21.9678 134.31L22.0847 128.64" stroke="black" stroke-width="3"/>
<path d="M17.2959 122.835L12.3898 122.7" stroke="black" stroke-width="3"/>
<path d="M16.9443 139.845L12.0383 139.71" stroke="black" stroke-width="3"/>
<path d="M13.1554 131.798L14.19 130.605L5.57845 119.676L5.54069 121.508L7.50274 124.311L5.45258 125.782L5.41482 127.614L8.23458 125.553L13.1554 131.798Z" fill="black"/>
<path d="M13.1799 130.665L14.164 131.914L5.11198 142.356L5.14974 140.524L7.22507 137.832L5.23785 136.25L5.27561 134.418L8.00726 136.632L13.1799 130.665Z" fill="black"/>
<path d="M15.7322 131.302L14.6428 132.436L23.7555 142.869L23.7915 141.124L21.7146 138.449L23.8754 137.054L23.9113 135.309L20.9395 137.264L15.7322 131.302Z" fill="black"/>
<path d="M15.7322 131.302L14.692 130.051L24.2347 119.623L24.1969 121.454L22.0095 124.144L24.1088 125.729L24.0711 127.56L21.1852 125.343L15.7322 131.302Z" fill="black"/>
<path d="M24.1319 86.173L4.50586 85.6328" stroke="black" stroke-width="2"/>
<path d="M14.085 97.2427L14.5525 74.5634" stroke="black" stroke-width="4"/>
<path d="M6.90137 88.5352L7.01825 82.8653" stroke="black" stroke-width="3"/>
<path d="M21.6201 88.9404L21.737 83.2706" stroke="black" stroke-width="3"/>
<path d="M16.9482 77.4658L12.0422 77.3308" stroke="black" stroke-width="3"/>
<path d="M16.5967 94.4751L11.6906 94.3401" stroke="black" stroke-width="3"/>
<path d="M12.8078 86.4287L13.8423 85.2353L5.23079 74.3068L5.19303 76.1386L7.15509 78.9418L5.10493 80.4127L5.06717 82.2445L7.88692 80.1838L12.8078 86.4287Z" fill="black"/>
<path d="M12.8322 85.2949L13.8164 86.5439L4.76432 96.9862L4.80208 95.1544L6.87742 92.4623L4.89019 90.8802L4.92795 89.0485L7.6596 91.2619L12.8322 85.2949Z" fill="black"/>
<path d="M15.3846 85.9324L14.2952 87.0661L23.4078 97.4993L23.4438 95.7547L21.3669 93.0792L23.5277 91.6841L23.5637 89.9395L20.5918 91.8942L15.3846 85.9324Z" fill="black"/>
<path d="M15.3846 85.9324L14.3443 84.6819L23.887 74.2531L23.8493 76.0848L21.6618 78.7739L23.7612 80.359L23.7234 82.1908L20.8376 79.9731L15.3846 85.9324Z" fill="black"/>
<path d="M24.6514 154.228L5.02539 153.688" stroke="black" stroke-width="2"/>
<path d="M14.6045 165.297L15.072 142.618" stroke="black" stroke-width="4"/>
<path d="M7.4209 156.59L7.53778 150.92" stroke="black" stroke-width="3"/>
<path d="M22.1396 156.995L22.2565 151.325" stroke="black" stroke-width="3"/>
<path d="M17.4678 145.521L12.5617 145.385" stroke="black" stroke-width="3"/>
<path d="M17.1162 162.53L12.2101 162.395" stroke="black" stroke-width="3"/>
<path d="M13.3273 154.483L14.3618 153.29L5.75033 142.361L5.71257 144.193L7.67462 146.996L5.62446 148.467L5.5867 150.299L8.40646 148.239L13.3273 154.483Z" fill="black"/>
<path d="M13.3517 153.35L14.3359 154.599L5.28385 165.041L5.32161 163.209L7.39695 160.517L5.40972 158.935L5.44748 157.103L8.17913 159.317L13.3517 153.35Z" fill="black"/>
<path d="M15.9041 153.987L14.8147 155.121L23.9274 165.554L23.9633 163.809L21.8864 161.134L24.0473 159.739L24.0832 157.994L21.1113 159.949L15.9041 153.987Z" fill="black"/>
<path d="M15.9041 153.987L14.8639 152.737L24.4066 142.308L24.3688 144.14L22.1813 146.829L24.2807 148.414L24.2429 150.245L21.3571 148.028L15.9041 153.987Z" fill="black"/>
<path d="M671.142 40.8044L651.516 40.2642" stroke="black" stroke-width="2"/>
<path d="M661.095 51.874L661.562 29.1948" stroke="black" stroke-width="4"/>
<path d="M653.911 43.1665L654.028 37.4967" stroke="black" stroke-width="3"/>
<path d="M668.63 43.5718L668.747 37.902" stroke="black" stroke-width="3"/>
<path d="M663.958 32.0977L659.052 31.9626" stroke="black" stroke-width="3"/>
<path d="M663.606 49.1069L658.7 48.9719" stroke="black" stroke-width="3"/>
<path d="M659.819 41.06L660.853 39.8666L652.242 28.9381L652.204 30.7699L654.166 33.5732L652.116 35.0441L652.078 36.8759L654.898 34.8152L659.819 41.06Z" fill="black"/>
<path d="M659.842 39.9263L660.826 41.1752L651.774 51.6175L651.812 49.7858L653.887 47.0936L651.9 45.5116L651.938 43.6798L654.669 45.8933L659.842 39.9263Z" fill="black"/>
<path d="M662.394 40.5637L661.305 41.6974L670.418 52.1306L670.454 50.3861L668.377 47.7106L670.537 46.3154L670.573 44.5709L667.602 46.5256L662.394 40.5637Z" fill="black"/>
<path d="M662.394 40.5637L661.354 39.3132L670.897 28.8844L670.859 30.7162L668.672 33.4052L670.771 34.9904L670.733 36.8221L667.847 34.6044L662.394 40.5637Z" fill="black"/>
<path d="M671.662 108.859L652.036 108.319" stroke="black" stroke-width="2"/>
<path d="M661.615 119.929L662.083 97.2495" stroke="black" stroke-width="4"/>
<path d="M654.432 111.221L654.549 105.551" stroke="black" stroke-width="3"/>
<path d="M669.15 111.626L669.267 105.957" stroke="black" stroke-width="3"/>
<path d="M664.479 100.152L659.573 100.017" stroke="black" stroke-width="3"/>
<path d="M664.127 117.161L659.221 117.026" stroke="black" stroke-width="3"/>
<path d="M660.339 109.115L661.374 107.921L652.762 96.9928L652.724 98.8246L654.686 101.628L652.636 103.099L652.598 104.931L655.418 102.87L660.339 109.115Z" fill="black"/>
<path d="M660.362 107.981L661.347 109.23L652.295 119.672L652.332 117.84L654.408 115.148L652.42 113.566L652.458 111.734L655.19 113.948L660.362 107.981Z" fill="black"/>
<path d="M662.915 108.618L661.825 109.752L670.938 120.185L670.974 118.441L668.897 115.765L671.058 114.37L671.094 112.626L668.122 114.58L662.915 108.618Z" fill="black"/>
<path d="M662.915 108.618L661.875 107.368L671.417 96.9391L671.38 98.7709L669.192 101.46L671.291 103.045L671.254 104.877L668.368 102.659L662.915 108.618Z" fill="black"/>
<path d="M672.183 176.913L652.557 176.373" stroke="black" stroke-width="2"/>
<path d="M662.136 187.983L662.603 165.304" stroke="black" stroke-width="4"/>
<path d="M654.952 179.275L655.069 173.606" stroke="black" stroke-width="3"/>
<path d="M669.671 179.681L669.788 174.011" stroke="black" stroke-width="3"/>
<path d="M664.999 168.206L660.093 168.071" stroke="black" stroke-width="3"/>
<path d="M664.647 185.215L659.741 185.08" stroke="black" stroke-width="3"/>
<path d="M660.86 177.169L661.894 175.976L653.283 165.047L653.245 166.879L655.207 169.682L653.157 171.153L653.119 172.985L655.939 170.924L660.86 177.169Z" fill="black"/>
<path d="M660.883 176.035L661.867 177.284L652.815 187.726L652.853 185.895L654.928 183.203L652.941 181.62L652.979 179.789L655.71 182.002L660.883 176.035Z" fill="black"/>
<path d="M663.435 176.673L662.346 177.806L671.459 188.24L671.495 186.495L669.418 183.819L671.579 182.424L671.614 180.68L668.643 182.634L663.435 176.673Z" fill="black"/>
<path d="M663.435 176.673L662.395 175.422L671.938 164.993L671.9 166.825L669.713 169.514L671.812 171.099L671.774 172.931L668.888 170.713L663.435 176.673Z" fill="black"/>
<path d="M671.316 63.489L651.69 62.9487" stroke="black" stroke-width="2"/>
<path d="M661.27 74.5586L661.737 51.8793" stroke="black" stroke-width="4"/>
<path d="M654.086 65.8511L654.203 60.1813" stroke="black" stroke-width="3"/>
<path d="M668.805 66.2563L668.922 60.5865" stroke="black" stroke-width="3"/>
<path d="M664.134 54.7817L659.228 54.6467" stroke="black" stroke-width="3"/>
<path d="M663.781 71.791L658.875 71.656" stroke="black" stroke-width="3"/>
<path d="M659.993 63.7446L661.028 62.5512L652.416 51.6227L652.379 53.4545L654.341 56.2577L652.29 57.7286L652.253 59.5604L655.072 57.4998L659.993 63.7446Z" fill="black"/>
<path d="M660.017 62.6108L661.001 63.8598L651.949 74.3021L651.987 72.4703L654.062 69.7782L652.075 68.1962L652.113 66.3644L654.844 68.5779L660.017 62.6108Z" fill="black"/>
<path d="M662.569 63.2483L661.48 64.382L670.592 74.8152L670.628 73.0707L668.551 70.3952L670.712 69L670.748 67.2555L667.776 69.2101L662.569 63.2483Z" fill="black"/>
<path d="M662.569 63.2483L661.529 61.9978L671.072 51.569L671.034 53.4008L668.846 56.0898L670.946 57.6749L670.908 59.5067L668.022 57.289L662.569 63.2483Z" fill="black"/>
<path d="M671.837 131.544L652.211 131.004" stroke="black" stroke-width="2"/>
<path d="M661.79 142.613L662.258 119.934" stroke="black" stroke-width="4"/>
<path d="M654.606 133.906L654.723 128.236" stroke="black" stroke-width="3"/>
<path d="M669.325 134.312L669.442 128.642" stroke="black" stroke-width="3"/>
<path d="M664.653 122.836L659.747 122.701" stroke="black" stroke-width="3"/>
<path d="M664.302 139.846L659.396 139.711" stroke="black" stroke-width="3"/>
<path d="M660.514 131.799L661.548 130.606L652.937 119.677L652.899 121.509L654.861 124.312L652.811 125.783L652.773 127.615L655.593 125.554L660.514 131.799Z" fill="black"/>
<path d="M660.537 130.666L661.521 131.914L652.469 142.357L652.507 140.525L654.582 137.833L652.595 136.251L652.633 134.419L655.365 136.633L660.537 130.666Z" fill="black"/>
<path d="M663.09 131.303L662 132.437L671.113 142.87L671.149 141.125L669.072 138.45L671.233 137.055L671.269 135.31L668.297 137.265L663.09 131.303Z" fill="black"/>
<path d="M663.09 131.303L662.049 130.052L671.592 119.624L671.554 121.455L669.367 124.144L671.466 125.73L671.428 127.561L668.543 125.344L663.09 131.303Z" fill="black"/>
<path d="M671.489 86.174L651.863 85.6338" stroke="black" stroke-width="2"/>
<path d="M661.442 97.2437L661.91 74.5644" stroke="black" stroke-width="4"/>
<path d="M654.259 88.5361L654.376 82.8663" stroke="black" stroke-width="3"/>
<path d="M668.978 88.9414L669.094 83.2716" stroke="black" stroke-width="3"/>
<path d="M664.306 77.4668L659.4 77.3318" stroke="black" stroke-width="3"/>
<path d="M663.954 94.4761L659.048 94.341" stroke="black" stroke-width="3"/>
<path d="M660.166 86.4297L661.201 85.2363L652.589 74.3078L652.551 76.1395L654.513 78.9428L652.463 80.4137L652.426 82.2455L655.245 80.1848L660.166 86.4297Z" fill="black"/>
<path d="M660.19 85.2959L661.174 86.5449L652.122 96.9872L652.16 95.1554L654.235 92.4633L652.248 90.8812L652.285 89.0494L655.017 91.2629L660.19 85.2959Z" fill="black"/>
<path d="M662.742 85.9334L661.653 87.0671L670.765 97.5003L670.801 95.7557L668.724 93.0802L670.885 91.6851L670.921 89.9405L667.949 91.8952L662.742 85.9334Z" fill="black"/>
<path d="M662.742 85.9334L661.702 84.6828L671.244 74.254L671.207 76.0858L669.019 78.7748L671.119 80.36L671.081 82.1918L668.195 79.974L662.742 85.9334Z" fill="black"/>
<path d="M672.009 154.228L652.383 153.688" stroke="black" stroke-width="2"/>
<path d="M661.962 165.298L662.429 142.619" stroke="black" stroke-width="4"/>
<path d="M654.778 156.59L654.895 150.921" stroke="black" stroke-width="3"/>
<path d="M669.497 156.996L669.614 151.326" stroke="black" stroke-width="3"/>
<path d="M664.825 145.521L659.919 145.386" stroke="black" stroke-width="3"/>
<path d="M664.474 162.53L659.568 162.395" stroke="black" stroke-width="3"/>
<path d="M660.686 154.484L661.72 153.29L653.109 142.362L653.071 144.194L655.033 146.997L652.983 148.468L652.945 150.3L655.765 148.239L660.686 154.484Z" fill="black"/>
<path d="M660.709 153.35L661.693 154.599L652.641 165.041L652.679 163.21L654.754 160.517L652.767 158.935L652.805 157.104L655.537 159.317L660.709 153.35Z" fill="black"/>
<path d="M663.262 153.988L662.172 155.121L671.285 165.554L671.321 163.81L669.244 161.134L671.405 159.739L671.441 157.995L668.469 159.949L663.262 153.988Z" fill="black"/>
<path d="M663.262 153.988L662.221 152.737L671.764 142.308L671.726 144.14L669.539 146.829L671.638 148.414L671.6 150.246L668.715 148.028L663.262 153.988Z" fill="black"/>
<path d="M34.3545 26.6559V3.97021" stroke="black" stroke-width="2"/>
<path d="M24.5391 15.313H44.1708" stroke="black" stroke-width="4"/>
<path d="M31.9004 6.80566H36.8083" stroke="black" stroke-width="3"/>
<path d="M31.9004 23.8198H36.8083" stroke="black" stroke-width="3"/>
<path d="M41.7168 18.1484V12.477" stroke="black" stroke-width="3"/>
<path d="M26.9922 18.1484V12.477" stroke="black" stroke-width="3"/>
<path d="M33.8633 13.579L34.9204 14.7457L44.17 4.53711H42.5843L40.2059 6.87049L38.8845 4.53711H37.2988L39.1488 7.74551L33.8633 13.579Z" fill="black"/>
<path d="M34.8457 13.579L33.7886 14.7457L24.539 4.53711H26.1247L28.5031 6.87049L29.8245 4.53711H31.4101L29.5602 7.74551L34.8457 13.579Z" fill="black"/>
<path d="M34.3555 16.5447L33.3487 15.3132L24.5396 26.0889H26.0497L28.3149 23.6259L29.5734 26.0889H31.0835L29.3217 22.7022L34.3555 16.5447Z" fill="black"/>
<path d="M34.3555 16.5447L35.4126 15.3132L44.6621 26.0889H43.0765L40.698 23.6259L39.3767 26.0889H37.791L39.6409 22.7022L34.3555 16.5447Z" fill="black"/>
<path d="M93.251 26.6559V3.97021" stroke="black" stroke-width="2"/>
<path d="M83.4346 15.313H103.066" stroke="black" stroke-width="4"/>
<path d="M90.7959 6.80566H95.7038" stroke="black" stroke-width="3"/>
<path d="M90.7959 23.8198H95.7038" stroke="black" stroke-width="3"/>
<path d="M100.612 18.1484V12.477" stroke="black" stroke-width="3"/>
<path d="M85.8877 18.1484V12.477" stroke="black" stroke-width="3"/>
<path d="M92.7598 13.579L93.8169 14.7457L103.066 4.53711H101.481L99.1023 6.87049L97.781 4.53711H96.1953L98.0452 7.74551L92.7598 13.579Z" fill="black"/>
<path d="M93.7412 13.579L92.6841 14.7457L83.4345 4.53711H85.0202L87.3986 6.87049L88.72 4.53711H90.3057L88.4557 7.74551L93.7412 13.579Z" fill="black"/>
<path d="M93.251 16.5447L92.2442 15.3132L83.4351 26.0889H84.9452L87.2104 23.6259L88.4689 26.0889H89.979L88.2172 22.7022L93.251 16.5447Z" fill="black"/>
<path d="M93.251 16.5447L94.3081 15.3132L103.558 26.0889H101.972L99.5935 23.6259L98.2722 26.0889H96.6865L98.5365 22.7022L93.251 16.5447Z" fill="black"/>
<path d="M152.146 26.6559V3.97021" stroke="black" stroke-width="2"/>
<path d="M142.33 15.313H161.962" stroke="black" stroke-width="4"/>
<path d="M149.691 6.80566H154.599" stroke="black" stroke-width="3"/>
<path d="M149.691 23.8198H154.599" stroke="black" stroke-width="3"/>
<path d="M159.508 18.1484V12.477" stroke="black" stroke-width="3"/>
<path d="M144.783 18.1484V12.477" stroke="black" stroke-width="3"/>
<path d="M151.656 13.579L152.713 14.7457L161.963 4.53711H160.377L157.999 6.87049L156.677 4.53711H155.092L156.942 7.74551L151.656 13.579Z" fill="black"/>
<path d="M152.638 13.579L151.581 14.7457L142.331 4.53711H143.917L146.295 6.87049L147.616 4.53711H149.202L147.352 7.74551L152.638 13.579Z" fill="black"/>
<path d="M152.146 16.5447L151.14 15.3132L142.331 26.0889H143.841L146.106 23.6259L147.364 26.0889H148.875L147.113 22.7022L152.146 16.5447Z" fill="black"/>
<path d="M152.146 16.5447L153.204 15.3132L162.453 26.0889H160.868L158.489 23.6259L157.168 26.0889H155.582L157.432 22.7022L152.146 16.5447Z" fill="black"/>
<path d="M211.042 26.6554V3.96973" stroke="black" stroke-width="2"/>
<path d="M201.226 15.3125H220.857" stroke="black" stroke-width="4"/>
<path d="M208.587 6.80518H213.495" stroke="black" stroke-width="3"/>
<path d="M208.587 23.8193H213.495" stroke="black" stroke-width="3"/>
<path d="M218.403 18.1484V12.477" stroke="black" stroke-width="3"/>
<path d="M203.679 18.1484V12.477" stroke="black" stroke-width="3"/>
<path d="M210.552 13.5785L211.609 14.7452L220.858 4.53662H219.273L216.894 6.87001L215.573 4.53662H213.987L215.837 7.74502L210.552 13.5785Z" fill="black"/>
<path d="M211.532 13.5785L210.475 14.7452L201.226 4.53662H202.811L205.19 6.87001L206.511 4.53662H208.097L206.247 7.74502L211.532 13.5785Z" fill="black"/>
<path d="M211.042 16.5442L210.035 15.3127L201.226 26.0884H202.736L205.001 23.6254L206.26 26.0884H207.77L206.008 22.7017L211.042 16.5442Z" fill="black"/>
<path d="M211.042 16.5442L212.099 15.3127L221.349 26.0884H219.763L217.385 23.6254L216.063 26.0884H214.478L216.327 22.7017L211.042 16.5442Z" fill="black"/>
<path d="M53.9893 26.6559V3.97021" stroke="black" stroke-width="2"/>
<path d="M44.1729 15.313H63.8046" stroke="black" stroke-width="4"/>
<path d="M51.5342 6.80566H56.4421" stroke="black" stroke-width="3"/>
<path d="M51.5342 23.8198H56.4421" stroke="black" stroke-width="3"/>
<path d="M61.3506 18.1484V12.477" stroke="black" stroke-width="3"/>
<path d="M46.626 18.1484V12.477" stroke="black" stroke-width="3"/>
<path d="M53.499 13.579L54.5561 14.7457L63.8057 4.53711H62.2201L59.8416 6.87049L58.5202 4.53711H56.9346L58.7845 7.74551L53.499 13.579Z" fill="black"/>
<path d="M54.4805 13.579L53.4234 14.7457L44.1738 4.53711H45.7594L48.1379 6.87049L49.4593 4.53711H51.0449L49.195 7.74551L54.4805 13.579Z" fill="black"/>
<path d="M53.9893 16.5447L52.9825 15.3132L44.1734 26.0889H45.6835L47.9487 23.6259L49.2072 26.0889H50.7173L48.9555 22.7022L53.9893 16.5447Z" fill="black"/>
<path d="M53.9893 16.5447L55.0464 15.3132L64.2959 26.0889H62.7103L60.3318 23.6259L59.0105 26.0889H57.4248L59.2747 22.7022L53.9893 16.5447Z" fill="black"/>
<path d="M112.884 26.6559V3.97021" stroke="black" stroke-width="2"/>
<path d="M103.067 15.313H122.699" stroke="black" stroke-width="4"/>
<path d="M110.429 6.80566H115.337" stroke="black" stroke-width="3"/>
<path d="M110.429 23.8198H115.337" stroke="black" stroke-width="3"/>
<path d="M120.245 18.1484V12.477" stroke="black" stroke-width="3"/>
<path d="M105.521 18.1484V12.477" stroke="black" stroke-width="3"/>
<path d="M112.394 13.579L113.451 14.7457L122.7 4.53711H121.115L118.736 6.87049L117.415 4.53711H115.829L117.679 7.74551L112.394 13.579Z" fill="black"/>
<path d="M113.374 13.579L112.317 14.7457L103.067 4.53711H104.653L107.031 6.87049L108.353 4.53711H109.938L108.089 7.74551L113.374 13.579Z" fill="black"/>
<path d="M112.884 16.5447L111.877 15.3132L103.068 26.0889H104.578L106.843 23.6259L108.102 26.0889H109.612L107.85 22.7022L112.884 16.5447Z" fill="black"/>
<path d="M112.884 16.5447L113.941 15.3132L123.19 26.0889H121.605L119.226 23.6259L117.905 26.0889H116.319L118.169 22.7022L112.884 16.5447Z" fill="black"/>
<path d="M171.778 26.6559V3.97021" stroke="black" stroke-width="2"/>
<path d="M161.963 15.313H181.595" stroke="black" stroke-width="4"/>
<path d="M169.324 6.80566H174.232" stroke="black" stroke-width="3"/>
<path d="M169.324 23.8198H174.232" stroke="black" stroke-width="3"/>
<path d="M179.141 18.1484V12.477" stroke="black" stroke-width="3"/>
<path d="M164.416 18.1484V12.477" stroke="black" stroke-width="3"/>
<path d="M171.289 13.579L172.346 14.7457L181.596 4.53711H180.01L177.632 6.87049L176.31 4.53711H174.725L176.575 7.74551L171.289 13.579Z" fill="black"/>
<path d="M172.27 13.579L171.212 14.7457L161.963 4.53711H163.548L165.927 6.87049L167.248 4.53711H168.834L166.984 7.74551L172.27 13.579Z" fill="black"/>
<path d="M171.779 16.5447L170.773 15.3132L161.963 26.0889H163.474L165.739 23.6259L166.997 26.0889H168.507L166.746 22.7022L171.779 16.5447Z" fill="black"/>
<path d="M171.779 16.5447L172.836 15.3132L182.086 26.0889H180.5L178.122 23.6259L176.8 26.0889H175.215L177.065 22.7022L171.779 16.5447Z" fill="black"/>
<path d="M230.674 26.6559V3.97021" stroke="black" stroke-width="2"/>
<path d="M220.857 15.313H240.489" stroke="black" stroke-width="4"/>
<path d="M228.219 6.80566H233.127" stroke="black" stroke-width="3"/>
<path d="M228.219 23.8198H233.127" stroke="black" stroke-width="3"/>
<path d="M238.035 18.1484V12.477" stroke="black" stroke-width="3"/>
<path d="M223.311 18.1484V12.477" stroke="black" stroke-width="3"/>
<path d="M230.183 13.579L231.24 14.7457L240.489 4.53711H238.904L236.525 6.87049L235.204 4.53711H233.618L235.468 7.74551L230.183 13.579Z" fill="black"/>
<path d="M231.164 13.579L230.107 14.7457L220.857 4.53711H222.443L224.821 6.87049L226.143 4.53711H227.729L225.879 7.74551L231.164 13.579Z" fill="black"/>
<path d="M230.674 16.5447L229.667 15.3132L220.858 26.0889H222.368L224.633 23.6259L225.892 26.0889H227.402L225.64 22.7022L230.674 16.5447Z" fill="black"/>
<path d="M230.674 16.5447L231.731 15.3132L240.981 26.0889H239.395L237.016 23.6259L235.695 26.0889H234.109L235.959 22.7022L230.674 16.5447Z" fill="black"/>
<path d="M73.6201 26.6559V3.97021" stroke="black" stroke-width="2"/>
<path d="M63.8037 15.313H83.4355" stroke="black" stroke-width="4"/>
<path d="M71.165 6.80566H76.073" stroke="black" stroke-width="3"/>
<path d="M71.165 23.8198H76.073" stroke="black" stroke-width="3"/>
<path d="M80.9814 18.1484V12.477" stroke="black" stroke-width="3"/>
<path d="M66.2568 18.1484V12.477" stroke="black" stroke-width="3"/>
<path d="M73.1299 13.579L74.187 14.7457L83.4366 4.53711H81.8509L79.4725 6.87049L78.1511 4.53711H76.5654L78.4154 7.74551L73.1299 13.579Z" fill="black"/>
<path d="M74.1104 13.579L73.0533 14.7457L63.8037 4.53711H65.3893L67.7678 6.87049L69.0892 4.53711H70.6748L68.8249 7.74551L74.1104 13.579Z" fill="black"/>
<path d="M73.6201 16.5447L72.6134 15.3132L63.8042 26.0889H65.3144L67.5796 23.6259L68.838 26.0889H70.3482L68.5863 22.7022L73.6201 16.5447Z" fill="black"/>
<path d="M73.6201 16.5447L74.6772 15.3132L83.9268 26.0889H82.3411L79.9627 23.6259L78.6413 26.0889H77.0557L78.9056 22.7022L73.6201 16.5447Z" fill="black"/>
<path d="M132.515 26.6559V3.97021" stroke="black" stroke-width="2"/>
<path d="M122.698 15.313H142.33" stroke="black" stroke-width="4"/>
<path d="M130.06 6.80566H134.968" stroke="black" stroke-width="3"/>
<path d="M130.06 23.8198H134.968" stroke="black" stroke-width="3"/>
<path d="M139.876 18.1484V12.477" stroke="black" stroke-width="3"/>
<path d="M125.151 18.1484V12.477" stroke="black" stroke-width="3"/>
<path d="M132.024 13.579L133.082 14.7457L142.331 4.53711H140.745L138.367 6.87049L137.046 4.53711H135.46L137.31 7.74551L132.024 13.579Z" fill="black"/>
<path d="M133.006 13.579L131.949 14.7457L122.699 4.53711H124.285L126.663 6.87049L127.985 4.53711H129.57L127.72 7.74551L133.006 13.579Z" fill="black"/>
<path d="M132.515 16.5447L131.508 15.3132L122.699 26.0889H124.209L126.474 23.6259L127.733 26.0889H129.243L127.481 22.7022L132.515 16.5447Z" fill="black"/>
<path d="M132.515 16.5447L133.572 15.3132L142.821 26.0889H141.236L138.857 23.6259L137.536 26.0889H135.95L137.8 22.7022L132.515 16.5447Z" fill="black"/>
<path d="M191.41 26.6559V3.97021" stroke="black" stroke-width="2"/>
<path d="M181.595 15.313H201.226" stroke="black" stroke-width="4"/>
<path d="M188.956 6.80566H193.864" stroke="black" stroke-width="3"/>
<path d="M188.956 23.8198H193.864" stroke="black" stroke-width="3"/>
<path d="M198.772 18.1484V12.477" stroke="black" stroke-width="3"/>
<path d="M184.048 18.1484V12.477" stroke="black" stroke-width="3"/>
<path d="M190.92 13.579L191.977 14.7457L201.227 4.53711H199.641L197.262 6.87049L195.941 4.53711H194.355L196.205 7.74551L190.92 13.579Z" fill="black"/>
<path d="M191.901 13.579L190.844 14.7457L181.595 4.53711H183.18L185.559 6.87049L186.88 4.53711H188.466L186.616 7.74551L191.901 13.579Z" fill="black"/>
<path d="M191.411 16.5447L190.404 15.3132L181.595 26.0889H183.105L185.371 23.6259L186.629 26.0889H188.139L186.377 22.7022L191.411 16.5447Z" fill="black"/>
<path d="M191.411 16.5447L192.468 15.3132L201.718 26.0889H200.132L197.754 23.6259L196.432 26.0889H194.847L196.697 22.7022L191.411 16.5447Z" fill="black"/>
<path d="M250.305 26.6559V3.97021" stroke="black" stroke-width="2"/>
<path d="M240.489 15.313H260.121" stroke="black" stroke-width="4"/>
<path d="M247.851 6.80566H252.759" stroke="black" stroke-width="3"/>
<path d="M247.851 23.8198H252.759" stroke="black" stroke-width="3"/>
<path d="M257.667 18.1484V12.477" stroke="black" stroke-width="3"/>
<path d="M242.942 18.1484V12.477" stroke="black" stroke-width="3"/>
<path d="M249.815 13.579L250.873 14.7457L260.122 4.53711H258.536L256.158 6.87049L254.837 4.53711H253.251L255.101 7.74551L249.815 13.579Z" fill="black"/>
<path d="M250.796 13.579L249.739 14.7457L240.489 4.53711H242.075L244.453 6.87049L245.775 4.53711H247.36L245.51 7.74551L250.796 13.579Z" fill="black"/>
<path d="M250.306 16.5447L249.299 15.3132L240.49 26.0889H242L244.265 23.6259L245.524 26.0889H247.034L245.272 22.7022L250.306 16.5447Z" fill="black"/>
<path d="M250.306 16.5447L251.363 15.3132L260.612 26.0889H259.027L256.648 23.6259L255.327 26.0889H253.741L255.591 22.7022L250.306 16.5447Z" fill="black"/>
<path d="M269.938 26.6559V3.97021" stroke="black" stroke-width="2"/>
<path d="M260.122 15.313H279.754" stroke="black" stroke-width="4"/>
<path d="M267.483 6.80615H272.391" stroke="black" stroke-width="3"/>
<path d="M267.483 23.8203H272.391" stroke="black" stroke-width="3"/>
<path d="M277.3 18.1489V12.4775" stroke="black" stroke-width="3"/>
<path d="M262.575 18.1489V12.4775" stroke="black" stroke-width="3"/>
<path d="M269.448 13.579L270.505 14.7457L279.755 4.53711H278.169L275.791 6.87049L274.469 4.53711H272.884L274.734 7.74551L269.448 13.579Z" fill="black"/>
<path d="M270.43 13.579L269.373 14.7457L260.123 4.53711H261.709L264.087 6.87049L265.408 4.53711H266.994L265.144 7.74551L270.43 13.579Z" fill="black"/>
<path d="M269.938 16.5447L268.932 15.3132L260.123 26.0889H261.633L263.898 23.6259L265.156 26.0889H266.667L264.905 22.7022L269.938 16.5447Z" fill="black"/>
<path d="M269.938 16.5447L270.996 15.3132L280.245 26.0889H278.66L276.281 23.6259L274.96 26.0889H273.374L275.224 22.7022L269.938 16.5447Z" fill="black"/>
<path d="M289.569 26.6564V3.9707" stroke="black" stroke-width="2"/>
<path d="M279.754 15.3135H299.386" stroke="black" stroke-width="4"/>
<path d="M287.115 6.80664H292.023" stroke="black" stroke-width="3"/>
<path d="M287.115 23.8208H292.023" stroke="black" stroke-width="3"/>
<path d="M296.932 18.1494V12.478" stroke="black" stroke-width="3"/>
<path d="M282.207 18.1494V12.478" stroke="black" stroke-width="3"/>
<path d="M289.08 13.5799L290.137 14.7466L299.387 4.53809H297.801L295.423 6.87147L294.101 4.53809H292.516L294.366 7.74649L289.08 13.5799Z" fill="black"/>
<path d="M290.061 13.5799L289.003 14.7466L279.754 4.53809H281.34L283.718 6.87147L285.039 4.53809H286.625L284.775 7.74649L290.061 13.5799Z" fill="black"/>
<path d="M289.57 16.5447L288.564 15.3132L279.754 26.0889H281.265L283.53 23.6259L284.788 26.0889H286.298L284.537 22.7022L289.57 16.5447Z" fill="black"/>
<path d="M289.57 16.5447L290.627 15.3132L299.877 26.0889H298.291L295.913 23.6259L294.592 26.0889H293.006L294.856 22.7022L289.57 16.5447Z" fill="black"/>
<path d="M309.2 26.6569V3.97119" stroke="black" stroke-width="2"/>
<path d="M299.384 15.314H319.016" stroke="black" stroke-width="4"/>
<path d="M306.745 6.80713H311.653" stroke="black" stroke-width="3"/>
<path d="M306.745 23.8213H311.653" stroke="black" stroke-width="3"/>
<path d="M316.562 18.1499V12.4785" stroke="black" stroke-width="3"/>
<path d="M301.837 18.1499V12.4785" stroke="black" stroke-width="3"/>
<path d="M308.71 13.5799L309.767 14.7466L319.017 4.53809H317.431L315.053 6.87147L313.731 4.53809H312.146L313.995 7.74649L308.71 13.5799Z" fill="black"/>
<path d="M309.691 13.5799L308.634 14.7466L299.385 4.53809H300.97L303.349 6.87147L304.67 4.53809H306.256L304.406 7.74649L309.691 13.5799Z" fill="black"/>
<path d="M309.2 16.5457L308.193 15.3141L299.384 26.0898H300.894L303.16 23.6268L304.418 26.0898H305.928L304.166 22.7032L309.2 16.5457Z" fill="black"/>
<path d="M309.2 16.5457L310.257 15.3141L319.507 26.0898H317.921L315.543 23.6268L314.221 26.0898H312.636L314.486 22.7032L309.2 16.5457Z" fill="black"/>
<path d="M328.832 26.6569V3.97119" stroke="black" stroke-width="2"/>
<path d="M319.017 15.314H338.648" stroke="black" stroke-width="4"/>
<path d="M326.378 6.80713H331.286" stroke="black" stroke-width="3"/>
<path d="M326.378 23.8208H331.286" stroke="black" stroke-width="3"/>
<path d="M336.194 18.1499V12.4785" stroke="black" stroke-width="3"/>
<path d="M321.47 18.1499V12.4785" stroke="black" stroke-width="3"/>
<path d="M328.342 13.5799L329.399 14.7466L338.648 4.53809H337.063L334.684 6.87147L333.363 4.53809H331.777L333.627 7.74649L328.342 13.5799Z" fill="black"/>
<path d="M329.323 13.5799L328.266 14.7466L319.017 4.53809H320.602L322.981 6.87147L324.302 4.53809H325.888L324.038 7.74649L329.323 13.5799Z" fill="black"/>
<path d="M328.833 16.5457L327.826 15.3141L319.017 26.0898H320.527L322.792 23.6268L324.051 26.0898H325.561L323.799 22.7032L328.833 16.5457Z" fill="black"/>
<path d="M328.833 16.5457L329.89 15.3141L339.14 26.0898H337.554L335.176 23.6268L333.854 26.0898H332.269L334.118 22.7032L328.833 16.5457Z" fill="black"/>
<path d="M348.464 26.6574V3.97168" stroke="black" stroke-width="2"/>
<path d="M338.647 15.3145H358.279" stroke="black" stroke-width="4"/>
<path d="M346.009 6.80713H350.917" stroke="black" stroke-width="3"/>
<path d="M346.009 23.8218H350.917" stroke="black" stroke-width="3"/>
<path d="M355.825 18.1504V12.479" stroke="black" stroke-width="3"/>
<path d="M341.101 18.1504V12.479" stroke="black" stroke-width="3"/>
<path d="M347.974 13.5804L349.031 14.7471L358.28 4.53857H356.695L354.316 6.87196L352.995 4.53857H351.409L353.259 7.74698L347.974 13.5804Z" fill="black"/>
<path d="M348.955 13.5804L347.898 14.7471L338.648 4.53857H340.234L342.613 6.87196L343.934 4.53857H345.52L343.67 7.74698L348.955 13.5804Z" fill="black"/>
<path d="M348.464 16.5461L347.457 15.3146L338.648 26.0903H340.158L342.423 23.6273L343.682 26.0903H345.192L343.43 22.7037L348.464 16.5461Z" fill="black"/>
<path d="M348.464 16.5461L349.521 15.3146L358.771 26.0903H357.185L354.806 23.6273L353.485 26.0903H351.899L353.749 22.7037L348.464 16.5461Z" fill="black"/>
<path d="M368.097 26.6574V3.97168" stroke="black" stroke-width="2"/>
<path d="M358.28 15.3145H377.912" stroke="black" stroke-width="4"/>
<path d="M365.642 6.80713H370.55" stroke="black" stroke-width="3"/>
<path d="M365.642 23.8218H370.55" stroke="black" stroke-width="3"/>
<path d="M375.458 18.1504V12.479" stroke="black" stroke-width="3"/>
<path d="M360.733 18.1504V12.479" stroke="black" stroke-width="3"/>
<path d="M367.606 13.5804L368.664 14.7471L377.913 4.53857H376.327L373.949 6.87196L372.628 4.53857H371.042L372.892 7.74698L367.606 13.5804Z" fill="black"/>
<path d="M368.588 13.5804L367.531 14.7471L358.281 4.53857H359.867L362.245 6.87196L363.567 4.53857H365.152L363.302 7.74698L368.588 13.5804Z" fill="black"/>
<path d="M368.097 16.5461L367.09 15.3146L358.281 26.0903H359.791L362.056 23.6273L363.315 26.0903H364.825L363.063 22.7037L368.097 16.5461Z" fill="black"/>
<path d="M368.097 16.5461L369.154 15.3146L378.403 26.0903H376.818L374.439 23.6273L373.118 26.0903H371.532L373.382 22.7037L368.097 16.5461Z" fill="black"/>
<path d="M387.728 26.6578V3.97217" stroke="black" stroke-width="2"/>
<path d="M377.912 15.3149H397.544" stroke="black" stroke-width="4"/>
<path d="M385.273 6.80811H390.181" stroke="black" stroke-width="3"/>
<path d="M385.273 23.8223H390.181" stroke="black" stroke-width="3"/>
<path d="M395.09 18.1509V12.4795" stroke="black" stroke-width="3"/>
<path d="M380.365 18.1509V12.4795" stroke="black" stroke-width="3"/>
<path d="M387.238 13.5814L388.295 14.7481L397.545 4.53955H395.959L393.581 6.87293L392.259 4.53955H390.674L392.524 7.74795L387.238 13.5814Z" fill="black"/>
<path d="M388.219 13.5814L387.162 14.7481L377.912 4.53955H379.498L381.876 6.87293L383.198 4.53955H384.783L382.933 7.74795L388.219 13.5814Z" fill="black"/>
<path d="M387.729 16.5466L386.722 15.3151L377.913 26.0908H379.423L381.688 23.6278L382.946 26.0908H384.457L382.695 22.7042L387.729 16.5466Z" fill="black"/>
<path d="M387.729 16.5466L388.786 15.3151L398.035 26.0908H396.45L394.071 23.6278L392.75 26.0908H391.164L393.014 22.7042L387.729 16.5466Z" fill="black"/>
<path d="M407.359 26.6578V3.97217" stroke="black" stroke-width="2"/>
<path d="M397.544 15.3154H417.176" stroke="black" stroke-width="4"/>
<path d="M404.905 6.80811H409.813" stroke="black" stroke-width="3"/>
<path d="M404.905 23.8223H409.813" stroke="black" stroke-width="3"/>
<path d="M414.722 18.1509V12.4795" stroke="black" stroke-width="3"/>
<path d="M399.997 18.1509V12.4795" stroke="black" stroke-width="3"/>
<path d="M406.869 13.5809L407.926 14.7476L417.176 4.53906H415.59L413.212 6.87245L411.89 4.53906H410.305L412.155 7.74747L406.869 13.5809Z" fill="black"/>
<path d="M407.851 13.5809L406.793 14.7476L397.544 4.53906H399.13L401.508 6.87245L402.829 4.53906H404.415L402.565 7.74747L407.851 13.5809Z" fill="black"/>
<path d="M407.36 16.5466L406.354 15.3151L397.544 26.0908H399.055L401.32 23.6278L402.578 26.0908H404.088L402.327 22.7042L407.36 16.5466Z" fill="black"/>
<path d="M407.36 16.5466L408.417 15.3151L417.667 26.0908H416.081L413.703 23.6278L412.382 26.0908H410.796L412.646 22.7042L407.36 16.5466Z" fill="black"/>
<path d="M426.992 26.6583V3.97266" stroke="black" stroke-width="2"/>
<path d="M417.176 15.3154H436.808" stroke="black" stroke-width="4"/>
<path d="M424.537 6.80859H429.445" stroke="black" stroke-width="3"/>
<path d="M424.537 23.8228H429.445" stroke="black" stroke-width="3"/>
<path d="M434.354 18.1514V12.4799" stroke="black" stroke-width="3"/>
<path d="M419.629 18.1514V12.4799" stroke="black" stroke-width="3"/>
<path d="M426.502 13.5819L427.559 14.7486L436.809 4.54004H435.223L432.845 6.87342L431.523 4.54004H429.938L431.787 7.74844L426.502 13.5819Z" fill="black"/>
<path d="M427.482 13.5819L426.425 14.7486L417.176 4.54004H418.761L421.14 6.87342L422.461 4.54004H424.047L422.197 7.74844L427.482 13.5819Z" fill="black"/>
<path d="M426.992 16.5471L425.985 15.3156L417.176 26.0913H418.686L420.952 23.6283L422.21 26.0913H423.72L421.958 22.7047L426.992 16.5471Z" fill="black"/>
<path d="M426.992 16.5471L428.049 15.3156L437.299 26.0913H435.713L433.335 23.6283L432.013 26.0913H430.428L432.278 22.7047L426.992 16.5471Z" fill="black"/>
<path d="M446.623 26.6588V3.97314" stroke="black" stroke-width="2"/>
<path d="M436.807 15.3159H456.438" stroke="black" stroke-width="4"/>
<path d="M444.168 6.80908H449.076" stroke="black" stroke-width="3"/>
<path d="M444.168 23.8232H449.076" stroke="black" stroke-width="3"/>
<path d="M453.984 18.1519V12.4804" stroke="black" stroke-width="3"/>
<path d="M439.26 18.1519V12.4804" stroke="black" stroke-width="3"/>
<path d="M446.132 13.5819L447.189 14.7486L456.439 4.54004H454.853L452.474 6.87342L451.153 4.54004H449.567L451.417 7.74844L446.132 13.5819Z" fill="black"/>
<path d="M447.113 13.5819L446.056 14.7486L436.807 4.54004H438.392L440.771 6.87342L442.092 4.54004H443.678L441.828 7.74844L447.113 13.5819Z" fill="black"/>
<path d="M446.623 16.5476L445.616 15.3161L436.807 26.0918H438.317L440.583 23.6288L441.841 26.0918H443.351L441.589 22.7051L446.623 16.5476Z" fill="black"/>
<path d="M446.623 16.5476L447.68 15.3161L456.93 26.0918H455.344L452.966 23.6288L451.644 26.0918H450.059L451.909 22.7051L446.623 16.5476Z" fill="black"/>
<path d="M466.255 26.6588V3.97314" stroke="black" stroke-width="2"/>
<path d="M456.438 15.3159H476.07" stroke="black" stroke-width="4"/>
<path d="M463.8 6.80908H468.708" stroke="black" stroke-width="3"/>
<path d="M463.8 23.8232H468.708" stroke="black" stroke-width="3"/>
<path d="M473.616 18.1519V12.4804" stroke="black" stroke-width="3"/>
<path d="M458.892 18.1519V12.4804" stroke="black" stroke-width="3"/>
<path d="M465.765 13.5819L466.822 14.7486L476.071 4.54004H474.486L472.107 6.87342L470.786 4.54004H469.2L471.05 7.74844L465.765 13.5819Z" fill="black"/>
<path d="M466.745 13.5819L465.688 14.7486L456.438 4.54004H458.024L460.403 6.87342L461.724 4.54004H463.31L461.46 7.74844L466.745 13.5819Z" fill="black"/>
<path d="M466.255 16.5476L465.248 15.3161L456.439 26.0918H457.949L460.214 23.6288L461.473 26.0918H462.983L461.221 22.7051L466.255 16.5476Z" fill="black"/>
<path d="M466.255 16.5476L467.312 15.3161L476.562 26.0918H474.976L472.597 23.6288L471.276 26.0918H469.69L471.54 22.7051L466.255 16.5476Z" fill="black"/>
<path d="M485.888 26.6588V3.97314" stroke="black" stroke-width="2"/>
<path d="M476.071 15.3159H495.703" stroke="black" stroke-width="4"/>
<path d="M483.433 6.80908H488.341" stroke="black" stroke-width="3"/>
<path d="M483.433 23.8232H488.341" stroke="black" stroke-width="3"/>
<path d="M493.249 18.1519V12.4804" stroke="black" stroke-width="3"/>
<path d="M478.524 18.1519V12.4804" stroke="black" stroke-width="3"/>
<path d="M485.397 13.5819L486.455 14.7486L495.704 4.54004H494.118L491.74 6.87342L490.419 4.54004H488.833L490.683 7.74844L485.397 13.5819Z" fill="black"/>
<path d="M486.378 13.5819L485.321 14.7486L476.071 4.54004H477.657L480.035 6.87342L481.357 4.54004H482.942L481.092 7.74844L486.378 13.5819Z" fill="black"/>
<path d="M485.888 16.5476L484.881 15.3161L476.072 26.0918H477.582L479.847 23.6288L481.106 26.0918H482.616L480.854 22.7051L485.888 16.5476Z" fill="black"/>
<path d="M485.888 16.5476L486.945 15.3161L496.194 26.0918H494.609L492.23 23.6288L490.909 26.0918H489.323L491.173 22.7051L485.888 16.5476Z" fill="black"/>
<path d="M505.52 26.6593V3.97363" stroke="black" stroke-width="2"/>
<path d="M495.703 15.3164H515.335" stroke="black" stroke-width="4"/>
<path d="M503.064 6.80957H507.972" stroke="black" stroke-width="3"/>
<path d="M503.064 23.8237H507.972" stroke="black" stroke-width="3"/>
<path d="M512.881 18.1523V12.4809" stroke="black" stroke-width="3"/>
<path d="M498.156 18.1523V12.4809" stroke="black" stroke-width="3"/>
<path d="M505.029 13.5829L506.086 14.7496L515.336 4.54102H513.75L511.372 6.8744L510.05 4.54102H508.465L510.315 7.74942L505.029 13.5829Z" fill="black"/>
<path d="M506.01 13.5829L504.953 14.7496L495.703 4.54102H497.289L499.667 6.8744L500.989 4.54102H502.574L500.724 7.74942L506.01 13.5829Z" fill="black"/>
<path d="M505.52 16.5481L504.513 15.3166L495.704 26.0923H497.214L499.479 23.6293L500.737 26.0923H502.248L500.486 22.7056L505.52 16.5481Z" fill="black"/>
<path d="M505.52 16.5481L506.577 15.3166L515.826 26.0923H514.241L511.862 23.6293L510.541 26.0923H508.955L510.805 22.7056L505.52 16.5481Z" fill="black"/>
<path d="M525.149 26.6593V3.97363" stroke="black" stroke-width="2"/>
<path d="M515.333 15.3164H534.965" stroke="black" stroke-width="4"/>
<path d="M522.694 6.80957H527.602" stroke="black" stroke-width="3"/>
<path d="M522.694 23.8232H527.602" stroke="black" stroke-width="3"/>
<path d="M532.511 18.1519V12.4804" stroke="black" stroke-width="3"/>
<path d="M517.786 18.1519V12.4804" stroke="black" stroke-width="3"/>
<path d="M524.659 13.5824L525.716 14.7491L534.966 4.54053H533.38L531.002 6.87391L529.68 4.54053H528.095L529.945 7.74893L524.659 13.5824Z" fill="black"/>
<path d="M525.641 13.5824L524.584 14.7491L515.334 4.54053H516.92L519.298 6.87391L520.619 4.54053H522.205L520.355 7.74893L525.641 13.5824Z" fill="black"/>
<path d="M525.149 16.5476L524.143 15.3161L515.334 26.0918H516.844L519.109 23.6288L520.367 26.0918H521.877L520.116 22.7051L525.149 16.5476Z" fill="black"/>
<path d="M525.149 16.5476L526.207 15.3161L535.456 26.0918H533.87L531.492 23.6288L530.171 26.0918H528.585L530.435 22.7051L525.149 16.5476Z" fill="black"/>
<path d="M544.781 26.6603V3.97461" stroke="black" stroke-width="2"/>
<path d="M534.966 15.3174H554.598" stroke="black" stroke-width="4"/>
<path d="M542.327 6.81055H547.235" stroke="black" stroke-width="3"/>
<path d="M542.327 23.8247H547.235" stroke="black" stroke-width="3"/>
<path d="M552.144 18.1528V12.4814" stroke="black" stroke-width="3"/>
<path d="M537.419 18.1528V12.4814" stroke="black" stroke-width="3"/>
<path d="M544.291 13.5834L545.348 14.7501L554.598 4.5415H553.012L550.634 6.87489L549.312 4.5415H547.727L549.576 7.74991L544.291 13.5834Z" fill="black"/>
<path d="M545.272 13.5834L544.215 14.7501L534.966 4.5415H536.551L538.93 6.87489L540.251 4.5415H541.837L539.987 7.74991L545.272 13.5834Z" fill="black"/>
<path d="M544.782 16.5491L543.775 15.3176L534.966 26.0933H536.476L538.742 23.6302L540 26.0933H541.51L539.748 22.7066L544.782 16.5491Z" fill="black"/>
<path d="M544.782 16.5491L545.839 15.3176L555.089 26.0933H553.503L551.125 23.6302L549.803 26.0933H548.218L550.068 22.7066L544.782 16.5491Z" fill="black"/>
<path d="M564.414 26.6603V3.97461" stroke="black" stroke-width="2"/>
<path d="M554.598 15.3174H574.229" stroke="black" stroke-width="4"/>
<path d="M561.959 6.81006H566.867" stroke="black" stroke-width="3"/>
<path d="M561.959 23.8242H566.867" stroke="black" stroke-width="3"/>
<path d="M571.775 18.1528V12.4814" stroke="black" stroke-width="3"/>
<path d="M557.051 18.1528V12.4814" stroke="black" stroke-width="3"/>
<path d="M563.922 13.5834L564.979 14.7501L574.229 4.5415H572.643L570.264 6.87489L568.943 4.5415H567.357L569.207 7.74991L563.922 13.5834Z" fill="black"/>
<path d="M564.904 13.5834L563.847 14.7501L554.598 4.5415H556.183L558.562 6.87489L559.883 4.5415H561.469L559.619 7.74991L564.904 13.5834Z" fill="black"/>
<path d="M564.414 16.5486L563.407 15.3171L554.598 26.0928H556.108L558.374 23.6298L559.632 26.0928H561.142L559.38 22.7061L564.414 16.5486Z" fill="black"/>
<path d="M564.414 16.5486L565.471 15.3171L574.721 26.0928H573.135L570.757 23.6298L569.435 26.0928H567.85L569.7 22.7061L564.414 16.5486Z" fill="black"/>
<path d="M584.047 26.6608V3.9751" stroke="black" stroke-width="2"/>
<path d="M574.23 15.3179H593.862" stroke="black" stroke-width="4"/>
<path d="M581.592 6.81104H586.5" stroke="black" stroke-width="3"/>
<path d="M581.592 23.8252H586.5" stroke="black" stroke-width="3"/>
<path d="M591.408 18.1538V12.4824" stroke="black" stroke-width="3"/>
<path d="M576.684 18.1538V12.4824" stroke="black" stroke-width="3"/>
<path d="M583.557 13.5839L584.614 14.7505L593.863 4.54199H592.278L589.899 6.87538L588.578 4.54199H586.992L588.842 7.7504L583.557 13.5839Z" fill="black"/>
<path d="M584.537 13.5839L583.48 14.7505L574.23 4.54199H575.816L578.195 6.87538L579.516 4.54199H581.102L579.252 7.7504L584.537 13.5839Z" fill="black"/>
<path d="M584.047 16.5496L583.04 15.3181L574.231 26.0938H575.741L578.006 23.6307L579.265 26.0938H580.775L579.013 22.7071L584.047 16.5496Z" fill="black"/>
<path d="M584.047 16.5496L585.104 15.3181L594.354 26.0938H592.768L590.389 23.6307L589.068 26.0938H587.482L589.332 22.7071L584.047 16.5496Z" fill="black"/>
<path d="M603.677 26.6608V3.9751" stroke="black" stroke-width="2"/>
<path d="M593.861 15.3179H613.493" stroke="black" stroke-width="4"/>
<path d="M601.223 6.81104H606.131" stroke="black" stroke-width="3"/>
<path d="M601.223 23.8252H606.131" stroke="black" stroke-width="3"/>
<path d="M611.039 18.1538V12.4824" stroke="black" stroke-width="3"/>
<path d="M596.314 18.1538V12.4824" stroke="black" stroke-width="3"/>
<path d="M603.187 13.5843L604.244 14.751L613.493 4.54248H611.908L609.529 6.87586L608.208 4.54248H606.622L608.472 7.75088L603.187 13.5843Z" fill="black"/>
<path d="M604.168 13.5843L603.111 14.751L593.861 4.54248H595.447L597.825 6.87586L599.147 4.54248H600.732L598.882 7.75088L604.168 13.5843Z" fill="black"/>
<path d="M603.678 16.5496L602.671 15.3181L593.862 26.0938H595.372L597.637 23.6307L598.896 26.0938H600.406L598.644 22.7071L603.678 16.5496Z" fill="black"/>
<path d="M603.678 16.5496L604.735 15.3181L613.984 26.0938H612.399L610.02 23.6307L608.699 26.0938H607.113L608.963 22.7071L603.678 16.5496Z" fill="black"/>
<path d="M623.308 26.6613V3.97559" stroke="black" stroke-width="2"/>
<path d="M613.492 15.3184H633.124" stroke="black" stroke-width="4"/>
<path d="M620.854 6.81152H625.761" stroke="black" stroke-width="3"/>
<path d="M620.854 23.8257H625.761" stroke="black" stroke-width="3"/>
<path d="M630.67 18.1543V12.4829" stroke="black" stroke-width="3"/>
<path d="M615.945 18.1543V12.4829" stroke="black" stroke-width="3"/>
<path d="M622.817 13.5843L623.874 14.751L633.124 4.54248H631.538L629.16 6.87586L627.839 4.54248H626.253L628.103 7.75088L622.817 13.5843Z" fill="black"/>
<path d="M623.799 13.5843L622.742 14.751L613.492 4.54248H615.078L617.456 6.87586L618.778 4.54248H620.363L618.513 7.75088L623.799 13.5843Z" fill="black"/>
<path d="M623.309 16.55L622.302 15.3185L613.493 26.0942H615.003L617.268 23.6312L618.526 26.0942H620.037L618.275 22.7076L623.309 16.55Z" fill="black"/>
<path d="M623.309 16.55L624.366 15.3185L633.615 26.0942H632.03L629.651 23.6312L628.33 26.0942H626.744L628.594 22.7076L623.309 16.55Z" fill="black"/>
<path d="M642.941 26.6613V3.97559" stroke="black" stroke-width="2"/>
<path d="M633.125 15.3184H652.757" stroke="black" stroke-width="4"/>
<path d="M640.486 6.81152H645.394" stroke="black" stroke-width="3"/>
<path d="M640.486 23.8257H645.394" stroke="black" stroke-width="3"/>
<path d="M650.303 18.1543V12.4829" stroke="black" stroke-width="3"/>
<path d="M635.578 18.1543V12.4829" stroke="black" stroke-width="3"/>
<path d="M642.451 13.5843L643.508 14.751L652.758 4.54248H651.172L648.794 6.87586L647.472 4.54248H645.887L647.737 7.75088L642.451 13.5843Z" fill="black"/>
<path d="M643.433 13.5843L642.376 14.751L633.126 4.54248H634.712L637.09 6.87586L638.411 4.54248H639.997L638.147 7.75088L643.433 13.5843Z" fill="black"/>
<path d="M642.941 16.55L641.935 15.3185L633.126 26.0942H634.636L636.901 23.6312L638.159 26.0942H639.669L637.908 22.7076L642.941 16.55Z" fill="black"/>
<path d="M642.941 16.55L643.999 15.3185L653.248 26.0942H651.662L649.284 23.6312L647.963 26.0942H646.377L648.227 22.7076L642.941 16.55Z" fill="black"/>
<path d="M8.32324 9.60908C15.2641 13.6194 20.6433 19.4343 22.205 25.6503C16.8258 23.8456 11.7937 17.6296 8.32324 9.60908Z" fill="black"/>
<path d="M7.25226 10.488C8.32528 15.0943 7.75232 19.3016 5.23671 21.5891C3.72892 18.3261 4.66764 14.2075 7.25226 10.488Z" fill="black"/>
<path d="M10.8284 16.2314C11.6625 18.6553 12.0517 21.1595 11.7346 22.9331C10.9643 21.3558 10.674 18.8338 10.8284 16.2314Z" fill="black"/>
<path d="M13.9342 12.6425C16.0318 13.6063 18.1989 14.0561 19.7337 13.6896C18.3688 12.7996 16.1862 12.464 13.9342 12.6425Z" fill="black"/>
<path d="M9.07532 8.3807C13.0615 9.62063 16.7024 8.95854 18.682 6.0516C15.8583 4.30927 12.2941 5.39401 9.07532 8.3807Z" fill="black"/>
<path d="M8.32402 25.6502C9.7122 24.0461 8.90243 14.2877 8.32402 9.60898L10.0592 11.6141L10.4063 24.8481L9.01811 26.4522L8.32402 25.6502Z" fill="black"/>
<path d="M22.2058 9.60898C20.8176 11.2131 12.3729 10.2774 8.32402 9.60898L10.0592 11.6141L21.5117 12.0152L22.8999 10.411L22.2058 9.60898Z" fill="black"/>
<path d="M667.546 10.7434C660.605 14.7536 655.226 20.5686 653.664 26.7846C659.043 24.9799 664.075 18.7639 667.546 10.7434Z" fill="black"/>
<path d="M668.617 11.6227C667.544 16.2291 668.117 20.4363 670.632 22.7239C672.14 19.4609 671.201 15.3423 668.617 11.6227Z" fill="black"/>
<path d="M665.041 17.3662C664.207 19.7901 663.817 22.2943 664.135 24.0679C664.905 22.4906 665.195 19.9685 665.041 17.3662Z" fill="black"/>
<path d="M661.935 13.7768C659.837 14.7406 657.67 15.1904 656.135 14.8239C657.5 13.9338 659.683 13.5983 661.935 13.7768Z" fill="black"/>
<path d="M666.793 9.51498C662.807 10.7549 659.166 10.0928 657.186 7.18588C660.01 5.44355 663.574 6.52829 666.793 9.51498Z" fill="black"/>
<path d="M667.545 26.7845C666.157 25.1803 666.967 15.4219 667.545 10.7433L665.81 12.7484L665.463 25.9824L666.851 27.5865L667.545 26.7845Z" fill="black"/>
<path d="M653.663 10.7433C655.052 12.3474 663.496 11.4116 667.545 10.7433L665.81 12.7484L654.357 13.1494L652.969 11.5453L653.663 10.7433Z" fill="black"/>
<path d="M36.3203 210.976V188.291" stroke="black" stroke-width="2"/>
<path d="M26.5039 199.633H46.1357" stroke="black" stroke-width="4"/>
<path d="M33.8652 191.126H38.7732" stroke="black" stroke-width="3"/>
<path d="M33.8652 208.14H38.7732" stroke="black" stroke-width="3"/>
<path d="M43.6816 202.469V196.798" stroke="black" stroke-width="3"/>
<path d="M28.957 202.469V196.798" stroke="black" stroke-width="3"/>
<path d="M35.8301 197.899L36.8872 199.066L46.1368 188.857H44.5511L42.1726 191.191L40.8513 188.857H39.2656L41.1156 192.066L35.8301 197.899Z" fill="black"/>
<path d="M36.8105 197.899L35.7535 199.066L26.5039 188.857H28.0895L30.468 191.191L31.7893 188.857H33.375L31.5251 192.066L36.8105 197.899Z" fill="black"/>
<path d="M36.3203 200.865L35.3136 199.633L26.5044 210.409H28.0146L30.2798 207.946L31.5382 210.409H33.0484L31.2865 207.022L36.3203 200.865Z" fill="black"/>
<path d="M36.3203 200.865L37.3774 199.633L46.627 210.409H45.0413L42.6629 207.946L41.3415 210.409H39.7559L41.6058 207.022L36.3203 200.865Z" fill="black"/>
<path d="M95.2148 210.976V188.291" stroke="black" stroke-width="2"/>
<path d="M85.3984 199.633H105.03" stroke="black" stroke-width="4"/>
<path d="M92.7598 191.126H97.6677" stroke="black" stroke-width="3"/>
<path d="M92.7598 208.14H97.6677" stroke="black" stroke-width="3"/>
<path d="M102.576 202.469V196.798" stroke="black" stroke-width="3"/>
<path d="M87.8516 202.469V196.798" stroke="black" stroke-width="3"/>
<path d="M94.7246 197.899L95.7817 199.066L105.031 188.857H103.446L101.067 191.191L99.7458 188.857H98.1602L100.01 192.066L94.7246 197.899Z" fill="black"/>
<path d="M95.7051 197.899L94.648 199.066L85.3984 188.857H86.984L89.3625 191.191L90.6839 188.857H92.2695L90.4196 192.066L95.7051 197.899Z" fill="black"/>
<path d="M95.2148 200.865L94.2081 199.633L85.399 210.409H86.9091L89.1743 207.946L90.4327 210.409H91.9429L90.1811 207.022L95.2148 200.865Z" fill="black"/>
<path d="M95.2148 200.865L96.2719 199.633L105.522 210.409H103.936L101.557 207.946L100.236 210.409H98.6504L100.5 207.022L95.2148 200.865Z" fill="black"/>
<path d="M154.11 210.976V188.291" stroke="black" stroke-width="2"/>
<path d="M144.294 199.633H163.926" stroke="black" stroke-width="4"/>
<path d="M151.655 191.126H156.563" stroke="black" stroke-width="3"/>
<path d="M151.655 208.141H156.563" stroke="black" stroke-width="3"/>
<path d="M161.472 202.469V196.798" stroke="black" stroke-width="3"/>
<path d="M146.747 202.469V196.798" stroke="black" stroke-width="3"/>
<path d="M153.62 197.899L154.677 199.066L163.927 188.857H162.341L159.963 191.191L158.641 188.857H157.056L158.906 192.066L153.62 197.899Z" fill="black"/>
<path d="M154.601 197.899L153.543 199.066L144.294 188.857H145.88L148.258 191.191L149.579 188.857H151.165L149.315 192.066L154.601 197.899Z" fill="black"/>
<path d="M154.11 200.865L153.104 199.633L144.294 210.409H145.805L148.07 207.946L149.328 210.409H150.838L149.077 207.022L154.11 200.865Z" fill="black"/>
<path d="M154.11 200.865L155.167 199.633L164.417 210.409H162.831L160.453 207.946L159.132 210.409H157.546L159.396 207.022L154.11 200.865Z" fill="black"/>
<path d="M213.005 210.976V188.291" stroke="black" stroke-width="2"/>
<path d="M203.189 199.633H222.821" stroke="black" stroke-width="4"/>
<path d="M210.551 191.126H215.459" stroke="black" stroke-width="3"/>
<path d="M210.551 208.14H215.459" stroke="black" stroke-width="3"/>
<path d="M220.367 202.469V196.798" stroke="black" stroke-width="3"/>
<path d="M205.643 202.469V196.798" stroke="black" stroke-width="3"/>
<path d="M212.514 197.899L213.571 199.066L222.82 188.857H221.235L218.856 191.191L217.535 188.857H215.949L217.799 192.066L212.514 197.899Z" fill="black"/>
<path d="M213.496 197.899L212.439 199.066L203.189 188.857H204.775L207.154 191.191L208.475 188.857H210.061L208.211 192.066L213.496 197.899Z" fill="black"/>
<path d="M213.006 200.865L211.999 199.633L203.19 210.409H204.7L206.965 207.946L208.224 210.409H209.734L207.972 207.022L213.006 200.865Z" fill="black"/>
<path d="M213.006 200.865L214.063 199.633L223.313 210.409H221.727L219.348 207.946L218.027 210.409H216.441L218.291 207.022L213.006 200.865Z" fill="black"/>
<path d="M55.9531 210.976V188.291" stroke="black" stroke-width="2"/>
<path d="M46.1367 199.633H65.7685" stroke="black" stroke-width="4"/>
<path d="M53.498 191.126H58.406" stroke="black" stroke-width="3"/>
<path d="M53.498 208.14H58.406" stroke="black" stroke-width="3"/>
<path d="M63.3145 202.469V196.798" stroke="black" stroke-width="3"/>
<path d="M48.5898 202.469V196.798" stroke="black" stroke-width="3"/>
<path d="M55.4629 197.899L56.52 199.066L65.7696 188.857H64.1839L61.8055 191.191L60.4841 188.857H58.8984L60.7484 192.066L55.4629 197.899Z" fill="black"/>
<path d="M56.4434 197.899L55.3863 199.066L46.1367 188.857H47.7223L50.1008 191.191L51.4222 188.857H53.0078L51.1579 192.066L56.4434 197.899Z" fill="black"/>
<path d="M55.9531 200.865L54.9464 199.633L46.1372 210.409H47.6474L49.9126 207.946L51.171 210.409H52.6812L50.9193 207.022L55.9531 200.865Z" fill="black"/>
<path d="M55.9531 200.865L57.0102 199.633L66.2598 210.409H64.6742L62.2957 207.946L60.9743 210.409H59.3887L61.2386 207.022L55.9531 200.865Z" fill="black"/>
<path d="M114.847 210.976V188.291" stroke="black" stroke-width="2"/>
<path d="M105.03 199.633H124.662" stroke="black" stroke-width="4"/>
<path d="M112.392 191.126H117.3" stroke="black" stroke-width="3"/>
<path d="M112.392 208.141H117.3" stroke="black" stroke-width="3"/>
<path d="M122.208 202.469V196.798" stroke="black" stroke-width="3"/>
<path d="M107.483 202.469V196.798" stroke="black" stroke-width="3"/>
<path d="M114.356 197.899L115.414 199.066L124.663 188.857H123.077L120.699 191.191L119.378 188.857H117.792L119.642 192.066L114.356 197.899Z" fill="black"/>
<path d="M115.337 197.899L114.28 199.066L105.03 188.857H106.616L108.994 191.191L110.316 188.857H111.901L110.051 192.066L115.337 197.899Z" fill="black"/>
<path d="M114.847 200.865L113.84 199.633L105.031 210.409H106.541L108.806 207.946L110.065 210.409H111.575L109.813 207.022L114.847 200.865Z" fill="black"/>
<path d="M114.847 200.865L115.904 199.633L125.153 210.409H123.568L121.189 207.946L119.868 210.409H118.282L120.132 207.022L114.847 200.865Z" fill="black"/>
<path d="M173.742 210.976V188.291" stroke="black" stroke-width="2"/>
<path d="M163.926 199.633H183.558" stroke="black" stroke-width="4"/>
<path d="M171.287 191.126H176.195" stroke="black" stroke-width="3"/>
<path d="M171.287 208.14H176.195" stroke="black" stroke-width="3"/>
<path d="M181.104 202.469V196.798" stroke="black" stroke-width="3"/>
<path d="M166.379 202.469V196.798" stroke="black" stroke-width="3"/>
<path d="M173.252 197.899L174.309 199.066L183.559 188.857H181.973L179.595 191.191L178.273 188.857H176.688L178.537 192.066L173.252 197.899Z" fill="black"/>
<path d="M174.232 197.899L173.175 199.066L163.926 188.857H165.511L167.89 191.191L169.211 188.857H170.797L168.947 192.066L174.232 197.899Z" fill="black"/>
<path d="M173.742 200.865L172.735 199.633L163.926 210.409H165.436L167.702 207.946L168.96 210.409H170.47L168.708 207.022L173.742 200.865Z" fill="black"/>
<path d="M173.742 200.865L174.799 199.633L184.049 210.409H182.463L180.085 207.946L178.763 210.409H177.178L179.028 207.022L173.742 200.865Z" fill="black"/>
<path d="M232.638 210.976V188.291" stroke="black" stroke-width="2"/>
<path d="M222.821 199.633H242.453" stroke="black" stroke-width="4"/>
<path d="M230.183 191.126H235.091" stroke="black" stroke-width="3"/>
<path d="M230.183 208.14H235.091" stroke="black" stroke-width="3"/>
<path d="M239.999 202.469V196.798" stroke="black" stroke-width="3"/>
<path d="M225.274 202.469V196.798" stroke="black" stroke-width="3"/>
<path d="M232.147 197.899L233.205 199.066L242.454 188.857H240.868L238.49 191.191L237.169 188.857H235.583L237.433 192.066L232.147 197.899Z" fill="black"/>
<path d="M233.128 197.899L232.071 199.066L222.821 188.857H224.407L226.785 191.191L228.107 188.857H229.692L227.842 192.066L233.128 197.899Z" fill="black"/>
<path d="M232.638 200.865L231.631 199.633L222.822 210.409H224.332L226.597 207.946L227.856 210.409H229.366L227.604 207.022L232.638 200.865Z" fill="black"/>
<path d="M232.638 200.865L233.695 199.633L242.944 210.409H241.359L238.98 207.946L237.659 210.409H236.073L237.923 207.022L232.638 200.865Z" fill="black"/>
<path d="M75.583 210.976V188.291" stroke="black" stroke-width="2"/>
<path d="M65.7666 199.633H85.3984" stroke="black" stroke-width="4"/>
<path d="M73.1279 191.126H78.0359" stroke="black" stroke-width="3"/>
<path d="M73.1279 208.14H78.0359" stroke="black" stroke-width="3"/>
<path d="M82.9443 202.469V196.798" stroke="black" stroke-width="3"/>
<path d="M68.2197 202.469V196.798" stroke="black" stroke-width="3"/>
<path d="M75.0928 197.899L76.1499 199.066L85.3994 188.857H83.8138L81.4353 191.191L80.114 188.857H78.5283L80.3782 192.066L75.0928 197.899Z" fill="black"/>
<path d="M76.0732 197.899L75.0161 199.066L65.7666 188.857H67.3522L69.7307 191.191L71.052 188.857H72.6377L70.7878 192.066L76.0732 197.899Z" fill="black"/>
<path d="M75.583 200.865L74.5763 199.633L65.7671 210.409H67.2773L69.5425 207.946L70.8009 210.409H72.311L70.5492 207.022L75.583 200.865Z" fill="black"/>
<path d="M75.583 200.865L76.6401 199.633L85.8897 210.409H84.304L81.9256 207.946L80.6042 210.409H79.0186L80.8685 207.022L75.583 200.865Z" fill="black"/>
<path d="M134.479 210.976V188.291" stroke="black" stroke-width="2"/>
<path d="M124.662 199.633H144.294" stroke="black" stroke-width="4"/>
<path d="M132.023 191.126H136.931" stroke="black" stroke-width="3"/>
<path d="M132.023 208.14H136.931" stroke="black" stroke-width="3"/>
<path d="M141.84 202.469V196.798" stroke="black" stroke-width="3"/>
<path d="M127.115 202.469V196.798" stroke="black" stroke-width="3"/>
<path d="M133.988 197.899L135.045 199.066L144.295 188.857H142.709L140.331 191.191L139.009 188.857H137.424L139.274 192.066L133.988 197.899Z" fill="black"/>
<path d="M134.969 197.899L133.912 199.066L124.662 188.857H126.248L128.626 191.191L129.948 188.857H131.533L129.683 192.066L134.969 197.899Z" fill="black"/>
<path d="M134.479 200.865L133.472 199.633L124.663 210.409H126.173L128.438 207.946L129.696 210.409H131.207L129.445 207.022L134.479 200.865Z" fill="black"/>
<path d="M134.479 200.865L135.536 199.633L144.785 210.409H143.2L140.821 207.946L139.5 210.409H137.914L139.764 207.022L134.479 200.865Z" fill="black"/>
<path d="M193.373 210.976V188.291" stroke="black" stroke-width="2"/>
<path d="M183.557 199.633H203.188" stroke="black" stroke-width="4"/>
<path d="M190.918 191.126H195.826" stroke="black" stroke-width="3"/>
<path d="M190.918 208.14H195.826" stroke="black" stroke-width="3"/>
<path d="M200.734 202.469V196.798" stroke="black" stroke-width="3"/>
<path d="M186.01 202.469V196.798" stroke="black" stroke-width="3"/>
<path d="M192.883 197.899L193.94 199.066L203.189 188.857H201.604L199.225 191.191L197.904 188.857H196.318L198.168 192.066L192.883 197.899Z" fill="black"/>
<path d="M193.863 197.899L192.806 199.066L183.557 188.857H185.142L187.521 191.191L188.842 188.857H190.428L188.578 192.066L193.863 197.899Z" fill="black"/>
<path d="M193.373 200.865L192.366 199.633L183.557 210.409H185.067L187.333 207.946L188.591 210.409H190.101L188.339 207.022L193.373 200.865Z" fill="black"/>
<path d="M193.373 200.865L194.43 199.633L203.68 210.409H202.094L199.716 207.946L198.394 210.409H196.809L198.659 207.022L193.373 200.865Z" fill="black"/>
<path d="M252.27 210.976V188.291" stroke="black" stroke-width="2"/>
<path d="M242.453 199.633H262.085" stroke="black" stroke-width="4"/>
<path d="M249.814 191.126H254.722" stroke="black" stroke-width="3"/>
<path d="M249.814 208.14H254.722" stroke="black" stroke-width="3"/>
<path d="M259.631 202.469V196.798" stroke="black" stroke-width="3"/>
<path d="M244.906 202.469V196.798" stroke="black" stroke-width="3"/>
<path d="M251.779 197.899L252.836 199.066L262.086 188.857H260.5L258.122 191.191L256.8 188.857H255.215L257.065 192.066L251.779 197.899Z" fill="black"/>
<path d="M252.76 197.899L251.703 199.066L242.453 188.857H244.039L246.417 191.191L247.739 188.857H249.324L247.474 192.066L252.76 197.899Z" fill="black"/>
<path d="M252.27 200.865L251.263 199.633L242.454 210.409H243.964L246.229 207.946L247.487 210.409H248.998L247.236 207.022L252.27 200.865Z" fill="black"/>
<path d="M252.27 200.865L253.327 199.633L262.576 210.409H260.991L258.612 207.946L257.291 210.409H255.705L257.555 207.022L252.27 200.865Z" fill="black"/>
<path d="M271.899 210.976V188.291" stroke="black" stroke-width="2"/>
<path d="M262.084 199.633H281.716" stroke="black" stroke-width="4"/>
<path d="M269.445 191.126H274.353" stroke="black" stroke-width="3"/>
<path d="M269.445 208.141H274.353" stroke="black" stroke-width="3"/>
<path d="M279.262 202.469V196.797" stroke="black" stroke-width="3"/>
<path d="M264.537 202.469V196.797" stroke="black" stroke-width="3"/>
<path d="M271.41 197.9L272.467 199.066L281.717 188.858H280.131L277.753 191.191L276.431 188.858H274.846L276.696 192.066L271.41 197.9Z" fill="black"/>
<path d="M272.391 197.9L271.334 199.066L262.084 188.858H263.67L266.048 191.191L267.369 188.858H268.955L267.105 192.066L272.391 197.9Z" fill="black"/>
<path d="M271.9 200.865L270.894 199.633L262.085 210.409H263.595L265.86 207.946L267.118 210.409H268.628L266.867 207.023L271.9 200.865Z" fill="black"/>
<path d="M271.9 200.865L272.957 199.633L282.207 210.409H280.621L278.243 207.946L276.922 210.409H275.336L277.186 207.023L271.9 200.865Z" fill="black"/>
<path d="M291.531 210.976V188.291" stroke="black" stroke-width="2"/>
<path d="M281.716 199.633H301.348" stroke="black" stroke-width="4"/>
<path d="M289.077 191.126H293.985" stroke="black" stroke-width="3"/>
<path d="M289.077 208.141H293.985" stroke="black" stroke-width="3"/>
<path d="M298.894 202.469V196.797" stroke="black" stroke-width="3"/>
<path d="M284.169 202.469V196.797" stroke="black" stroke-width="3"/>
<path d="M291.042 197.9L292.099 199.066L301.349 188.858H299.763L297.385 191.191L296.063 188.858H294.478L296.327 192.066L291.042 197.9Z" fill="black"/>
<path d="M292.022 197.9L290.965 199.066L281.716 188.858H283.301L285.68 191.191L287.001 188.858H288.587L286.737 192.066L292.022 197.9Z" fill="black"/>
<path d="M291.532 200.865L290.525 199.633L281.716 210.409H283.226L285.492 207.946L286.75 210.409H288.26L286.498 207.023L291.532 200.865Z" fill="black"/>
<path d="M291.532 200.865L292.589 199.633L301.839 210.409H300.253L297.875 207.946L296.553 210.409H294.968L296.818 207.023L291.532 200.865Z" fill="black"/>
<path d="M311.164 210.976V188.291" stroke="black" stroke-width="2"/>
<path d="M301.348 199.633H320.979" stroke="black" stroke-width="4"/>
<path d="M308.709 191.126H313.617" stroke="black" stroke-width="3"/>
<path d="M308.709 208.141H313.617" stroke="black" stroke-width="3"/>
<path d="M318.525 202.469V196.797" stroke="black" stroke-width="3"/>
<path d="M303.801 202.469V196.797" stroke="black" stroke-width="3"/>
<path d="M310.674 197.9L311.731 199.066L320.981 188.858H319.395L317.016 191.191L315.695 188.858H314.109L315.959 192.066L310.674 197.9Z" fill="black"/>
<path d="M311.654 197.9L310.597 199.066L301.348 188.858H302.933L305.312 191.191L306.633 188.858H308.219L306.369 192.066L311.654 197.9Z" fill="black"/>
<path d="M311.164 200.865L310.157 199.633L301.348 210.409H302.858L305.124 207.946L306.382 210.409H307.892L306.13 207.023L311.164 200.865Z" fill="black"/>
<path d="M311.164 200.865L312.221 199.633L321.471 210.409H319.885L317.507 207.946L316.185 210.409H314.6L316.45 207.023L311.164 200.865Z" fill="black"/>
<path d="M330.797 210.976V188.291" stroke="black" stroke-width="2"/>
<path d="M320.98 199.633H340.612" stroke="black" stroke-width="4"/>
<path d="M328.342 191.126H333.25" stroke="black" stroke-width="3"/>
<path d="M328.342 208.141H333.25" stroke="black" stroke-width="3"/>
<path d="M338.158 202.469V196.797" stroke="black" stroke-width="3"/>
<path d="M323.434 202.469V196.797" stroke="black" stroke-width="3"/>
<path d="M330.307 197.9L331.364 199.066L340.613 188.858H339.028L336.649 191.191L335.328 188.858H333.742L335.592 192.066L330.307 197.9Z" fill="black"/>
<path d="M331.287 197.9L330.23 199.066L320.98 188.858H322.566L324.945 191.191L326.266 188.858H327.852L326.002 192.066L331.287 197.9Z" fill="black"/>
<path d="M330.797 200.865L329.79 199.633L320.981 210.409H322.491L324.756 207.946L326.015 210.409H327.525L325.763 207.023L330.797 200.865Z" fill="black"/>
<path d="M330.797 200.865L331.854 199.633L341.104 210.409H339.518L337.139 207.946L335.818 210.409H334.232L336.082 207.023L330.797 200.865Z" fill="black"/>
<path d="M350.428 210.976V188.291" stroke="black" stroke-width="2"/>
<path d="M340.611 199.633H360.243" stroke="black" stroke-width="4"/>
<path d="M347.973 191.126H352.881" stroke="black" stroke-width="3"/>
<path d="M347.973 208.141H352.881" stroke="black" stroke-width="3"/>
<path d="M357.789 202.469V196.797" stroke="black" stroke-width="3"/>
<path d="M343.064 202.469V196.797" stroke="black" stroke-width="3"/>
<path d="M349.938 197.9L350.995 199.066L360.244 188.858H358.659L356.28 191.191L354.959 188.858H353.373L355.223 192.066L349.938 197.9Z" fill="black"/>
<path d="M350.919 197.9L349.862 199.066L340.612 188.858H342.198L344.576 191.191L345.898 188.858H347.483L345.633 192.066L350.919 197.9Z" fill="black"/>
<path d="M350.428 200.865L349.421 199.633L340.612 210.409H342.122L344.387 207.946L345.646 210.409H347.156L345.394 207.023L350.428 200.865Z" fill="black"/>
<path d="M350.428 200.865L351.485 199.633L360.734 210.409H359.149L356.77 207.946L355.449 210.409H353.863L355.713 207.023L350.428 200.865Z" fill="black"/>
<path d="M370.062 210.976V188.291" stroke="black" stroke-width="2"/>
<path d="M360.245 199.633H379.877" stroke="black" stroke-width="4"/>
<path d="M367.606 191.126H372.514" stroke="black" stroke-width="3"/>
<path d="M367.606 208.141H372.514" stroke="black" stroke-width="3"/>
<path d="M377.423 202.469V196.797" stroke="black" stroke-width="3"/>
<path d="M362.698 202.469V196.797" stroke="black" stroke-width="3"/>
<path d="M369.571 197.9L370.628 199.066L379.878 188.858H378.292L375.914 191.191L374.592 188.858H373.007L374.857 192.066L369.571 197.9Z" fill="black"/>
<path d="M370.552 197.9L369.495 199.066L360.245 188.858H361.831L364.209 191.191L365.531 188.858H367.116L365.266 192.066L370.552 197.9Z" fill="black"/>
<path d="M370.062 200.865L369.055 199.633L360.246 210.409H361.756L364.021 207.946L365.279 210.409H366.79L365.028 207.023L370.062 200.865Z" fill="black"/>
<path d="M370.062 200.865L371.119 199.633L380.368 210.409H378.783L376.404 207.946L375.083 210.409H373.497L375.347 207.023L370.062 200.865Z" fill="black"/>
<path d="M389.69 210.976V188.291" stroke="black" stroke-width="2"/>
<path d="M379.875 199.633H399.507" stroke="black" stroke-width="4"/>
<path d="M387.236 191.126H392.144" stroke="black" stroke-width="3"/>
<path d="M387.236 208.141H392.144" stroke="black" stroke-width="3"/>
<path d="M397.053 202.469V196.797" stroke="black" stroke-width="3"/>
<path d="M382.328 202.469V196.797" stroke="black" stroke-width="3"/>
<path d="M389.201 197.9L390.258 199.066L399.508 188.858H397.922L395.544 191.191L394.222 188.858H392.637L394.487 192.066L389.201 197.9Z" fill="black"/>
<path d="M390.182 197.9L389.125 199.066L379.875 188.858H381.461L383.839 191.191L385.16 188.858H386.746L384.896 192.066L390.182 197.9Z" fill="black"/>
<path d="M389.691 200.865L388.685 199.633L379.876 210.409H381.386L383.651 207.946L384.909 210.409H386.419L384.658 207.023L389.691 200.865Z" fill="black"/>
<path d="M389.691 200.865L390.749 199.633L399.998 210.409H398.412L396.034 207.946L394.713 210.409H393.127L394.977 207.023L389.691 200.865Z" fill="black"/>
<path d="M409.323 210.976V188.291" stroke="black" stroke-width="2"/>
<path d="M399.507 199.633H419.139" stroke="black" stroke-width="4"/>
<path d="M406.868 191.126H411.776" stroke="black" stroke-width="3"/>
<path d="M406.868 208.141H411.776" stroke="black" stroke-width="3"/>
<path d="M416.685 202.469V196.797" stroke="black" stroke-width="3"/>
<path d="M401.96 202.469V196.797" stroke="black" stroke-width="3"/>
<path d="M408.833 197.9L409.89 199.066L419.14 188.858H417.554L415.176 191.191L413.854 188.858H412.269L414.118 192.066L408.833 197.9Z" fill="black"/>
<path d="M409.813 197.9L408.756 199.066L399.507 188.858H401.092L403.471 191.191L404.792 188.858H406.378L404.528 192.066L409.813 197.9Z" fill="black"/>
<path d="M409.323 200.865L408.316 199.633L399.507 210.409H401.017L403.283 207.946L404.541 210.409H406.051L404.289 207.023L409.323 200.865Z" fill="black"/>
<path d="M409.323 200.865L410.38 199.633L419.63 210.409H418.044L415.666 207.946L414.344 210.409H412.759L414.609 207.023L409.323 200.865Z" fill="black"/>
<path d="M428.954 210.976V188.291" stroke="black" stroke-width="2"/>
<path d="M419.139 199.633H438.77" stroke="black" stroke-width="4"/>
<path d="M426.5 191.126H431.408" stroke="black" stroke-width="3"/>
<path d="M426.5 208.141H431.408" stroke="black" stroke-width="3"/>
<path d="M436.316 202.469V196.797" stroke="black" stroke-width="3"/>
<path d="M421.592 202.469V196.797" stroke="black" stroke-width="3"/>
<path d="M428.465 197.9L429.522 199.066L438.772 188.858H437.186L434.807 191.191L433.486 188.858H431.9L433.75 192.066L428.465 197.9Z" fill="black"/>
<path d="M429.445 197.9L428.388 199.066L419.139 188.858H420.724L423.103 191.191L424.424 188.858H426.01L424.16 192.066L429.445 197.9Z" fill="black"/>
<path d="M428.955 200.865L427.948 199.633L419.139 210.409H420.649L422.915 207.946L424.173 210.409H425.683L423.921 207.023L428.955 200.865Z" fill="black"/>
<path d="M428.955 200.865L430.012 199.633L439.262 210.409H437.676L435.298 207.946L433.976 210.409H432.391L434.241 207.023L428.955 200.865Z" fill="black"/>
<path d="M448.587 210.976V188.291" stroke="black" stroke-width="2"/>
<path d="M438.771 199.633H458.402" stroke="black" stroke-width="4"/>
<path d="M446.132 191.126H451.04" stroke="black" stroke-width="3"/>
<path d="M446.132 208.141H451.04" stroke="black" stroke-width="3"/>
<path d="M455.948 202.469V196.797" stroke="black" stroke-width="3"/>
<path d="M441.224 202.469V196.797" stroke="black" stroke-width="3"/>
<path d="M448.096 197.9L449.153 199.066L458.402 188.858H456.817L454.438 191.191L453.117 188.858H451.531L453.381 192.066L448.096 197.9Z" fill="black"/>
<path d="M449.077 197.9L448.02 199.066L438.77 188.858H440.356L442.735 191.191L444.056 188.858H445.642L443.792 192.066L449.077 197.9Z" fill="black"/>
<path d="M448.587 200.865L447.58 199.633L438.771 210.409H440.281L442.546 207.946L443.805 210.409H445.315L443.553 207.023L448.587 200.865Z" fill="black"/>
<path d="M448.587 200.865L449.644 199.633L458.894 210.409H457.308L454.929 207.946L453.608 210.409H452.022L453.872 207.023L448.587 200.865Z" fill="black"/>
<path d="M468.219 210.976V188.291" stroke="black" stroke-width="2"/>
<path d="M458.402 199.633H478.034" stroke="black" stroke-width="4"/>
<path d="M465.764 191.126H470.672" stroke="black" stroke-width="3"/>
<path d="M465.764 208.141H470.672" stroke="black" stroke-width="3"/>
<path d="M475.58 202.469V196.797" stroke="black" stroke-width="3"/>
<path d="M460.855 202.469V196.797" stroke="black" stroke-width="3"/>
<path d="M467.729 197.9L468.786 199.066L478.035 188.858H476.45L474.071 191.191L472.75 188.858H471.164L473.014 192.066L467.729 197.9Z" fill="black"/>
<path d="M468.71 197.9L467.653 199.066L458.403 188.858H459.989L462.367 191.191L463.689 188.858H465.274L463.424 192.066L468.71 197.9Z" fill="black"/>
<path d="M468.219 200.865L467.212 199.633L458.403 210.409H459.913L462.178 207.946L463.437 210.409H464.947L463.185 207.023L468.219 200.865Z" fill="black"/>
<path d="M468.219 200.865L469.276 199.633L478.525 210.409H476.94L474.561 207.946L473.24 210.409H471.654L473.504 207.023L468.219 200.865Z" fill="black"/>
<path d="M487.851 210.976V188.291" stroke="black" stroke-width="2"/>
<path d="M478.034 199.633H497.666" stroke="black" stroke-width="4"/>
<path d="M485.396 191.126H490.303" stroke="black" stroke-width="3"/>
<path d="M485.396 208.141H490.303" stroke="black" stroke-width="3"/>
<path d="M495.212 202.469V196.797" stroke="black" stroke-width="3"/>
<path d="M480.487 202.469V196.797" stroke="black" stroke-width="3"/>
<path d="M487.36 197.9L488.417 199.066L497.667 188.858H496.081L493.703 191.191L492.382 188.858H490.796L492.646 192.066L487.36 197.9Z" fill="black"/>
<path d="M488.341 197.9L487.284 199.066L478.034 188.858H479.62L481.998 191.191L483.32 188.858H484.905L483.055 192.066L488.341 197.9Z" fill="black"/>
<path d="M487.851 200.865L486.844 199.633L478.035 210.409H479.545L481.81 207.946L483.068 210.409H484.579L482.817 207.023L487.851 200.865Z" fill="black"/>
<path d="M487.851 200.865L488.908 199.633L498.157 210.409H496.572L494.193 207.946L492.872 210.409H491.286L493.136 207.023L487.851 200.865Z" fill="black"/>
<path d="M507.481 210.976V188.291" stroke="black" stroke-width="2"/>
<path d="M497.665 199.633H517.297" stroke="black" stroke-width="4"/>
<path d="M505.026 191.126H509.934" stroke="black" stroke-width="3"/>
<path d="M505.026 208.141H509.934" stroke="black" stroke-width="3"/>
<path d="M514.843 202.469V196.797" stroke="black" stroke-width="3"/>
<path d="M500.118 202.469V196.797" stroke="black" stroke-width="3"/>
<path d="M506.991 197.9L508.048 199.066L517.298 188.858H515.712L513.334 191.191L512.012 188.858H510.427L512.277 192.066L506.991 197.9Z" fill="black"/>
<path d="M507.972 197.9L506.915 199.066L497.665 188.858H499.251L501.629 191.191L502.95 188.858H504.536L502.686 192.066L507.972 197.9Z" fill="black"/>
<path d="M507.481 200.865L506.475 199.633L497.666 210.409H499.176L501.441 207.946L502.699 210.409H504.209L502.448 207.023L507.481 200.865Z" fill="black"/>
<path d="M507.481 200.865L508.539 199.633L517.788 210.409H516.202L513.824 207.946L512.503 210.409H510.917L512.767 207.023L507.481 200.865Z" fill="black"/>
<path d="M527.115 210.976V188.291" stroke="black" stroke-width="2"/>
<path d="M517.299 199.633H536.931" stroke="black" stroke-width="4"/>
<path d="M524.66 191.126H529.568" stroke="black" stroke-width="3"/>
<path d="M524.66 208.141H529.568" stroke="black" stroke-width="3"/>
<path d="M534.477 202.469V196.797" stroke="black" stroke-width="3"/>
<path d="M519.752 202.469V196.797" stroke="black" stroke-width="3"/>
<path d="M526.625 197.9L527.682 199.066L536.932 188.858H535.346L532.968 191.191L531.646 188.858H530.061L531.91 192.066L526.625 197.9Z" fill="black"/>
<path d="M527.605 197.9L526.548 199.066L517.299 188.858H518.884L521.263 191.191L522.584 188.858H524.17L522.32 192.066L527.605 197.9Z" fill="black"/>
<path d="M527.115 200.865L526.108 199.633L517.299 210.409H518.809L521.075 207.946L522.333 210.409H523.843L522.081 207.023L527.115 200.865Z" fill="black"/>
<path d="M527.115 200.865L528.172 199.633L537.422 210.409H535.836L533.458 207.946L532.136 210.409H530.551L532.401 207.023L527.115 200.865Z" fill="black"/>
<path d="M546.746 210.976V188.291" stroke="black" stroke-width="2"/>
<path d="M536.93 199.633H556.561" stroke="black" stroke-width="4"/>
<path d="M544.291 191.126H549.199" stroke="black" stroke-width="3"/>
<path d="M544.291 208.141H549.199" stroke="black" stroke-width="3"/>
<path d="M554.107 202.469V196.797" stroke="black" stroke-width="3"/>
<path d="M539.383 202.469V196.797" stroke="black" stroke-width="3"/>
<path d="M546.256 197.9L547.313 199.066L556.563 188.858H554.977L552.598 191.191L551.277 188.858H549.691L551.541 192.066L546.256 197.9Z" fill="black"/>
<path d="M547.236 197.9L546.179 199.066L536.93 188.858H538.515L540.894 191.191L542.215 188.858H543.801L541.951 192.066L547.236 197.9Z" fill="black"/>
<path d="M546.746 200.865L545.739 199.633L536.93 210.409H538.44L540.706 207.946L541.964 210.409H543.474L541.712 207.023L546.746 200.865Z" fill="black"/>
<path d="M546.746 200.865L547.803 199.633L557.053 210.409H555.467L553.089 207.946L551.767 210.409H550.182L552.032 207.023L546.746 200.865Z" fill="black"/>
<path d="M566.378 210.976V188.291" stroke="black" stroke-width="2"/>
<path d="M556.562 199.633H576.193" stroke="black" stroke-width="4"/>
<path d="M563.923 191.126H568.831" stroke="black" stroke-width="3"/>
<path d="M563.923 208.141H568.831" stroke="black" stroke-width="3"/>
<path d="M573.739 202.469V196.798" stroke="black" stroke-width="3"/>
<path d="M559.015 202.469V196.798" stroke="black" stroke-width="3"/>
<path d="M565.888 197.9L566.945 199.066L576.194 188.858H574.609L572.23 191.191L570.909 188.858H569.323L571.173 192.066L565.888 197.9Z" fill="black"/>
<path d="M566.869 197.9L565.812 199.066L556.562 188.858H558.148L560.527 191.191L561.848 188.858H563.434L561.584 192.066L566.869 197.9Z" fill="black"/>
<path d="M566.378 200.865L565.371 199.633L556.562 210.409H558.072L560.337 207.946L561.596 210.409H563.106L561.344 207.023L566.378 200.865Z" fill="black"/>
<path d="M566.378 200.865L567.435 199.633L576.685 210.409H575.099L572.72 207.946L571.399 210.409H569.813L571.663 207.023L566.378 200.865Z" fill="black"/>
<path d="M586.011 210.976V188.291" stroke="black" stroke-width="2"/>
<path d="M576.194 199.633H595.826" stroke="black" stroke-width="4"/>
<path d="M583.556 191.126H588.464" stroke="black" stroke-width="3"/>
<path d="M583.556 208.141H588.464" stroke="black" stroke-width="3"/>
<path d="M593.372 202.469V196.797" stroke="black" stroke-width="3"/>
<path d="M578.647 202.469V196.797" stroke="black" stroke-width="3"/>
<path d="M585.521 197.9L586.578 199.066L595.827 188.858H594.242L591.863 191.191L590.542 188.858H588.956L590.806 192.066L585.521 197.9Z" fill="black"/>
<path d="M586.501 197.9L585.444 199.066L576.194 188.858H577.78L580.158 191.191L581.48 188.858H583.065L581.216 192.066L586.501 197.9Z" fill="black"/>
<path d="M586.011 200.865L585.004 199.633L576.195 210.409H577.705L579.97 207.946L581.229 210.409H582.739L580.977 207.023L586.011 200.865Z" fill="black"/>
<path d="M586.011 200.865L587.068 199.633L596.317 210.409H594.732L592.353 207.946L591.032 210.409H589.446L591.296 207.023L586.011 200.865Z" fill="black"/>
<path d="M605.641 210.976V188.291" stroke="black" stroke-width="2"/>
<path d="M595.824 199.633H615.456" stroke="black" stroke-width="4"/>
<path d="M603.186 191.126H608.093" stroke="black" stroke-width="3"/>
<path d="M603.186 208.141H608.093" stroke="black" stroke-width="3"/>
<path d="M613.002 202.469V196.797" stroke="black" stroke-width="3"/>
<path d="M598.277 202.469V196.797" stroke="black" stroke-width="3"/>
<path d="M605.149 197.9L606.207 199.066L615.456 188.858H613.87L611.492 191.191L610.171 188.858H608.585L610.435 192.066L605.149 197.9Z" fill="black"/>
<path d="M606.131 197.9L605.074 199.066L595.824 188.858H597.41L599.788 191.191L601.11 188.858H602.695L600.845 192.066L606.131 197.9Z" fill="black"/>
<path d="M605.641 200.865L604.634 199.633L595.825 210.409H597.335L599.6 207.946L600.859 210.409H602.369L600.607 207.023L605.641 200.865Z" fill="black"/>
<path d="M605.641 200.865L606.698 199.633L615.947 210.409H614.362L611.983 207.946L610.662 210.409H609.076L610.926 207.023L605.641 200.865Z" fill="black"/>
<path d="M625.272 210.976V188.291" stroke="black" stroke-width="2"/>
<path d="M615.456 199.633H635.088" stroke="black" stroke-width="4"/>
<path d="M622.817 191.126H627.725" stroke="black" stroke-width="3"/>
<path d="M622.817 208.141H627.725" stroke="black" stroke-width="3"/>
<path d="M632.634 202.469V196.797" stroke="black" stroke-width="3"/>
<path d="M617.909 202.469V196.797" stroke="black" stroke-width="3"/>
<path d="M624.782 197.9L625.839 199.066L635.089 188.858H633.503L631.125 191.191L629.803 188.858H628.218L630.068 192.066L624.782 197.9Z" fill="black"/>
<path d="M625.763 197.9L624.706 199.066L615.456 188.858H617.042L619.42 191.191L620.741 188.858H622.327L620.477 192.066L625.763 197.9Z" fill="black"/>
<path d="M625.272 200.865L624.266 199.633L615.457 210.409H616.967L619.232 207.946L620.49 210.409H622.001L620.239 207.023L625.272 200.865Z" fill="black"/>
<path d="M625.272 200.865L626.33 199.633L635.579 210.409H633.993L631.615 207.946L630.294 210.409H628.708L630.558 207.023L625.272 200.865Z" fill="black"/>
<path d="M644.905 210.976V188.291" stroke="black" stroke-width="2"/>
<path d="M635.089 199.633H654.721" stroke="black" stroke-width="4"/>
<path d="M642.45 191.126H647.358" stroke="black" stroke-width="3"/>
<path d="M642.45 208.141H647.358" stroke="black" stroke-width="3"/>
<path d="M652.267 202.469V196.798" stroke="black" stroke-width="3"/>
<path d="M637.542 202.469V196.798" stroke="black" stroke-width="3"/>
<path d="M644.415 197.9L645.472 199.066L654.722 188.858H653.136L650.758 191.191L649.436 188.858H647.851L649.701 192.066L644.415 197.9Z" fill="black"/>
<path d="M645.396 197.9L644.338 199.066L635.089 188.858H636.674L639.053 191.191L640.374 188.858H641.96L640.11 192.066L645.396 197.9Z" fill="black"/>
<path d="M644.905 200.865L643.899 199.633L635.089 210.409H636.6L638.865 207.946L640.123 210.409H641.633L639.871 207.023L644.905 200.865Z" fill="black"/>
<path d="M644.905 200.865L645.962 199.633L655.212 210.409H653.626L651.248 207.946L649.926 210.409H648.341L650.191 207.023L644.905 200.865Z" fill="black"/>
<path d="M667.056 204.257C660.115 200.246 654.736 194.431 653.174 188.215C658.553 190.02 663.585 196.236 667.056 204.257Z" fill="black"/>
<path d="M668.127 203.377C667.054 198.771 667.627 194.564 670.142 192.276C671.65 195.539 670.711 199.658 668.127 203.377Z" fill="black"/>
<path d="M664.55 197.634C663.716 195.21 663.327 192.706 663.644 190.932C664.415 192.509 664.705 195.031 664.55 197.634Z" fill="black"/>
<path d="M661.445 201.223C659.347 200.259 657.18 199.81 655.645 200.176C657.01 201.066 659.193 201.402 661.445 201.223Z" fill="black"/>
<path d="M666.303 205.485C662.316 204.245 658.675 204.907 656.696 207.814C659.52 209.556 663.084 208.472 666.303 205.485Z" fill="black"/>
<path d="M667.055 188.216C665.667 189.82 666.476 199.578 667.055 204.257L665.32 202.252L664.973 189.018L666.361 187.413L667.055 188.216Z" fill="black"/>
<path d="M653.173 204.257C654.561 202.653 663.006 203.588 667.055 204.257L665.32 202.252L653.867 201.851L652.479 203.455L653.173 204.257Z" fill="black"/>
<path d="M10.2871 205.391C17.228 201.381 22.6072 195.566 24.1689 189.35C18.7897 191.154 13.7576 197.37 10.2871 205.391Z" fill="black"/>
<path d="M9.21613 204.512C10.2891 199.906 9.71618 195.698 7.20057 193.411C5.69279 196.674 6.63151 200.792 9.21613 204.512Z" fill="black"/>
<path d="M12.7923 198.768C13.6264 196.344 14.0156 193.84 13.6984 192.066C12.9282 193.644 12.6378 196.166 12.7923 198.768Z" fill="black"/>
<path d="M15.898 202.357C17.9956 201.394 20.1627 200.944 21.6976 201.31C20.3326 202.2 18.1501 202.536 15.898 202.357Z" fill="black"/>
<path d="M11.0402 206.619C15.0264 205.379 18.6673 206.041 20.6469 208.948C17.8231 210.691 14.259 209.606 11.0402 206.619Z" fill="black"/>
<path d="M10.2879 189.35C11.6761 190.954 10.8663 200.712 10.2879 205.391L12.0231 203.386L12.3702 190.152L10.982 188.548L10.2879 189.35Z" fill="black"/>
<path d="M24.1696 205.391C22.7815 203.787 14.3367 204.723 10.2879 205.391L12.0231 203.386L23.4756 202.985L24.8637 204.589L24.1696 205.391Z" fill="black"/>
</svg>
