<svg width="140" height="240" viewBox="0 0 140 240" fill="none" xmlns="http://www.w3.org/2000/svg">
<path d="M117.521 42L93.7211 33.8V30H139.721V33.8L123.921 41.8L102.921 86.2L95.7211 101.2C95.1878 102.4 93.9878 104.8 92.1211 108.4C90.3878 112 89.0544 114.733 88.1211 116.6C84.6544 123.267 82.0544 128.2 80.3211 131.4C75.3878 140.467 71.7878 146.933 69.5211 150.8C63.6544 161.067 57.8544 167.333 52.1211 169.6C49.3211 170.933 45.7211 171.6 41.3211 171.6C34.5211 171.6 29.1878 171.067 25.3211 170C24.7878 168.4 24.5211 166.467 24.5211 164.2C24.5211 160.2 24.8544 156.867 25.5211 154.2C25.9211 151 26.6544 148.533 27.7211 146.8C33.1878 148.133 39.1211 148.8 45.5211 148.8C55.1211 148.8 61.5211 147.067 64.7211 143.6L12.5211 34.8L0.121094 33.8V30H59.5211V33.8L41.9211 34.8L80.5211 119.6C81.9878 116.667 84.1878 112.2 87.1211 106.2C90.0544 100.2 92.3211 95.6667 93.9211 92.6C98.7211 82.7333 102.654 74.4 105.721 67.6C107.321 64.1333 109.521 59.3333 112.321 53.2C115.254 47.0667 116.988 43.3333 117.521 42Z" fill="black"/>
<path d="M78.5629 92.844H76.9789V89.388H71.3989V88.452L77.1049 80.424H78.5629V87.984H80.8489L80.7409 89.388H78.5629V92.844ZM72.2089 87.984H76.9789V81.306L72.2089 87.984ZM85.0402 92.556C85.9042 92.556 86.5642 92.316 87.0202 91.836C87.4762 91.368 87.7042 90.714 87.7042 89.874C87.7042 89.526 87.6442 89.208 87.5242 88.92C87.4162 88.62 87.2842 88.374 87.1282 88.182C86.9842 87.99 86.7622 87.816 86.4622 87.66C86.1742 87.492 85.9222 87.366 85.7062 87.282C85.4902 87.186 85.1902 87.096 84.8062 87.012C84.4222 86.928 84.1342 86.874 83.9422 86.85C83.7502 86.814 83.4562 86.766 83.0602 86.706C82.8922 86.706 82.7662 86.7 82.6822 86.688L82.4122 86.346L82.5742 80.55H88.9642L88.8742 82.134H82.9342L82.8442 85.212C83.3602 85.26 83.8222 85.314 84.2302 85.374C84.6502 85.434 85.1302 85.524 85.6702 85.644C86.2222 85.764 86.7022 85.926 87.1102 86.13C87.5182 86.322 87.9022 86.562 88.2622 86.85C88.6342 87.126 88.9162 87.48 89.1082 87.912C89.3122 88.344 89.4142 88.83 89.4142 89.37C89.4142 90.606 89.0062 91.524 88.1902 92.124C87.3862 92.724 86.3422 93.024 85.0582 93.024C83.6662 93.024 82.4242 92.526 81.3322 91.53L81.6202 91.242C82.4602 92.118 83.6002 92.556 85.0402 92.556ZM93.8979 82.494C93.0339 82.494 92.3379 82.242 91.8099 81.738C91.2939 81.222 91.0359 80.556 91.0359 79.74C91.0359 78.924 91.2939 78.258 91.8099 77.742C92.3259 77.226 93.0219 76.968 93.8979 76.968C94.7499 76.968 95.4399 77.226 95.9679 77.742C96.4959 78.258 96.7599 78.924 96.7599 79.74C96.7599 80.556 96.4959 81.222 95.9679 81.738C95.4399 82.242 94.7499 82.494 93.8979 82.494ZM93.9159 81.432C94.4919 81.432 94.9119 81.276 95.1759 80.964C95.4519 80.652 95.5899 80.244 95.5899 79.74C95.5899 79.212 95.4459 78.792 95.1579 78.48C94.8819 78.168 94.4679 78.012 93.9159 78.012C93.3279 78.012 92.8959 78.168 92.6199 78.48C92.3439 78.792 92.2059 79.212 92.2059 79.74C92.2059 80.244 92.3439 80.652 92.6199 80.964C92.8959 81.276 93.3279 81.432 93.9159 81.432Z" fill="black"/>
</svg>
