<svg width="273" height="240" viewBox="0 0 273 240" fill="none" xmlns="http://www.w3.org/2000/svg">
<path d="M64.407 115.6H51.607V165.2L75.207 166.2V170H6.80703V166.2L23.407 165.2V34.8L6.60703 33.8V30H68.607C76.207 30 83.0737 30.6667 89.207 32C95.4737 33.3333 101.207 35.5333 106.407 38.6C111.74 41.5333 115.874 45.8 118.807 51.4C121.74 56.8667 123.207 63.4667 123.207 71.2C123.207 77.8667 122.074 83.8 119.807 89C117.54 94.2 114.54 98.4667 110.807 101.8C107.074 105 102.607 107.667 97.407 109.8C92.207 111.933 86.8737 113.467 81.407 114.4C76.0737 115.2 70.407 115.6 64.407 115.6ZM63.607 34.8H51.607V110.8H65.207C76.407 110.8 83.8737 107.6 87.607 101.2C91.4737 94.8 93.407 85.5333 93.407 73.4C93.407 61.1333 91.2737 51.6667 87.007 45C82.8737 38.2 75.0737 34.8 63.607 34.8Z" fill="black"/>
<path d="M153.204 142.8H146.804V167.6L158.604 168.1V170H124.404V168.1L132.704 167.6V102.4L124.304 101.9V100H155.304C159.104 100 162.537 100.333 165.604 101C168.737 101.667 171.604 102.767 174.204 104.3C176.87 105.767 178.937 107.9 180.404 110.7C181.87 113.433 182.604 116.733 182.604 120.6C182.604 123.933 182.037 126.9 180.904 129.5C179.77 132.1 178.27 134.233 176.404 135.9C174.537 137.5 172.304 138.833 169.704 139.9C167.104 140.967 164.437 141.733 161.704 142.2C159.037 142.6 156.204 142.8 153.204 142.8ZM152.804 102.4H146.804V140.4H153.604C159.204 140.4 162.937 138.8 164.804 135.6C166.737 132.4 167.704 127.767 167.704 121.7C167.704 115.567 166.637 110.833 164.504 107.5C162.437 104.1 158.537 102.4 152.804 102.4Z" fill="black"/>
<path d="M212.352 156.4H209.152V168.8L215.052 169.05V170H197.952V169.05L202.102 168.8V136.2L197.902 135.95V135H213.402C215.302 135 217.018 135.167 218.552 135.5C220.118 135.833 221.552 136.383 222.852 137.15C224.185 137.883 225.218 138.95 225.952 140.35C226.685 141.717 227.052 143.367 227.052 145.3C227.052 146.967 226.768 148.45 226.202 149.75C225.635 151.05 224.885 152.117 223.952 152.95C223.018 153.75 221.902 154.417 220.602 154.95C219.302 155.483 217.968 155.867 216.602 156.1C215.268 156.3 213.852 156.4 212.352 156.4ZM212.152 136.2H209.152V155.2H212.552C215.352 155.2 217.218 154.4 218.152 152.8C219.118 151.2 219.602 148.883 219.602 145.85C219.602 142.783 219.068 140.417 218.002 138.75C216.968 137.05 215.018 136.2 212.152 136.2Z" fill="black"/>
<path d="M268.106 165.92H267.146V169.64L268.916 169.715V170H263.786V169.715L265.031 169.64V159.86L263.771 159.785V159.5H268.421C268.991 159.5 269.506 159.55 269.966 159.65C270.436 159.75 270.866 159.915 271.256 160.145C271.656 160.365 271.966 160.685 272.186 161.105C272.406 161.515 272.516 162.01 272.516 162.59C272.516 163.09 272.431 163.535 272.261 163.925C272.091 164.315 271.866 164.635 271.586 164.885C271.306 165.125 270.971 165.325 270.581 165.485C270.191 165.645 269.791 165.76 269.381 165.83C268.981 165.89 268.556 165.92 268.106 165.92ZM268.046 159.86H267.146V165.56H268.166C269.006 165.56 269.566 165.32 269.846 164.84C270.136 164.36 270.281 163.665 270.281 162.755C270.281 161.835 270.121 161.125 269.801 160.625C269.491 160.115 268.906 159.86 268.046 159.86Z" fill="black"/>
<path d="M245.176 163.2H243.576V169.4L246.526 169.525V170H237.976V169.525L240.051 169.4V153.1L237.951 152.975V152.5H245.701C246.651 152.5 247.509 152.583 248.276 152.75C249.059 152.917 249.776 153.192 250.426 153.575C251.093 153.942 251.609 154.475 251.976 155.175C252.343 155.858 252.526 156.683 252.526 157.65C252.526 158.483 252.384 159.225 252.101 159.875C251.818 160.525 251.443 161.058 250.976 161.475C250.509 161.875 249.951 162.208 249.301 162.475C248.651 162.742 247.984 162.933 247.301 163.05C246.634 163.15 245.926 163.2 245.176 163.2ZM245.076 153.1H243.576V162.6H245.276C246.676 162.6 247.609 162.2 248.076 161.4C248.559 160.6 248.801 159.442 248.801 157.925C248.801 156.392 248.534 155.208 248.001 154.375C247.484 153.525 246.509 153.1 245.076 153.1Z" fill="black"/>
</svg>
