<svg width="160" height="240" viewBox="0 0 160 240" fill="none" xmlns="http://www.w3.org/2000/svg">
<path d="M124.886 170H22.2859C22.1526 171.6 22.0859 174 22.0859 177.2C21.9526 178.8 21.8859 181.267 21.8859 184.6V194.8C21.8859 197.333 22.0193 200.867 22.2859 205.4C21.6193 205.533 20.6859 205.667 19.4859 205.8C18.4193 206.067 17.6193 206.2 17.0859 206.2C15.8859 206.333 14.2859 206.4 12.2859 206.4C8.28594 206.4 4.88594 206.067 2.08594 205.4C1.9526 203.133 1.7526 200.133 1.48594 196.4C1.3526 195.067 1.21927 193.067 1.08594 190.4C1.08594 187.733 1.08594 185.733 1.08594 184.4C0.819271 179.733 0.619271 176 0.485937 173.2V164.8C3.28594 165.333 6.5526 165.6 10.2859 165.6H15.6859C20.0859 162.267 23.8193 157.267 26.8859 150.6C30.0859 143.8 32.5526 135.667 34.2859 126.2C36.0193 116.733 37.2193 109.067 37.8859 103.2C38.5526 97.3333 39.2859 89.9333 40.0859 81C40.2193 78.8667 40.4859 75.2 40.8859 70C41.4193 64.8 41.8193 60.8 42.0859 58C42.3526 55.3333 42.6859 51.4 43.0859 46.2C43.6193 41 43.9526 37.2 44.0859 34.8L24.8859 33.6V30H140.486V33.6L123.486 34.8V165.6H138.486C141.419 165.6 144.153 165.333 146.686 164.8V172.8C146.553 175.467 146.353 179 146.086 183.4L145.486 196C145.219 200.133 145.019 203.267 144.886 205.4C142.219 206.067 138.886 206.4 134.886 206.4C132.619 206.4 129.353 206.067 125.086 205.4C125.219 203.133 125.286 199.8 125.286 195.4V185.8V178C125.153 177.2 125.086 175.867 125.086 174C125.086 172.133 125.019 170.8 124.886 170ZM23.6859 165.4H102.686V34.4H49.0859L47.2859 59C47.0193 62.0667 46.6193 66.3333 46.0859 71.8C45.6859 77.1333 45.4193 80.6667 45.2859 82.4C44.0859 92.9333 43.3526 100 43.0859 103.6C39.3526 134.8 32.8859 155.4 23.6859 165.4Z" fill="black"/>
<path d="M20.0373 84.6C24.2773 84.6 27.6773 85.8667 30.2373 88.4C32.824 90.9333 34.1173 94.2667 34.1173 98.4C34.1173 102.933 32.8507 106.573 30.3173 109.32C27.784 112.04 24.3173 113.4 19.9173 113.4C15.5707 113.4 12.144 112.12 9.63734 109.56C7.13068 106.973 5.87734 103.547 5.87734 99.28C5.87734 95.0133 7.18401 91.5067 9.79734 88.76C12.4373 85.9867 15.8507 84.6 20.0373 84.6ZM20.1973 112.52C26.4373 112.52 29.5573 107.853 29.5573 98.52C29.5573 89.8533 26.3173 85.52 19.8373 85.52C18.344 85.52 17.024 85.7867 15.8773 86.32C14.7307 86.8533 13.8107 87.5467 13.1173 88.4C12.4507 89.2533 11.8907 90.28 11.4373 91.48C11.0107 92.68 10.7173 93.88 10.5573 95.08C10.424 96.2533 10.3573 97.52 10.3573 98.88C10.3573 100.667 10.5173 102.333 10.8373 103.88C11.1573 105.4 11.664 106.84 12.3573 108.2C13.0773 109.533 14.104 110.587 15.4373 111.36C16.7707 112.133 18.3573 112.52 20.1973 112.52Z" fill="black"/>
<path d="M143.963 84.6C139.723 84.6 136.323 85.8667 133.763 88.4C131.176 90.9333 129.883 94.2667 129.883 98.4C129.883 102.933 131.149 106.573 133.683 109.32C136.216 112.04 139.683 113.4 144.083 113.4C148.429 113.4 151.856 112.12 154.363 109.56C156.869 106.973 158.123 103.547 158.123 99.28C158.123 95.0133 156.816 91.5067 154.203 88.76C151.563 85.9867 148.149 84.6 143.963 84.6ZM143.803 112.52C137.563 112.52 134.443 107.853 134.443 98.52C134.443 89.8533 137.683 85.52 144.163 85.52C145.656 85.52 146.976 85.7867 148.123 86.32C149.269 86.8533 150.189 87.5467 150.883 88.4C151.549 89.2533 152.109 90.28 152.563 91.48C152.989 92.68 153.283 93.88 153.443 95.08C153.576 96.2533 153.643 97.52 153.643 98.88C153.643 100.667 153.483 102.333 153.163 103.88C152.843 105.4 152.336 106.84 151.643 108.2C150.923 109.533 149.896 110.587 148.563 111.36C147.229 112.133 145.643 112.52 143.803 112.52Z" fill="black"/>
<path d="M75.04 137.404C78.2667 137.404 81.3733 136.924 84.36 135.964C87.32 135.031 89.9733 133.551 92.32 131.524V128.244C89.8133 130.084 87.08 131.471 84.12 132.404C81.1333 133.364 78.0933 133.844 75 133.844C71.8267 133.844 68.7333 133.364 65.72 132.404C62.7067 131.471 59.9467 130.071 57.44 128.204V131.524C59.8667 133.551 62.6 135.031 65.64 135.964C68.6533 136.924 71.7867 137.404 75.04 137.404Z" fill="black"/>
</svg>
