<svg width="170" height="240" viewBox="0 0 170 240" fill="none" xmlns="http://www.w3.org/2000/svg">
<path d="M50.0039 33C63.7372 29.8 76.0039 28.2 86.8039 28.2C109.337 28.2 127.737 33.9333 142.004 45.4C156.404 56.8667 163.604 73.4 163.604 95C163.604 118.733 156.404 137.533 142.004 151.4C127.737 165.133 108.937 172 85.6039 172C73.3372 172 61.2706 170.267 49.4039 166.8C48.0706 166.8 45.9372 166.933 43.0039 167.2C39.8039 167.733 37.8706 168.067 37.2039 168.2C37.0706 167.133 37.0039 165.2 37.0039 162.4C36.8706 160.933 36.8039 158.533 36.8039 155.2C36.6706 153.467 36.6039 150.8 36.6039 147.2V131.6C36.6039 128.667 36.6706 126.667 36.8039 125.6C40.5372 124.933 43.9372 124.6 47.0039 124.6C52.2039 124.6 56.6706 124.933 60.4039 125.6C60.2706 126.933 60.2039 129.467 60.2039 133.2V161.8C67.4039 165.4 75.4706 167.2 84.4039 167.2C93.3372 167.2 101.071 165.4 107.604 161.8C114.271 158.067 119.404 153 123.004 146.6C126.604 140.2 129.271 133.333 131.004 126C132.737 118.667 133.604 110.733 133.604 102.2H75.6039V96.8H133.604C133.604 89.7333 133.004 83.1333 131.804 77C130.737 70.8667 128.937 65.0667 126.404 59.6C123.871 54.1333 120.671 49.4667 116.804 45.6C113.071 41.7333 108.271 38.6667 102.404 36.4C96.6706 34.1333 90.1372 33 82.8039 33C73.8706 33 66.3372 34.5333 60.2039 37.6V40.6V45.2C60.0706 46.2667 60.0039 47.7333 60.0039 49.6V64.4C60.0039 69.2 60.0706 72.3333 60.2039 73.8C56.8706 74.4667 52.5372 74.8 47.2039 74.8C43.8706 74.8 40.3372 74.4667 36.6039 73.8V58C36.6039 51.6 36.6706 46.7333 36.8039 43.4C36.8039 37.5333 36.8706 33.6 37.0039 31.6C37.4039 31.6 39.4706 31.9333 43.2039 32.6C46.1372 32.8667 48.4039 33 50.0039 33Z" fill="black"/>
<circle cx="47" cy="52" r="41.5" stroke="black" stroke-width="3" stroke-dasharray="15 15"/>
<circle cx="43" cy="151" r="41.5" stroke="black" stroke-width="3" stroke-dasharray="15 15"/>
</svg>
