<svg width="247" height="240" viewBox="0 0 247 240" fill="none" xmlns="http://www.w3.org/2000/svg">
<path d="M84.9602 30H202.96V33.8L186.56 34.8V165.2L202.96 166.2V170H141.36V166.2L158.16 165.2V35H110.56C110.56 35.1333 110.493 35.4667 110.36 36C110.36 36.4 110.293 37.0667 110.16 38C110.16 38.9333 110.16 39.8 110.16 40.6L109.16 52.6C108.893 54.4667 108.56 57.4667 108.16 61.6C107.893 65.6 107.693 68 107.56 68.8C107.16 72.8 106.56 78.9333 105.76 87.2C105.493 89.2 105.16 92.2667 104.76 96.4C104.36 100.533 104.027 103.667 103.76 105.8C103.627 107.133 103.293 109.8 102.76 113.8C102.227 117.8 101.827 120.733 101.56 122.6C99.9602 133.133 98.8935 140 98.3602 143.2C96.6268 152.933 94.0935 159.467 90.7602 162.8C87.5602 166.133 81.2935 168.8 71.9602 170.8C69.2935 171.333 67.2935 171.667 65.9602 171.8C65.0268 170.333 64.3602 168.8 63.9602 167.2C63.5602 165.867 62.9602 163.733 62.1602 160.8C61.4935 158.533 61.0935 156.4 60.9602 154.4C60.8268 152.8 60.8935 151.133 61.1602 149.4C63.2935 149.267 65.4935 148.867 67.7602 148.2C74.1602 146.867 79.2268 145.2 82.9602 143.2C84.8268 142.4 86.7602 140.867 88.7602 138.6C92.3602 135 94.7602 128.933 95.9602 120.4C96.0935 119.733 96.6268 116.133 97.5602 109.6C97.8268 108.133 98.0935 105.933 98.3602 103C98.7602 99.9333 99.0268 97.8 99.1602 96.6C100.36 87.1333 101.36 77.7333 102.16 68.4C102.427 66 102.893 60.9333 103.56 53.2C104.36 45.3333 104.96 39.2 105.36 34.8L84.9602 33.8V30Z" fill="black"/>
<path d="M55.2419 161.341L34.4061 151.381L36.1983 174.405L55.2419 161.341ZM1.15528 167.557L37.4514 164.732L37.1409 160.744L0.844857 163.569L1.15528 167.557Z" fill="black"/>
<path d="M89.5633 85.7779L71.8969 70.9041L67.849 93.6406L89.5633 85.7779ZM35.6491 78.2107L71.4914 84.5919L72.1925 80.6539L36.3503 74.2727L35.6491 78.2107Z" fill="black"/>
<path d="M192 119.604L211.91 131.305L212.088 108.212L192 119.604ZM246.42 118.024L210.015 117.743L209.984 121.743L246.389 122.024L246.42 118.024Z" fill="black"/>
</svg>
