<svg width="247" height="240" viewBox="0 0 247 240" fill="none" xmlns="http://www.w3.org/2000/svg">
<path d="M153.132 33.8L136.532 34.8L122.932 165.4L139.132 166.2L138.932 170H78.532L78.932 166.2L95.532 165.4L109.332 35H63.532C63.532 35.1333 63.4654 35.4667 63.332 36C63.1987 36.5333 63.0654 37.2667 62.932 38.2C62.7987 39 62.6654 39.8667 62.532 40.8C62.2654 42 61.932 44 61.532 46.8C61.132 49.4667 60.7987 51.4 60.532 52.6C60.2654 54.0667 59.332 59.3333 57.732 68.4C57.332 70.4 56.732 73.4 55.932 77.4C55.2654 81.2667 54.7987 84.1333 54.532 86C52.932 93.7333 51.7987 99.4 51.132 103C47.2654 124.867 43.1987 140.467 38.932 149.8C34.3987 160.333 26.2654 167.333 14.532 170.8C11.332 171.733 9.5987 172.267 9.33203 172.4C8.53203 171.6 7.5987 170.267 6.53203 168.4C6.26536 167.867 5.9987 167.267 5.73203 166.6C5.33203 165.933 4.9987 165.2 4.73203 164.4C4.33203 163.467 3.9987 162.733 3.73203 162.2C2.53203 158.867 1.7987 156.733 1.53203 155.8C0.998698 153.667 0.798698 152 0.932031 150.8C2.53203 150.133 4.5987 149.4 7.13203 148.6C20.0654 144.6 29.0654 139.467 34.132 133.2C39.332 126.933 43.1987 117.067 45.732 103.6C47.0654 95.8667 48.6654 88.0667 50.532 80.2C51.5987 74.3333 52.3987 70 52.932 67.2C53.4654 64.1333 54.3987 59 55.732 51.8C57.0654 44.6 58.0654 38.9333 58.732 34.8L37.532 33.8L37.932 30H153.532L153.132 33.8Z" fill="black"/>
<path d="M198.179 59L178.179 47.453V70.547L198.179 59ZM147.82 61H154.115V57H147.82V61ZM166.705 61H179.295V57H166.705V61Z" fill="black"/>
<path d="M247 99L227 87.453V110.547L247 99ZM148 101H154.188V97H148V101ZM166.562 101H178.938V97H166.562V101ZM191.312 101H203.688V97H191.312V101ZM216.062 101H228.438V97H216.062V101Z" fill="black"/>
<path d="M215.997 140.286L195.888 128.93L196.107 152.023L215.997 140.286ZM141.019 143L147.269 142.94L147.231 138.941L140.981 139L141.019 143ZM159.768 142.821L172.268 142.702L172.23 138.702L159.73 138.822L159.768 142.821ZM184.767 142.583L197.266 142.464L197.228 138.464L184.729 138.583L184.767 142.583Z" fill="black"/>
</svg>
