<svg width="182" height="179" viewBox="0 0 182 179" fill="none" xmlns="http://www.w3.org/2000/svg">
<path d="M78.4938 28C100.094 28 117.427 34.2 130.494 46.6C143.694 59 150.294 75.6667 150.294 96.6C150.294 119.8 143.96 138.2 131.294 151.8C118.627 165.267 101.027 172 78.4938 172C55.9604 172 38.2271 165.8 25.2938 153.4C12.3604 141 5.89375 123.8 5.89375 101.8C5.89375 80.2 12.6938 62.5333 26.2938 48.8C39.8938 34.9333 57.2938 28 78.4938 28ZM79.2938 167.2C85.2938 167.2 90.5604 166.2 95.0938 164.2C99.7604 162.2 103.494 159.333 106.294 155.6C109.227 151.733 111.627 147.667 113.494 143.4C115.494 139 116.894 134 117.694 128.4C118.627 122.667 119.227 117.533 119.494 113C119.894 108.467 120.094 103.467 120.094 98C120.094 91.0667 119.827 84.8667 119.294 79.4C118.76 73.8 117.627 68 115.894 62C114.16 56 111.76 51 108.694 47C105.76 43 101.627 39.6667 96.2938 37C91.0938 34.3333 84.9604 33 77.8938 33C70.5604 33 64.2271 34.4667 58.8938 37.4C53.5604 40.2 49.4271 43.6667 46.4938 47.8C43.5604 51.9333 41.2271 57.2 39.4938 63.6C37.8938 70 36.8271 75.8667 36.2938 81.2C35.8938 86.5333 35.6938 92.6667 35.6938 99.6C35.6938 144.667 50.2271 167.2 79.2938 167.2Z" fill="black"/>
<path d="M170 176.769L181.547 156.769H158.453L170 176.769ZM168 38V158.769H172V38H168Z" fill="black"/>
</svg>
