<svg width="290" height="360" viewBox="0 0 290 360" fill="none" xmlns="http://www.w3.org/2000/svg">
<path d="M213.241 181.85C206.351 181.85 200.826 183.908 196.666 188.025C192.463 192.142 190.361 197.558 190.361 204.275C190.361 211.642 192.419 217.557 196.536 222.02C200.653 226.44 206.286 228.65 213.436 228.65C220.499 228.65 226.068 226.57 230.141 222.41C234.214 218.207 236.251 212.638 236.251 205.705C236.251 198.772 234.128 193.073 229.881 188.61C225.591 184.103 220.044 181.85 213.241 181.85ZM212.981 227.22C202.841 227.22 197.771 219.637 197.771 204.47C197.771 190.387 203.036 183.345 213.566 183.345C215.993 183.345 218.138 183.778 220.001 184.645C221.864 185.512 223.359 186.638 224.486 188.025C225.569 189.412 226.479 191.08 227.216 193.03C227.909 194.98 228.386 196.93 228.646 198.88C228.863 200.787 228.971 202.845 228.971 205.055C228.971 207.958 228.711 210.667 228.191 213.18C227.671 215.65 226.848 217.99 225.721 220.2C224.551 222.367 222.883 224.078 220.716 225.335C218.549 226.592 215.971 227.22 212.981 227.22Z" fill="black"/>
<path d="M148.094 282.19C142.808 282.19 137.716 282.948 132.819 284.465C127.879 286.025 123.438 288.451 119.494 291.745V297.14C123.568 294.106 128.053 291.81 132.949 290.25C137.846 288.733 142.873 287.975 148.029 287.975C153.056 287.975 157.996 288.733 162.849 290.25C167.659 291.81 172.101 294.085 176.174 297.075V291.745C172.361 288.451 168.049 286.025 163.239 284.465C158.386 282.948 153.338 282.19 148.094 282.19Z" fill="black"/>
<path d="M98.2409 181.85C91.3509 181.85 85.8259 183.908 81.6659 188.025C77.4626 192.142 75.3609 197.558 75.3609 204.275C75.3609 211.642 77.4192 217.557 81.5359 222.02C85.6526 226.44 91.2859 228.65 98.4359 228.65C105.499 228.65 111.068 226.57 115.141 222.41C119.214 218.207 121.251 212.638 121.251 205.705C121.251 198.772 119.128 193.073 114.881 188.61C110.591 184.103 105.044 181.85 98.2409 181.85ZM97.9809 227.22C87.8409 227.22 82.7709 219.637 82.7709 204.47C82.7709 190.387 88.0359 183.345 98.5659 183.345C100.993 183.345 103.138 183.778 105.001 184.645C106.864 185.512 108.359 186.638 109.486 188.025C110.569 189.412 111.479 191.08 112.216 193.03C112.909 194.98 113.386 196.93 113.646 198.88C113.863 200.787 113.971 202.845 113.971 205.055C113.971 207.958 113.711 210.667 113.191 213.18C112.671 215.65 111.848 217.99 110.721 220.2C109.551 222.367 107.883 224.078 105.716 225.335C103.549 226.592 100.971 227.22 97.9809 227.22Z" fill="black"/>
<path d="M274.28 249.6L253.58 239.1L252.98 54.3L274.28 50.7V45H219.68L141.68 225L72.9801 45H15.0801V50.7L39.6801 54V247.5L14.1801 249.6V255H96.3801V249.6L70.5801 247.8V60L145.88 257.1C147.28 257.1 148.58 257.2 149.78 257.4H153.68C155.48 257.4 156.68 257.5 157.28 257.7C158.68 257.7 159.78 257.8 160.58 258L245.48 61.2L245.18 238.8L210.08 249.6V255H274.28V249.6Z" fill="black"/>
</svg>
