<svg width="666" height="305" viewBox="0 0 666 305" fill="none" xmlns="http://www.w3.org/2000/svg">
<path d="M582.25 213H512.75V208.5L534.5 207V44.25L512.75 42.5V38H582.5C589.833 38 596.5 38.5833 602.5 39.75C608.5 40.9167 614.25 42.9167 619.75 45.75C625.25 48.4167 629.5 52.4167 632.5 57.75C635.667 63.0833 637.25 69.4167 637.25 76.75C637.25 87.5833 633.083 96.6667 624.75 104C616.417 111.167 606.5 115.833 595 118V119C602.667 119.5 609.667 120.583 616 122.25C622.333 123.917 628.25 126.417 633.75 129.75C639.417 132.917 643.833 137.417 647 143.25C650.167 148.917 651.75 155.583 651.75 163.25C651.75 172.75 649.75 180.917 645.75 187.75C641.75 194.583 636.25 199.75 629.25 203.25C622.25 206.583 614.917 209.083 607.25 210.75C599.75 212.25 591.417 213 582.25 213ZM558.25 207.5H582.75C598.083 207.5 609.167 204.167 616 197.5C622.833 190.667 626.25 179.833 626.25 165C626.25 149.833 621.833 139.083 613 132.75C604.333 126.25 592.083 123 576.25 123H558.25V207.5ZM558.25 43.5V117.5H572.75C585.917 117.5 595.833 114.167 602.5 107.5C609.333 100.667 612.75 90.8333 612.75 78C612.75 65.3333 609.417 56.4167 602.75 51.25C596.25 46.0833 586.75 43.5 574.25 43.5H558.25Z" fill="black"/>
<path d="M614.141 117.627L619.827 118.627L617.85 113.202L614.141 117.627ZM516 216.5L521 219.387V213.613L516 216.5ZM512.604 36.0692H598.807V35.0692H512.604V36.0692ZM598.807 36.0692C612.817 36.0692 623.443 39.6722 630.57 46.9C637.698 54.1291 641.408 65.0674 641.408 79.9137H642.408C642.408 64.9133 638.659 53.6794 631.282 46.1979C623.903 38.7152 612.978 35.0692 598.807 35.0692V36.0692ZM641.408 79.9137C641.408 92.0334 637.698 100.113 632.966 105.578C628.224 111.054 622.423 113.944 618.184 115.621L618.552 116.551C622.861 114.846 628.83 111.881 633.722 106.233C638.622 100.574 642.408 92.2577 642.408 79.9137H641.408ZM620.906 121.991C631.271 123.974 639.91 128.552 645.959 135.698C652.006 142.843 655.5 152.597 655.5 165H656.5C656.5 152.403 652.948 142.408 646.722 135.052C640.498 127.699 631.638 123.026 621.094 121.009L620.906 121.991ZM655.5 165C655.5 177.409 652.005 190.133 641.748 199.761C631.488 209.393 614.381 216 587 216V217C614.527 217 631.921 210.358 642.433 200.49C652.95 190.617 656.5 177.592 656.5 165H655.5ZM587 216H520.5V217H587V216Z" fill="black"/>
<path d="M529.596 202.586L532.482 197.586H526.709L529.596 202.586ZM529.096 48.4167V198.086H530.096V48.4167H529.096Z" fill="black"/>
<path d="M521.796 118.785V125.688L523.057 125.753V126H518.403V125.753L519.742 125.688V119.357L518.455 119.448V119.123L521.796 118.785Z" fill="black"/>
<path d="M648.835 60.774C648.835 60.2973 648.757 59.9377 648.601 59.695C648.436 59.461 648.146 59.344 647.73 59.344C647.106 59.344 646.473 59.5953 645.832 60.098L645.637 59.838C646.426 59.188 647.31 58.863 648.289 58.863C648.636 58.863 648.952 58.8933 649.238 58.954C649.533 59.006 649.814 59.1013 650.083 59.24C650.352 59.37 650.56 59.5607 650.707 59.812C650.863 60.0633 650.941 60.3667 650.941 60.722C650.941 61.112 650.833 61.4847 650.616 61.84C650.399 62.1867 650.148 62.4813 649.862 62.724C649.576 62.9667 649.199 63.2093 648.731 63.452C648.272 63.6947 647.89 63.8767 647.587 63.998C647.292 64.1193 646.924 64.2623 646.482 64.427H651.37V66H645.364V65.012C646.075 64.518 646.621 64.1063 647.002 63.777C647.583 63.3003 648.033 62.8323 648.354 62.373C648.675 61.905 648.835 61.372 648.835 60.774Z" fill="black"/>
<path d="M661.561 164.344C660.989 164.344 660.395 164.591 659.78 165.085L659.598 164.838C660.335 164.188 661.219 163.863 662.25 163.863C662.683 163.863 663.091 163.919 663.472 164.032C663.862 164.145 664.2 164.353 664.486 164.656C664.772 164.951 664.915 165.319 664.915 165.761C664.915 166.342 664.711 166.779 664.304 167.074C663.905 167.369 663.377 167.581 662.718 167.711C663.489 167.884 664.105 168.188 664.564 168.621C665.032 169.054 665.266 169.639 665.266 170.376C665.266 170.827 665.171 171.217 664.98 171.546C664.789 171.884 664.534 172.144 664.213 172.326C663.892 172.517 663.546 172.655 663.173 172.742C662.8 172.837 662.406 172.885 661.99 172.885C661.435 172.885 660.911 172.777 660.417 172.56C659.923 172.343 659.507 172.031 659.169 171.624L659.416 171.403C659.685 171.724 660.027 171.979 660.443 172.17C660.868 172.369 661.292 172.469 661.717 172.469C662.731 172.469 663.238 171.858 663.238 170.636C663.238 169.986 663.017 169.483 662.575 169.128C662.133 168.773 661.578 168.586 660.911 168.569V168.296C661.587 168.296 662.085 168.079 662.406 167.646C662.727 167.213 662.887 166.654 662.887 165.969C662.887 165.501 662.796 165.12 662.614 164.825C662.389 164.504 662.038 164.344 661.561 164.344Z" fill="black"/>
<path d="M313.25 115.5H334.75C354.75 115.5 370.917 119.75 383.25 128.25C395.75 136.583 402 150.083 402 168.75C402 177.75 400.333 185.583 397 192.25C393.667 198.917 389 204.167 383 208C377.167 211.833 370.667 214.667 363.5 216.5C356.5 218.167 348.75 219 340.25 219H267.75V214.5L289.5 213V50L267.75 48.5V44H375.5C380.333 44 383.75 43.9167 385.75 43.75C388.25 43.75 391.333 43.3333 395 42.5C395.333 46.8333 395.5 50.6667 395.5 54V78.25C395.5 82.75 395.417 85.9167 395.25 87.75C391.583 88.5833 388.083 89 384.75 89C381.25 89 377.833 88.5833 374.5 87.75C374.667 85.75 374.75 82.0833 374.75 76.75V49.5H313.25V115.5ZM313.25 213.5H333.75C361.917 213.5 376 197.667 376 166C376 136 362.583 121 335.75 121H313.25V213.5Z" fill="black"/>
<path d="M280.866 53.66L277.979 58.66H283.753L280.866 53.66ZM281.366 209.487V58.16H280.366V209.487H281.366Z" fill="black"/>
<path d="M387.376 39.5692L382.376 36.6825V42.456L387.376 39.5692ZM268.848 40.0692H382.876V39.0692H268.848V40.0692Z" fill="black"/>
<path d="M399.395 85.9858L402.281 80.9858H396.508L399.395 85.9858ZM398.895 42.8846V81.4858H399.895V42.8846H398.895Z" fill="black"/>
<path d="M270.92 223.164L275.92 226.05V220.277L270.92 223.164ZM315.264 110.938H337.229V109.938H315.264V110.938ZM337.229 110.938C349.453 110.938 366.845 111.668 381.175 119.681C388.328 123.681 394.719 129.496 399.325 137.952C403.932 146.411 406.769 157.54 406.769 172.188H407.769C407.769 157.411 404.907 146.11 400.203 137.473C395.497 128.834 388.962 122.889 381.663 118.808C367.085 110.657 349.457 109.938 337.229 109.938V110.938ZM406.769 172.188C406.769 184.816 402.769 194.259 396.785 201.336C390.794 208.421 382.792 213.16 374.76 216.327C366.728 219.493 358.689 221.078 352.654 221.871C349.637 222.268 347.124 222.466 345.367 222.565C344.488 222.614 343.799 222.639 343.33 222.651C343.096 222.658 342.916 222.661 342.796 222.662C342.736 222.663 342.691 222.663 342.661 222.664C342.646 222.664 342.635 222.664 342.627 222.664C342.624 222.664 342.621 222.664 342.619 222.664C342.618 222.664 342.618 222.664 342.617 222.664C342.617 222.664 342.617 222.664 342.617 223.164C342.617 223.664 342.618 223.664 342.618 223.664C342.619 223.664 342.62 223.664 342.621 223.664C342.623 223.664 342.626 223.664 342.63 223.664C342.639 223.664 342.651 223.664 342.667 223.663C342.699 223.663 342.747 223.663 342.809 223.662C342.933 223.661 343.117 223.657 343.356 223.651C343.834 223.639 344.534 223.613 345.423 223.563C347.202 223.463 349.739 223.263 352.784 222.863C358.871 222.063 366.995 220.463 375.126 217.257C383.256 214.052 391.418 209.233 397.549 201.981C403.688 194.721 407.769 185.048 407.769 172.188H406.769ZM342.617 222.664H275.42V223.664H342.617V222.664Z" fill="black"/>
<path d="M269.796 129.785V136.688L271.057 136.753V137H266.403V136.753L267.742 136.688V130.357L266.455 130.448V130.123L269.796 129.785Z" fill="black"/>
<path d="M331.835 29.774C331.835 29.2973 331.757 28.9377 331.601 28.695C331.436 28.461 331.146 28.344 330.73 28.344C330.106 28.344 329.473 28.5953 328.832 29.098L328.637 28.838C329.426 28.188 330.31 27.863 331.289 27.863C331.636 27.863 331.952 27.8933 332.238 27.954C332.533 28.006 332.814 28.1013 333.083 28.24C333.352 28.37 333.56 28.5607 333.707 28.812C333.863 29.0633 333.941 29.3667 333.941 29.722C333.941 30.112 333.833 30.4847 333.616 30.84C333.399 31.1867 333.148 31.4813 332.862 31.724C332.576 31.9667 332.199 32.2093 331.731 32.452C331.272 32.6947 330.89 32.8767 330.587 32.998C330.292 33.1193 329.924 33.2623 329.482 33.427H334.37V35H328.364V34.012C329.075 33.518 329.621 33.1063 330.002 32.777C330.583 32.3003 331.033 31.8323 331.354 31.373C331.675 30.905 331.835 30.372 331.835 29.774Z" fill="black"/>
<path d="M413.561 159.344C412.989 159.344 412.395 159.591 411.78 160.085L411.598 159.838C412.335 159.188 413.219 158.863 414.25 158.863C414.683 158.863 415.091 158.919 415.472 159.032C415.862 159.145 416.2 159.353 416.486 159.656C416.772 159.951 416.915 160.319 416.915 160.761C416.915 161.342 416.711 161.779 416.304 162.074C415.905 162.369 415.377 162.581 414.718 162.711C415.489 162.884 416.105 163.188 416.564 163.621C417.032 164.054 417.266 164.639 417.266 165.376C417.266 165.827 417.171 166.217 416.98 166.546C416.789 166.884 416.534 167.144 416.213 167.326C415.892 167.517 415.546 167.655 415.173 167.742C414.8 167.837 414.406 167.885 413.99 167.885C413.435 167.885 412.911 167.777 412.417 167.56C411.923 167.343 411.507 167.031 411.169 166.624L411.416 166.403C411.685 166.724 412.027 166.979 412.443 167.17C412.868 167.369 413.292 167.469 413.717 167.469C414.731 167.469 415.238 166.858 415.238 165.636C415.238 164.986 415.017 164.483 414.575 164.128C414.133 163.773 413.578 163.586 412.911 163.569V163.296C413.587 163.296 414.085 163.079 414.406 162.646C414.727 162.213 414.887 161.654 414.887 160.969C414.887 160.501 414.796 160.12 414.614 159.825C414.389 159.504 414.038 159.344 413.561 159.344Z" fill="black"/>
<path d="M409.889 68.716H407.913V66.753H404.156V65.7L408.147 59.876H409.889V65.18H411.345L411.215 66.753H409.889V68.716ZM404.962 65.18H407.965V60.812L404.962 65.18Z" fill="black"/>
<path d="M129 206.75L111.75 154.5H42.5L25.75 200.25L55.5 208.5V213H0.75V208.5L19 200.25L79.75 38H86.5C90.8333 38 94.25 37.6667 96.75 37L155.75 207.25L173.5 208.5V213H107V208.5L129 206.75ZM79 55.25L44.25 149.5H110L79 55.25Z" fill="black"/>
<path d="M69.0935 36.8846L64.6695 40.5943L70.0942 42.5708L69.0935 36.8846ZM11.128 197.442L68.0228 41.2839L67.0832 40.9416L10.1884 197.1L11.128 197.442Z" fill="black"/>
<path d="M164.413 202.658L165.491 196.986L160.04 198.889L164.413 202.658ZM105.921 36.635L162.458 198.575L163.402 198.245L106.865 36.3054L105.921 36.635Z" fill="black"/>
<path d="M110.122 160.386L105.122 163.273V157.499L110.122 160.386ZM44.227 159.886H105.622V160.886H44.227V159.886Z" fill="black"/>
<path d="M32.796 112.785V119.688L34.057 119.753V120H29.403V119.753L30.742 119.688V113.357L29.455 113.448V113.123L32.796 112.785Z" fill="black"/>
<path d="M27.889 231.716H25.913V229.753H22.156V228.7L26.147 222.876H27.889V228.18H29.345L29.215 229.753H27.889V231.716ZM22.962 228.18H25.965V223.812L22.962 228.18Z" fill="black"/>
<path d="M141.704 231.469C142.891 231.469 143.485 230.914 143.485 229.805C143.485 228.644 142.519 227.959 140.586 227.751C140.551 227.751 140.495 227.751 140.417 227.751C140.339 227.742 140.283 227.734 140.248 227.725L139.91 227.296L140.157 222.98H145.305L145.253 224.553H140.404L140.313 226.035C140.703 226.061 141.071 226.1 141.418 226.152C141.765 226.204 142.146 226.282 142.562 226.386C142.987 226.481 143.364 226.611 143.693 226.776C144.022 226.941 144.33 227.136 144.616 227.361C144.902 227.586 145.123 227.872 145.279 228.219C145.444 228.557 145.526 228.934 145.526 229.35C145.526 229.905 145.357 230.373 145.019 230.754C144.681 231.135 144.235 231.43 143.68 231.638C143.238 231.803 142.666 231.885 141.964 231.885C140.785 231.885 139.849 231.465 139.156 230.624L139.403 230.403C139.672 230.724 140.014 230.979 140.43 231.17C140.855 231.369 141.279 231.469 141.704 231.469Z" fill="black"/>
<path d="M143.835 114.774C143.835 114.297 143.757 113.938 143.601 113.695C143.436 113.461 143.146 113.344 142.73 113.344C142.106 113.344 141.473 113.595 140.832 114.098L140.637 113.838C141.426 113.188 142.31 112.863 143.289 112.863C143.636 112.863 143.952 112.893 144.238 112.954C144.533 113.006 144.814 113.101 145.083 113.24C145.352 113.37 145.56 113.561 145.707 113.812C145.863 114.063 145.941 114.367 145.941 114.722C145.941 115.112 145.833 115.485 145.616 115.84C145.399 116.187 145.148 116.481 144.862 116.724C144.576 116.967 144.199 117.209 143.731 117.452C143.272 117.695 142.89 117.877 142.587 117.998C142.292 118.119 141.924 118.262 141.482 118.427H146.37V120H140.364V119.012C141.075 118.518 141.621 118.106 142.002 117.777C142.583 117.3 143.033 116.832 143.354 116.373C143.675 115.905 143.835 115.372 143.835 114.774Z" fill="black"/>
<path d="M79.561 164.344C78.989 164.344 78.3953 164.591 77.78 165.085L77.598 164.838C78.3347 164.188 79.2187 163.863 80.25 163.863C80.6833 163.863 81.0907 163.919 81.472 164.032C81.862 164.145 82.2 164.353 82.486 164.656C82.772 164.951 82.915 165.319 82.915 165.761C82.915 166.342 82.7113 166.779 82.304 167.074C81.9053 167.369 81.3767 167.581 80.718 167.711C81.4893 167.884 82.1047 168.188 82.564 168.621C83.032 169.054 83.266 169.639 83.266 170.376C83.266 170.827 83.1707 171.217 82.98 171.546C82.7893 171.884 82.5337 172.144 82.213 172.326C81.8923 172.517 81.5457 172.655 81.173 172.742C80.8003 172.837 80.406 172.885 79.99 172.885C79.4353 172.885 78.911 172.777 78.417 172.56C77.923 172.343 77.507 172.031 77.169 171.624L77.416 171.403C77.6847 171.724 78.027 171.979 78.443 172.17C78.8677 172.369 79.2923 172.469 79.717 172.469C80.731 172.469 81.238 171.858 81.238 170.636C81.238 169.986 81.017 169.483 80.575 169.128C80.133 168.773 79.5783 168.586 78.911 168.569V168.296C79.587 168.296 80.0853 168.079 80.406 167.646C80.7267 167.213 80.887 166.654 80.887 165.969C80.887 165.501 80.796 165.12 80.614 164.825C80.3887 164.504 80.0377 164.344 79.561 164.344Z" fill="black"/>
<path d="M53.5 218L48.5 215.113V220.887L53.5 218ZM3 218.5H49V217.5H3V218.5Z" fill="black"/>
<path d="M174.5 218L169.5 215.113V220.887L174.5 218ZM107.5 218.5H170V217.5H107.5V218.5Z" fill="black"/>
</svg>
