<svg width="846" height="416" viewBox="0 0 846 416" fill="none" xmlns="http://www.w3.org/2000/svg">
<g clip-path="url(#clip0_97:29)">
<path d="M241.485 171.628L248.083 168L248.362 111.256L241.485 110.14V108.279H261.279L283.488 160.186L302.817 108.279H323.446V110.14L316.291 110.977V171.163L324.004 171.628V173.395H295.475V171.628L303.188 171.256V114.791L281.258 173.861C280.886 173.861 280.484 173.892 280.05 173.954C279.555 174.015 279.12 174.047 278.749 174.047L276.147 174.512L250.871 116.279L250.964 167.907L262.858 171.628V173.395H241.485V171.628ZM374.955 167.442L376.07 168.372C373.468 172.341 369.658 174.326 364.64 174.326C358.754 174.326 355.626 171.535 355.254 165.954C354.759 167.07 354.17 168.093 353.489 169.023C351.878 171.07 349.616 172.62 346.705 173.675C345.342 174.108 343.7 174.326 341.78 174.326C337.939 174.326 334.841 173.334 332.488 171.349C330.133 169.302 328.956 166.45 328.956 162.791C328.956 160.31 329.607 158.14 330.908 156.279C332.209 154.419 333.943 153.023 336.112 152.093C338.279 151.163 340.448 150.512 342.617 150.14C344.847 149.706 347.139 149.489 349.493 149.489C350.732 149.489 352.528 149.613 354.883 149.861L354.976 139.163C354.976 136.683 354.883 134.574 354.697 132.837C354.511 131.287 354.17 129.954 353.675 128.837C352.683 126.977 350.794 126.047 348.006 126.047C345.094 126.047 342.74 126.543 340.944 127.535V129.116C340.881 129.55 340.851 130.233 340.851 131.163V134.884C340.851 136.806 340.881 138.264 340.944 139.256C340.944 140.372 341.006 141.675 341.13 143.163C339.766 143.473 338.001 143.628 335.833 143.628C334.408 143.628 332.921 143.473 331.372 143.163C331.31 142.357 331.28 140.899 331.28 138.791C331.217 137.675 331.187 136 331.187 133.768C331.187 131.969 331.217 130.667 331.28 129.861C331.28 128.248 331.31 127.101 331.372 126.419C331.682 126.481 332.209 126.512 332.952 126.512C335.12 126.512 337.381 126.201 339.736 125.582C343.019 124.651 346.798 124.186 351.073 124.186C356.028 124.186 360.024 125.271 363.06 127.442C366.157 129.55 367.707 132.899 367.707 137.489V139.814C367.644 140.62 367.614 141.954 367.614 143.814C367.551 144.869 367.521 146.512 367.521 148.744C367.458 149.922 367.428 151.535 367.428 153.582C367.365 154.636 367.335 155.969 367.335 157.582V165.023C367.458 168.434 368.512 170.14 370.494 170.14C372.043 170.14 373.53 169.241 374.955 167.442ZM348.285 169.116C351.196 169.116 353.426 167.411 354.976 164L354.883 151.628C353.768 151.442 352.683 151.349 351.63 151.349C345.187 151.349 341.966 154.45 341.966 160.651C341.966 166.294 344.072 169.116 348.285 169.116ZM406.378 128.372H405.542C402.816 128.62 400.09 131.07 397.364 135.721V171.349L406.285 171.814V173.395H377.943V171.814L384.447 171.442V129.582L377.013 129.116V127.349L397.085 124.651V133.861C400.431 127.411 405.325 124.186 411.768 124.186C413.626 124.186 415.392 124.434 417.065 124.93C417.25 127.225 417.343 130.667 417.343 135.256V139.163C417.343 139.597 417.312 140.217 417.25 141.023C417.25 141.768 417.219 142.294 417.157 142.605C415.918 142.915 414.524 143.07 412.976 143.07C412.294 143.07 411.736 143.039 411.303 142.977L409.352 142.884C408.484 142.884 407.865 142.853 407.493 142.791C407.369 142.791 407.214 142.791 407.028 142.791C406.843 142.729 406.688 142.698 406.564 142.698C406.44 142.636 406.347 142.605 406.285 142.605C406.409 141.55 406.502 140.434 406.564 139.256V135.907V132.279V130.14C406.564 129.954 406.533 129.675 406.471 129.302C406.471 128.869 406.44 128.558 406.378 128.372ZM426.902 106.605L419.375 106.14V104.465L439.819 101.768L439.726 123.535V171.442L447.16 171.814V173.395H420.397V171.814L426.902 171.442V106.605ZM494.323 147.442H464.122V148.279C464.122 151.256 464.276 153.861 464.586 156.093C464.896 158.326 465.484 160.683 466.352 163.163C467.219 165.582 468.644 167.473 470.626 168.837C472.609 170.14 475.087 170.791 478.061 170.791C483.017 170.791 487.787 168.899 492.371 165.116L493.3 166.233C488.097 171.628 481.839 174.326 474.529 174.326C467.219 174.326 461.427 172.093 457.152 167.628C452.878 163.163 450.74 157.302 450.74 150.047C450.74 142.791 452.846 136.683 457.059 131.721C461.272 126.698 466.878 124.186 473.879 124.186C480.57 124.186 485.649 126.171 489.119 130.14C492.588 134.047 494.323 139.318 494.323 145.954V147.442ZM473.507 125.954C472.268 125.954 471.153 126.233 470.162 126.791C469.171 127.287 468.365 127.876 467.746 128.558C467.126 129.241 466.569 130.233 466.073 131.535C465.64 132.837 465.298 133.954 465.051 134.884C464.803 135.752 464.617 137.023 464.493 138.698C464.369 140.31 464.276 141.457 464.215 142.14C464.215 142.76 464.183 143.814 464.122 145.302H481.87V142.326C481.87 136.558 481.344 132.59 480.291 130.419C479.609 129.055 478.773 127.938 477.782 127.07C476.667 126.326 475.242 125.954 473.507 125.954ZM506.05 129.582L498.616 129.116V127.349L518.688 124.651V134.977C524.016 127.783 530.149 124.186 537.087 124.186C545.885 124.186 550.283 129.395 550.283 139.814V147.442C550.283 156.248 550.159 164.217 549.911 171.349L557.717 171.814V173.395H530.861V171.814L536.994 171.442C537.057 170.698 537.087 169.55 537.087 168C537.15 166.387 537.18 165.178 537.18 164.372C537.366 159.349 537.459 154.326 537.459 149.302V142.605C537.459 137.334 537.057 133.675 536.251 131.628C535.384 129.457 533.773 128.372 531.419 128.372C527.516 128.372 523.365 131.225 518.967 136.93V171.442L526.401 171.814V173.395H499.545V171.814L506.05 171.442V129.582ZM604.581 147.442H574.38V148.279C574.38 151.256 574.536 153.861 574.845 156.093C575.155 158.326 575.744 160.683 576.611 163.163C577.478 165.582 578.903 167.473 580.885 168.837C582.868 170.14 585.346 170.791 588.319 170.791C593.276 170.791 598.046 168.899 602.63 165.116L603.559 166.233C598.355 171.628 592.099 174.326 584.788 174.326C577.478 174.326 571.685 172.093 567.411 167.628C563.136 163.163 560.999 157.302 560.999 150.047C560.999 142.791 563.106 136.683 567.318 131.721C571.531 126.698 577.138 124.186 584.138 124.186C590.828 124.186 595.909 126.171 599.377 130.14C602.847 134.047 604.581 139.318 604.581 145.954V147.442ZM583.766 125.954C582.527 125.954 581.412 126.233 580.421 126.791C579.43 127.287 578.624 127.876 578.004 128.558C577.385 129.241 576.828 130.233 576.332 131.535C575.898 132.837 575.558 133.954 575.31 134.884C575.062 135.752 574.876 137.023 574.752 138.698C574.629 140.31 574.536 141.457 574.473 142.14C574.473 142.76 574.443 143.814 574.38 145.302H592.129V142.326C592.129 136.558 591.603 132.59 590.549 130.419C589.869 129.055 589.032 127.938 588.04 127.07C586.925 126.326 585.501 125.954 583.766 125.954ZM325.766 256.837L320.841 257.395V285.302C319.726 285.302 318.642 285.116 317.589 284.744C316.721 284.497 315.823 284.062 314.894 283.442C309.999 285.055 303.836 285.861 296.402 285.861C285.251 285.861 276.453 283.039 270.011 277.395C263.629 271.752 260.439 263.566 260.439 252.837C260.439 245.582 262.112 239.349 265.457 234.14C268.864 228.93 273.325 225.116 278.839 222.698C284.352 220.217 290.609 218.977 297.61 218.977C301.513 218.977 306.438 219.597 312.385 220.837C313.624 221.209 314.677 221.582 315.545 221.954C316.474 221.954 317.465 221.861 318.518 221.675C319.881 221.364 320.686 221.209 320.934 221.209C320.996 221.457 321.027 221.892 321.027 222.512C321.089 223.132 321.12 223.597 321.12 223.907C321.12 225.334 321.151 226.45 321.213 227.256V231.07V238.233C321.213 239.597 321.182 240.527 321.12 241.023C319.881 241.334 318.332 241.489 316.474 241.489C313.872 241.489 311.765 241.334 310.155 241.023C310.217 240.465 310.248 239.287 310.248 237.489V223.814C306.717 222.078 302.721 221.209 298.26 221.209C282.339 221.209 274.378 231.411 274.378 251.814C274.378 256.093 274.75 260.031 275.493 263.628C276.237 267.225 277.445 270.605 279.117 273.768C280.79 276.869 283.175 279.318 286.273 281.116C289.432 282.853 293.211 283.721 297.61 283.721C299.778 283.721 301.606 283.628 303.092 283.442C304.641 283.318 306.189 283.039 307.739 282.605V257.582L296.588 256.837V255.07H325.766V256.837ZM358.463 240H357.627C354.901 240.248 352.175 242.698 349.449 247.349V282.977L358.37 283.442V285.023H330.028V283.442L336.532 283.07V241.209L329.098 240.744V238.977L349.17 236.279V245.489C352.516 239.039 357.41 235.814 363.853 235.814C365.711 235.814 367.477 236.062 369.15 236.558C369.335 238.853 369.428 242.294 369.428 246.884V250.791C369.428 251.225 369.397 251.845 369.335 252.651C369.335 253.395 369.304 253.922 369.242 254.233C368.003 254.543 366.609 254.698 365.061 254.698C364.379 254.698 363.822 254.667 363.388 254.605L361.437 254.512C360.569 254.512 359.95 254.481 359.578 254.419C359.454 254.419 359.299 254.419 359.114 254.419C358.928 254.357 358.773 254.326 358.649 254.326C358.525 254.264 358.432 254.233 358.37 254.233C358.494 253.178 358.587 252.062 358.649 250.884V247.535V243.907V241.768C358.649 241.582 358.618 241.302 358.556 240.93C358.556 240.497 358.525 240.186 358.463 240ZM420.42 279.07L421.535 280C418.933 283.969 415.123 285.954 410.105 285.954C404.219 285.954 401.091 283.163 400.719 277.582C400.223 278.698 399.635 279.721 398.954 280.651C397.343 282.698 395.081 284.248 392.17 285.302C390.807 285.736 389.165 285.954 387.245 285.954C383.404 285.954 380.306 284.962 377.952 282.977C375.598 280.93 374.421 278.078 374.421 274.419C374.421 271.938 375.072 269.768 376.373 267.907C377.673 266.047 379.408 264.651 381.576 263.721C383.744 262.791 385.913 262.14 388.081 261.768C390.311 261.334 392.603 261.116 394.958 261.116C396.196 261.116 397.993 261.241 400.347 261.489L400.44 250.791C400.44 248.31 400.347 246.201 400.162 244.465C399.976 242.915 399.635 241.582 399.139 240.465C398.148 238.605 396.259 237.675 393.471 237.675C390.559 237.675 388.205 238.171 386.409 239.163V240.744C386.346 241.178 386.316 241.861 386.316 242.791V246.512C386.316 248.434 386.346 249.892 386.409 250.884C386.409 252 386.47 253.302 386.594 254.791C385.231 255.101 383.465 255.256 381.298 255.256C379.872 255.256 378.386 255.101 376.837 254.791C376.775 253.985 376.744 252.527 376.744 250.419C376.682 249.302 376.651 247.628 376.651 245.395C376.651 243.597 376.682 242.294 376.744 241.489C376.744 239.876 376.775 238.729 376.837 238.047C377.146 238.108 377.673 238.14 378.417 238.14C380.585 238.14 382.846 237.829 385.201 237.209C388.483 236.279 392.263 235.814 396.537 235.814C401.493 235.814 405.489 236.899 408.525 239.07C411.622 241.178 413.171 244.527 413.171 249.116V251.442C413.109 252.248 413.078 253.582 413.078 255.442C413.016 256.497 412.985 258.14 412.985 260.372C412.923 261.55 412.892 263.163 412.892 265.209C412.83 266.264 412.8 267.597 412.8 269.209V276.651C412.923 280.062 413.976 281.768 415.959 281.768C417.508 281.768 418.994 280.869 420.42 279.07ZM393.75 280.744C396.661 280.744 398.891 279.039 400.44 275.628L400.347 263.256C399.232 263.07 398.148 262.977 397.095 262.977C390.652 262.977 387.431 266.078 387.431 272.279C387.431 277.922 389.537 280.744 393.75 280.744ZM429.912 241.209L422.478 240.744V238.977L442.55 236.279V246.605C447.878 239.411 454.011 235.814 460.949 235.814C469.747 235.814 474.145 241.023 474.145 251.442V259.07C474.145 267.876 474.022 275.845 473.773 282.977L481.579 283.442V285.023H454.723V283.442L460.857 283.07C460.919 282.326 460.949 281.178 460.949 279.628C461.012 278.015 461.042 276.806 461.042 276C461.228 270.977 461.321 265.954 461.321 260.93V254.233C461.321 248.962 460.919 245.302 460.113 243.256C459.246 241.085 457.635 240 455.281 240C451.378 240 447.228 242.853 442.829 248.558V283.07L450.263 283.442V285.023H423.407V283.442L429.912 283.07V241.209ZM517.569 218.14L508.091 217.768V216L530.672 213.395L530.486 233.675V282.047L537.734 282.698V284.372L518.127 285.861L517.848 278.512C513.697 283.473 508.834 285.954 503.258 285.954C499.851 285.954 496.909 285.271 494.43 283.907C492.014 282.543 490.156 280.651 488.855 278.233C487.554 275.814 486.625 273.241 486.067 270.512C485.509 267.783 485.231 264.776 485.231 261.489C485.231 253.675 487.245 247.442 491.271 242.791C495.298 238.14 501.059 235.814 508.555 235.814C512.086 235.814 515.153 236.403 517.755 237.582L517.569 228.558V218.14ZM509.763 237.582C502.329 237.582 498.612 245.271 498.612 260.651C498.612 262.201 498.612 263.504 498.612 264.558C498.675 265.55 498.767 267.039 498.891 269.023C499.077 271.008 499.387 272.683 499.82 274.047C500.254 275.349 500.781 276.713 501.4 278.14C502.082 279.566 502.98 280.651 504.095 281.395C505.272 282.14 506.604 282.512 508.091 282.512C511.374 282.512 514.534 280.558 517.569 276.651V239.535C515.153 238.233 512.551 237.582 509.763 237.582ZM585.071 259.07H554.87V259.907C554.87 262.884 555.025 265.489 555.334 267.721C555.644 269.954 556.233 272.31 557.1 274.791C557.967 277.209 559.392 279.101 561.374 280.465C563.357 281.768 565.835 282.419 568.808 282.419C573.765 282.419 578.535 280.527 583.119 276.744L584.048 277.861C578.845 283.256 572.588 285.954 565.277 285.954C557.967 285.954 552.175 283.721 547.9 279.256C543.626 274.791 541.488 268.93 541.488 261.675C541.488 254.419 543.595 248.31 547.807 243.349C552.02 238.326 557.627 235.814 564.627 235.814C571.318 235.814 576.398 237.799 579.867 241.768C583.336 245.675 585.071 250.946 585.071 257.582V259.07ZM564.255 237.582C563.017 237.582 561.901 237.861 560.91 238.419C559.919 238.915 559.114 239.504 558.494 240.186C557.874 240.869 557.317 241.861 556.821 243.163C556.388 244.465 556.047 245.582 555.799 246.512C555.551 247.38 555.365 248.651 555.241 250.326C555.118 251.938 555.025 253.085 554.962 253.768C554.962 254.387 554.932 255.442 554.87 256.93H572.618V253.954C572.618 248.186 572.092 244.217 571.039 242.047C570.358 240.683 569.521 239.566 568.53 238.698C567.415 237.954 565.99 237.582 564.255 237.582Z" fill="black"/>
<path d="M201.769 87.553C204.07 70.9693 199.118 35.1487 160.905 24.5352C157.684 41.8558 161.347 78.7083 201.769 87.553Z" stroke="black" stroke-width="5"/>
<path d="M636.484 301.883C634.183 318.466 639.135 354.287 677.348 364.901C680.569 347.58 676.906 310.727 636.484 301.883Z" stroke="black" stroke-width="5"/>
<path d="M209.498 301.883C211.799 318.466 206.848 354.287 168.635 364.901C165.413 347.58 169.077 310.727 209.498 301.883Z" stroke="black" stroke-width="5"/>
<path d="M644.216 87.553C641.915 70.9693 646.866 35.1487 685.079 24.5352C688.301 41.8558 684.637 78.7083 644.216 87.553Z" stroke="black" stroke-width="5"/>
<path d="M202.042 99.7989C195.638 92.7284 178.22 81.7338 159.778 94.3172C166.172 102.055 183.574 113.983 202.042 99.7989Z" stroke="black" stroke-width="5"/>
<path d="M636.211 289.636C642.615 296.706 660.033 307.702 678.475 295.118C672.081 287.381 654.679 275.452 636.211 289.636Z" stroke="black" stroke-width="5"/>
<path d="M209.773 289.636C203.369 296.706 185.951 307.702 167.51 295.118C173.902 287.381 191.305 275.452 209.773 289.636Z" stroke="black" stroke-width="5"/>
<path d="M643.942 99.7989C650.346 92.7284 667.764 81.7338 686.205 94.3172C679.813 102.055 662.41 113.983 643.942 99.7989Z" stroke="black" stroke-width="5"/>
<path d="M677.098 238.715C686.734 240.816 705.659 250.603 704.269 272.938C694.049 271.176 674.306 261.864 677.098 238.715Z" stroke="black" stroke-width="5"/>
<path d="M704.74 99.4121C695.103 101.514 676.178 111.301 677.569 133.636C687.789 131.874 707.532 122.562 704.74 99.4121Z" stroke="black" stroke-width="5"/>
<path d="M169.095 238.715C159.459 240.816 140.534 250.603 141.923 272.938C152.143 271.176 171.887 261.864 169.095 238.715Z" stroke="black" stroke-width="5"/>
<path d="M169.095 133.861C159.459 131.76 140.534 121.972 141.923 99.6367C152.143 101.399 171.887 110.712 169.095 133.861Z" stroke="black" stroke-width="5"/>
<path d="M422.858 364.408C584.932 391.494 623.587 301.39 637.945 243.071C664.817 133.917 749.907 157.112 760.263 200.783C767.987 233.397 758.605 272.093 705.038 272.093" stroke="black" stroke-width="8"/>
<path d="M423.018 7.9318C260.944 -19.1549 222.289 70.9496 207.932 129.269C181.06 238.422 95.9684 215.227 85.6172 171.557C77.8865 138.942 87.2735 100.247 140.838 100.247" stroke="black" stroke-width="8"/>
<path d="M423.571 364.408C261.496 391.494 222.841 301.39 208.484 243.071C181.612 133.917 96.5209 157.112 86.1689 200.783C78.4382 233.397 87.8253 272.093 141.39 272.093" stroke="black" stroke-width="8"/>
<path d="M422.858 7.9318C584.932 -19.1549 623.587 70.9496 637.945 129.269C664.817 238.422 749.907 215.227 760.263 171.557C767.987 138.942 758.605 100.247 705.038 100.247" stroke="black" stroke-width="8"/>
<path d="M422.858 375.43C453.874 383.262 521.869 394.225 545.725 375.43C569.581 356.635 581.435 367.599 584.38 375.43C588.538 386.486 584.38 400.03 564.5 400.03" stroke="black" stroke-width="5"/>
<path d="M423.489 375.43C392.473 383.262 324.477 394.225 300.622 375.43C276.767 356.635 264.912 367.599 261.967 375.43C257.81 386.486 261.967 400.03 281.847 400.03" stroke="black" stroke-width="5"/>
<path d="M399.112 405.406C399.112 391.863 409.052 381.359 422.858 381.359C434.454 381.359 444.67 389.327 444.67 409.275C444.67 419.778 426.079 408.446 422.858 398.773C420.281 407.525 399.112 423.108 399.112 405.406Z" stroke="black" stroke-width="5"/>
<path d="M225.995 211.654C212.465 211.654 201.974 201.704 201.974 187.884C201.974 176.275 209.933 166.049 229.86 166.049C240.352 166.049 229.032 184.659 219.368 187.884C228.111 190.464 243.677 211.654 225.995 211.654Z" stroke="black" stroke-width="5"/>
<path d="M619.799 208.338C633.329 208.338 643.82 198.388 643.82 184.568C643.82 172.959 635.861 162.732 615.934 162.732C605.442 162.732 616.762 181.343 626.426 184.568C617.682 187.148 602.116 208.338 619.799 208.338Z" stroke="black" stroke-width="5"/>
</g>
<defs>
<clipPath id="clip0_97:29">
<rect width="846" height="416" fill="white"/>
</clipPath>
</defs>
</svg>
