<svg width="1009" height="8670" viewBox="0 0 1009 8670" fill="none" xmlns="http://www.w3.org/2000/svg">
<path d="M1.49355 674.889C8.81484 669.23 23.4574 650.691 23.4574 621.809C23.4574 592.928 8.81484 573.394 1.49355 567.237" stroke="black" stroke-width="3"/>
<path d="M35.9752 674.797C28.6539 669.137 14.0114 650.598 14.0114 621.717C14.0114 592.836 28.6539 573.302 35.9752 567.145" stroke="black" stroke-width="3"/>
<path d="M18.4316 579.416C20.5984 577.348 23.6144 572.003 18.3441 567.173C15.9438 569.261 12.6008 574.633 18.4316 579.416Z" stroke="black" stroke-width="3"/>
<path d="M1.4938 459.757C8.81508 465.416 23.4576 483.955 23.4576 512.837C23.4576 541.718 8.81508 561.252 1.4938 567.409" stroke="black" stroke-width="3"/>
<path d="M35.9753 459.85C28.654 465.509 14.0115 484.048 14.0115 512.929C14.0115 541.811 28.654 561.345 35.9753 567.502" stroke="black" stroke-width="3"/>
<path d="M18.4318 555.23C20.5986 557.299 23.6146 562.643 18.3442 567.474C15.9439 565.385 12.6009 560.013 18.4318 555.23Z" stroke="black" stroke-width="3"/>
<path d="M1.00027 245.139C8.32155 239.479 22.9641 220.94 22.9641 192.059C22.9641 163.178 8.32155 143.644 1.00027 137.487" stroke="black" stroke-width="3"/>
<path d="M35.4819 245.046C28.1606 239.387 13.5181 220.848 13.5181 191.966C13.5181 163.085 28.1606 143.551 35.4819 137.394" stroke="black" stroke-width="3"/>
<path d="M17.9384 149.665C20.1052 147.597 23.1211 142.252 17.8508 137.422C15.4505 139.51 12.1075 144.882 17.9384 149.665Z" stroke="black" stroke-width="3"/>
<path d="M1.00112 30.0049C8.3224 35.6642 22.965 54.2032 22.965 83.0846C22.965 111.966 8.3224 131.5 1.00112 137.657" stroke="black" stroke-width="3"/>
<path d="M35.4828 30.0977C28.1615 35.757 13.5189 54.296 13.5189 83.1773C13.5189 112.059 28.1615 131.593 35.4828 137.75" stroke="black" stroke-width="3"/>
<path d="M17.9392 125.478C20.106 127.547 23.122 132.892 17.8516 137.722C15.4513 135.634 12.1084 130.262 17.9392 125.478Z" stroke="black" stroke-width="3"/>
<path d="M1.49343 460.215C8.81471 454.556 23.4573 436.017 23.4573 407.135C23.4573 378.254 8.81471 358.72 1.49343 352.563" stroke="black" stroke-width="3"/>
<path d="M35.9751 460.123C28.6538 454.463 14.0112 435.924 14.0112 407.043C14.0112 378.162 28.6538 358.628 35.9751 352.471" stroke="black" stroke-width="3"/>
<path d="M18.4315 364.742C20.5983 362.674 23.6143 357.329 18.344 352.499C15.9436 354.587 12.6007 359.959 18.4315 364.742Z" stroke="black" stroke-width="3"/>
<path d="M1.49307 245.082C8.81435 250.741 23.4569 269.28 23.4569 298.162C23.4569 327.043 8.81435 346.577 1.49307 352.734" stroke="black" stroke-width="3"/>
<path d="M35.9747 245.175C28.6534 250.834 14.0109 269.373 14.0109 298.254C14.0109 327.136 28.6534 346.67 35.9747 352.827" stroke="black" stroke-width="3"/>
<path d="M18.4312 340.555C20.598 342.624 23.6139 347.968 18.3436 352.799C15.9433 350.711 12.6003 345.338 18.4312 340.555Z" stroke="black" stroke-width="3"/>
<path d="M35.4822 1319.66C28.1609 1314.01 13.5183 1295.47 13.5183 1266.58C13.5183 1237.7 28.1609 1218.17 35.4822 1212.01" stroke="black" stroke-width="3"/>
<path d="M1.00063 1319.57C8.32192 1313.91 22.9645 1295.37 22.9645 1266.49C22.9645 1237.61 8.32192 1218.08 1.00063 1211.92" stroke="black" stroke-width="3"/>
<path d="M18.5442 1224.19C16.3774 1222.12 13.3614 1216.78 18.6318 1211.95C21.0321 1214.04 24.375 1219.41 18.5442 1224.19Z" stroke="black" stroke-width="3"/>
<path d="M35.4822 1104.53C28.1609 1110.19 13.5183 1128.73 13.5183 1157.61C13.5183 1186.49 28.1609 1206.03 35.4822 1212.18" stroke="black" stroke-width="3"/>
<path d="M1.00051 1104.62C8.32179 1110.28 22.9644 1128.82 22.9644 1157.7C22.9644 1186.59 8.32179 1206.12 1.00051 1212.28" stroke="black" stroke-width="3"/>
<path d="M18.5441 1200.01C16.3773 1202.07 13.3613 1207.42 18.6316 1212.25C21.032 1210.16 24.3749 1204.79 18.5441 1200.01Z" stroke="black" stroke-width="3"/>
<path d="M35.9757 889.914C28.6544 884.255 14.0118 865.716 14.0118 836.834C14.0118 807.953 28.6544 788.419 35.9757 782.262" stroke="black" stroke-width="3"/>
<path d="M1.49404 889.822C8.81532 884.162 23.4579 865.623 23.4579 836.742C23.4579 807.861 8.81532 788.326 1.49404 782.17" stroke="black" stroke-width="3"/>
<path d="M19.0375 794.441C16.8707 792.372 13.8547 787.028 19.125 782.197C21.5254 784.286 24.8683 789.658 19.0375 794.441Z" stroke="black" stroke-width="3"/>
<path d="M35.9746 674.78C28.6533 680.439 14.0107 698.978 14.0107 727.86C14.0107 756.741 28.6533 776.275 35.9746 782.432" stroke="black" stroke-width="3"/>
<path d="M1.49294 674.873C8.81422 680.532 23.4568 699.071 23.4568 727.952C23.4568 756.834 8.81422 776.368 1.49294 782.524" stroke="black" stroke-width="3"/>
<path d="M19.0364 770.253C16.8696 772.322 13.8536 777.666 19.1239 782.497C21.5243 780.409 24.8672 775.036 19.0364 770.253Z" stroke="black" stroke-width="3"/>
<path d="M35.4823 1104.99C28.161 1099.33 13.5184 1080.79 13.5184 1051.91C13.5184 1023.03 28.161 1003.5 35.4823 997.339" stroke="black" stroke-width="3"/>
<path d="M1.00076 1104.9C8.32204 1099.24 22.9646 1080.7 22.9646 1051.82C22.9646 1022.94 8.32204 1003.4 1.00076 997.246" stroke="black" stroke-width="3"/>
<path d="M18.5443 1009.52C16.3775 1007.45 13.3615 1002.1 18.6319 997.274C21.0322 999.362 24.3751 1004.73 18.5443 1009.52Z" stroke="black" stroke-width="3"/>
<path d="M35.4826 889.857C28.1614 895.517 13.5188 914.056 13.5188 942.937C13.5188 971.818 28.1614 991.352 35.4826 997.509" stroke="black" stroke-width="3"/>
<path d="M1.001 889.95C8.32228 895.609 22.9648 914.148 22.9648 943.03C22.9648 971.911 8.32228 991.445 1.001 997.602" stroke="black" stroke-width="3"/>
<path d="M18.5445 985.33C16.3778 987.399 13.3618 992.744 18.6321 997.574C21.0324 995.486 24.3754 990.114 18.5445 985.33Z" stroke="black" stroke-width="3"/>
<path d="M1.49343 1965.17C8.81471 1959.51 23.4573 1940.97 23.4573 1912.09C23.4573 1883.21 8.81471 1863.67 1.49343 1857.52" stroke="black" stroke-width="3"/>
<path d="M35.9751 1965.08C28.6538 1959.42 14.0112 1940.88 14.0112 1912C14.0112 1883.12 28.6538 1863.58 35.9751 1857.42" stroke="black" stroke-width="3"/>
<path d="M18.4315 1869.7C20.5983 1867.63 23.6143 1862.28 18.344 1857.45C15.9436 1859.54 12.6007 1864.91 18.4315 1869.7Z" stroke="black" stroke-width="3"/>
<path d="M1.49368 1750.04C8.81496 1755.7 23.4575 1774.24 23.4575 1803.12C23.4575 1832 8.81496 1851.53 1.49368 1857.69" stroke="black" stroke-width="3"/>
<path d="M35.9752 1750.13C28.6539 1755.79 14.0114 1774.33 14.0114 1803.21C14.0114 1832.09 28.6539 1851.63 35.9752 1857.78" stroke="black" stroke-width="3"/>
<path d="M18.4316 1845.51C20.5984 1847.58 23.6144 1852.92 18.3441 1857.75C15.9438 1855.67 12.6008 1850.29 18.4316 1845.51Z" stroke="black" stroke-width="3"/>
<path d="M1.00015 1535.42C8.32143 1529.76 22.964 1511.22 22.964 1482.34C22.964 1453.46 8.32143 1433.92 1.00015 1427.77" stroke="black" stroke-width="3"/>
<path d="M35.4818 1535.33C28.1605 1529.67 13.5179 1511.13 13.5179 1482.25C13.5179 1453.37 28.1605 1433.83 35.4818 1427.67" stroke="black" stroke-width="3"/>
<path d="M17.9382 1439.95C20.105 1437.88 23.121 1432.53 17.8507 1427.7C15.4503 1429.79 12.1074 1435.16 17.9382 1439.95Z" stroke="black" stroke-width="3"/>
<path d="M1.001 1320.29C8.32228 1325.94 22.9648 1344.48 22.9648 1373.37C22.9648 1402.25 8.32228 1421.78 1.001 1427.94" stroke="black" stroke-width="3"/>
<path d="M35.4826 1320.38C28.1614 1326.04 13.5188 1344.58 13.5188 1373.46C13.5188 1402.34 28.1614 1421.87 35.4826 1428.03" stroke="black" stroke-width="3"/>
<path d="M17.9391 1415.76C20.1059 1417.83 23.1219 1423.17 17.8515 1428C15.4512 1425.91 12.1083 1420.54 17.9391 1415.76Z" stroke="black" stroke-width="3"/>
<path d="M1.49331 1750.5C8.81459 1744.84 23.4572 1726.3 23.4572 1697.42C23.4572 1668.53 8.81459 1649 1.49331 1642.84" stroke="black" stroke-width="3"/>
<path d="M35.9751 1750.4C28.6538 1744.74 14.0112 1726.2 14.0112 1697.32C14.0112 1668.44 28.6538 1648.91 35.9751 1642.75" stroke="black" stroke-width="3"/>
<path d="M18.4314 1655.02C20.5982 1652.95 23.6142 1647.61 18.3438 1642.78C15.9435 1644.87 12.6006 1650.24 18.4314 1655.02Z" stroke="black" stroke-width="3"/>
<path d="M1.49294 1535.36C8.81422 1541.02 23.4568 1559.56 23.4568 1588.44C23.4568 1617.32 8.81422 1636.86 1.49294 1643.01" stroke="black" stroke-width="3"/>
<path d="M35.9746 1535.45C28.6533 1541.11 14.0107 1559.65 14.0107 1588.53C14.0107 1617.42 28.6533 1636.95 35.9746 1643.11" stroke="black" stroke-width="3"/>
<path d="M18.431 1630.84C20.5978 1632.9 23.6138 1638.25 18.3435 1643.08C15.9431 1640.99 12.6002 1635.62 18.431 1630.84Z" stroke="black" stroke-width="3"/>
<path d="M2.22292 2609.95C9.54421 2604.29 24.1868 2585.75 24.1868 2556.87C24.1868 2527.98 9.54421 2508.45 2.22292 2502.29" stroke="black" stroke-width="3"/>
<path d="M36.7046 2609.85C29.3833 2604.19 14.7407 2585.65 14.7407 2556.77C14.7407 2527.89 29.3833 2508.36 36.7046 2502.2" stroke="black" stroke-width="3"/>
<path d="M19.161 2514.47C21.3278 2512.4 24.3438 2507.06 19.0734 2502.23C16.6731 2504.32 13.3302 2509.69 19.161 2514.47Z" stroke="black" stroke-width="3"/>
<path d="M2.22317 2394.81C9.54445 2400.47 24.187 2419.01 24.187 2447.89C24.187 2476.77 9.54445 2496.31 2.22317 2502.47" stroke="black" stroke-width="3"/>
<path d="M36.7047 2394.91C29.3834 2400.57 14.7408 2419.1 14.7408 2447.99C14.7408 2476.87 29.3834 2496.4 36.7047 2502.56" stroke="black" stroke-width="3"/>
<path d="M19.1611 2490.29C21.3279 2492.36 24.3439 2497.7 19.0736 2502.53C16.6732 2500.44 13.3303 2495.07 19.1611 2490.29Z" stroke="black" stroke-width="3"/>
<path d="M1.72964 2180.2C9.05092 2174.54 23.6935 2156 23.6935 2127.12C23.6935 2098.23 9.05092 2078.7 1.72964 2072.54" stroke="black" stroke-width="3"/>
<path d="M36.2112 2180.1C28.8899 2174.44 14.2473 2155.9 14.2473 2127.02C14.2473 2098.14 28.8899 2078.61 36.2112 2072.45" stroke="black" stroke-width="3"/>
<path d="M18.6676 2084.72C20.8344 2082.65 23.8504 2077.31 18.58 2072.48C16.1797 2074.57 12.8368 2079.94 18.6676 2084.72Z" stroke="black" stroke-width="3"/>
<path d="M1.73049 1965.06C9.05177 1970.72 23.6943 1989.26 23.6943 2018.14C23.6943 2047.02 9.05177 2066.56 1.73049 2072.71" stroke="black" stroke-width="3"/>
<path d="M36.2121 1965.15C28.8909 1970.81 14.2483 1989.35 14.2483 2018.23C14.2483 2047.12 28.8909 2066.65 36.2121 2072.81" stroke="black" stroke-width="3"/>
<path d="M18.6686 2060.53C20.8354 2062.6 23.8514 2067.95 18.581 2072.78C16.1807 2070.69 12.8377 2065.32 18.6686 2060.53Z" stroke="black" stroke-width="3"/>
<path d="M2.22292 2395.27C9.54421 2389.61 24.1868 2371.07 24.1868 2342.19C24.1868 2313.31 9.54421 2293.78 2.22292 2287.62" stroke="black" stroke-width="3"/>
<path d="M36.7046 2395.18C29.3833 2389.52 14.7407 2370.98 14.7407 2342.1C14.7407 2313.22 29.3833 2293.68 36.7046 2287.53" stroke="black" stroke-width="3"/>
<path d="M19.1609 2299.8C21.3277 2297.73 24.3437 2292.38 19.0733 2287.55C16.673 2289.64 13.3301 2295.01 19.1609 2299.8Z" stroke="black" stroke-width="3"/>
<path d="M2.22256 2180.14C9.54384 2185.8 24.1864 2204.34 24.1864 2233.22C24.1864 2262.1 9.54384 2281.63 2.22256 2287.79" stroke="black" stroke-width="3"/>
<path d="M36.7042 2180.23C29.3829 2185.89 14.7404 2204.43 14.7404 2233.31C14.7404 2262.19 29.3829 2281.73 36.7042 2287.88" stroke="black" stroke-width="3"/>
<path d="M19.1607 2275.61C21.3274 2277.68 24.3434 2283.02 19.0731 2287.85C16.6728 2285.77 13.3298 2280.39 19.1607 2275.61Z" stroke="black" stroke-width="3"/>
<path d="M2.95229 3254.72C10.2736 3249.06 24.9161 3230.52 24.9161 3201.64C24.9161 3172.76 10.2736 3153.23 2.95229 3147.07" stroke="black" stroke-width="3"/>
<path d="M37.4339 3254.63C30.1127 3248.97 15.4701 3230.43 15.4701 3201.55C15.4701 3172.67 30.1127 3153.13 37.4339 3146.98" stroke="black" stroke-width="3"/>
<path d="M19.8903 3159.25C22.0571 3157.18 25.0731 3151.83 19.8027 3147C17.4024 3149.09 14.0594 3154.46 19.8903 3159.25Z" stroke="black" stroke-width="3"/>
<path d="M2.95242 3039.59C10.2737 3045.25 24.9163 3063.79 24.9163 3092.67C24.9163 3121.55 10.2737 3141.08 2.95242 3147.24" stroke="black" stroke-width="3"/>
<path d="M37.4341 3039.68C30.1128 3045.34 15.4702 3063.88 15.4702 3092.76C15.4702 3121.64 30.1128 3141.18 37.4341 3147.33" stroke="black" stroke-width="3"/>
<path d="M19.8905 3135.06C22.0573 3137.13 25.0733 3142.48 19.8029 3147.31C17.4026 3145.22 14.0597 3139.85 19.8905 3135.06Z" stroke="black" stroke-width="3"/>
<path d="M2.45889 2824.97C9.78017 2819.31 24.4227 2800.77 24.4227 2771.89C24.4227 2743.01 9.78017 2723.48 2.45889 2717.32" stroke="black" stroke-width="3"/>
<path d="M36.9404 2824.88C29.6191 2819.22 14.9766 2800.68 14.9766 2771.8C14.9766 2742.92 29.6191 2723.38 36.9404 2717.23" stroke="black" stroke-width="3"/>
<path d="M19.3969 2729.5C21.5637 2727.43 24.5796 2722.08 19.3093 2717.25C16.909 2719.34 13.566 2724.71 19.3969 2729.5Z" stroke="black" stroke-width="3"/>
<path d="M2.45986 2609.84C9.78114 2615.5 24.4237 2634.04 24.4237 2662.92C24.4237 2691.8 9.78114 2711.33 2.45986 2717.49" stroke="black" stroke-width="3"/>
<path d="M36.9416 2609.93C29.6203 2615.59 14.9778 2634.13 14.9778 2663.01C14.9778 2691.89 29.6203 2711.42 36.9416 2717.58" stroke="black" stroke-width="3"/>
<path d="M19.3978 2705.31C21.5646 2707.38 24.5806 2712.72 19.3103 2717.55C16.9099 2715.47 13.567 2710.09 19.3978 2705.31Z" stroke="black" stroke-width="3"/>
<path d="M2.95217 3040.05C10.2735 3034.39 24.916 3015.85 24.916 2986.97C24.916 2958.09 10.2735 2938.55 2.95217 2932.4" stroke="black" stroke-width="3"/>
<path d="M37.4339 3039.95C30.1127 3034.3 15.4701 3015.76 15.4701 2986.87C15.4701 2957.99 30.1127 2938.46 37.4339 2932.3" stroke="black" stroke-width="3"/>
<path d="M19.8903 2944.57C22.0571 2942.51 25.0731 2937.16 19.8027 2932.33C17.4024 2934.42 14.0594 2939.79 19.8903 2944.57Z" stroke="black" stroke-width="3"/>
<path d="M2.95181 2824.91C10.2731 2830.57 24.9156 2849.11 24.9156 2877.99C24.9156 2906.87 10.2731 2926.41 2.95181 2932.57" stroke="black" stroke-width="3"/>
<path d="M37.4334 2825.01C30.1122 2830.67 15.4696 2849.2 15.4696 2878.09C15.4696 2906.97 30.1122 2926.5 37.4334 2932.66" stroke="black" stroke-width="3"/>
<path d="M19.8899 2920.39C22.0567 2922.46 25.0727 2927.8 19.8023 2932.63C17.402 2930.54 14.0591 2925.17 19.8899 2920.39Z" stroke="black" stroke-width="3"/>
<path d="M3.68166 3899.5C11.0029 3893.84 25.6455 3875.3 25.6455 3846.42C25.6455 3817.54 11.0029 3798 3.68166 3791.85" stroke="black" stroke-width="3"/>
<path d="M38.1633 3899.4C30.842 3893.75 16.1995 3875.21 16.1995 3846.32C16.1995 3817.44 30.842 3797.91 38.1633 3791.75" stroke="black" stroke-width="3"/>
<path d="M20.6196 3804.02C22.7864 3801.96 25.8024 3796.61 20.5321 3791.78C18.1317 3793.87 14.7888 3799.24 20.6196 3804.02Z" stroke="black" stroke-width="3"/>
<path d="M3.68179 3684.36C11.0031 3690.02 25.6456 3708.56 25.6456 3737.44C25.6456 3766.33 11.0031 3785.86 3.68179 3792.02" stroke="black" stroke-width="3"/>
<path d="M38.1634 3684.46C30.8421 3690.12 16.1996 3708.66 16.1996 3737.54C16.1996 3766.42 30.8421 3785.95 38.1634 3792.11" stroke="black" stroke-width="3"/>
<path d="M20.6199 3779.84C22.7867 3781.91 25.8027 3787.25 20.5323 3792.08C18.132 3789.99 14.789 3784.62 20.6199 3779.84Z" stroke="black" stroke-width="3"/>
<path d="M3.18838 3469.75C10.5097 3464.09 25.1522 3445.55 25.1522 3416.67C25.1522 3387.79 10.5097 3368.25 3.18838 3362.09" stroke="black" stroke-width="3"/>
<path d="M37.6701 3469.65C30.3489 3463.99 15.7063 3445.46 15.7063 3416.57C15.7063 3387.69 30.3489 3368.16 37.6701 3362" stroke="black" stroke-width="3"/>
<path d="M20.1265 3374.27C22.2933 3372.2 25.3093 3366.86 20.0389 3362.03C17.6386 3364.12 14.2956 3369.49 20.1265 3374.27Z" stroke="black" stroke-width="3"/>
<path d="M3.18935 3254.61C10.5106 3260.27 25.1532 3278.81 25.1532 3307.69C25.1532 3336.57 10.5106 3356.11 3.18935 3362.26" stroke="black" stroke-width="3"/>
<path d="M37.671 3254.71C30.3497 3260.36 15.7072 3278.9 15.7072 3307.79C15.7072 3336.67 30.3497 3356.2 37.671 3362.36" stroke="black" stroke-width="3"/>
<path d="M20.1273 3350.09C22.2941 3352.15 25.3101 3357.5 20.0398 3362.33C17.6394 3360.24 14.2965 3354.87 20.1273 3350.09Z" stroke="black" stroke-width="3"/>
<path d="M3.68154 3684.82C11.0028 3679.16 25.6454 3660.62 25.6454 3631.74C25.6454 3602.86 11.0028 3583.33 3.68154 3577.17" stroke="black" stroke-width="3"/>
<path d="M38.1633 3684.73C30.842 3679.07 16.1995 3660.53 16.1995 3631.65C16.1995 3602.77 30.842 3583.24 38.1633 3577.08" stroke="black" stroke-width="3"/>
<path d="M20.6196 3589.35C22.7864 3587.28 25.8024 3581.94 20.5321 3577.11C18.1317 3579.19 14.7888 3584.57 20.6196 3589.35Z" stroke="black" stroke-width="3"/>
<path d="M3.68118 3469.69C11.0025 3475.35 25.645 3493.89 25.645 3522.77C25.645 3551.65 11.0025 3571.18 3.68118 3577.34" stroke="black" stroke-width="3"/>
<path d="M38.1628 3469.78C30.8415 3475.44 16.199 3493.98 16.199 3522.86C16.199 3551.74 30.8415 3571.28 38.1628 3577.43" stroke="black" stroke-width="3"/>
<path d="M20.6193 3565.16C22.7861 3567.23 25.8021 3572.58 20.5317 3577.41C18.1314 3575.32 14.7884 3569.95 20.6193 3565.16Z" stroke="black" stroke-width="3"/>
<path d="M4.41091 4544.27C11.7322 4538.61 26.3748 4520.07 26.3748 4491.19C26.3748 4462.31 11.7322 4442.78 4.41091 4436.62" stroke="black" stroke-width="3"/>
<path d="M38.8927 4544.18C31.5714 4538.52 16.9288 4519.98 16.9288 4491.1C16.9288 4462.22 31.5714 4442.69 38.8927 4436.53" stroke="black" stroke-width="3"/>
<path d="M21.3491 4448.8C23.5159 4446.73 26.5319 4441.39 21.2616 4436.56C18.8612 4438.64 15.5183 4444.02 21.3491 4448.8Z" stroke="black" stroke-width="3"/>
<path d="M4.41116 4329.14C11.7324 4334.8 26.375 4353.34 26.375 4382.22C26.375 4411.1 11.7324 4430.64 4.41116 4436.79" stroke="black" stroke-width="3"/>
<path d="M38.8929 4329.23C31.5716 4334.89 16.9291 4353.43 16.9291 4382.31C16.9291 4411.19 31.5716 4430.73 38.8929 4436.89" stroke="black" stroke-width="3"/>
<path d="M21.3493 4424.61C23.516 4426.68 26.532 4432.03 21.2617 4436.86C18.8614 4434.77 15.5184 4429.4 21.3493 4424.61Z" stroke="black" stroke-width="3"/>
<path d="M3.91763 4114.52C11.2389 4108.86 25.8815 4090.32 25.8815 4061.44C25.8815 4032.56 11.2389 4013.03 3.91763 4006.87" stroke="black" stroke-width="3"/>
<path d="M38.3994 4114.43C31.0781 4108.77 16.4355 4090.23 16.4355 4061.35C16.4355 4032.47 31.0781 4012.93 38.3994 4006.78" stroke="black" stroke-width="3"/>
<path d="M20.8557 4019.05C23.0225 4016.98 26.0385 4011.64 20.7681 4006.81C18.3678 4008.89 15.0249 4014.27 20.8557 4019.05Z" stroke="black" stroke-width="3"/>
<path d="M3.9186 3899.39C11.2399 3905.05 25.8824 3923.59 25.8824 3952.47C25.8824 3981.35 11.2399 4000.88 3.9186 4007.04" stroke="black" stroke-width="3"/>
<path d="M38.4004 3899.48C31.0791 3905.14 16.4365 3923.68 16.4365 3952.56C16.4365 3981.44 31.0791 4000.98 38.4004 4007.13" stroke="black" stroke-width="3"/>
<path d="M20.8568 3994.86C23.0236 3996.93 26.0396 4002.27 20.7692 4007.11C18.3689 4005.02 15.026 3999.64 20.8568 3994.86Z" stroke="black" stroke-width="3"/>
<path d="M4.41091 4329.6C11.7322 4323.94 26.3748 4305.4 26.3748 4276.52C26.3748 4247.64 11.7322 4228.1 4.41091 4221.95" stroke="black" stroke-width="3"/>
<path d="M38.8926 4329.51C31.5713 4323.85 16.9287 4305.31 16.9287 4276.43C16.9287 4247.55 31.5713 4228.01 38.8926 4221.85" stroke="black" stroke-width="3"/>
<path d="M21.349 4234.13C23.5158 4232.06 26.5318 4226.71 21.2614 4221.88C18.8611 4223.97 15.5182 4229.34 21.349 4234.13Z" stroke="black" stroke-width="3"/>
<path d="M4.41055 4114.47C11.7318 4120.12 26.3744 4138.66 26.3744 4167.55C26.3744 4196.43 11.7318 4215.96 4.41055 4222.12" stroke="black" stroke-width="3"/>
<path d="M38.8922 4114.56C31.5709 4120.22 16.9283 4138.76 16.9283 4167.64C16.9283 4196.52 31.5709 4216.05 38.8922 4222.21" stroke="black" stroke-width="3"/>
<path d="M21.3486 4209.94C23.5154 4212.01 26.5314 4217.35 21.2611 4222.18C18.8607 4220.09 15.5178 4214.72 21.3486 4209.94Z" stroke="black" stroke-width="3"/>
<path d="M7.49331 6908.88C14.8146 6903.22 29.4572 6884.69 29.4572 6855.8C29.4572 6826.92 14.8146 6807.39 7.49331 6801.23" stroke="black" stroke-width="3"/>
<path d="M41.9751 6908.79C34.6538 6903.13 20.0112 6884.59 20.0112 6855.71C20.0112 6826.83 34.6538 6807.3 41.9751 6801.14" stroke="black" stroke-width="3"/>
<path d="M24.4315 6813.41C26.5983 6811.34 29.6143 6806 24.344 6801.17C21.9436 6803.26 18.6007 6808.63 24.4315 6813.41Z" stroke="black" stroke-width="3"/>
<path d="M7.49355 6693.75C14.8148 6699.41 29.4574 6717.95 29.4574 6746.83C29.4574 6775.71 14.8148 6795.25 7.49355 6801.4" stroke="black" stroke-width="3"/>
<path d="M41.9753 6693.84C34.654 6699.5 20.0115 6718.04 20.0115 6746.92C20.0115 6775.81 34.654 6795.34 41.9753 6801.5" stroke="black" stroke-width="3"/>
<path d="M24.4316 6789.23C26.5984 6791.29 29.6144 6796.64 24.3441 6801.47C21.9438 6799.38 18.6008 6794.01 24.4316 6789.23Z" stroke="black" stroke-width="3"/>
<path d="M7.00002 6479.13C14.3213 6473.47 28.9639 6454.94 28.9639 6426.05C28.9639 6397.17 14.3213 6377.64 7.00002 6371.48" stroke="black" stroke-width="3"/>
<path d="M41.4818 6479.04C34.1605 6473.38 19.5179 6454.84 19.5179 6425.96C19.5179 6397.08 34.1605 6377.55 41.4818 6371.39" stroke="black" stroke-width="3"/>
<path d="M23.9381 6383.66C26.1049 6381.59 29.1209 6376.25 23.8505 6371.42C21.4502 6373.51 18.1073 6378.88 23.9381 6383.66Z" stroke="black" stroke-width="3"/>
<path d="M7.001 6264C14.3223 6269.66 28.9648 6288.2 28.9648 6317.08C28.9648 6345.96 14.3223 6365.5 7.001 6371.65" stroke="black" stroke-width="3"/>
<path d="M41.4828 6264.09C34.1615 6269.75 19.5189 6288.29 19.5189 6317.17C19.5189 6346.05 34.1615 6365.59 41.4828 6371.74" stroke="black" stroke-width="3"/>
<path d="M23.9392 6359.47C26.106 6361.54 29.122 6366.89 23.8516 6371.72C21.4513 6369.63 18.1084 6364.26 23.9392 6359.47Z" stroke="black" stroke-width="3"/>
<path d="M7.49331 6694.21C14.8146 6688.55 29.4572 6670.01 29.4572 6641.13C29.4572 6612.25 14.8146 6592.72 7.49331 6586.56" stroke="black" stroke-width="3"/>
<path d="M41.975 6694.12C34.6537 6688.46 20.0111 6669.92 20.0111 6641.04C20.0111 6612.16 34.6537 6592.62 41.975 6586.47" stroke="black" stroke-width="3"/>
<path d="M24.4314 6598.74C26.5982 6596.67 29.6142 6591.32 24.3438 6586.49C21.9435 6588.58 18.6006 6593.95 24.4314 6598.74Z" stroke="black" stroke-width="3"/>
<path d="M7.49294 6479.08C14.8142 6484.74 29.4568 6503.28 29.4568 6532.16C29.4568 6561.04 14.8142 6580.57 7.49294 6586.73" stroke="black" stroke-width="3"/>
<path d="M41.9746 6479.17C34.6533 6484.83 20.0107 6503.37 20.0107 6532.25C20.0107 6561.13 34.6533 6580.66 41.9746 6586.82" stroke="black" stroke-width="3"/>
<path d="M24.431 6574.55C26.5978 6576.62 29.6138 6581.96 24.3435 6586.79C21.9431 6584.71 18.6002 6579.33 24.431 6574.55Z" stroke="black" stroke-width="3"/>
<path d="M971.388 7343.17C978.709 7337.51 993.352 7318.97 993.352 7290.09C993.352 7261.21 978.709 7241.67 971.388 7235.52" stroke="black" stroke-width="3"/>
<path d="M1005.87 7343.08C998.548 7337.42 983.906 7318.88 983.906 7290C983.906 7261.11 998.548 7241.58 1005.87 7235.42" stroke="black" stroke-width="3"/>
<path d="M988.326 7247.7C990.493 7245.63 993.509 7240.28 988.238 7235.45C985.838 7237.54 982.495 7242.91 988.326 7247.7Z" stroke="black" stroke-width="3"/>
<path d="M971.388 7128.04C978.709 7133.7 993.352 7152.23 993.352 7181.12C993.352 7210 978.709 7229.53 971.388 7235.69" stroke="black" stroke-width="3"/>
<path d="M1005.87 7128.13C998.548 7133.79 983.906 7152.33 983.906 7181.21C983.906 7210.09 998.548 7229.62 1005.87 7235.78" stroke="black" stroke-width="3"/>
<path d="M988.326 7223.51C990.493 7225.58 993.509 7230.92 988.238 7235.75C985.838 7233.66 982.495 7228.29 988.326 7223.51Z" stroke="black" stroke-width="3"/>
<path d="M970.894 6913.42C978.216 6907.76 992.858 6889.22 992.858 6860.34C992.858 6831.46 978.216 6811.92 970.894 6805.77" stroke="black" stroke-width="3"/>
<path d="M1005.38 6913.33C998.055 6907.67 983.412 6889.13 983.412 6860.25C983.412 6831.36 998.055 6811.83 1005.38 6805.67" stroke="black" stroke-width="3"/>
<path d="M987.832 6817.94C989.999 6815.88 993.015 6810.53 987.745 6805.7C985.345 6807.79 982.002 6813.16 987.832 6817.94Z" stroke="black" stroke-width="3"/>
<path d="M970.895 6698.28C978.217 6703.94 992.859 6722.48 992.859 6751.36C992.859 6780.25 978.217 6799.78 970.895 6805.94" stroke="black" stroke-width="3"/>
<path d="M1005.38 6698.38C998.056 6704.04 983.413 6722.58 983.413 6751.46C983.413 6780.34 998.056 6799.87 1005.38 6806.03" stroke="black" stroke-width="3"/>
<path d="M987.833 6793.76C990 6795.83 993.016 6801.17 987.746 6806C985.345 6803.91 982.003 6798.54 987.833 6793.76Z" stroke="black" stroke-width="3"/>
<path d="M971.387 7128.49C978.709 7122.84 993.351 7104.3 993.351 7075.41C993.351 7046.53 978.709 7027 971.387 7020.84" stroke="black" stroke-width="3"/>
<path d="M1005.87 7128.4C998.548 7122.74 983.905 7104.2 983.905 7075.32C983.905 7046.44 998.548 7026.91 1005.87 7020.75" stroke="black" stroke-width="3"/>
<path d="M988.326 7033.02C990.492 7030.95 993.508 7025.61 988.238 7020.78C985.838 7022.87 982.495 7028.24 988.326 7033.02Z" stroke="black" stroke-width="3"/>
<path d="M971.387 6913.36C978.709 6919.02 993.351 6937.56 993.351 6966.44C993.351 6995.32 978.709 7014.86 971.387 7021.01" stroke="black" stroke-width="3"/>
<path d="M1005.87 6913.45C998.548 6919.11 983.905 6937.65 983.905 6966.53C983.905 6995.41 998.548 7014.95 1005.87 7021.11" stroke="black" stroke-width="3"/>
<path d="M988.325 7008.83C990.492 7010.9 993.508 7016.25 988.238 7021.08C985.837 7018.99 982.494 7013.62 988.325 7008.83Z" stroke="black" stroke-width="3"/>
<path d="M5.1404 5189.05C12.4617 5183.39 27.1042 5164.85 27.1042 5135.97C27.1042 5107.09 12.4617 5087.55 5.1404 5081.4" stroke="black" stroke-width="3"/>
<path d="M39.622 5188.96C32.3008 5183.3 17.6582 5164.76 17.6582 5135.88C17.6582 5107 32.3008 5087.46 39.622 5081.3" stroke="black" stroke-width="3"/>
<path d="M22.0785 5093.58C24.2453 5091.51 27.2613 5086.16 21.9909 5081.33C19.5906 5083.42 16.2477 5088.79 22.0785 5093.58Z" stroke="black" stroke-width="3"/>
<path d="M5.14053 4973.92C12.4618 4979.58 27.1044 4998.12 27.1044 5027C27.1044 5055.88 12.4618 5075.41 5.14053 5081.57" stroke="black" stroke-width="3"/>
<path d="M39.6223 4974.01C32.301 4979.67 17.6584 4998.21 17.6584 5027.09C17.6584 5055.97 32.301 5075.5 39.6223 5081.66" stroke="black" stroke-width="3"/>
<path d="M22.0786 5069.39C24.2454 5071.46 27.2614 5076.8 21.991 5081.63C19.5907 5079.55 16.2478 5074.17 22.0786 5069.39Z" stroke="black" stroke-width="3"/>
<path d="M4.647 4759.3C11.9683 4753.64 26.6108 4735.1 26.6108 4706.22C26.6108 4677.34 11.9683 4657.8 4.647 4651.65" stroke="black" stroke-width="3"/>
<path d="M39.1288 4759.21C31.8075 4753.55 17.1649 4735.01 17.1649 4706.13C17.1649 4677.24 31.8075 4657.71 39.1288 4651.55" stroke="black" stroke-width="3"/>
<path d="M21.5851 4663.83C23.7519 4661.76 26.7679 4656.41 21.4975 4651.58C19.0972 4653.67 15.7543 4659.04 21.5851 4663.83Z" stroke="black" stroke-width="3"/>
<path d="M4.64797 4544.16C11.9693 4549.82 26.6118 4568.36 26.6118 4597.24C26.6118 4626.13 11.9693 4645.66 4.64797 4651.82" stroke="black" stroke-width="3"/>
<path d="M39.1297 4544.26C31.8085 4549.92 17.1659 4568.46 17.1659 4597.34C17.1659 4626.22 31.8085 4645.75 39.1297 4651.91" stroke="black" stroke-width="3"/>
<path d="M21.5862 4639.64C23.753 4641.71 26.769 4647.05 21.4986 4651.88C19.0983 4649.79 15.7554 4644.42 21.5862 4639.64Z" stroke="black" stroke-width="3"/>
<path d="M5.14028 4974.38C12.4616 4968.72 27.1041 4950.18 27.1041 4921.3C27.1041 4892.41 12.4616 4872.88 5.14028 4866.72" stroke="black" stroke-width="3"/>
<path d="M39.6219 4974.28C32.3006 4968.62 17.6581 4950.08 17.6581 4921.2C17.6581 4892.32 32.3006 4872.79 39.6219 4866.63" stroke="black" stroke-width="3"/>
<path d="M22.0784 4878.9C24.2452 4876.83 27.2612 4871.49 21.9908 4866.66C19.5905 4868.75 16.2475 4874.12 22.0784 4878.9Z" stroke="black" stroke-width="3"/>
<path d="M5.13992 4759.24C12.4612 4764.9 27.1038 4783.44 27.1038 4812.32C27.1038 4841.2 12.4612 4860.74 5.13992 4866.89" stroke="black" stroke-width="3"/>
<path d="M39.6216 4759.33C32.3003 4764.99 17.6577 4783.53 17.6577 4812.41C17.6577 4841.3 32.3003 4860.83 39.6216 4866.99" stroke="black" stroke-width="3"/>
<path d="M22.078 4854.72C24.2448 4856.78 27.2608 4862.13 21.9904 4866.96C19.5901 4864.87 16.2472 4859.5 22.078 4854.72Z" stroke="black" stroke-width="3"/>
<path d="M8.2228 7553.66C15.5441 7548 30.1866 7529.46 30.1866 7500.58C30.1866 7471.7 15.5441 7452.17 8.2228 7446.01" stroke="black" stroke-width="3"/>
<path d="M42.7044 7553.57C35.3832 7547.91 20.7406 7529.37 20.7406 7500.49C20.7406 7471.61 35.3832 7452.07 42.7044 7445.92" stroke="black" stroke-width="3"/>
<path d="M25.1609 7458.19C27.3277 7456.12 30.3437 7450.77 25.0733 7445.94C22.673 7448.03 19.3301 7453.4 25.1609 7458.19Z" stroke="black" stroke-width="3"/>
<path d="M8.22292 7338.53C15.5442 7344.19 30.1868 7362.73 30.1868 7391.61C30.1868 7420.49 15.5442 7440.02 8.22292 7446.18" stroke="black" stroke-width="3"/>
<path d="M42.7047 7338.62C35.3834 7344.28 20.7408 7362.82 20.7408 7391.7C20.7408 7420.58 35.3834 7440.12 42.7047 7446.27" stroke="black" stroke-width="3"/>
<path d="M25.161 7434C27.3278 7436.07 30.3438 7441.41 25.0734 7446.25C22.6731 7444.16 19.3302 7438.78 25.161 7434Z" stroke="black" stroke-width="3"/>
<path d="M7.72939 7123.91C15.0507 7118.25 29.6932 7099.71 29.6932 7070.83C29.6932 7041.95 15.0507 7022.42 7.72939 7016.26" stroke="black" stroke-width="3"/>
<path d="M42.2112 7123.82C34.8899 7118.16 20.2473 7099.62 20.2473 7070.74C20.2473 7041.86 34.8899 7022.32 42.2112 7016.17" stroke="black" stroke-width="3"/>
<path d="M24.6675 7028.44C26.8343 7026.37 29.8503 7021.02 24.5799 7016.19C22.1796 7018.28 18.8367 7023.65 24.6675 7028.44Z" stroke="black" stroke-width="3"/>
<path d="M7.73037 6908.78C15.0517 6914.44 29.6942 6932.97 29.6942 6961.86C29.6942 6990.74 15.0517 7010.27 7.73037 7016.43" stroke="black" stroke-width="3"/>
<path d="M42.2121 6908.87C34.8909 6914.53 20.2483 6933.07 20.2483 6961.95C20.2483 6990.83 34.8909 7010.36 42.2121 7016.52" stroke="black" stroke-width="3"/>
<path d="M24.6686 7004.25C26.8354 7006.32 29.8514 7011.66 24.581 7016.49C22.1807 7014.4 18.8377 7009.03 24.6686 7004.25Z" stroke="black" stroke-width="3"/>
<path d="M8.22268 7338.99C15.544 7333.33 30.1865 7314.79 30.1865 7285.91C30.1865 7257.03 15.544 7237.49 8.22268 7231.33" stroke="black" stroke-width="3"/>
<path d="M42.7043 7338.89C35.383 7333.23 20.7405 7314.7 20.7405 7285.81C20.7405 7256.93 35.383 7237.4 42.7043 7231.24" stroke="black" stroke-width="3"/>
<path d="M25.1608 7243.51C27.3276 7241.44 30.3436 7236.1 25.0732 7231.27C22.6729 7233.36 19.3299 7238.73 25.1608 7243.51Z" stroke="black" stroke-width="3"/>
<path d="M8.22231 7123.85C15.5436 7129.51 30.1862 7148.05 30.1862 7176.93C30.1862 7205.81 15.5436 7225.35 8.22231 7231.51" stroke="black" stroke-width="3"/>
<path d="M42.704 7123.95C35.3827 7129.61 20.7401 7148.14 20.7401 7177.03C20.7401 7205.91 35.3827 7225.44 42.704 7231.6" stroke="black" stroke-width="3"/>
<path d="M25.1604 7219.33C27.3272 7221.4 30.3432 7226.74 25.0728 7231.57C22.6725 7229.48 19.3296 7224.11 25.1604 7219.33Z" stroke="black" stroke-width="3"/>
<path d="M972.117 7987.94C979.438 7982.29 994.081 7963.75 994.081 7934.87C994.081 7905.98 979.438 7886.45 972.117 7880.29" stroke="black" stroke-width="3"/>
<path d="M1006.6 7987.85C999.277 7982.19 984.635 7963.65 984.635 7934.77C984.635 7905.89 999.277 7886.36 1006.6 7880.2" stroke="black" stroke-width="3"/>
<path d="M989.055 7892.47C991.222 7890.4 994.238 7885.06 988.967 7880.23C986.567 7882.32 983.224 7887.69 989.055 7892.47Z" stroke="black" stroke-width="3"/>
<path d="M972.117 7772.81C979.438 7778.47 994.081 7797.01 994.081 7825.89C994.081 7854.77 979.438 7874.31 972.117 7880.46" stroke="black" stroke-width="3"/>
<path d="M1006.6 7772.91C999.278 7778.56 984.635 7797.1 984.635 7825.98C984.635 7854.87 999.278 7874.4 1006.6 7880.56" stroke="black" stroke-width="3"/>
<path d="M989.055 7868.29C991.222 7870.35 994.238 7875.7 988.968 7880.53C986.567 7878.44 983.224 7873.07 989.055 7868.29Z" stroke="black" stroke-width="3"/>
<path d="M971.624 7558.19C978.945 7552.54 993.587 7534 993.587 7505.11C993.587 7476.23 978.945 7456.7 971.624 7450.54" stroke="black" stroke-width="3"/>
<path d="M1006.11 7558.1C998.784 7552.44 984.141 7533.9 984.141 7505.02C984.141 7476.14 998.784 7456.61 1006.11 7450.45" stroke="black" stroke-width="3"/>
<path d="M988.562 7462.72C990.728 7460.65 993.744 7455.31 988.474 7450.48C986.074 7452.57 982.731 7457.94 988.562 7462.72Z" stroke="black" stroke-width="3"/>
<path d="M971.624 7343.06C978.946 7348.72 993.588 7367.26 993.588 7396.14C993.588 7425.02 978.946 7444.56 971.624 7450.71" stroke="black" stroke-width="3"/>
<path d="M1006.11 7343.15C998.785 7348.81 984.142 7367.35 984.142 7396.23C984.142 7425.11 998.785 7444.65 1006.11 7450.81" stroke="black" stroke-width="3"/>
<path d="M988.563 7438.53C990.729 7440.6 993.745 7445.95 988.475 7450.78C986.075 7448.69 982.732 7443.32 988.563 7438.53Z" stroke="black" stroke-width="3"/>
<path d="M972.117 7773.27C979.438 7767.61 994.081 7749.07 994.081 7720.19C994.081 7691.31 979.438 7671.78 972.117 7665.62" stroke="black" stroke-width="3"/>
<path d="M1006.6 7773.18C999.277 7767.52 984.635 7748.98 984.635 7720.1C984.635 7691.22 999.277 7671.68 1006.6 7665.53" stroke="black" stroke-width="3"/>
<path d="M989.055 7677.8C991.222 7675.73 994.238 7670.38 988.967 7665.55C986.567 7667.64 983.224 7673.01 989.055 7677.8Z" stroke="black" stroke-width="3"/>
<path d="M972.117 7558.14C979.438 7563.8 994.081 7582.34 994.081 7611.22C994.081 7640.1 979.438 7659.63 972.117 7665.79" stroke="black" stroke-width="3"/>
<path d="M1006.6 7558.23C999.277 7563.89 984.635 7582.43 984.635 7611.31C984.635 7640.19 999.277 7659.73 1006.6 7665.88" stroke="black" stroke-width="3"/>
<path d="M989.055 7653.61C991.222 7655.68 994.238 7661.02 988.967 7665.85C986.567 7663.77 983.224 7658.39 989.055 7653.61Z" stroke="black" stroke-width="3"/>
<path d="M5.87002 5833.82C13.1913 5828.17 27.8339 5809.63 27.8339 5780.74C27.8339 5751.86 13.1913 5732.33 5.87002 5726.17" stroke="black" stroke-width="3"/>
<path d="M40.3517 5833.73C33.0304 5828.07 18.3878 5809.53 18.3878 5780.65C18.3878 5751.77 33.0304 5732.24 40.3517 5726.08" stroke="black" stroke-width="3"/>
<path d="M22.8081 5738.35C24.9749 5736.28 27.9909 5730.94 22.7205 5726.11C20.3202 5728.2 16.9773 5733.57 22.8081 5738.35Z" stroke="black" stroke-width="3"/>
<path d="M5.87014 5618.69C13.1914 5624.35 27.834 5642.89 27.834 5671.77C27.834 5700.65 13.1914 5720.19 5.87014 5726.34" stroke="black" stroke-width="3"/>
<path d="M40.3517 5618.79C33.0304 5624.44 18.3878 5642.98 18.3878 5671.86C18.3878 5700.75 33.0304 5720.28 40.3517 5726.44" stroke="black" stroke-width="3"/>
<path d="M22.8081 5714.17C24.9749 5716.23 27.9909 5721.58 22.7205 5726.41C20.3202 5724.32 16.9773 5718.95 22.8081 5714.17Z" stroke="black" stroke-width="3"/>
<path d="M5.37661 5404.07C12.6979 5398.42 27.3405 5379.88 27.3405 5350.99C27.3405 5322.11 12.6979 5302.58 5.37661 5296.42" stroke="black" stroke-width="3"/>
<path d="M39.8583 5403.98C32.537 5398.32 17.8944 5379.78 17.8944 5350.9C17.8944 5322.02 32.537 5302.49 39.8583 5296.33" stroke="black" stroke-width="3"/>
<path d="M22.3147 5308.6C24.4815 5306.53 27.4975 5301.19 22.2271 5296.36C19.8268 5298.45 16.4839 5303.82 22.3147 5308.6Z" stroke="black" stroke-width="3"/>
<path d="M5.37746 5188.94C12.6987 5194.6 27.3413 5213.14 27.3413 5242.02C27.3413 5270.9 12.6987 5290.44 5.37746 5296.59" stroke="black" stroke-width="3"/>
<path d="M39.8592 5189.03C32.5379 5194.69 17.8954 5213.23 17.8954 5242.11C17.8954 5270.99 32.5379 5290.53 39.8592 5296.69" stroke="black" stroke-width="3"/>
<path d="M22.3157 5284.41C24.4825 5286.48 27.4985 5291.83 22.2281 5296.66C19.8278 5294.57 16.4848 5289.2 22.3157 5284.41Z" stroke="black" stroke-width="3"/>
<path d="M5.86977 5619.15C13.1911 5613.49 27.8336 5594.95 27.8336 5566.07C27.8336 5537.19 13.1911 5517.66 5.86977 5511.5" stroke="black" stroke-width="3"/>
<path d="M40.3514 5619.06C33.0301 5613.4 18.3876 5594.86 18.3876 5565.98C18.3876 5537.1 33.0301 5517.56 40.3514 5511.41" stroke="black" stroke-width="3"/>
<path d="M22.8079 5523.68C24.9747 5521.61 27.9907 5516.26 22.7203 5511.43C20.32 5513.52 16.977 5518.89 22.8079 5523.68Z" stroke="black" stroke-width="3"/>
<path d="M5.86953 5404.02C13.1908 5409.68 27.8334 5428.22 27.8334 5457.1C27.8334 5485.98 13.1908 5505.51 5.86953 5511.67" stroke="black" stroke-width="3"/>
<path d="M40.3512 5404.11C33.0299 5409.77 18.3873 5428.31 18.3873 5457.19C18.3873 5486.07 33.0299 5505.61 40.3512 5511.76" stroke="black" stroke-width="3"/>
<path d="M22.8076 5499.49C24.9744 5501.56 27.9904 5506.9 22.7201 5511.73C20.3197 5509.65 16.9768 5504.27 22.8076 5499.49Z" stroke="black" stroke-width="3"/>
<path d="M8.95242 8198.44C16.2737 8192.78 30.9163 8174.24 30.9163 8145.36C30.9163 8116.48 16.2737 8096.94 8.95242 8090.78" stroke="black" stroke-width="3"/>
<path d="M43.4341 8198.34C36.1128 8192.68 21.4702 8174.15 21.4702 8145.26C21.4702 8116.38 36.1128 8096.85 43.4341 8090.69" stroke="black" stroke-width="3"/>
<path d="M25.8905 8102.96C28.0573 8100.89 31.0733 8095.55 25.8029 8090.72C23.4026 8092.81 20.0597 8098.18 25.8905 8102.96Z" stroke="black" stroke-width="3"/>
<path d="M8.95254 7983.3C16.2738 7988.96 30.9164 8007.5 30.9164 8036.38C30.9164 8065.26 16.2738 8084.8 8.95254 8090.96" stroke="black" stroke-width="3"/>
<path d="M43.4341 7983.4C36.1128 7989.06 21.4702 8007.6 21.4702 8036.48C21.4702 8065.36 36.1128 8084.89 43.4341 8091.05" stroke="black" stroke-width="3"/>
<path d="M25.8905 8078.78C28.0573 8080.85 31.0733 8086.19 25.8029 8091.02C23.4026 8088.93 20.0597 8083.56 25.8905 8078.78Z" stroke="black" stroke-width="3"/>
<path d="M8.45901 7768.69C15.7803 7763.03 30.4229 7744.49 30.4229 7715.61C30.4229 7686.72 15.7803 7667.19 8.45901 7661.03" stroke="black" stroke-width="3"/>
<path d="M42.9407 7768.59C35.6194 7762.93 20.9768 7744.39 20.9768 7715.51C20.9768 7686.63 35.6194 7667.1 42.9407 7660.94" stroke="black" stroke-width="3"/>
<path d="M25.3971 7673.21C27.5639 7671.14 30.5799 7665.8 25.3095 7660.97C22.9092 7663.06 19.5663 7668.43 25.3971 7673.21Z" stroke="black" stroke-width="3"/>
<path d="M8.45986 7553.55C15.7811 7559.21 30.4237 7577.75 30.4237 7606.63C30.4237 7635.51 15.7811 7655.05 8.45986 7661.2" stroke="black" stroke-width="3"/>
<path d="M42.9416 7553.64C35.6203 7559.3 20.9778 7577.84 20.9778 7606.72C20.9778 7635.61 35.6203 7655.14 42.9416 7661.3" stroke="black" stroke-width="3"/>
<path d="M25.3981 7649.03C27.5649 7651.09 30.5809 7656.44 25.3105 7661.27C22.9102 7659.18 19.5672 7653.81 25.3981 7649.03Z" stroke="black" stroke-width="3"/>
<path d="M8.95217 7983.76C16.2735 7978.1 30.916 7959.56 30.916 7930.68C30.916 7901.8 16.2735 7882.27 8.95217 7876.11" stroke="black" stroke-width="3"/>
<path d="M43.4338 7983.67C36.1125 7978.01 21.47 7959.47 21.47 7930.59C21.47 7901.71 36.1125 7882.17 43.4338 7876.02" stroke="black" stroke-width="3"/>
<path d="M25.8903 7888.29C28.0571 7886.22 31.0731 7880.88 25.8027 7876.05C23.4024 7878.13 20.0594 7883.51 25.8903 7888.29Z" stroke="black" stroke-width="3"/>
<path d="M8.95193 7768.63C16.2732 7774.29 30.9158 7792.83 30.9158 7821.71C30.9158 7850.59 16.2732 7870.12 8.95193 7876.28" stroke="black" stroke-width="3"/>
<path d="M43.4336 7768.72C36.1123 7774.38 21.4697 7792.92 21.4697 7821.8C21.4697 7850.68 36.1123 7870.22 43.4336 7876.37" stroke="black" stroke-width="3"/>
<path d="M25.89 7864.1C28.0568 7866.17 31.0728 7871.52 25.8025 7876.35C23.4021 7874.26 20.0592 7868.89 25.89 7864.1Z" stroke="black" stroke-width="3"/>
<path d="M972.847 8632.72C980.168 8627.06 994.811 8608.52 994.811 8579.64C994.811 8550.76 980.168 8531.23 972.847 8525.07" stroke="black" stroke-width="3"/>
<path d="M1007.33 8632.63C1000.01 8626.97 985.365 8608.43 985.365 8579.55C985.365 8550.67 1000.01 8531.13 1007.33 8524.98" stroke="black" stroke-width="3"/>
<path d="M989.785 8537.25C991.952 8535.18 994.968 8529.83 989.697 8525C987.297 8527.09 983.954 8532.46 989.785 8537.25Z" stroke="black" stroke-width="3"/>
<path d="M972.847 8417.59C980.168 8423.25 994.811 8441.79 994.811 8470.67C994.811 8499.55 980.168 8519.08 972.847 8525.24" stroke="black" stroke-width="3"/>
<path d="M1007.33 8417.68C1000.01 8423.34 985.365 8441.88 985.365 8470.76C985.365 8499.64 1000.01 8519.18 1007.33 8525.33" stroke="black" stroke-width="3"/>
<path d="M989.785 8513.06C991.952 8515.13 994.968 8520.47 989.697 8525.3C987.297 8523.22 983.954 8517.84 989.785 8513.06Z" stroke="black" stroke-width="3"/>
<path d="M972.353 8202.97C979.675 8197.31 994.317 8178.77 994.317 8149.89C994.317 8121.01 979.675 8101.47 972.353 8095.32" stroke="black" stroke-width="3"/>
<path d="M1006.83 8202.88C999.514 8197.22 984.871 8178.68 984.871 8149.8C984.871 8120.92 999.514 8101.38 1006.83 8095.23" stroke="black" stroke-width="3"/>
<path d="M989.291 8107.5C991.458 8105.43 994.474 8100.08 989.204 8095.25C986.803 8097.34 983.461 8102.71 989.291 8107.5Z" stroke="black" stroke-width="3"/>
<path d="M972.354 7987.84C979.676 7993.5 994.318 8012.03 994.318 8040.92C994.318 8069.8 979.676 8089.33 972.354 8095.49" stroke="black" stroke-width="3"/>
<path d="M1006.84 7987.93C999.515 7993.59 984.872 8012.13 984.872 8041.01C984.872 8069.89 999.515 8089.42 1006.84 8095.58" stroke="black" stroke-width="3"/>
<path d="M989.292 8083.31C991.459 8085.38 994.475 8090.72 989.205 8095.55C986.804 8093.46 983.462 8088.09 989.292 8083.31Z" stroke="black" stroke-width="3"/>
<path d="M972.846 8418.05C980.168 8412.39 994.81 8393.85 994.81 8364.97C994.81 8336.09 980.168 8316.55 972.846 8310.39" stroke="black" stroke-width="3"/>
<path d="M1007.33 8417.95C1000.01 8412.29 985.364 8393.76 985.364 8364.87C985.364 8335.99 1000.01 8316.46 1007.33 8310.3" stroke="black" stroke-width="3"/>
<path d="M989.785 8322.57C991.951 8320.5 994.967 8315.16 989.697 8310.33C987.297 8312.42 983.954 8317.79 989.785 8322.57Z" stroke="black" stroke-width="3"/>
<path d="M972.846 8202.91C980.167 8208.57 994.81 8227.11 994.81 8255.99C994.81 8284.87 980.167 8304.41 972.846 8310.57" stroke="black" stroke-width="3"/>
<path d="M1007.33 8203.01C1000.01 8208.66 985.364 8227.2 985.364 8256.09C985.364 8284.97 1000.01 8304.5 1007.33 8310.66" stroke="black" stroke-width="3"/>
<path d="M989.784 8298.39C991.951 8300.45 994.967 8305.8 989.697 8310.63C987.296 8308.54 983.953 8303.17 989.784 8298.39Z" stroke="black" stroke-width="3"/>
<path d="M6.10574 6048.85C13.427 6043.19 28.0696 6024.65 28.0696 5995.77C28.0696 5966.89 13.427 5947.35 6.10574 5941.2" stroke="black" stroke-width="3"/>
<path d="M40.5873 6048.76C33.266 6043.1 18.6234 6024.56 18.6234 5995.68C18.6234 5966.8 33.266 5947.26 40.5873 5941.11" stroke="black" stroke-width="3"/>
<path d="M23.0437 5953.38C25.2105 5951.31 28.2265 5945.96 22.9561 5941.13C20.5558 5943.22 17.2129 5948.59 23.0437 5953.38Z" stroke="black" stroke-width="3"/>
<path d="M6.10671 5833.72C13.428 5839.38 28.0706 5857.91 28.0706 5886.8C28.0706 5915.68 13.428 5935.21 6.10671 5941.37" stroke="black" stroke-width="3"/>
<path d="M40.5882 5833.81C33.267 5839.47 18.6244 5858.01 18.6244 5886.89C18.6244 5915.77 33.267 5935.3 40.5882 5941.46" stroke="black" stroke-width="3"/>
<path d="M23.0447 5929.19C25.2115 5931.26 28.2275 5936.6 22.9571 5941.43C20.5568 5939.34 17.2138 5933.97 23.0447 5929.19Z" stroke="black" stroke-width="3"/>
<path d="M6.59902 6263.93C13.9203 6258.27 28.5629 6239.73 28.5629 6210.85C28.5629 6181.97 13.9203 6162.43 6.59902 6156.27" stroke="black" stroke-width="3"/>
<path d="M41.0807 6263.83C33.7594 6258.17 19.1168 6239.64 19.1168 6210.75C19.1168 6181.87 33.7594 6162.34 41.0807 6156.18" stroke="black" stroke-width="3"/>
<path d="M23.5371 6168.45C25.7039 6166.38 28.7199 6161.04 23.4495 6156.21C21.0492 6158.3 17.7063 6163.67 23.5371 6168.45Z" stroke="black" stroke-width="3"/>
<path d="M6.59853 6048.79C13.9198 6054.45 28.5624 6072.99 28.5624 6101.87C28.5624 6130.75 13.9198 6150.29 6.59853 6156.44" stroke="black" stroke-width="3"/>
<path d="M41.0801 6048.89C33.7588 6054.54 19.1162 6073.08 19.1162 6101.97C19.1162 6130.85 33.7588 6150.38 41.0801 6156.54" stroke="black" stroke-width="3"/>
<path d="M23.5365 6144.27C25.7033 6146.33 28.7193 6151.68 23.4489 6156.51C21.0486 6154.42 17.7057 6149.05 23.5365 6144.27Z" stroke="black" stroke-width="3"/>
<path d="M970 6483.13C977.322 6477.47 991.964 6458.94 991.964 6430.05C991.964 6401.17 977.322 6381.64 970 6375.48" stroke="black" stroke-width="3"/>
<path d="M1004.48 6483.04C997.16 6477.38 982.518 6458.84 982.518 6429.96C982.518 6401.08 997.16 6381.55 1004.48 6375.39" stroke="black" stroke-width="3"/>
<path d="M986.938 6387.66C989.105 6385.59 992.121 6380.25 986.851 6375.42C984.45 6377.51 981.107 6382.88 986.938 6387.66Z" stroke="black" stroke-width="3"/>
<path d="M970.001 6268C977.323 6273.66 991.965 6292.2 991.965 6321.08C991.965 6349.96 977.323 6369.5 970.001 6375.65" stroke="black" stroke-width="3"/>
<path d="M1004.48 6268.09C997.161 6273.75 982.519 6292.29 982.519 6321.17C982.519 6350.05 997.161 6369.59 1004.48 6375.74" stroke="black" stroke-width="3"/>
<path d="M986.939 6363.47C989.106 6365.54 992.122 6370.89 986.852 6375.72C984.451 6373.63 981.108 6368.26 986.939 6363.47Z" stroke="black" stroke-width="3"/>
<path d="M970.493 6698.21C977.815 6692.55 992.457 6674.01 992.457 6645.13C992.457 6616.25 977.815 6596.72 970.493 6590.56" stroke="black" stroke-width="3"/>
<path d="M1004.98 6698.12C997.654 6692.46 983.011 6673.92 983.011 6645.04C983.011 6616.16 997.654 6596.62 1004.98 6590.47" stroke="black" stroke-width="3"/>
<path d="M987.432 6602.74C989.598 6600.67 992.614 6595.32 987.344 6590.49C984.944 6592.58 981.601 6597.95 987.432 6602.74Z" stroke="black" stroke-width="3"/>
<path d="M970.493 6483.08C977.814 6488.74 992.457 6507.28 992.457 6536.16C992.457 6565.04 977.814 6584.57 970.493 6590.73" stroke="black" stroke-width="3"/>
<path d="M1004.97 6483.17C997.653 6488.83 983.011 6507.37 983.011 6536.25C983.011 6565.13 997.653 6584.66 1004.97 6590.82" stroke="black" stroke-width="3"/>
<path d="M987.431 6578.55C989.598 6580.62 992.614 6585.96 987.343 6590.79C984.943 6588.71 981.6 6583.33 987.431 6578.55Z" stroke="black" stroke-width="3"/>
<path d="M9.18813 8413.46C16.5094 8407.8 31.152 8389.26 31.152 8360.38C31.152 8331.5 16.5094 8311.97 9.18813 8305.81" stroke="black" stroke-width="3"/>
<path d="M43.6697 8413.37C36.3484 8407.71 21.7058 8389.17 21.7058 8360.29C21.7058 8331.41 36.3484 8311.87 43.6697 8305.72" stroke="black" stroke-width="3"/>
<path d="M26.1261 8317.99C28.2929 8315.92 31.3089 8310.58 26.0385 8305.74C23.6382 8307.83 20.2953 8313.21 26.1261 8317.99Z" stroke="black" stroke-width="3"/>
<path d="M9.18911 8198.33C16.5104 8203.99 31.153 8222.53 31.153 8251.41C31.153 8280.29 16.5104 8299.82 9.18911 8305.98" stroke="black" stroke-width="3"/>
<path d="M43.6706 8198.42C36.3493 8204.08 21.7068 8222.62 21.7068 8251.5C21.7068 8280.38 36.3493 8299.91 43.6706 8306.07" stroke="black" stroke-width="3"/>
<path d="M26.1271 8293.8C28.2939 8295.87 31.3099 8301.21 26.0395 8306.04C23.6392 8303.96 20.2962 8298.58 26.1271 8293.8Z" stroke="black" stroke-width="3"/>
<path d="M9.68142 8628.54C17.0027 8622.88 31.6453 8604.34 31.6453 8575.46C31.6453 8546.58 17.0027 8527.04 9.68142 8520.89" stroke="black" stroke-width="3"/>
<path d="M44.1631 8628.44C36.8418 8622.79 22.1992 8604.25 22.1992 8575.37C22.1992 8546.48 36.8418 8526.95 44.1631 8520.79" stroke="black" stroke-width="3"/>
<path d="M26.6195 8533.06C28.7863 8531 31.8023 8525.65 26.5319 8520.82C24.1316 8522.91 20.7887 8528.28 26.6195 8533.06Z" stroke="black" stroke-width="3"/>
<path d="M9.68093 8413.4C17.0022 8419.06 31.6448 8437.6 31.6448 8466.48C31.6448 8495.37 17.0022 8514.9 9.68093 8521.06" stroke="black" stroke-width="3"/>
<path d="M44.1625 8413.5C36.8412 8419.16 22.1986 8437.7 22.1986 8466.58C22.1986 8495.46 36.8412 8514.99 44.1625 8521.15" stroke="black" stroke-width="3"/>
<path d="M26.6189 8508.88C28.7857 8510.95 31.8017 8516.29 26.5313 8521.12C24.131 8519.03 20.7881 8513.66 26.6189 8508.88Z" stroke="black" stroke-width="3"/>
<path d="M965.011 676.789C972.332 671.13 986.975 652.591 986.975 623.709C986.975 594.828 972.332 575.294 965.011 569.137" stroke="black" stroke-width="3"/>
<path d="M999.493 676.697C992.171 671.037 977.529 652.498 977.529 623.617C977.529 594.736 992.171 575.201 999.493 569.045" stroke="black" stroke-width="3"/>
<path d="M981.949 581.316C984.116 579.247 987.132 573.903 981.862 569.072C979.461 571.161 976.118 576.533 981.949 581.316Z" stroke="black" stroke-width="3"/>
<path d="M965.011 461.657C972.332 467.316 986.975 485.855 986.975 514.736C986.975 543.618 972.332 563.152 965.011 569.309" stroke="black" stroke-width="3"/>
<path d="M999.493 461.749C992.172 467.409 977.529 485.948 977.529 514.829C977.529 543.71 992.172 563.244 999.493 569.401" stroke="black" stroke-width="3"/>
<path d="M981.949 557.13C984.116 559.199 987.132 564.543 981.862 569.373C979.461 567.285 976.118 561.913 981.949 557.13Z" stroke="black" stroke-width="3"/>
<path d="M964.518 247.039C971.839 241.38 986.481 222.841 986.481 193.959C986.481 165.078 971.839 145.544 964.518 139.387" stroke="black" stroke-width="3"/>
<path d="M998.999 246.946C991.678 241.287 977.036 222.748 977.036 193.867C977.036 164.985 991.678 145.451 998.999 139.294" stroke="black" stroke-width="3"/>
<path d="M981.455 151.566C983.622 149.497 986.638 144.152 981.368 139.322C978.968 141.41 975.625 146.782 981.455 151.566Z" stroke="black" stroke-width="3"/>
<path d="M961.599 29.7168C976.551 40.2929 986.482 56.1033 986.482 84.9846C986.482 113.866 971.84 133.4 964.518 139.557" stroke="black" stroke-width="3"/>
<path d="M999 31.9976C991.679 37.6569 977.036 56.1959 977.036 85.0772C977.036 113.959 991.679 133.493 999 139.649" stroke="black" stroke-width="3"/>
<path d="M981.456 127.378C983.623 129.447 986.639 134.791 981.369 139.622C978.969 137.534 975.626 132.161 981.456 127.378Z" stroke="black" stroke-width="3"/>
<path d="M965.011 462.115C972.332 456.456 986.975 437.917 986.975 409.035C986.975 380.154 972.332 360.62 965.011 354.463" stroke="black" stroke-width="3"/>
<path d="M999.493 462.022C992.171 456.363 977.529 437.824 977.529 408.943C977.529 380.061 992.171 360.527 999.493 354.371" stroke="black" stroke-width="3"/>
<path d="M981.949 366.642C984.116 364.573 987.132 359.229 981.861 354.398C979.461 356.486 976.118 361.859 981.949 366.642Z" stroke="black" stroke-width="3"/>
<path d="M965.011 246.982C972.332 252.641 986.974 271.18 986.974 300.062C986.974 328.943 972.332 348.477 965.011 354.634" stroke="black" stroke-width="3"/>
<path d="M999.492 247.075C992.171 252.734 977.529 271.273 977.529 300.154C977.529 329.036 992.171 348.57 999.492 354.727" stroke="black" stroke-width="3"/>
<path d="M981.949 342.455C984.115 344.524 987.131 349.868 981.861 354.699C979.461 352.61 976.118 347.238 981.949 342.455Z" stroke="black" stroke-width="3"/>
<path d="M999 1321.56C991.679 1315.91 977.036 1297.37 977.036 1268.49C977.036 1239.6 991.679 1220.07 999 1213.91" stroke="black" stroke-width="3"/>
<path d="M964.518 1321.47C971.839 1315.81 986.482 1297.27 986.482 1268.39C986.482 1239.51 971.839 1219.98 964.518 1213.82" stroke="black" stroke-width="3"/>
<path d="M982.062 1226.09C979.895 1224.02 976.879 1218.68 982.149 1213.85C984.55 1215.94 987.892 1221.31 982.062 1226.09Z" stroke="black" stroke-width="3"/>
<path d="M999 1106.43C991.678 1112.09 977.036 1130.63 977.036 1159.51C977.036 1188.39 991.678 1207.93 999 1214.08" stroke="black" stroke-width="3"/>
<path d="M964.518 1106.53C971.839 1112.18 986.482 1130.72 986.482 1159.6C986.482 1188.49 971.839 1208.02 964.518 1214.18" stroke="black" stroke-width="3"/>
<path d="M982.062 1201.91C979.895 1203.97 976.879 1209.32 982.149 1214.15C984.55 1212.06 987.892 1206.69 982.062 1201.91Z" stroke="black" stroke-width="3"/>
<path d="M999.493 891.814C992.172 886.155 977.53 867.616 977.53 838.735C977.53 809.853 992.172 790.319 999.493 784.163" stroke="black" stroke-width="3"/>
<path d="M965.011 891.722C972.333 886.063 986.975 867.524 986.975 838.642C986.975 809.761 972.333 790.227 965.011 784.07" stroke="black" stroke-width="3"/>
<path d="M982.555 796.341C980.388 794.273 977.373 788.928 982.643 784.098C985.043 786.186 988.386 791.558 982.555 796.341Z" stroke="black" stroke-width="3"/>
<path d="M999.492 676.681C992.171 682.34 977.528 700.879 977.528 729.76C977.528 758.642 992.171 778.176 999.492 784.333" stroke="black" stroke-width="3"/>
<path d="M965.01 676.773C972.332 682.433 986.974 700.972 986.974 729.853C986.974 758.734 972.332 778.268 965.01 784.425" stroke="black" stroke-width="3"/>
<path d="M982.554 772.154C980.387 774.222 977.371 779.567 982.642 784.397C985.042 782.309 988.385 776.937 982.554 772.154Z" stroke="black" stroke-width="3"/>
<path d="M999 1106.89C991.679 1101.23 977.036 1082.69 977.036 1053.81C977.036 1024.93 991.679 1005.4 999 999.239" stroke="black" stroke-width="3"/>
<path d="M964.518 1106.8C971.84 1101.14 986.482 1082.6 986.482 1053.72C986.482 1024.84 971.84 1005.3 964.518 999.146" stroke="black" stroke-width="3"/>
<path d="M982.062 1011.42C979.895 1009.35 976.879 1004 982.149 999.174C984.55 1001.26 987.893 1006.63 982.062 1011.42Z" stroke="black" stroke-width="3"/>
<path d="M999 891.758C991.679 897.417 977.036 915.956 977.036 944.837C977.036 973.719 991.679 993.253 999 999.41" stroke="black" stroke-width="3"/>
<path d="M964.518 891.85C971.84 897.51 986.482 916.049 986.482 944.93C986.482 973.811 971.84 993.345 964.518 999.502" stroke="black" stroke-width="3"/>
<path d="M982.062 987.231C979.895 989.3 976.879 994.644 982.15 999.475C984.55 997.386 987.893 992.014 982.062 987.231Z" stroke="black" stroke-width="3"/>
<path d="M965.01 1967.07C972.332 1961.41 986.974 1942.87 986.974 1913.99C986.974 1885.11 972.332 1865.57 965.01 1859.42" stroke="black" stroke-width="3"/>
<path d="M999.492 1966.98C992.171 1961.32 977.528 1942.78 977.528 1913.9C977.528 1885.02 992.171 1865.48 999.492 1859.33" stroke="black" stroke-width="3"/>
<path d="M981.948 1871.6C984.115 1869.53 987.131 1864.18 981.861 1859.35C979.46 1861.44 976.118 1866.81 981.948 1871.6Z" stroke="black" stroke-width="3"/>
<path d="M965.011 1751.94C972.332 1757.6 986.974 1776.14 986.974 1805.02C986.974 1833.9 972.332 1853.43 965.011 1859.59" stroke="black" stroke-width="3"/>
<path d="M999.492 1752.03C992.171 1757.69 977.529 1776.23 977.529 1805.11C977.529 1833.99 992.171 1853.53 999.492 1859.68" stroke="black" stroke-width="3"/>
<path d="M981.949 1847.41C984.115 1849.48 987.131 1854.82 981.861 1859.65C979.461 1857.57 976.118 1852.19 981.949 1847.41Z" stroke="black" stroke-width="3"/>
<path d="M964.517 1537.32C971.838 1531.66 986.481 1513.12 986.481 1484.24C986.481 1455.36 971.838 1435.82 964.517 1429.67" stroke="black" stroke-width="3"/>
<path d="M998.999 1537.23C991.678 1531.57 977.035 1513.03 977.035 1484.15C977.035 1455.27 991.678 1435.73 998.999 1429.57" stroke="black" stroke-width="3"/>
<path d="M981.455 1441.85C983.622 1439.78 986.638 1434.43 981.368 1429.6C978.967 1431.69 975.624 1437.06 981.455 1441.85Z" stroke="black" stroke-width="3"/>
<path d="M964.518 1322.19C971.839 1327.85 986.482 1346.38 986.482 1375.27C986.482 1404.15 971.839 1423.68 964.518 1429.84" stroke="black" stroke-width="3"/>
<path d="M998.999 1322.28C991.678 1327.94 977.036 1346.48 977.036 1375.36C977.036 1404.24 991.678 1423.77 998.999 1429.93" stroke="black" stroke-width="3"/>
<path d="M981.456 1417.66C983.623 1419.73 986.639 1425.07 981.368 1429.9C978.968 1427.81 975.625 1422.44 981.456 1417.66Z" stroke="black" stroke-width="3"/>
<path d="M965.01 1752.4C972.332 1746.74 986.974 1728.2 986.974 1699.32C986.974 1670.43 972.332 1650.9 965.01 1644.74" stroke="black" stroke-width="3"/>
<path d="M999.492 1752.3C992.171 1746.64 977.528 1728.1 977.528 1699.22C977.528 1670.34 992.171 1650.81 999.492 1644.65" stroke="black" stroke-width="3"/>
<path d="M981.948 1656.92C984.115 1654.85 987.131 1649.51 981.861 1644.68C979.46 1646.77 976.118 1652.14 981.948 1656.92Z" stroke="black" stroke-width="3"/>
<path d="M965.01 1537.26C972.331 1542.92 986.974 1561.46 986.974 1590.34C986.974 1619.22 972.331 1638.76 965.01 1644.91" stroke="black" stroke-width="3"/>
<path d="M999.492 1537.36C992.17 1543.01 977.528 1561.55 977.528 1590.44C977.528 1619.32 992.17 1638.85 999.492 1645.01" stroke="black" stroke-width="3"/>
<path d="M981.948 1632.74C984.115 1634.8 987.131 1640.15 981.861 1644.98C979.46 1642.89 976.117 1637.52 981.948 1632.74Z" stroke="black" stroke-width="3"/>
<path d="M965.74 2611.85C973.061 2606.19 987.704 2587.65 987.704 2558.77C987.704 2529.88 973.061 2510.35 965.74 2504.19" stroke="black" stroke-width="3"/>
<path d="M1000.22 2611.75C992.901 2606.09 978.258 2587.55 978.258 2558.67C978.258 2529.79 992.901 2510.26 1000.22 2504.1" stroke="black" stroke-width="3"/>
<path d="M982.678 2516.37C984.845 2514.3 987.861 2508.96 982.591 2504.13C980.19 2506.22 976.847 2511.59 982.678 2516.37Z" stroke="black" stroke-width="3"/>
<path d="M965.74 2396.71C973.062 2402.37 987.704 2420.91 987.704 2449.79C987.704 2478.67 973.062 2498.21 965.74 2504.37" stroke="black" stroke-width="3"/>
<path d="M1000.22 2396.81C992.901 2402.47 978.258 2421 978.258 2449.89C978.258 2478.77 992.901 2498.3 1000.22 2504.46" stroke="black" stroke-width="3"/>
<path d="M982.678 2492.19C984.845 2494.26 987.861 2499.6 982.591 2504.43C980.19 2502.34 976.848 2496.97 982.678 2492.19Z" stroke="black" stroke-width="3"/>
<path d="M965.247 2182.1C972.568 2176.44 987.211 2157.9 987.211 2129.02C987.211 2100.13 972.568 2080.6 965.247 2074.44" stroke="black" stroke-width="3"/>
<path d="M999.729 2182C992.408 2176.34 977.765 2157.8 977.765 2128.92C977.765 2100.04 992.408 2080.51 999.729 2074.35" stroke="black" stroke-width="3"/>
<path d="M982.185 2086.62C984.352 2084.55 987.368 2079.21 982.097 2074.38C979.697 2076.47 976.354 2081.84 982.185 2086.62Z" stroke="black" stroke-width="3"/>
<path d="M965.248 1966.96C972.569 1972.62 987.212 1991.16 987.212 2020.04C987.212 2048.92 972.569 2068.46 965.248 2074.61" stroke="black" stroke-width="3"/>
<path d="M999.73 1967.05C992.408 1972.71 977.766 1991.25 977.766 2020.13C977.766 2049.01 992.408 2068.55 999.73 2074.71" stroke="black" stroke-width="3"/>
<path d="M982.186 2062.43C984.353 2064.5 987.369 2069.85 982.098 2074.68C979.698 2072.59 976.355 2067.22 982.186 2062.43Z" stroke="black" stroke-width="3"/>
<path d="M965.74 2397.17C973.061 2391.51 987.704 2372.97 987.704 2344.09C987.704 2315.21 973.061 2295.68 965.74 2289.52" stroke="black" stroke-width="3"/>
<path d="M1000.22 2397.08C992.901 2391.42 978.258 2372.88 978.258 2344C978.258 2315.12 992.901 2295.58 1000.22 2289.43" stroke="black" stroke-width="3"/>
<path d="M982.678 2301.7C984.845 2299.63 987.861 2294.28 982.591 2289.45C980.19 2291.54 976.847 2296.91 982.678 2301.7Z" stroke="black" stroke-width="3"/>
<path d="M965.74 2182.04C973.061 2187.7 987.704 2206.24 987.704 2235.12C987.704 2264 973.061 2283.53 965.74 2289.69" stroke="black" stroke-width="3"/>
<path d="M1000.22 2182.13C992.9 2187.79 978.258 2206.33 978.258 2235.21C978.258 2264.09 992.9 2283.63 1000.22 2289.78" stroke="black" stroke-width="3"/>
<path d="M982.678 2277.51C984.845 2279.58 987.861 2284.92 982.59 2289.76C980.19 2287.67 976.847 2282.29 982.678 2277.51Z" stroke="black" stroke-width="3"/>
<path d="M966.47 3256.62C973.791 3250.96 988.433 3232.42 988.433 3203.54C988.433 3174.66 973.791 3155.13 966.47 3148.97" stroke="black" stroke-width="3"/>
<path d="M1000.95 3256.53C993.63 3250.87 978.987 3232.33 978.987 3203.45C978.987 3174.57 993.63 3155.03 1000.95 3148.88" stroke="black" stroke-width="3"/>
<path d="M983.408 3161.15C985.574 3159.08 988.59 3153.73 983.32 3148.9C980.92 3150.99 977.577 3156.36 983.408 3161.15Z" stroke="black" stroke-width="3"/>
<path d="M966.47 3041.49C973.791 3047.15 988.434 3065.69 988.434 3094.57C988.434 3123.45 973.791 3142.98 966.47 3149.14" stroke="black" stroke-width="3"/>
<path d="M1000.95 3041.58C993.63 3047.24 978.988 3065.78 978.988 3094.66C978.988 3123.54 993.63 3143.08 1000.95 3149.23" stroke="black" stroke-width="3"/>
<path d="M983.408 3136.96C985.575 3139.03 988.591 3144.38 983.32 3149.21C980.92 3147.12 977.577 3141.75 983.408 3136.96Z" stroke="black" stroke-width="3"/>
<path d="M965.977 2826.87C973.298 2821.21 987.94 2802.67 987.94 2773.79C987.94 2744.91 973.298 2725.38 965.977 2719.22" stroke="black" stroke-width="3"/>
<path d="M1000.46 2826.78C993.137 2821.12 978.495 2802.58 978.495 2773.7C978.495 2744.82 993.137 2725.28 1000.46 2719.13" stroke="black" stroke-width="3"/>
<path d="M982.915 2731.4C985.081 2729.33 988.097 2723.98 982.827 2719.15C980.427 2721.24 977.084 2726.61 982.915 2731.4Z" stroke="black" stroke-width="3"/>
<path d="M965.978 2611.74C973.299 2617.4 987.941 2635.94 987.941 2664.82C987.941 2693.7 973.299 2713.23 965.978 2719.39" stroke="black" stroke-width="3"/>
<path d="M1000.46 2611.83C993.138 2617.49 978.496 2636.03 978.496 2664.91C978.496 2693.79 993.138 2713.32 1000.46 2719.48" stroke="black" stroke-width="3"/>
<path d="M982.915 2707.21C985.082 2709.28 988.098 2714.62 982.828 2719.45C980.428 2717.37 977.085 2711.99 982.915 2707.21Z" stroke="black" stroke-width="3"/>
<path d="M966.47 3041.95C973.791 3036.29 988.433 3017.75 988.433 2988.87C988.433 2959.99 973.791 2940.45 966.47 2934.3" stroke="black" stroke-width="3"/>
<path d="M1000.95 3041.85C993.63 3036.2 978.988 3017.66 978.988 2988.77C978.988 2959.89 993.63 2940.36 1000.95 2934.2" stroke="black" stroke-width="3"/>
<path d="M983.408 2946.47C985.575 2944.41 988.591 2939.06 983.32 2934.23C980.92 2936.32 977.577 2941.69 983.408 2946.47Z" stroke="black" stroke-width="3"/>
<path d="M966.469 2826.81C973.791 2832.47 988.433 2851.01 988.433 2879.89C988.433 2908.77 973.791 2928.31 966.469 2934.47" stroke="black" stroke-width="3"/>
<path d="M1000.95 2826.91C993.63 2832.57 978.987 2851.1 978.987 2879.99C978.987 2908.87 993.63 2928.4 1000.95 2934.56" stroke="black" stroke-width="3"/>
<path d="M983.407 2922.29C985.574 2924.36 988.59 2929.7 983.32 2934.53C980.919 2932.44 977.577 2927.07 983.407 2922.29Z" stroke="black" stroke-width="3"/>
<path d="M967.199 3901.4C974.52 3895.74 989.163 3877.2 989.163 3848.32C989.163 3819.44 974.52 3799.9 967.199 3793.74" stroke="black" stroke-width="3"/>
<path d="M1001.68 3901.3C994.359 3895.64 979.717 3877.11 979.717 3848.22C979.717 3819.34 994.359 3799.81 1001.68 3793.65" stroke="black" stroke-width="3"/>
<path d="M984.137 3805.92C986.304 3803.86 989.32 3798.51 984.049 3793.68C981.649 3795.77 978.306 3801.14 984.137 3805.92Z" stroke="black" stroke-width="3"/>
<path d="M967.199 3686.26C974.52 3691.92 989.163 3710.46 989.163 3739.34C989.163 3768.23 974.52 3787.76 967.199 3793.92" stroke="black" stroke-width="3"/>
<path d="M1001.68 3686.36C994.359 3692.02 979.717 3710.56 979.717 3739.44C979.717 3768.32 994.359 3787.85 1001.68 3794.01" stroke="black" stroke-width="3"/>
<path d="M984.137 3781.74C986.304 3783.81 989.32 3789.15 984.05 3793.98C981.649 3791.89 978.306 3786.52 984.137 3781.74Z" stroke="black" stroke-width="3"/>
<path d="M966.705 3471.65C974.027 3465.99 988.669 3447.45 988.669 3418.57C988.669 3389.69 974.027 3370.15 966.705 3363.99" stroke="black" stroke-width="3"/>
<path d="M1001.19 3471.55C993.866 3465.89 979.223 3447.36 979.223 3418.47C979.223 3389.59 993.866 3370.06 1001.19 3363.9" stroke="black" stroke-width="3"/>
<path d="M983.643 3376.17C985.81 3374.1 988.826 3368.76 983.556 3363.93C981.156 3366.02 977.813 3371.39 983.643 3376.17Z" stroke="black" stroke-width="3"/>
<path d="M966.707 3256.51C974.028 3262.17 988.67 3280.71 988.67 3309.59C988.67 3338.47 974.028 3358.01 966.707 3364.16" stroke="black" stroke-width="3"/>
<path d="M1001.19 3256.61C993.867 3262.26 979.225 3280.8 979.225 3309.68C979.225 3338.57 993.867 3358.1 1001.19 3364.26" stroke="black" stroke-width="3"/>
<path d="M983.644 3351.99C985.811 3354.05 988.827 3359.4 983.557 3364.23C981.157 3362.14 977.814 3356.77 983.644 3351.99Z" stroke="black" stroke-width="3"/>
<path d="M967.199 3686.72C974.52 3681.06 989.162 3662.52 989.162 3633.64C989.162 3604.76 974.52 3585.23 967.199 3579.07" stroke="black" stroke-width="3"/>
<path d="M1001.68 3686.63C994.359 3680.97 979.717 3662.43 979.717 3633.55C979.717 3604.67 994.359 3585.14 1001.68 3578.98" stroke="black" stroke-width="3"/>
<path d="M984.137 3591.25C986.303 3589.18 989.319 3583.84 984.049 3579.01C981.649 3581.09 978.306 3586.47 984.137 3591.25Z" stroke="black" stroke-width="3"/>
<path d="M967.198 3471.59C974.519 3477.25 989.162 3495.79 989.162 3524.67C989.162 3553.55 974.519 3573.08 967.198 3579.24" stroke="black" stroke-width="3"/>
<path d="M1001.68 3471.68C994.359 3477.34 979.716 3495.88 979.716 3524.76C979.716 3553.64 994.359 3573.18 1001.68 3579.33" stroke="black" stroke-width="3"/>
<path d="M984.136 3567.06C986.303 3569.13 989.319 3574.48 984.048 3579.31C981.648 3577.22 978.305 3571.85 984.136 3567.06Z" stroke="black" stroke-width="3"/>
<path d="M967.928 4546.17C975.25 4540.51 989.892 4521.97 989.892 4493.09C989.892 4464.21 975.25 4444.68 967.928 4438.52" stroke="black" stroke-width="3"/>
<path d="M1002.41 4546.08C995.089 4540.42 980.446 4521.88 980.446 4493C980.446 4464.12 995.089 4444.59 1002.41 4438.43" stroke="black" stroke-width="3"/>
<path d="M984.866 4450.7C987.033 4448.63 990.049 4443.29 984.779 4438.46C982.378 4440.54 979.035 4445.92 984.866 4450.7Z" stroke="black" stroke-width="3"/>
<path d="M967.928 4331.04C975.25 4336.7 989.892 4355.24 989.892 4384.12C989.892 4413 975.25 4432.54 967.928 4438.69" stroke="black" stroke-width="3"/>
<path d="M1002.41 4331.13C995.089 4336.79 980.446 4355.33 980.446 4384.21C980.446 4413.09 995.089 4432.63 1002.41 4438.79" stroke="black" stroke-width="3"/>
<path d="M984.867 4426.51C987.033 4428.58 990.049 4433.93 984.779 4438.76C982.379 4436.67 979.036 4431.3 984.867 4426.51Z" stroke="black" stroke-width="3"/>
<path d="M967.435 4116.42C974.756 4110.76 989.399 4092.22 989.399 4063.34C989.399 4034.46 974.756 4014.93 967.435 4008.77" stroke="black" stroke-width="3"/>
<path d="M1001.92 4116.33C994.595 4110.67 979.953 4092.13 979.953 4063.25C979.953 4034.37 994.595 4014.83 1001.92 4008.68" stroke="black" stroke-width="3"/>
<path d="M984.373 4020.95C986.54 4018.88 989.556 4013.54 984.286 4008.71C981.885 4010.79 978.542 4016.17 984.373 4020.95Z" stroke="black" stroke-width="3"/>
<path d="M967.436 3901.29C974.757 3906.95 989.4 3925.49 989.4 3954.37C989.4 3983.25 974.757 4002.78 967.436 4008.94" stroke="black" stroke-width="3"/>
<path d="M1001.92 3901.38C994.597 3907.04 979.954 3925.58 979.954 3954.46C979.954 3983.34 994.597 4002.88 1001.92 4009.03" stroke="black" stroke-width="3"/>
<path d="M984.374 3996.76C986.541 3998.83 989.557 4004.17 984.286 4009.01C981.886 4006.92 978.543 4001.54 984.374 3996.76Z" stroke="black" stroke-width="3"/>
<path d="M967.928 4331.5C975.249 4325.84 989.892 4307.3 989.892 4278.42C989.892 4249.54 975.249 4230 967.928 4223.85" stroke="black" stroke-width="3"/>
<path d="M1002.41 4331.41C995.089 4325.75 980.446 4307.21 980.446 4278.33C980.446 4249.45 995.089 4229.91 1002.41 4223.75" stroke="black" stroke-width="3"/>
<path d="M984.866 4236.03C987.033 4233.96 990.049 4228.61 984.778 4223.78C982.378 4225.87 979.035 4231.24 984.866 4236.03Z" stroke="black" stroke-width="3"/>
<path d="M967.928 4116.37C975.249 4122.02 989.891 4140.56 989.891 4169.45C989.891 4198.33 975.249 4217.86 967.928 4224.02" stroke="black" stroke-width="3"/>
<path d="M1002.41 4116.46C995.088 4122.12 980.446 4140.66 980.446 4169.54C980.446 4198.42 995.088 4217.95 1002.41 4224.11" stroke="black" stroke-width="3"/>
<path d="M984.865 4211.84C987.032 4213.91 990.048 4219.25 984.778 4224.08C982.377 4221.99 979.035 4216.62 984.865 4211.84Z" stroke="black" stroke-width="3"/>
<path d="M968.657 5190.95C975.979 5185.29 990.621 5166.75 990.621 5137.87C990.621 5108.99 975.979 5089.45 968.657 5083.3" stroke="black" stroke-width="3"/>
<path d="M1003.14 5190.86C995.818 5185.2 981.176 5166.66 981.176 5137.78C981.176 5108.89 995.818 5089.36 1003.14 5083.2" stroke="black" stroke-width="3"/>
<path d="M985.596 5095.48C987.762 5093.41 990.778 5088.06 985.508 5083.23C983.108 5085.32 979.765 5090.69 985.596 5095.48Z" stroke="black" stroke-width="3"/>
<path d="M968.658 4975.82C975.979 4981.48 990.622 5000.02 990.622 5028.9C990.622 5057.78 975.979 5077.31 968.658 5083.47" stroke="black" stroke-width="3"/>
<path d="M1003.14 4975.91C995.818 4981.57 981.176 5000.11 981.176 5028.99C981.176 5057.87 995.818 5077.4 1003.14 5083.56" stroke="black" stroke-width="3"/>
<path d="M985.596 5071.29C987.763 5073.36 990.779 5078.7 985.509 5083.53C983.108 5081.45 979.765 5076.07 985.596 5071.29Z" stroke="black" stroke-width="3"/>
<path d="M968.165 4761.2C975.486 4755.54 990.128 4737 990.128 4708.12C990.128 4679.24 975.486 4659.7 968.165 4653.55" stroke="black" stroke-width="3"/>
<path d="M1002.65 4761.11C995.325 4755.45 980.683 4736.91 980.683 4708.03C980.683 4679.14 995.325 4659.61 1002.65 4653.45" stroke="black" stroke-width="3"/>
<path d="M985.103 4665.72C987.27 4663.66 990.286 4658.31 985.015 4653.48C982.615 4655.57 979.272 4660.94 985.103 4665.72Z" stroke="black" stroke-width="3"/>
<path d="M968.166 4546.06C975.487 4551.72 990.129 4570.26 990.129 4599.14C990.129 4628.03 975.487 4647.56 968.166 4653.72" stroke="black" stroke-width="3"/>
<path d="M1002.65 4546.16C995.326 4551.82 980.684 4570.36 980.684 4599.24C980.684 4628.12 995.326 4647.65 1002.65 4653.81" stroke="black" stroke-width="3"/>
<path d="M985.104 4641.54C987.27 4643.61 990.286 4648.95 985.016 4653.78C982.616 4651.69 979.273 4646.32 985.104 4641.54Z" stroke="black" stroke-width="3"/>
<path d="M968.657 4976.27C975.979 4970.62 990.621 4952.08 990.621 4923.19C990.621 4894.31 975.979 4874.78 968.657 4868.62" stroke="black" stroke-width="3"/>
<path d="M1003.14 4976.18C995.818 4970.52 981.176 4951.98 981.176 4923.1C981.176 4894.22 995.818 4874.69 1003.14 4868.53" stroke="black" stroke-width="3"/>
<path d="M985.595 4880.8C987.762 4878.73 990.778 4873.39 985.508 4868.56C983.107 4870.65 979.765 4876.02 985.595 4880.8Z" stroke="black" stroke-width="3"/>
<path d="M968.657 4761.14C975.978 4766.8 990.621 4785.34 990.621 4814.22C990.621 4843.1 975.978 4862.64 968.657 4868.79" stroke="black" stroke-width="3"/>
<path d="M1003.14 4761.23C995.818 4766.89 981.175 4785.43 981.175 4814.31C981.175 4843.2 995.818 4862.73 1003.14 4868.89" stroke="black" stroke-width="3"/>
<path d="M985.595 4856.61C987.762 4858.68 990.778 4864.03 985.507 4868.86C983.107 4866.77 979.764 4861.4 985.595 4856.61Z" stroke="black" stroke-width="3"/>
<path d="M969.387 5835.72C976.709 5830.07 991.351 5811.53 991.351 5782.65C991.351 5753.76 976.709 5734.23 969.387 5728.07" stroke="black" stroke-width="3"/>
<path d="M1003.87 5835.63C996.548 5829.97 981.906 5811.43 981.906 5782.55C981.906 5753.67 996.548 5734.14 1003.87 5727.98" stroke="black" stroke-width="3"/>
<path d="M986.326 5740.25C988.493 5738.18 991.509 5732.84 986.238 5728.01C983.838 5730.1 980.495 5735.47 986.326 5740.25Z" stroke="black" stroke-width="3"/>
<path d="M969.388 5620.59C976.709 5626.25 991.352 5644.79 991.352 5673.67C991.352 5702.55 976.709 5722.09 969.388 5728.24" stroke="black" stroke-width="3"/>
<path d="M1003.87 5620.69C996.548 5626.34 981.906 5644.88 981.906 5673.76C981.906 5702.65 996.548 5722.18 1003.87 5728.34" stroke="black" stroke-width="3"/>
<path d="M986.326 5716.07C988.492 5718.13 991.508 5723.48 986.238 5728.31C983.838 5726.22 980.495 5720.85 986.326 5716.07Z" stroke="black" stroke-width="3"/>
<path d="M968.894 5405.97C976.216 5400.32 990.858 5381.78 990.858 5352.89C990.858 5324.01 976.216 5304.48 968.894 5298.32" stroke="black" stroke-width="3"/>
<path d="M1003.38 5405.88C996.055 5400.22 981.412 5381.68 981.412 5352.8C981.412 5323.92 996.055 5304.39 1003.38 5298.23" stroke="black" stroke-width="3"/>
<path d="M985.832 5310.5C987.999 5308.43 991.015 5303.09 985.745 5298.26C983.345 5300.35 980.002 5305.72 985.832 5310.5Z" stroke="black" stroke-width="3"/>
<path d="M968.895 5190.84C976.217 5196.5 990.859 5215.04 990.859 5243.92C990.859 5272.8 976.217 5292.34 968.895 5298.49" stroke="black" stroke-width="3"/>
<path d="M1003.38 5190.93C996.056 5196.59 981.413 5215.13 981.413 5244.01C981.413 5272.89 996.056 5292.43 1003.38 5298.59" stroke="black" stroke-width="3"/>
<path d="M985.834 5286.31C988 5288.38 991.016 5293.73 985.746 5298.56C983.346 5296.47 980.003 5291.1 985.834 5286.31Z" stroke="black" stroke-width="3"/>
<path d="M969.387 5621.05C976.709 5615.39 991.351 5596.85 991.351 5567.97C991.351 5539.09 976.709 5519.56 969.387 5513.4" stroke="black" stroke-width="3"/>
<path d="M1003.87 5620.96C996.548 5615.3 981.906 5596.76 981.906 5567.88C981.906 5539 996.548 5519.46 1003.87 5513.31" stroke="black" stroke-width="3"/>
<path d="M986.325 5525.58C988.492 5523.51 991.508 5518.16 986.238 5513.33C983.837 5515.42 980.494 5520.79 986.325 5525.58Z" stroke="black" stroke-width="3"/>
<path d="M969.387 5405.92C976.708 5411.58 991.351 5430.12 991.351 5459C991.351 5487.88 976.708 5507.41 969.387 5513.57" stroke="black" stroke-width="3"/>
<path d="M1003.87 5406.01C996.548 5411.67 981.905 5430.21 981.905 5459.09C981.905 5487.97 996.548 5507.51 1003.87 5513.66" stroke="black" stroke-width="3"/>
<path d="M986.325 5501.39C988.492 5503.46 991.508 5508.8 986.237 5513.63C983.837 5511.55 980.494 5506.17 986.325 5501.39Z" stroke="black" stroke-width="3"/>
<path d="M969.623 6050.75C976.944 6045.09 991.587 6026.55 991.587 5997.67C991.587 5968.79 976.944 5949.25 969.623 5943.1" stroke="black" stroke-width="3"/>
<path d="M1004.1 6050.66C996.784 6045 982.141 6026.46 982.141 5997.58C982.141 5968.7 996.784 5949.16 1004.1 5943" stroke="black" stroke-width="3"/>
<path d="M986.561 5955.28C988.728 5953.21 991.744 5947.86 986.474 5943.03C984.073 5945.12 980.73 5950.49 986.561 5955.28Z" stroke="black" stroke-width="3"/>
<path d="M969.624 5835.62C976.945 5841.28 991.588 5859.81 991.588 5888.7C991.588 5917.58 976.945 5937.11 969.624 5943.27" stroke="black" stroke-width="3"/>
<path d="M1004.11 5835.71C996.784 5841.37 982.142 5859.91 982.142 5888.79C982.142 5917.67 996.784 5937.2 1004.11 5943.36" stroke="black" stroke-width="3"/>
<path d="M986.562 5931.09C988.729 5933.16 991.745 5938.5 986.475 5943.33C984.074 5941.24 980.731 5935.87 986.562 5931.09Z" stroke="black" stroke-width="3"/>
<path d="M970.116 6265.83C977.437 6260.17 992.08 6241.63 992.08 6212.75C992.08 6183.86 977.437 6164.33 970.116 6158.17" stroke="black" stroke-width="3"/>
<path d="M1004.6 6265.73C997.277 6260.07 982.634 6241.53 982.634 6212.65C982.634 6183.77 997.277 6164.24 1004.6 6158.08" stroke="black" stroke-width="3"/>
<path d="M987.054 6170.35C989.221 6168.28 992.237 6162.94 986.967 6158.11C984.566 6160.2 981.223 6165.57 987.054 6170.35Z" stroke="black" stroke-width="3"/>
<path d="M970.116 6050.69C977.437 6056.35 992.08 6074.89 992.08 6103.77C992.08 6132.65 977.437 6152.19 970.116 6158.34" stroke="black" stroke-width="3"/>
<path d="M1004.6 6050.79C997.276 6056.44 982.634 6074.98 982.634 6103.87C982.634 6132.75 997.276 6152.28 1004.6 6158.44" stroke="black" stroke-width="3"/>
<path d="M987.054 6146.17C989.221 6148.23 992.237 6153.58 986.966 6158.41C984.566 6156.32 981.223 6150.95 987.054 6146.17Z" stroke="black" stroke-width="3"/>
<path d="M32.3638 1.99993C38.547 8.55692 58.8024 21.6709 90.3575 21.6709C121.913 21.6709 143.255 8.55692 149.982 1.99993" stroke="black" stroke-width="3"/>
<path d="M33.0929 32.1925C42.5749 23.4399 58.904 13.2114 90.4591 13.2114C122.014 13.2114 143.357 26.3254 150.083 32.8824" stroke="black" stroke-width="3"/>
<path d="M136.676 17.1701C138.936 19.1107 144.775 21.8118 150.053 17.0916C147.771 14.9419 141.902 11.9479 136.676 17.1701Z" stroke="black" stroke-width="3"/>
<path d="M267.413 1.99993C261.229 8.55692 240.974 21.6709 209.419 21.6709C177.864 21.6709 156.521 8.55692 149.794 1.99993" stroke="black" stroke-width="3"/>
<path d="M267.311 32.8824C261.128 26.3254 240.872 13.2114 209.317 13.2114C177.762 13.2114 156.42 26.3254 149.693 32.8824" stroke="black" stroke-width="3"/>
<path d="M163.1 17.1701C160.84 19.1107 155.001 21.8118 149.723 17.0916C152.005 14.9419 157.874 11.9479 163.1 17.1701Z" stroke="black" stroke-width="3"/>
<path d="M730.384 32.8824C736.568 26.3254 756.823 13.2114 788.378 13.2114C819.933 13.2114 841.276 26.3254 848.002 32.8824" stroke="black" stroke-width="3"/>
<path d="M731.114 2.68981C740.596 11.4424 756.925 21.6709 788.48 21.6709C820.035 21.6709 841.377 8.55692 848.104 1.99993" stroke="black" stroke-width="3"/>
<path d="M834.696 17.7123C836.957 15.7717 842.796 13.0705 848.073 17.7907C845.792 19.9404 839.922 22.9344 834.696 17.7123Z" stroke="black" stroke-width="3"/>
<path d="M847.815 33.3635C860.214 23.5168 875.16 13.2114 906.715 13.2114C938.27 13.2114 954.669 23.8815 966.704 33.7282" stroke="black" stroke-width="3"/>
<path d="M965.331 1.99993C959.148 8.55692 938.892 21.6709 907.337 21.6709C875.782 21.6709 854.44 8.55692 847.713 1.99993" stroke="black" stroke-width="3"/>
<path d="M861.121 17.7123C858.861 15.7717 853.021 13.0705 847.744 17.7907C850.026 19.9404 855.895 22.9344 861.121 17.7123Z" stroke="black" stroke-width="3"/>
<path d="M43 8627.5C50.476 8633.5 78.1221 8653.8 120.041 8653.8C161.96 8653.8 190.312 8636.33 199.249 8627.59" stroke="black" stroke-width="3"/>
<path d="M43.1354 8668.75C51.3495 8660.01 78.2575 8642.53 120.177 8642.53C162.096 8642.53 190.448 8660.01 199.384 8668.75" stroke="black" stroke-width="3"/>
<path d="M181.572 8647.81C184.575 8650.39 192.332 8653.99 199.343 8647.7C196.312 8644.84 188.515 8640.85 181.572 8647.81Z" stroke="black" stroke-width="3"/>
<path d="M355.248 8627.59C347.034 8636.33 320.126 8653.8 278.207 8653.8C236.288 8653.8 207.936 8636.33 199 8627.59" stroke="black" stroke-width="3"/>
<path d="M355.113 8668.75C346.899 8660.01 319.991 8642.53 278.072 8642.53C236.153 8642.53 207.8 8660.01 198.864 8668.75" stroke="black" stroke-width="3"/>
<path d="M216.676 8647.81C213.673 8650.39 205.916 8653.99 198.905 8647.7C201.936 8644.84 209.733 8640.85 216.676 8647.81Z" stroke="black" stroke-width="3"/>
<path d="M666.751 8627C674.965 8635.74 701.873 8653.22 743.792 8653.22C785.711 8653.22 814.063 8635.74 823 8627" stroke="black" stroke-width="3"/>
<path d="M666.886 8668.16C675.101 8659.42 702.009 8641.94 743.928 8641.94C785.847 8641.94 814.199 8659.42 823.135 8668.16" stroke="black" stroke-width="3"/>
<path d="M805.323 8647.22C808.326 8649.8 816.083 8653.4 823.094 8647.11C820.063 8644.25 812.266 8640.26 805.323 8647.22Z" stroke="black" stroke-width="3"/>
<path d="M975.042 8630.78C957.5 8646.5 941.919 8655 900 8655C858.081 8655 831.687 8635.74 822.751 8627" stroke="black" stroke-width="3"/>
<path d="M978.864 8668.16C970.65 8659.42 943.742 8641.94 901.823 8641.94C859.904 8641.94 831.552 8659.42 822.616 8668.16" stroke="black" stroke-width="3"/>
<path d="M840.427 8647.22C837.425 8649.8 829.668 8653.4 822.657 8647.11C825.688 8644.25 833.485 8640.26 840.427 8647.22Z" stroke="black" stroke-width="3"/>
<path d="M354.583 8627.59C362.797 8636.33 389.705 8653.8 431.624 8653.8C473.543 8653.8 501.896 8636.33 510.832 8627.59" stroke="black" stroke-width="3"/>
<path d="M354.719 8668.75C362.933 8660.01 389.841 8642.53 431.76 8642.53C473.679 8642.53 502.031 8660.01 510.967 8668.75" stroke="black" stroke-width="3"/>
<path d="M493.156 8647.81C496.158 8650.39 503.915 8653.99 510.926 8647.7C507.895 8644.84 500.098 8640.85 493.156 8647.81Z" stroke="black" stroke-width="3"/>
<path d="M666.832 8627.59C658.618 8636.33 631.71 8653.8 589.791 8653.8C547.872 8653.8 519.52 8636.33 510.583 8627.59" stroke="black" stroke-width="3"/>
<path d="M666.697 8668.75C658.482 8660.01 631.574 8642.53 589.655 8642.53C547.736 8642.53 519.384 8660.01 510.448 8668.75" stroke="black" stroke-width="3"/>
<path d="M528.26 8647.81C525.257 8650.39 517.5 8653.99 510.489 8647.7C513.52 8644.84 521.317 8640.85 528.26 8647.81Z" stroke="black" stroke-width="3"/>
</svg>
