<svg width="127" height="112" viewBox="0 0 127 112" fill="none" xmlns="http://www.w3.org/2000/svg">
<rect x="1" y="1" width="125" height="110" stroke="black" stroke-width="2"/>
<path d="M31.0734 45.72L28.5534 45.57V45H37.7934V45.57L35.3034 45.72V54.84H38.3634C38.8634 54.68 39.2934 54.4 39.6534 54C40.0134 53.6 40.2934 53.1 40.4934 52.5C40.7134 51.9 40.8734 51.39 40.9734 50.97C41.0734 50.55 41.1734 50.01 41.2734 49.35C41.4734 48.33 41.6134 47.66 41.6934 47.34C41.8534 46.74 42.0534 46.28 42.2934 45.96C42.8134 45.18 43.9434 44.79 45.6834 44.79C45.7634 44.79 45.8834 44.8 46.0434 44.82C46.2234 44.82 46.3534 44.83 46.4334 44.85L47.1534 44.94C47.2534 45.1 47.3334 45.36 47.3934 45.72C47.4334 46.24 47.4534 46.61 47.4534 46.83C47.4534 47.17 47.4434 47.41 47.4234 47.55C47.3834 47.79 47.3234 47.98 47.2434 48.12C47.1234 48.1 46.9234 48.09 46.6434 48.09H45.3834C45.1234 48.09 44.9234 48.1 44.7834 48.12C44.2434 48.16 43.8634 48.2 43.6434 48.24C43.3434 48.32 43.0834 48.44 42.8634 48.6C42.4434 48.96 42.1334 49.54 41.9334 50.34C41.4334 52.66 40.6934 54.16 39.7134 54.84V54.99C40.8134 55.17 41.6434 55.58 42.2034 56.22C42.7834 56.84 43.2934 57.74 43.7334 58.92L44.8734 61.83C45.3934 63.15 45.8534 64.08 46.2534 64.62C46.6734 65.2 47.1734 65.49 47.7534 65.49C48.0334 65.49 48.2034 65.48 48.2634 65.46L48.4434 65.97C48.2634 66.05 48.0334 66.12 47.7534 66.18C46.8734 66.3 46.2334 66.36 45.8334 66.36C44.3534 66.36 43.2034 65.98 42.3834 65.22C41.5834 64.46 40.9034 63.33 40.3434 61.83C39.7034 60.07 39.2334 58.74 38.9334 57.84C38.5334 56.58 38.2834 55.81 38.1834 55.53C38.0434 55.55 37.8434 55.56 37.5834 55.56H35.3034V65.28L37.7934 65.43V66H28.5534V65.43L31.0734 65.28V55.56H28.7934C28.5334 55.56 28.3334 55.55 28.1934 55.53C28.0934 55.81 27.8434 56.58 27.4434 57.84C27.1434 58.74 26.6734 60.07 26.0334 61.83C25.1734 64.19 23.9734 65.62 22.4334 66.12C21.8334 66.28 21.1934 66.36 20.5134 66.36C20.1134 66.36 19.4734 66.3 18.5934 66.18C18.3134 66.12 18.0934 66.05 17.9334 65.97V65.4C18.1134 65.46 18.3434 65.49 18.6234 65.49C19.2034 65.49 19.7034 65.2 20.1234 64.62C20.5234 64.08 20.9834 63.15 21.5034 61.83L22.6434 58.92C23.1034 57.74 23.6134 56.84 24.1734 56.22C24.7534 55.58 25.5834 55.17 26.6634 54.99V54.84C25.7234 54.18 24.9734 52.68 24.4134 50.34C24.2934 49.9 24.1734 49.54 24.0534 49.26C23.8934 48.98 23.7234 48.76 23.5434 48.6C23.3434 48.46 23.0834 48.34 22.7634 48.24C22.5234 48.2 22.1334 48.16 21.5934 48.12C21.4534 48.1 21.2634 48.09 21.0234 48.09H19.7334C19.4534 48.09 19.2534 48.1 19.1334 48.12C18.9934 47.9 18.9234 47.47 18.9234 46.83C18.9234 46.49 18.9534 46.12 19.0134 45.72C19.0334 45.38 19.1034 45.12 19.2234 44.94C19.3634 44.92 19.5934 44.89 19.9134 44.85C19.9934 44.83 20.1134 44.82 20.2734 44.82C20.4534 44.8 20.5834 44.79 20.6634 44.79H20.9334C22.4534 44.79 23.5134 45.18 24.1134 45.96C24.3334 46.3 24.5234 46.76 24.6834 47.34C24.7634 47.66 24.9034 48.33 25.1034 49.35C25.2634 50.25 25.4234 50.98 25.5834 51.54C25.7234 52.14 25.9234 52.68 26.1834 53.16C26.5834 54.02 27.1934 54.58 28.0134 54.84H31.0734V45.72ZM59.2352 44.7C62.4752 44.7 65.0752 45.63 67.0352 47.49C69.0152 49.35 70.0052 51.85 70.0052 54.99C70.0052 58.47 69.0552 61.23 67.1552 63.27C65.2552 65.29 62.6152 66.3 59.2352 66.3C55.8552 66.3 53.1952 65.37 51.2552 63.51C49.3152 61.65 48.3452 59.07 48.3452 55.77C48.3452 52.53 49.3652 49.88 51.4052 47.82C53.4452 45.74 56.0552 44.7 59.2352 44.7ZM59.3552 65.58C60.2552 65.58 61.0452 65.43 61.7252 65.13C62.4252 64.83 62.9852 64.4 63.4052 63.84C63.8452 63.26 64.2052 62.65 64.4852 62.01C64.7852 61.35 64.9952 60.6 65.1152 59.76C65.2552 58.9 65.3452 58.13 65.3852 57.45C65.4452 56.77 65.4752 56.02 65.4752 55.2C65.4752 54.16 65.4352 53.23 65.3552 52.41C65.2752 51.57 65.1052 50.7 64.8452 49.8C64.5852 48.9 64.2252 48.15 63.7652 47.55C63.3252 46.95 62.7052 46.45 61.9052 46.05C61.1252 45.65 60.2052 45.45 59.1452 45.45C58.0452 45.45 57.0952 45.67 56.2952 46.11C55.4952 46.53 54.8752 47.05 54.4352 47.67C53.9952 48.29 53.6452 49.08 53.3852 50.04C53.1452 51 52.9852 51.88 52.9052 52.68C52.8452 53.48 52.8152 54.4 52.8152 55.44C52.8152 62.2 54.9952 65.58 59.3552 65.58ZM71.6055 45H94.1955V45.57L91.7355 45.72V65.28L94.1955 65.43V66H84.9555V65.43L87.4755 65.28V45.75H78.3555V65.28L80.8455 65.43V66H71.6055V65.43L74.1255 65.28V45.72L71.6055 45.57V45ZM109.176 65.28L107.076 58.98H99.3656L97.5056 64.26L101.166 65.43V66H94.3256V65.43L96.6056 64.26L103.596 44.97H104.646C105.446 44.97 106.086 44.91 106.566 44.79L113.646 65.34L115.596 65.43V66H106.386V65.43L109.176 65.28ZM103.356 47.73L99.6356 58.23H106.836L103.356 47.73Z" fill="black"/>
</svg>
