<svg width="445" height="171" viewBox="0 0 445 171" fill="none" xmlns="http://www.w3.org/2000/svg">
<path d="M1.59328 85.5107C1.39103 85.5125 1.19315 85.5089 1 85.5C1.19943 85.5 1.39719 85.5036 1.59328 85.5107C9.35361 85.4413 23.5444 77.3176 23.7826 45.0469C23.7685 44.2477 23.7668 43.4801 23.7763 42.75C23.7862 43.5289 23.7882 44.2945 23.7826 45.0469C24.0446 59.8458 28.5758 85.5 45.4415 85.5C38.0346 85.5 23.2208 94.05 23.2208 128.25C23.2208 114.16 18.8758 86.1377 1.59328 85.5107Z" fill="black"/>
<path d="M23.7763 42.75C24.2207 77.805 8.77727 85.8563 1 85.5C18.7766 85.5 23.2208 114 23.2208 128.25M23.7763 42.75V0M23.7763 42.75C23.5911 57 27.6649 85.5 45.4415 85.5C38.0346 85.5 23.2208 94.05 23.2208 128.25M23.2208 128.25V171" stroke="black"/>
<path d="M401.152 85.5107C400.95 85.5125 400.752 85.5089 400.559 85.5C400.758 85.5 400.956 85.5036 401.152 85.5107C408.912 85.4413 423.103 77.3176 423.341 45.0469C423.327 44.2477 423.325 43.4801 423.335 42.75C423.345 43.5289 423.347 44.2945 423.341 45.0469C423.603 59.8458 428.134 85.5 445 85.5C437.593 85.5 422.779 94.05 422.779 128.25C422.779 114.16 418.434 86.1377 401.152 85.5107Z" fill="black"/>
<path d="M423.335 42.75C423.779 77.805 408.336 85.8563 400.559 85.5C418.335 85.5 422.779 114 422.779 128.25M423.335 42.75V0M423.335 42.75C423.15 57 427.224 85.5 445 85.5C437.593 85.5 422.779 94.05 422.779 128.25M422.779 128.25V171" stroke="black"/>
</svg>
