<svg width="45" height="171" viewBox="0 0 45 171" fill="none" xmlns="http://www.w3.org/2000/svg">
<path d="M1.15187 85.5107C0.949625 85.5125 0.751745 85.5089 0.558594 85.5C0.758023 85.5 0.955786 85.5036 1.15187 85.5107C8.91221 85.4413 23.103 77.3176 23.3412 45.0469C23.3271 44.2477 23.3254 43.4801 23.3349 42.75C23.3448 43.5289 23.3468 44.2945 23.3412 45.0469C23.6032 59.8458 28.1344 85.5 45.0001 85.5C37.5932 85.5 22.7794 94.05 22.7794 128.25C22.7794 114.16 18.4344 86.1377 1.15187 85.5107Z" fill="black"/>
<path d="M23.3349 42.75C23.7793 77.805 8.33586 85.8563 0.558594 85.5C18.3352 85.5 22.7794 114 22.7794 128.25M23.3349 42.75V0M23.3349 42.75C23.1497 57 27.2235 85.5 45.0001 85.5C37.5932 85.5 22.7794 94.05 22.7794 128.25M22.7794 128.25V171" stroke="black"/>
</svg>
