<svg width="220" height="8713" viewBox="0 0 220 8713" fill="none" xmlns="http://www.w3.org/2000/svg">
<g opacity="0.05">
<path d="M69.6723 209.488L116.381 278.415L157.519 221.177L122.809 207.472V201.023H202.943V207.472L169.09 221.177L121.095 285.268L199.086 398.535L219.227 400.551V407H123.238V400.551L152.377 398.535L97.0978 317.515L46.1035 387.249L84.2421 400.551V407H1.1084V400.551L34.5333 387.249L92.3841 311.065L23.3917 209.488L2.8225 207.472V201.023H92.3841V207.472L69.6723 209.488Z" fill="black"/>
<path d="M69.6723 615.446L116.381 684.04L157.519 627.079L122.809 613.441V607.023H202.943V613.441L169.09 627.079L121.095 690.859L199.086 803.576L219.227 805.582V812H123.238V805.582L152.377 803.576L97.0978 722.949L46.1035 792.345L84.2421 805.582V812H1.1084V805.582L34.5333 792.345L92.3841 716.531L23.3917 615.446L2.8225 613.441V607.023H92.3841V613.441L69.6723 615.446Z" fill="black"/>
<path d="M69.6723 1020.49L116.381 1089.42L157.519 1032.18L122.809 1018.47V1012.02H202.943V1018.47L169.09 1032.18L121.095 1096.27L199.086 1209.54L219.227 1211.55V1218H123.238V1211.55L152.377 1209.54L97.0978 1128.51L46.1035 1198.25L84.2421 1211.55V1218H1.1084V1211.55L34.5333 1198.25L92.3841 1122.07L23.3917 1020.49L2.8225 1018.47V1012.02H92.3841V1018.47L69.6723 1020.49Z" fill="black"/>
<path d="M69.6723 1426.45L116.381 1495.04L157.519 1438.08L122.809 1424.44V1418.02H202.943V1424.44L169.09 1438.08L121.095 1501.86L199.086 1614.58L219.227 1616.58V1623H123.238V1616.58L152.377 1614.58L97.0978 1533.95L46.1035 1603.34L84.2421 1616.58V1623H1.1084V1616.58L34.5333 1603.34L92.3841 1527.53L23.3917 1426.45L2.8225 1424.44V1418.02H92.3841V1424.44L69.6723 1426.45Z" fill="black"/>
<path d="M69.6723 1831.49L116.381 1900.42L157.519 1843.18L122.809 1829.47V1823.02H202.943V1829.47L169.09 1843.18L121.095 1907.27L199.086 2020.54L219.227 2022.55V2029H123.238V2022.55L152.377 2020.54L97.0978 1939.51L46.1035 2009.25L84.2421 2022.55V2029H1.1084V2022.55L34.5333 2009.25L92.3841 1933.07L23.3917 1831.49L2.8225 1829.47V1823.02H92.3841V1829.47L69.6723 1831.49Z" fill="black"/>
<path d="M69.6723 2237.49L116.381 2306.42L157.519 2249.18L122.809 2235.47V2229.02H202.943V2235.47L169.09 2249.18L121.095 2313.27L199.086 2426.54L219.227 2428.55V2435H123.238V2428.55L152.377 2426.54L97.0978 2345.51L46.1035 2415.25L84.2421 2428.55V2435H1.1084V2428.55L34.5333 2415.25L92.3841 2339.07L23.3917 2237.49L2.8225 2235.47V2229.02H92.3841V2235.47L69.6723 2237.49Z" fill="black"/>
<path d="M69.6723 2643.49L116.381 2712.42L157.519 2655.18L122.809 2641.47V2635.02H202.943V2641.47L169.09 2655.18L121.095 2719.27L199.086 2832.54L219.227 2834.55V2841H123.238V2834.55L152.377 2832.54L97.0978 2751.51L46.1035 2821.25L84.2421 2834.55V2841H1.1084V2834.55L34.5333 2821.25L92.3841 2745.07L23.3917 2643.49L2.8225 2641.47V2635.02H92.3841V2641.47L69.6723 2643.49Z" fill="black"/>
<path d="M69.6723 3048.49L116.381 3117.42L157.519 3060.18L122.809 3046.47V3040.02H202.943V3046.47L169.09 3060.18L121.095 3124.27L199.086 3237.54L219.227 3239.55V3246H123.238V3239.55L152.377 3237.54L97.0978 3156.51L46.1035 3226.25L84.2421 3239.55V3246H1.1084V3239.55L34.5333 3226.25L92.3841 3150.07L23.3917 3048.49L2.8225 3046.47V3040.02H92.3841V3046.47L69.6723 3048.49Z" fill="black"/>
<path d="M69.6723 3454.49L116.381 3523.42L157.519 3466.18L122.809 3452.47V3446.02H202.943V3452.47L169.09 3466.18L121.095 3530.27L199.086 3643.54L219.227 3645.55V3652H123.238V3645.55L152.377 3643.54L97.0978 3562.51L46.1035 3632.25L84.2421 3645.55V3652H1.1084V3645.55L34.5333 3632.25L92.3841 3556.07L23.3917 3454.49L2.8225 3452.47V3446.02H92.3841V3452.47L69.6723 3454.49Z" fill="black"/>
<path d="M69.6723 3859.49L116.381 3928.42L157.519 3871.18L122.809 3857.47V3851.02H202.943V3857.47L169.09 3871.18L121.095 3935.27L199.086 4048.54L219.227 4050.55V4057H123.238V4050.55L152.377 4048.54L97.0978 3967.51L46.1035 4037.25L84.2421 4050.55V4057H1.1084V4050.55L34.5333 4037.25L92.3841 3961.07L23.3917 3859.49L2.8225 3857.47V3851.02H92.3841V3857.47L69.6723 3859.49Z" fill="black"/>
<path d="M69.6723 4265.49L116.381 4334.42L157.519 4277.18L122.809 4263.47V4257.02H202.943V4263.47L169.09 4277.18L121.095 4341.27L199.086 4454.54L219.227 4456.55V4463H123.238V4456.55L152.377 4454.54L97.0978 4373.51L46.1035 4443.25L84.2421 4456.55V4463H1.1084V4456.55L34.5333 4443.25L92.3841 4367.07L23.3917 4265.49L2.8225 4263.47V4257.02H92.3841V4263.47L69.6723 4265.49Z" fill="black"/>
<path d="M69.6723 4671.49L116.381 4740.42L157.519 4683.18L122.809 4669.47V4663.02H202.943V4669.47L169.09 4683.18L121.095 4747.27L199.086 4860.54L219.227 4862.55V4869H123.238V4862.55L152.377 4860.54L97.0978 4779.51L46.1035 4849.25L84.2421 4862.55V4869H1.1084V4862.55L34.5333 4849.25L92.3841 4773.07L23.3917 4671.49L2.8225 4669.47V4663.02H92.3841V4669.47L69.6723 4671.49Z" fill="black"/>
<path d="M69.6723 5077.45L116.381 5146.04L157.519 5089.08L122.809 5075.44V5069.02H202.943V5075.44L169.09 5089.08L121.095 5152.86L199.086 5265.58L219.227 5267.58V5274H123.238V5267.58L152.377 5265.58L97.0978 5184.95L46.1035 5254.34L84.2421 5267.58V5274H1.1084V5267.58L34.5333 5254.34L92.3841 5178.53L23.3917 5077.45L2.8225 5075.44V5069.02H92.3841V5075.44L69.6723 5077.45Z" fill="black"/>
<path d="M69.6723 5482.49L116.381 5551.42L157.519 5494.18L122.809 5480.47V5474.02H202.943V5480.47L169.09 5494.18L121.095 5558.27L199.086 5671.54L219.227 5673.55V5680H123.238V5673.55L152.377 5671.54L97.0978 5590.51L46.1035 5660.25L84.2421 5673.55V5680H1.1084V5673.55L34.5333 5660.25L92.3841 5584.07L23.3917 5482.49L2.8225 5480.47V5474.02H92.3841V5480.47L69.6723 5482.49Z" fill="black"/>
<path d="M69.6723 5888.45L116.381 5957.04L157.519 5900.08L122.809 5886.44V5880.02H202.943V5886.44L169.09 5900.08L121.095 5963.86L199.086 6076.58L219.227 6078.58V6085H123.238V6078.58L152.377 6076.58L97.0978 5995.95L46.1035 6065.34L84.2421 6078.58V6085H1.1084V6078.58L34.5333 6065.34L92.3841 5989.53L23.3917 5888.45L2.8225 5886.44V5880.02H92.3841V5886.44L69.6723 5888.45Z" fill="black"/>
<path d="M69.6723 6293.49L116.381 6362.42L157.519 6305.18L122.809 6291.47V6285.02H202.943V6291.47L169.09 6305.18L121.095 6369.27L199.086 6482.54L219.227 6484.55V6491H123.238V6484.55L152.377 6482.54L97.0978 6401.51L46.1035 6471.25L84.2421 6484.55V6491H1.1084V6484.55L34.5333 6471.25L92.3841 6395.07L23.3917 6293.49L2.8225 6291.47V6285.02H92.3841V6291.47L69.6723 6293.49Z" fill="black"/>
<path d="M69.6723 6699.45L116.381 6768.04L157.519 6711.08L122.809 6697.44V6691.02H202.943V6697.44L169.09 6711.08L121.095 6774.86L199.086 6887.58L219.227 6889.58V6896H123.238V6889.58L152.377 6887.58L97.0978 6806.95L46.1035 6876.34L84.2421 6889.58V6896H1.1084V6889.58L34.5333 6876.34L92.3841 6800.53L23.3917 6699.45L2.8225 6697.44V6691.02H92.3841V6697.44L69.6723 6699.45Z" fill="black"/>
<path d="M69.6723 7105.49L116.381 7174.42L157.519 7117.18L122.809 7103.47V7097.02H202.943V7103.47L169.09 7117.18L121.095 7181.27L199.086 7294.54L219.227 7296.55V7303H123.238V7296.55L152.377 7294.54L97.0978 7213.51L46.1035 7283.25L84.2421 7296.55V7303H1.1084V7296.55L34.5333 7283.25L92.3841 7207.07L23.3917 7105.49L2.8225 7103.47V7097.02H92.3841V7103.47L69.6723 7105.49Z" fill="black"/>
<path d="M69.6723 7510.49L116.381 7579.42L157.519 7522.18L122.809 7508.47V7502.02H202.943V7508.47L169.09 7522.18L121.095 7586.27L199.086 7699.54L219.227 7701.55V7708H123.238V7701.55L152.377 7699.54L97.0978 7618.51L46.1035 7688.25L84.2421 7701.55V7708H1.1084V7701.55L34.5333 7688.25L92.3841 7612.07L23.3917 7510.49L2.8225 7508.47V7502.02H92.3841V7508.47L69.6723 7510.49Z" fill="black"/>
<path d="M69.6723 7916.49L116.381 7985.42L157.519 7928.18L122.809 7914.47V7908.02H202.943V7914.47L169.09 7928.18L121.095 7992.27L199.086 8105.54L219.227 8107.55V8114H123.238V8107.55L152.377 8105.54L97.0978 8024.51L46.1035 8094.25L84.2421 8107.55V8114H1.1084V8107.55L34.5333 8094.25L92.3841 8018.07L23.3917 7916.49L2.8225 7914.47V7908.02H92.3841V7914.47L69.6723 7916.49Z" fill="black"/>
<path d="M69.6723 8315.49L116.381 8384.42L157.519 8327.18L122.809 8313.47V8307.02H202.943V8313.47L169.09 8327.18L121.095 8391.27L199.086 8504.54L219.227 8506.55V8513H123.238V8506.55L152.377 8504.54L97.0978 8423.51L46.1035 8493.25L84.2421 8506.55V8513H1.1084V8506.55L34.5333 8493.25L92.3841 8417.07L23.3917 8315.49L2.8225 8313.47V8307.02H92.3841V8313.47L69.6723 8315.49Z" fill="black"/>
<path d="M68.841 604.534L115.739 535.599L157.043 592.843L122.192 606.55V613H202.65V606.55L168.66 592.843L120.471 528.746L198.778 415.466L219 413.45V407H122.623V413.45L151.88 415.466L96.3773 496.495L45.1769 426.753L83.4697 413.45V407H0V413.45L33.56 426.753L91.6445 502.945L22.3733 604.534L1.72103 606.55V613H91.6445V606.55L68.841 604.534Z" fill="black"/>
<path d="M68.841 1009.53L115.739 940.599L157.043 997.843L122.192 1011.55V1018H202.65V1011.55L168.66 997.843L120.471 933.746L198.778 820.466L219 818.45V812H122.623V818.45L151.88 820.466L96.3773 901.495L45.1769 831.753L83.4697 818.45V812H0V818.45L33.56 831.753L91.6445 907.945L22.3733 1009.53L1.72103 1011.55V1018H91.6445V1011.55L68.841 1009.53Z" fill="black"/>
<path d="M68.841 1415.53L115.739 1346.6L157.043 1403.84L122.192 1417.55V1424H202.65V1417.55L168.66 1403.84L120.471 1339.75L198.778 1226.47L219 1224.45V1218H122.623V1224.45L151.88 1226.47L96.3773 1307.5L45.1769 1237.75L83.4697 1224.45V1218H0V1224.45L33.56 1237.75L91.6445 1313.95L22.3733 1415.53L1.72103 1417.55V1424H91.6445V1417.55L68.841 1415.53Z" fill="black"/>
<path d="M68.841 1820.53L115.739 1751.6L157.043 1808.84L122.192 1822.55V1829H202.65V1822.55L168.66 1808.84L120.471 1744.75L198.778 1631.47L219 1629.45V1623H122.623V1629.45L151.88 1631.47L96.3773 1712.5L45.1769 1642.75L83.4697 1629.45V1623H0V1629.45L33.56 1642.75L91.6445 1718.95L22.3733 1820.53L1.72103 1822.55V1829H91.6445V1822.55L68.841 1820.53Z" fill="black"/>
<path d="M68.841 2226.53L115.739 2157.6L157.043 2214.84L122.192 2228.55V2235H202.65V2228.55L168.66 2214.84L120.471 2150.75L198.778 2037.47L219 2035.45V2029H122.623V2035.45L151.88 2037.47L96.3773 2118.5L45.1769 2048.75L83.4697 2035.45V2029H0V2035.45L33.56 2048.75L91.6445 2124.95L22.3733 2226.53L1.72103 2228.55V2235H91.6445V2228.55L68.841 2226.53Z" fill="black"/>
<path d="M68.841 2632.53L115.739 2563.6L157.043 2620.84L122.192 2634.55V2641H202.65V2634.55L168.66 2620.84L120.471 2556.75L198.778 2443.47L219 2441.45V2435H122.623V2441.45L151.88 2443.47L96.3773 2524.5L45.1769 2454.75L83.4697 2441.45V2435H0V2441.45L33.56 2454.75L91.6445 2530.95L22.3733 2632.53L1.72103 2634.55V2641H91.6445V2634.55L68.841 2632.53Z" fill="black"/>
<path d="M68.841 3037.58L115.739 2968.97L157.043 3025.94L122.192 3039.58V3046H202.65V3039.58L168.66 3025.94L120.471 2962.15L198.778 2849.42L219 2847.42V2841H122.623V2847.42L151.88 2849.42L96.3773 2930.06L45.1769 2860.66L83.4697 2847.42V2841H0V2847.42L33.56 2860.66L91.6445 2936.48L22.3733 3037.58L1.72103 3039.58V3046H91.6445V3039.58L68.841 3037.58Z" fill="black"/>
<path d="M68.841 3443.53L115.739 3374.6L157.043 3431.84L122.192 3445.55V3452H202.65V3445.55L168.66 3431.84L120.471 3367.75L198.778 3254.47L219 3252.45V3246H122.623V3252.45L151.88 3254.47L96.3773 3335.5L45.1769 3265.75L83.4697 3252.45V3246H0V3252.45L33.56 3265.75L91.6445 3341.95L22.3733 3443.53L1.72103 3445.55V3452H91.6445V3445.55L68.841 3443.53Z" fill="black"/>
<path d="M68.841 3848.58L115.739 3779.97L157.043 3836.94L122.192 3850.58V3857H202.65V3850.58L168.66 3836.94L120.471 3773.15L198.778 3660.42L219 3658.42V3652H122.623V3658.42L151.88 3660.42L96.3773 3741.06L45.1769 3671.66L83.4697 3658.42V3652H0V3658.42L33.56 3671.66L91.6445 3747.48L22.3733 3848.58L1.72103 3850.58V3857H91.6445V3850.58L68.841 3848.58Z" fill="black"/>
<path d="M68.841 4254.53L115.739 4185.6L157.043 4242.84L122.192 4256.55V4263H202.65V4256.55L168.66 4242.84L120.471 4178.75L198.778 4065.47L219 4063.45V4057H122.623V4063.45L151.88 4065.47L96.3773 4146.5L45.1769 4076.75L83.4697 4063.45V4057H0V4063.45L33.56 4076.75L91.6445 4152.95L22.3733 4254.53L1.72103 4256.55V4263H91.6445V4256.55L68.841 4254.53Z" fill="black"/>
<path d="M68.841 4659.58L115.739 4590.97L157.043 4647.94L122.192 4661.58V4668H202.65V4661.58L168.66 4647.94L120.471 4584.15L198.778 4471.42L219 4469.42V4463H122.623V4469.42L151.88 4471.42L96.3773 4552.06L45.1769 4482.66L83.4697 4469.42V4463H0V4469.42L33.56 4482.66L91.6445 4558.48L22.3733 4659.58L1.72103 4661.58V4668H91.6445V4661.58L68.841 4659.58Z" fill="black"/>
<path d="M68.841 5065.58L115.739 4996.97L157.043 5053.94L122.192 5067.58V5074H202.65V5067.58L168.66 5053.94L120.471 4990.15L198.778 4877.42L219 4875.42V4869H122.623V4875.42L151.88 4877.42L96.3773 4958.06L45.1769 4888.66L83.4697 4875.42V4869H0V4875.42L33.56 4888.66L91.6445 4964.48L22.3733 5065.58L1.72103 5067.58V5074H91.6445V5067.58L68.841 5065.58Z" fill="black"/>
<path d="M68.841 5471.53L115.739 5402.6L157.043 5459.84L122.192 5473.55V5480H202.65V5473.55L168.66 5459.84L120.471 5395.75L198.778 5282.47L219 5280.45V5274H122.623V5280.45L151.88 5282.47L96.3773 5363.5L45.1769 5293.75L83.4697 5280.45V5274H0V5280.45L33.56 5293.75L91.6445 5369.95L22.3733 5471.53L1.72103 5473.55V5480H91.6445V5473.55L68.841 5471.53Z" fill="black"/>
<path d="M68.841 5877.53L115.739 5808.6L157.043 5865.84L122.192 5879.55V5886H202.65V5879.55L168.66 5865.84L120.471 5801.75L198.778 5688.47L219 5686.45V5680H122.623V5686.45L151.88 5688.47L96.3773 5769.5L45.1769 5699.75L83.4697 5686.45V5680H0V5686.45L33.56 5699.75L91.6445 5775.95L22.3733 5877.53L1.72103 5879.55V5886H91.6445V5879.55L68.841 5877.53Z" fill="black"/>
<path d="M68.841 6283.49L115.739 6214.22L157.043 6271.75L122.192 6285.52V6292H202.65V6285.52L168.66 6271.75L120.471 6207.34L198.778 6093.51L219 6091.48V6085H122.623V6091.48L151.88 6093.51L96.3773 6174.93L45.1769 6104.85L83.4697 6091.48V6085H0V6091.48L33.56 6104.85L91.6445 6181.41L22.3733 6283.49L1.72103 6285.52V6292H91.6445V6285.52L68.841 6283.49Z" fill="black"/>
<path d="M68.841 6688.53L115.739 6619.6L157.043 6676.84L122.192 6690.55V6697H202.65V6690.55L168.66 6676.84L120.471 6612.75L198.778 6499.47L219 6497.45V6491H122.623V6497.45L151.88 6499.47L96.3773 6580.5L45.1769 6510.75L83.4697 6497.45V6491H0V6497.45L33.56 6510.75L91.6445 6586.95L22.3733 6688.53L1.72103 6690.55V6697H91.6445V6690.55L68.841 6688.53Z" fill="black"/>
<path d="M68.841 7094.49L115.739 7025.22L157.043 7082.75L122.192 7096.52V7103H202.65V7096.52L168.66 7082.75L120.471 7018.34L198.778 6904.51L219 6902.48V6896H122.623V6902.48L151.88 6904.51L96.3773 6985.93L45.1769 6915.85L83.4697 6902.48V6896H0V6902.48L33.56 6915.85L91.6445 6992.41L22.3733 7094.49L1.72103 7096.52V7103H91.6445V7096.52L68.841 7094.49Z" fill="black"/>
<path d="M68.841 7499.58L115.739 7430.97L157.043 7487.94L122.192 7501.58V7508H202.65V7501.58L168.66 7487.94L120.471 7424.15L198.778 7311.42L219 7309.42V7303H122.623V7309.42L151.88 7311.42L96.3773 7392.06L45.1769 7322.66L83.4697 7309.42V7303H0V7309.42L33.56 7322.66L91.6445 7398.48L22.3733 7499.58L1.72103 7501.58V7508H91.6445V7501.58L68.841 7499.58Z" fill="black"/>
<path d="M68.841 7905.53L115.739 7836.6L157.043 7893.84L122.192 7907.55V7914H202.65V7907.55L168.66 7893.84L120.471 7829.75L198.778 7716.47L219 7714.45V7708H122.623V7714.45L151.88 7716.47L96.3773 7797.5L45.1769 7727.75L83.4697 7714.45V7708H0V7714.45L33.56 7727.75L91.6445 7803.95L22.3733 7905.53L1.72103 7907.55V7914H91.6445V7907.55L68.841 7905.53Z" fill="black"/>
<path d="M68.841 8304.58L115.739 8235.97L157.043 8292.94L122.192 8306.58V8313H202.65V8306.58L168.66 8292.94L120.471 8229.15L198.778 8116.42L219 8114.42V8108H122.623V8114.42L151.88 8116.42L96.3773 8197.06L45.1769 8127.66L83.4697 8114.42V8108H0V8114.42L33.56 8127.66L91.6445 8203.48L22.3733 8304.58L1.72103 8306.58V8313H91.6445V8306.58L68.841 8304.58Z" fill="black"/>
<path d="M68.841 8704.53L115.739 8635.6L157.043 8692.84L122.192 8706.55V8713H202.65V8706.55L168.66 8692.84L120.471 8628.75L198.778 8515.47L219 8513.45V8507H122.623V8513.45L151.88 8515.47L96.3773 8596.5L45.1769 8526.75L83.4697 8513.45V8507H0V8513.45L33.56 8526.75L91.6445 8602.95L22.3733 8704.53L1.72103 8706.55V8713H91.6445V8706.55L68.841 8704.53Z" fill="black"/>
<path d="M69.841 197.575L116.739 128.975L158.043 185.941L123.192 199.581V206H203.65V199.581L169.66 185.941L121.471 122.155L199.778 9.42466L220 7.41879V1H123.623V7.41879L152.88 9.42466L97.3773 90.0607L46.1769 20.6575L84.4697 7.41879V1H1V7.41879L34.56 20.6575L92.6445 96.4794L23.3733 197.575L2.72103 199.581V206H92.6445V199.581L69.841 197.575Z" fill="black"/>
</g>
</svg>
